<svg width="14" height="11" viewBox="0 0 14 11" fill="none" xmlns="http://www.w3.org/2000/svg">
<path d="M1.43604 5.06951C1.06048 5.06951 0.756035 5.37396 0.756035 5.74951C0.756035 6.12507 1.06048 6.42951 1.43604 6.42951V5.06951ZM12.9169 6.23034C13.1824 5.96479 13.1824 5.53424 12.9169 5.26868L8.58937 0.941185C8.32382 0.675629 7.89327 0.675629 7.62771 0.941185C7.36215 1.20674 7.36215 1.63729 7.62771 1.90285L11.4744 5.74951L7.62771 9.59617C7.36215 9.86173 7.36215 10.2923 7.62771 10.5578C7.89327 10.8234 8.32382 10.8234 8.58937 10.5578L12.9169 6.23034ZM1.43604 6.42951H12.436V5.06951H1.43604V6.42951Z" fill="#6B256C"/>
</svg>
