<svg width="64" height="64" viewBox="0 0 64 64" fill="none" xmlns="http://www.w3.org/2000/svg">
<rect width="64" height="64" rx="10" fill="url(#paint0_linear_233_18494)"/>
<path d="M23.4813 46.2455C23.0805 46.1208 22.653 46.0318 22.279 45.8625C20.7471 45.1589 19.8832 43.636 19.9455 41.9527C20.0168 39.9577 20.4977 38.0874 21.4774 36.3507C22.8044 34.0084 24.7015 32.2806 27.1596 31.1851C27.3199 31.1139 27.4802 31.0426 27.6761 30.9625C25.3249 29.0565 24.3096 26.6251 24.835 23.6416C25.1379 21.8959 26.0463 20.462 27.4268 19.3577C30.4638 16.9263 34.6942 17.336 37.2325 19.9722C38.7554 21.5575 39.4412 23.4634 39.2631 25.6544C39.085 27.8453 38.0519 29.5909 36.3062 30.9446C36.6803 31.1139 37.0276 31.2653 37.3572 31.4345C40.3318 32.9574 42.3625 35.2998 43.4401 38.4526C43.8943 39.7707 44.1081 41.1333 44.0279 42.5316C43.921 44.3752 42.4872 45.9071 40.6614 46.1832C40.6079 46.1832 40.5634 46.2188 40.51 46.2366H23.4813V46.2455ZM32.0134 44.0635C34.623 44.0635 37.2236 44.0457 39.8331 44.0635C41.1868 44.0724 41.9706 43.0838 41.8548 41.9883C41.8103 41.5965 41.8014 41.1957 41.7479 40.7949C41.3115 37.9271 39.8954 35.6293 37.4819 34.0529C34.3647 32.0134 31.0249 31.7373 27.685 33.4028C24.1047 35.184 22.2879 38.1854 22.1543 42.1843C22.1454 42.4693 22.2166 42.781 22.3413 43.0393C22.6976 43.7785 23.3388 44.0635 24.1404 44.0635C26.7677 44.0635 29.3861 44.0635 32.0134 44.0635ZM31.9867 30.1698C34.8011 30.1787 37.0989 27.8987 37.1167 25.0754C37.1345 22.2789 34.8456 19.9722 32.0134 19.9455C29.2347 19.9098 26.8924 22.2344 26.8835 25.0487C26.8657 27.8542 29.1635 30.1609 31.9867 30.1787V30.1698Z" fill="white"/>
<defs>
<linearGradient id="paint0_linear_233_18494" x1="57.6623" y1="-0.415649" x2="-13.7062" y2="54.6045" gradientUnits="userSpaceOnUse">
<stop stop-color="#A85AA3"/>
<stop offset="1" stop-color="#6B256C"/>
</linearGradient>
</defs>
</svg>
