<svg width="64" height="64" viewBox="0 0 64 64" fill="none" xmlns="http://www.w3.org/2000/svg">
<rect width="64" height="64" rx="10" fill="url(#paint0_linear_233_18525)"/>
<path d="M17.7456 34.0618V29.9471C17.9594 29.5285 18.2978 29.3504 18.7698 29.3148C19.4467 29.2702 20.1147 29.1545 20.7826 29.0832C20.9429 29.0654 21.0053 29.0031 21.0676 28.8517C21.3793 28.0679 21.7 27.2931 22.0295 26.5182C22.0918 26.3668 22.1007 26.2778 21.9939 26.1442C21.5307 25.5653 21.0765 24.9775 20.6134 24.3986C20.275 23.9711 20.3017 23.5436 20.6936 23.1606C21.504 22.3412 22.3145 21.5308 23.1339 20.7203C23.5346 20.3195 23.9532 20.2928 24.3985 20.6401C24.9774 21.0943 25.5563 21.5397 26.1263 22.0028C26.251 22.1007 26.3401 22.1186 26.4915 22.0473C27.2752 21.7089 28.059 21.3883 28.8516 21.0765C28.9941 21.0231 29.0476 20.9608 29.0654 20.8094C29.1455 20.079 29.2435 19.3576 29.3237 18.6273C29.386 18.0573 29.7066 17.7634 30.2766 17.7634C31.4166 17.7634 32.5566 17.7634 33.6966 17.7634C34.2844 17.7634 34.6051 18.0573 34.6674 18.6362C34.7476 19.3665 34.8455 20.0879 34.9257 20.8183C34.9435 20.9786 35.0147 21.0231 35.1483 21.0765C35.9321 21.3883 36.7069 21.7089 37.4818 22.0384C37.6421 22.1097 37.74 22.0918 37.8736 21.985C38.4436 21.5218 39.0225 21.0765 39.6014 20.6223C40.0289 20.2839 40.4564 20.3106 40.8394 20.6936C41.6588 21.5129 42.4781 22.3323 43.2975 23.1517C43.6805 23.5346 43.6983 23.9621 43.3599 24.3896C42.9056 24.9775 42.4514 25.5564 41.9794 26.1353C41.8814 26.2599 41.8903 26.3401 41.9438 26.4826C42.2822 27.2664 42.6028 28.0501 42.9235 28.8338C42.9769 28.9674 43.0303 29.0387 43.1817 29.0565C43.912 29.1367 44.6334 29.2346 45.3638 29.3148C45.9338 29.3771 46.2366 29.6977 46.2366 30.2588C46.2366 31.4077 46.2366 32.5566 46.2366 33.7055C46.2366 34.2755 45.9338 34.5873 45.3727 34.6585C44.6513 34.7387 43.9388 34.8366 43.2174 34.9168C43.0392 34.9346 42.9769 35.0058 42.9145 35.1662C42.6117 35.941 42.2911 36.7069 41.9616 37.4729C41.8903 37.6332 41.8903 37.7311 41.9972 37.8647C42.4603 38.4436 42.9235 39.0225 43.3777 39.6104C43.6983 40.0289 43.6716 40.4564 43.2975 40.8305C42.4781 41.6499 41.6588 42.4692 40.8394 43.2886C40.4475 43.6716 40.0289 43.6983 39.6014 43.3688C39.0136 42.9146 38.4347 42.4603 37.8558 41.9972C37.74 41.9082 37.6599 41.8903 37.5085 41.9527C36.7158 42.2911 35.9232 42.6117 35.1305 42.9502C35.0415 42.9858 34.9435 43.1016 34.9346 43.1906C34.8366 43.8675 34.7297 44.5444 34.6852 45.2302C34.6496 45.7022 34.4804 46.0406 34.0529 46.2455H29.9382C29.5196 46.0406 29.3415 45.7022 29.3059 45.2302C29.2613 44.5533 29.1455 43.8853 29.0743 43.2174C29.0565 43.0571 28.9941 42.9947 28.8427 42.9324C28.059 42.6296 27.2842 42.3089 26.5093 41.9705C26.349 41.8992 26.251 41.9171 26.1174 42.0239C25.5474 42.4871 24.9685 42.9324 24.3896 43.3866C23.9532 43.725 23.5346 43.6983 23.1517 43.3153C22.3323 42.496 21.5129 41.6766 20.6936 40.8572C20.3106 40.4743 20.2839 40.0468 20.6223 39.6193C21.0676 39.0404 21.5218 38.4615 21.9761 37.8915C22.0829 37.7579 22.0918 37.6599 22.0206 37.4996C21.6911 36.7336 21.3704 35.9677 21.0676 35.1929C21.0053 35.0415 20.9518 34.9524 20.7737 34.9346C20.1058 34.8633 19.4289 34.7476 18.7609 34.6941C18.2889 34.6585 17.9504 34.4804 17.7456 34.0618ZM32.0044 40.9018C36.9029 40.9018 40.8928 36.9118 40.9106 32.0134C40.9285 27.106 36.9118 23.0893 32.0044 23.0893C27.106 23.0893 23.116 27.0704 23.0982 31.9777C23.0804 36.8761 27.0971 40.9018 32.0044 40.9018Z" fill="white"/>
<defs>
<linearGradient id="paint0_linear_233_18525" x1="57.6623" y1="-0.415649" x2="-13.7062" y2="54.6045" gradientUnits="userSpaceOnUse">
<stop stop-color="#A85AA3"/>
<stop offset="1" stop-color="#6B256C"/>
</linearGradient>
</defs>
</svg>
