<svg width="64" height="64" viewBox="0 0 64 64" fill="none" xmlns="http://www.w3.org/2000/svg">
<rect width="64" height="64" rx="10" fill="url(#paint0_linear_233_18540)"/>
<path d="M30.8912 46.2455C30.4904 46.0852 30.054 45.9783 29.7066 45.7467C29.0031 45.2836 28.6913 44.5622 28.6646 43.725C28.6646 43.5736 28.6646 43.4311 28.6646 43.2797C28.6646 42.7364 28.7181 42.202 28.2638 41.7478C27.8898 41.3738 27.8363 40.8216 27.8274 40.2872C27.8274 39.0849 27.4267 38.0607 26.5806 37.1789C22.7509 33.1801 24.3718 26.5984 29.6354 24.8617C32.7437 23.8375 36.1013 24.8973 38.0339 27.5335C39.9221 30.1074 40.0111 33.4205 38.2833 36.1102C38.0161 36.5288 37.6777 36.9118 37.3393 37.2769C36.5555 38.1319 36.1815 39.1383 36.1815 40.2872C36.1815 40.8305 36.0568 41.3292 35.7451 41.7835C35.7272 41.8102 35.7183 41.8369 35.7005 41.8547C35.2908 42.1486 35.3443 42.5761 35.3354 43.0036C35.3265 43.4845 35.3354 43.9833 35.2196 44.4375C34.9435 45.435 34.2399 46.0228 33.2157 46.2098C33.1801 46.2098 33.1444 46.2366 33.1177 46.2544H30.8912V46.2455ZM31.9866 41.2402C32.5032 41.2402 33.0287 41.2402 33.5452 41.2402C34.1776 41.2402 34.4626 40.9106 34.516 40.2783C34.5694 39.6282 34.6585 38.9691 34.8188 38.3368C35.0771 37.3393 35.7361 36.5822 36.3952 35.8163C37.7222 34.3022 38.1586 32.5121 37.651 30.5794C37.0186 28.1837 35.4244 26.7142 32.9752 26.251C29.8937 25.6721 26.8834 27.7117 26.2867 30.7665C25.966 32.423 26.251 33.9549 27.2307 35.3354C27.5513 35.7896 27.961 36.1725 28.2995 36.6089C29.1456 37.6866 29.484 38.9335 29.4929 40.2961C29.4929 40.8928 29.8313 41.2224 30.4281 41.2224C30.9446 41.2224 31.4701 41.2224 31.9866 41.2224V41.2402ZM33.6699 42.9235H30.339C30.339 43.2263 30.3212 43.5113 30.339 43.7963C30.3657 44.2238 30.7041 44.5622 31.1405 44.5711C31.7105 44.5889 32.2894 44.5889 32.8594 44.5711C33.3137 44.5622 33.6432 44.2238 33.6699 43.7784C33.6877 43.5024 33.6699 43.2263 33.6699 42.9235Z" fill="white"/>
<path d="M17.7456 31.7729C17.9683 31.292 18.3512 31.1406 18.8678 31.1495C19.892 31.1762 20.9251 31.1495 21.9493 31.1584C22.5728 31.1584 22.9646 31.7373 22.7509 32.2895C22.6173 32.619 22.359 32.8149 22.0028 32.8238C20.8539 32.8327 19.705 32.8238 18.5561 32.8238C18.1375 32.8238 17.9148 32.5477 17.7456 32.2182V31.7729Z" fill="white"/>
<path d="M31.1672 20.275C31.1672 19.7584 31.1672 19.233 31.1672 18.7164C31.1672 18.1286 31.5057 17.7456 32.0044 17.7545C32.5032 17.7545 32.8327 18.1375 32.8327 18.7075C32.8327 19.7584 32.8327 20.8005 32.8327 21.8514C32.8327 22.4392 32.4943 22.8222 31.9955 22.8133C31.4879 22.8133 31.1672 22.4303 31.1672 21.8336C31.1672 21.317 31.1672 20.7916 31.1672 20.275Z" fill="white"/>
<path d="M43.6983 32.8328C43.1818 32.8328 42.6563 32.8328 42.1397 32.8328C41.5697 32.8328 41.1957 32.5032 41.1868 32.0045C41.1868 31.5057 41.5608 31.1673 42.1219 31.1673C43.1907 31.1673 44.2594 31.1673 45.3192 31.1673C45.8625 31.1673 46.2366 31.5057 46.2455 31.9956C46.2455 32.4943 45.8714 32.8328 45.3103 32.8417C44.776 32.8417 44.2327 32.8417 43.6983 32.8417V32.8328Z" fill="white"/>
<path d="M24.8083 25.7612C24.6925 25.6989 24.461 25.6276 24.3006 25.4762C23.5169 24.7192 22.751 23.9533 21.9939 23.1784C21.6199 22.8044 21.6199 22.2967 21.9672 21.9583C22.3057 21.6287 22.7955 21.6287 23.1607 21.985C23.9444 22.7509 24.7103 23.5258 25.4852 24.3095C25.7524 24.5767 25.8236 24.9062 25.6633 25.2536C25.5208 25.5742 25.2536 25.7256 24.8083 25.7523V25.7612Z" fill="white"/>
<path d="M39.1828 25.7612C38.7375 25.7256 38.4703 25.5742 38.3278 25.2536C38.1853 24.924 38.2298 24.6123 38.4792 24.354C38.7909 24.0245 39.1204 23.7039 39.4411 23.3832C39.9042 22.9201 40.3673 22.4481 40.8393 21.985C41.0887 21.7356 41.3915 21.6465 41.73 21.7712C42.0417 21.887 42.2643 22.1186 42.2554 22.4481C42.2554 22.6797 42.1753 22.9647 42.0239 23.125C41.2579 23.9354 40.4653 24.7192 39.6637 25.4851C39.5123 25.6276 39.2897 25.69 39.1739 25.7523L39.1828 25.7612Z" fill="white"/>
<path d="M31.8441 27.8274C32.5477 27.8007 33.0019 28.3351 32.7882 28.9318C32.6546 29.2881 32.3785 29.4751 32.0044 29.484C30.7843 29.5374 29.9738 30.1342 29.5908 31.3009C29.4216 31.7996 28.9763 32.0312 28.5221 31.8709C28.0679 31.7195 27.863 31.2652 28.0144 30.7576C28.5399 29.0387 30.0361 27.8898 31.853 27.8185L31.8441 27.8274Z" fill="white"/>
<defs>
<linearGradient id="paint0_linear_233_18540" x1="57.6623" y1="-0.415649" x2="-13.7062" y2="54.6045" gradientUnits="userSpaceOnUse">
<stop stop-color="#A85AA3"/>
<stop offset="1" stop-color="#6B256C"/>
</linearGradient>
</defs>
</svg>
