<svg width="64" height="64" viewBox="0 0 64 64" fill="none" xmlns="http://www.w3.org/2000/svg">
<rect width="64" height="64" rx="10" fill="url(#paint0_linear_233_18509)"/>
<path d="M23.0981 28.2282H25.6453C25.6453 28.0679 25.6453 27.9165 25.6453 27.7651C25.6453 26.634 25.6453 25.5029 25.6453 24.3718C25.6542 21.0142 28.1123 18.3156 31.4522 17.9772C34.6139 17.6655 37.5618 19.8564 38.2298 23.0626C38.3278 23.5257 38.3545 24.0156 38.3545 24.4965C38.3723 25.7256 38.3545 26.9457 38.3545 28.2104H40.9017V28.6824C40.9017 31.4612 40.9017 34.2488 40.9017 37.0276C40.8927 41.4628 37.9003 45.061 33.5362 45.8892C28.6111 46.8244 23.7216 43.2085 23.1694 38.2121C23.1249 37.7757 23.0981 37.3393 23.0981 36.9029C23.0981 34.1776 23.0981 31.4523 23.0981 28.727V28.2282ZM25.6542 30.7843C25.6542 33.0999 25.5474 35.3799 25.6809 37.6421C25.868 40.8929 28.6378 43.4311 31.844 43.4846C35.4511 43.538 38.3367 40.7147 38.3545 37.0988C38.3545 35.1216 38.3545 33.1445 38.3545 31.1673C38.3545 31.0426 38.3456 30.9179 38.3367 30.7843H25.6542ZM35.7984 28.2104C35.7984 28.0946 35.8073 28.0145 35.8073 27.9254C35.8073 26.6251 35.8518 25.3248 35.7895 24.0334C35.6915 22.1542 34.0973 20.6223 32.2359 20.5155C30.2944 20.4086 28.5487 21.7356 28.2727 23.6415C28.1391 24.5856 28.2014 25.5564 28.1836 26.5093C28.1747 27.0704 28.1836 27.6315 28.1836 28.2015H35.7984V28.2104Z" fill="white"/>
<path d="M33.2425 40.9285H30.7488V33.3493H33.2425V40.9285Z" fill="white"/>
<defs>
<linearGradient id="paint0_linear_233_18509" x1="57.6623" y1="-0.415649" x2="-13.7062" y2="54.6045" gradientUnits="userSpaceOnUse">
<stop stop-color="#A85AA3"/>
<stop offset="1" stop-color="#6B256C"/>
</linearGradient>
</defs>
</svg>
