<svg width="64" height="65" viewBox="0 0 64 65" fill="none" xmlns="http://www.w3.org/2000/svg">
<rect y="0.5" width="64" height="64" rx="10" fill="url(#paint0_linear_289_3276)"/>
<path fill-rule="evenodd" clip-rule="evenodd" d="M42.6667 35.1667C42.6667 35.9013 42.0694 36.5 41.3334 36.5H32.116H31.884H22.6667C21.9307 36.5 21.3334 35.9013 21.3334 35.1667V24.5C21.3334 23.7653 21.9307 23.1667 22.6667 23.1667H41.3334C42.0694 23.1667 42.6667 23.7653 42.6667 24.5V35.1667ZM41.3334 20.5H22.6667C20.4614 20.5 18.6667 22.2947 18.6667 24.5V35.1667C18.6667 37.372 20.4614 39.1667 22.6667 39.1667H30.6667V41.8333H25.3334C24.6 41.8333 24 42.4333 24 43.1667C24 43.9 24.6 44.5 25.3334 44.5H38.6667C39.4 44.5 40 43.9 40 43.1667C40 42.4333 39.4 41.8333 38.6667 41.8333H33.3334V39.1667H41.3334C43.5387 39.1667 45.3334 37.372 45.3334 35.1667V24.5C45.3334 22.2947 43.5387 20.5 41.3334 20.5Z" fill="#03133D"/>
<mask id="mask0_289_3276" style="mask-type:luminance" maskUnits="userSpaceOnUse" x="18" y="20" width="28" height="25">
<path fill-rule="evenodd" clip-rule="evenodd" d="M42.6667 35.1667C42.6667 35.9013 42.0694 36.5 41.3334 36.5H32.116H31.884H22.6667C21.9307 36.5 21.3334 35.9013 21.3334 35.1667V24.5C21.3334 23.7653 21.9307 23.1667 22.6667 23.1667H41.3334C42.0694 23.1667 42.6667 23.7653 42.6667 24.5V35.1667ZM41.3334 20.5H22.6667C20.4614 20.5 18.6667 22.2947 18.6667 24.5V35.1667C18.6667 37.372 20.4614 39.1667 22.6667 39.1667H30.6667V41.8333H25.3334C24.6 41.8333 24 42.4333 24 43.1667C24 43.9 24.6 44.5 25.3334 44.5H38.6667C39.4 44.5 40 43.9 40 43.1667C40 42.4333 39.4 41.8333 38.6667 41.8333H33.3334V39.1667H41.3334C43.5387 39.1667 45.3334 37.372 45.3334 35.1667V24.5C45.3334 22.2947 43.5387 20.5 41.3334 20.5Z" fill="white"/>
</mask>
<g mask="url(#mask0_289_3276)">
<rect x="16" y="16.5" width="32" height="32" fill="white"/>
</g>
<defs>
<linearGradient id="paint0_linear_289_3276" x1="57.6623" y1="0.0843514" x2="-13.7062" y2="55.1045" gradientUnits="userSpaceOnUse">
<stop stop-color="#A85AA3"/>
<stop offset="1" stop-color="#6B256C"/>
</linearGradient>
</defs>
</svg>
