<svg width="229" height="104" viewBox="0 0 229 104" fill="none" xmlns="http://www.w3.org/2000/svg">
<g filter="url(#filter0_d_202_6321)">
<rect x="20.1387" y="13.3218" width="188.277" height="63.3218" rx="10" fill="white"/>
</g>
<path d="M62.7563 27.3469C62.6814 30.2134 61.8818 32.8034 60.8323 35.2927C59.1081 39.4667 56.6093 43.1882 53.5357 46.4822C52.6861 47.3874 52.3863 48.2423 52.7611 49.3738C52.961 49.9773 52.8361 50.6311 53.2109 51.2345C53.9106 51.0334 54.0355 50.0779 55.01 50.0024C53.7606 53.1204 52.2114 55.8612 49.7376 58.0236C49.5876 58.1494 49.4127 58.3505 49.1878 58.2248C48.888 58.0488 49.0629 57.7722 49.1129 57.5459C49.5876 55.6349 49.4877 53.4473 48.863 51.31C48.0634 51.4357 47.6136 52.3912 46.639 52.2152C46.2642 52.1397 46.3891 52.6678 46.3642 52.9192C46.1143 55.3834 45.0898 57.3447 43.0407 58.8283C41.2916 60.1107 39.5674 61.4433 38.0181 62.9772C37.7932 63.2035 37.5933 63.3795 37.1685 63.3041C37.9682 61.6948 38.7428 60.0855 39.5674 58.4762C40.1921 57.2693 40.2171 56.3892 39.0427 55.2828C34.02 50.5556 34.045 37.7569 44.1402 34.4881C44.4151 34.3875 44.69 34.2869 45.0648 34.4378C44.8149 34.9155 44.3151 35.0664 43.9403 35.3178C38.243 39.2153 36.194 45.4009 38.5679 51.5363C38.9927 52.6426 39.6174 53.6233 40.342 54.5536C40.7418 55.0314 40.9667 55.0817 41.3416 54.5034C41.9663 53.5479 42.7159 52.6929 43.6155 52.014C44.1652 51.6117 44.7649 51.3603 45.7145 51.486C44.69 50.6562 45.6145 49.9521 45.5895 49.0721C43.2906 49.6001 40.7918 49.2984 38.9427 51.4105C38.8427 49.0218 42.3161 44.018 44.615 42.987C44.665 43.6659 44.1402 44.1437 44.0403 44.9232C45.1647 44.722 46.2392 44.546 47.2887 44.3197C47.7635 44.2191 47.8135 43.6911 47.9884 43.339C50.0624 38.9136 52.7361 34.8904 56.3344 31.521C58.1835 29.8111 60.2326 28.3779 62.6814 27.3218L62.7563 27.3469ZM59.4329 30.7666C54.0605 35.4939 49.9874 41.1263 47.6136 48.016C48.2633 47.3119 48.9129 46.633 49.5626 45.929C49.1628 47.8651 48.1133 49.399 46.9139 51.0082C47.7635 50.9831 48.0134 50.3545 48.2633 49.9018C49.6126 47.2868 51.5617 45.1243 53.4108 42.8613C54.2104 41.9058 55.4598 40.9251 53.7856 39.6428C53.7356 39.5925 53.7356 39.4919 53.6857 39.4164C53.3358 38.4358 53.5357 37.5809 54.3104 36.902C55.2849 36.0219 56.3594 36.2231 57.4089 36.8517C58.0586 35.1921 58.7333 33.5828 59.333 31.9484C59.4579 31.5713 59.8577 31.1689 59.4329 30.7415C59.4579 30.7918 59.5079 30.8421 59.5329 30.8923C59.5579 30.8421 59.6078 30.8169 59.6328 30.7666C59.5579 30.7666 59.4829 30.7666 59.4079 30.7666H59.4329ZM41.0667 58.5265C42.466 57.9231 43.3906 56.8418 44.2652 55.6852C44.59 55.2326 45.0398 54.6291 44.4151 54.1513C43.7654 53.6736 43.3406 54.3022 42.9908 54.7297C42.0912 55.836 41.7164 57.219 41.0917 58.5265H41.0667ZM55.8596 37.4552C54.9101 37.1534 54.8351 38.1592 54.7851 38.8381C54.7602 39.2907 54.8851 40.0702 55.7847 39.9948C56.6842 39.9193 57.184 39.4416 57.184 38.5615C57.184 37.958 56.9091 37.43 55.8596 37.4552Z" fill="#242422"/>
<path d="M107.282 55.8549C101.288 55.8549 97.3546 52.7643 96.2426 48.4318C95.0762 43.9338 97.0563 39.2701 101.044 37.0349C105.004 34.8273 109.94 35.6276 113.032 38.9114C113.711 39.6289 113.873 40.1256 112.897 40.6775C112.517 40.8983 112.164 41.2294 111.812 41.5054C111.188 41.9745 110.646 42.692 109.967 42.8575C109.262 43.0231 108.937 42.0297 108.34 41.6433C106.224 40.2912 103.539 40.7879 102.047 42.8575C100.501 44.9824 100.881 48.0179 102.861 49.7012C104.76 51.2741 107.499 51.2189 109.099 49.3148C109.886 48.3766 110.347 48.5146 111.107 49.1769C111.812 49.7564 112.544 50.2807 113.331 50.7498C114.145 51.2189 114.009 51.6329 113.494 52.24C111.459 54.6407 108.91 55.8825 107.282 55.9101V55.8549Z" fill="#20201E"/>
<path d="M167.954 45.779C167.954 47.7119 167.926 49.6728 167.954 51.6057C167.954 52.3901 167.757 52.6142 166.941 52.6142C163.675 52.6702 163.675 52.6982 163.675 49.5047C163.675 46.0591 163.703 42.6135 163.675 39.1679C163.675 38.2434 163.929 38.0754 164.829 37.9633C167.053 37.7112 168.629 38.3275 169.727 40.4285C170.544 42.0252 171.782 43.3979 173.133 44.8545C173.133 43.0897 173.19 41.3249 173.133 39.5601C173.077 38.4115 173.302 37.9353 174.625 37.9913C177.44 38.1034 177.44 38.0193 177.44 40.7646C177.44 44.3503 177.44 47.936 177.44 51.5217C177.44 52.3621 177.215 52.5582 176.37 52.6702C174.09 52.9503 172.486 52.3341 171.36 50.2051C170.515 48.6083 169.305 47.2076 168.264 45.7229C168.179 45.7229 168.066 45.779 167.982 45.807L167.954 45.779Z" fill="#242422"/>
<path d="M80.0283 45.3282C80.0283 43.1986 80.0566 41.069 80.0283 38.9394C80.0283 38.1443 80.2547 37.8604 81.0755 37.9172C83.2832 38.0591 85.5191 37.7184 87.755 38.1443C91.8307 38.911 93.9534 41.5801 93.7836 45.7541C93.6421 49.559 91.0948 52.2565 87.1607 52.6256C85.038 52.8244 82.8869 52.6824 80.7642 52.7108C80.0566 52.7108 80.0283 52.3701 80.0283 51.8306C80.0283 49.6442 80.0283 47.4862 80.0283 45.2998V45.3282ZM85.6889 41.8924C84.1606 41.3813 83.9341 42.29 84.0473 43.6529C84.1323 44.8171 84.1889 46.0381 84.0473 47.1739C83.8775 48.622 84.387 49.0195 85.8021 48.9343C88.2079 48.7924 89.5947 47.5714 89.5664 45.3282C89.5381 43.0282 87.7267 41.5233 85.6889 41.8924Z" fill="#20201E"/>
<path d="M145.703 45.2646C145.703 41.1314 149.012 37.8818 153.169 37.9103C157.217 37.9103 160.526 41.2739 160.499 45.3217C160.499 49.3979 157.053 52.79 152.978 52.733C148.903 52.676 145.675 49.3694 145.675 45.2932L145.703 45.2646ZM153.142 48.8848C155.138 48.8563 156.779 47.146 156.697 45.1791C156.642 43.2693 155.001 41.6445 153.087 41.6445C151.09 41.6445 149.477 43.2978 149.477 45.2932C149.477 47.317 151.118 48.9133 153.142 48.8848Z" fill="#21211F"/>
<path d="M124.554 37.9102C128.672 37.9102 131.911 41.1884 131.911 45.3219C131.911 49.3984 128.59 52.7052 124.527 52.7337C120.409 52.7337 117.033 49.3414 117.088 45.2364C117.143 41.1314 120.437 37.9102 124.554 37.9387V37.9102ZM124.554 48.9138C126.558 48.9138 128.205 47.1749 128.15 45.2079C128.095 43.2979 126.448 41.6731 124.527 41.6445C122.578 41.6445 120.849 43.3264 120.849 45.2934C120.849 47.2604 122.551 48.9423 124.527 48.9138H124.554Z" fill="#21211F"/>
<path d="M62.0283 52.6566C63.9457 47.8368 65.8091 43.2143 67.6725 38.5354C67.8616 38.0563 68.1586 37.9717 68.5907 37.9717C71.3453 37.8026 71.3453 37.8026 72.3985 40.4239C73.8298 44.0035 75.2611 47.5831 76.6925 51.1627C77.0885 52.1586 76.7465 52.6566 75.6662 52.6566C75.4772 52.6566 75.2882 52.6284 75.1261 52.6566C73.5868 52.9666 72.6686 52.3465 72.3985 50.7117C72.2635 49.9225 71.8044 49.6689 71.0482 49.7534C70.5621 49.8098 70.049 49.8098 69.5629 49.7534C67.8886 49.5279 66.5653 49.838 66.3762 51.9519C66.3222 52.3747 66.0792 52.6847 65.5391 52.6566C64.4318 52.6002 63.2976 52.6566 62.0283 52.6566ZM68.1046 46.7939H71.0212C70.5351 45.4692 70.103 44.2854 69.5629 42.8479C69.0228 44.3135 68.5907 45.4974 68.1046 46.7939Z" fill="#20201E"/>
<path d="M193.323 37.9247C192.129 39.9144 191.13 41.7904 189.908 43.4674C188.381 45.5424 187.771 47.731 187.965 50.3176C188.132 52.7053 187.993 52.7337 185.605 52.7337C183.801 52.7337 183.662 52.7337 183.829 50.8577C184.106 47.9016 183.385 45.315 181.608 42.9558C180.498 41.4777 179.637 39.8007 178.499 37.9531C179.998 37.9531 181.219 37.9531 182.441 37.9531C182.996 37.9531 183.107 38.3795 183.329 38.7205C184.162 40.0849 185.022 41.4208 185.911 42.8989C186.771 41.5061 187.576 40.2554 188.298 38.9479C188.742 38.1236 189.297 37.8394 190.186 37.9247C191.13 38.0099 192.101 37.9247 193.323 37.9247Z" fill="#21211F"/>
<path d="M134.033 45.3921C134.033 43.2186 134.033 41.0734 134.033 38.8999C134.033 38.2789 134.167 38.0249 134.834 37.9684C138.09 37.799 138.09 37.7708 138.09 41.2427C138.09 43.4162 138.144 45.5615 138.09 47.735C138.064 48.6383 138.357 48.8358 139.158 48.8076C140.626 48.7512 142.094 48.8076 143.589 48.7794C144.283 48.7794 144.603 48.8923 144.603 49.7673C144.657 52.7312 144.683 52.7312 141.881 52.7312C139.692 52.7312 137.503 52.6747 135.314 52.7312C134.354 52.7594 133.98 52.5618 134.033 51.461C134.14 49.4568 134.06 47.4245 134.06 45.3921H134.033Z" fill="#21211F"/>
<path d="M61.499 27.7338C61.499 27.7338 61.6835 27.7338 61.7757 27.7338C61.745 27.7953 61.6835 27.8261 61.6527 27.8875C61.622 27.8261 61.5605 27.7646 61.5298 27.6724V27.7031L61.499 27.7338Z" fill="#242422"/>
<defs>
<filter id="filter0_d_202_6321" x="0.138672" y="0.321777" width="228.277" height="103.322" filterUnits="userSpaceOnUse" color-interpolation-filters="sRGB">
<feFlood flood-opacity="0" result="BackgroundImageFix"/>
<feColorMatrix in="SourceAlpha" type="matrix" values="0 0 0 0 0 0 0 0 0 0 0 0 0 0 0 0 0 0 127 0" result="hardAlpha"/>
<feOffset dy="7"/>
<feGaussianBlur stdDeviation="10"/>
<feComposite in2="hardAlpha" operator="out"/>
<feColorMatrix type="matrix" values="0 0 0 0 0.419608 0 0 0 0 0.145098 0 0 0 0 0.423529 0 0 0 0.08 0"/>
<feBlend mode="normal" in2="BackgroundImageFix" result="effect1_dropShadow_202_6321"/>
<feBlend mode="normal" in="SourceGraphic" in2="effect1_dropShadow_202_6321" result="shape"/>
</filter>
</defs>
</svg>
