<svg width="229" height="104" viewBox="0 0 229 104" fill="none" xmlns="http://www.w3.org/2000/svg">
<g filter="url(#filter0_d_202_6135)">
<rect x="20.2769" y="13" width="188.277" height="63.3218" rx="10" fill="white"/>
</g>
<path d="M113.238 31.0859V47.1678C113.238 57.3372 105.434 60.6482 101.886 61.5942C100.94 61.8307 99.5212 61.3577 99.0482 59.9387C98.8117 58.7562 99.5212 57.5737 100.704 57.1007C104.251 56.1547 108.508 53.5532 108.508 47.1678V31.0859C108.508 29.9034 109.454 28.7209 110.873 28.7209C112.056 28.7209 113.238 29.6669 113.238 31.0859ZM73.7429 50.7152C74.6889 52.6072 72.7969 55.2087 70.4319 53.7897C70.4319 53.7897 61.445 47.8772 54.823 45.2758L50.8025 52.8437C50.566 53.5532 48.9105 54.7357 47.4916 53.7897C36.3761 47.4043 38.5046 34.8698 52.458 39.1268L58.134 28.2479C59.3165 26.3559 61.6815 26.8289 62.391 28.2479L73.7429 50.7152ZM50.3295 43.6203C41.3426 41.0188 46.0726 47.1678 47.9646 48.3502L50.3295 43.6203ZM65.7019 45.2758L60.026 34.6333L56.9515 41.0188C59.08 41.7283 63.8099 44.3298 65.7019 45.2758ZM101.177 41.2553C101.177 48.3502 95.5007 54.0262 88.4058 54.0262H80.8378C79.4188 54.0262 78.4728 52.8437 78.4728 51.6612V31.0859C78.4728 29.6669 79.6553 28.7209 80.8378 28.7209H88.4058C95.5007 28.7209 101.177 34.3968 101.177 41.2553ZM96.4467 41.2553C96.4467 36.9983 92.8992 33.4509 88.6423 33.4509H83.4393V49.2962H88.6423C92.8992 49.2962 96.4467 45.7488 96.4467 41.2553ZM138.07 31.0859V42.9108C138.07 46.6948 135.469 49.2962 131.685 49.2962C127.901 49.2962 125.299 46.6948 125.299 42.9108V31.0859C125.299 28.0114 120.57 28.0114 120.57 31.0859V42.9108C120.57 49.2962 125.299 54.0262 131.685 54.0262C138.07 54.0262 142.8 49.2962 142.8 42.9108V31.0859C142.8 28.0114 138.07 28.0114 138.07 31.0859ZM188.681 28.7209H171.18C168.106 28.7209 168.106 33.4509 171.18 33.4509H177.566V51.6612C177.566 54.7357 182.296 54.7357 182.296 51.6612V33.4509H188.681C191.992 33.4509 191.992 28.7209 188.681 28.7209ZM152.26 34.8698C152.497 32.7414 156.754 31.5589 160.301 34.6333C162.666 36.5253 165.741 33.6873 163.612 31.0859C159.592 26.5924 147.53 26.8289 147.53 35.3428C147.53 44.3298 161.484 42.4378 160.065 47.6408C159.355 50.0057 153.916 50.9517 151.314 47.4043C149.186 44.3298 145.402 47.4043 147.294 50.0057C152.733 57.8102 165.031 54.4992 165.031 46.9313C165.031 38.1808 152.024 39.8363 152.26 34.8698Z" fill="black"/>
<defs>
<filter id="filter0_d_202_6135" x="0.276855" y="0" width="228.277" height="103.322" filterUnits="userSpaceOnUse" color-interpolation-filters="sRGB">
<feFlood flood-opacity="0" result="BackgroundImageFix"/>
<feColorMatrix in="SourceAlpha" type="matrix" values="0 0 0 0 0 0 0 0 0 0 0 0 0 0 0 0 0 0 127 0" result="hardAlpha"/>
<feOffset dy="7"/>
<feGaussianBlur stdDeviation="10"/>
<feComposite in2="hardAlpha" operator="out"/>
<feColorMatrix type="matrix" values="0 0 0 0 0.419608 0 0 0 0 0.145098 0 0 0 0 0.423529 0 0 0 0.08 0"/>
<feBlend mode="normal" in2="BackgroundImageFix" result="effect1_dropShadow_202_6135"/>
<feBlend mode="normal" in="SourceGraphic" in2="effect1_dropShadow_202_6135" result="shape"/>
</filter>
</defs>
</svg>
