<svg width="229" height="104" viewBox="0 0 229 104" fill="none" xmlns="http://www.w3.org/2000/svg">
<g filter="url(#filter0_d_202_6199)">
<rect x="20.4155" y="13.3218" width="188.277" height="63.3218" rx="10" fill="white"/>
</g>
<path d="M111.608 37.2664C112.174 37.2664 120.525 37.2664 122.223 37.2664C122.365 37.2664 122.506 37.1249 122.506 36.9834V31.7466H121.94C120.667 31.7466 119.393 31.7466 118.119 31.7466C115.147 31.7466 112.174 31.7466 109.202 31.7466C104.815 31.8881 101.135 35.4265 101.135 39.531C101.135 43.777 101.135 47.8815 101.135 52.2691C101.135 54.109 101.135 55.949 101.135 57.7889V58.3551H106.796C106.938 58.3551 107.221 58.2135 107.221 58.072V53.1183C107.221 51.8445 107.221 50.5707 107.221 49.2969H118.544C118.685 49.2969 118.968 49.1553 118.968 49.0138V44.0601C118.968 43.9186 118.827 43.777 118.544 43.777H107.645C107.504 43.777 107.221 43.6355 107.221 43.494C107.221 42.9278 107.221 42.5032 107.221 42.5032V41.2294C107.221 38.5402 108.636 37.2664 111.608 37.2664Z" fill="#272742"/>
<path d="M88.5155 37.2664C89.0817 37.2664 97.4322 37.2664 99.1306 37.2664C99.2722 37.2664 99.4137 37.1249 99.4137 36.9834V31.7466H98.8476C97.5738 31.7466 96.3 31.7466 95.0261 31.7466C92.0539 31.7466 89.0817 31.7466 86.1095 31.7466C81.7219 31.8881 78.042 35.4265 78.042 39.531C78.042 43.777 78.042 47.8815 78.042 52.2691C78.042 54.109 78.042 55.949 78.042 57.7889V58.3551H83.7034C83.8449 58.3551 84.128 58.2135 84.128 58.072V53.1183C84.128 51.8445 84.128 50.5707 84.128 49.2969H95.3092C95.4507 49.2969 95.7338 49.1553 95.7338 49.0138V44.0601C95.7338 43.9186 95.5923 43.777 95.3092 43.777H84.5526C84.411 43.777 84.128 43.6355 84.128 43.494C84.128 42.9278 84.128 42.5032 84.128 42.5032V41.2294C84.2695 38.5402 85.6849 37.2664 88.5155 37.2664Z" fill="#272742"/>
<path d="M130.175 32.3127V32.0297C130.175 31.8881 130.034 31.7466 129.751 31.7466H124.231C124.089 31.7466 123.806 31.8881 123.806 32.0297V39.3895C123.806 41.0879 123.806 42.7863 123.806 44.3432C123.806 44.9093 123.806 45.3339 123.806 45.9V58.3551C123.806 58.4966 123.948 58.6382 124.231 58.6382H129.751C129.892 58.6382 130.175 58.4966 130.175 58.3551V49.2969C130.175 42.0786 130.175 32.4543 130.175 32.3127Z" fill="#272742"/>
<path d="M175.392 44.7676V44.9091C175.392 44.9091 175.392 44.9091 175.392 45.0506C175.392 45.4753 175.392 45.8999 175.534 46.3245C175.534 45.7583 175.534 45.1922 175.392 44.7676Z" fill="#272742"/>
<path d="M176.506 48.1644C177.213 48.1644 177.921 48.1644 178.062 48.1644C180.185 48.1644 183.865 48.1644 185.139 48.1644C185.281 48.1644 185.422 48.0229 185.422 47.8813C185.564 47.3152 185.564 46.6075 185.564 46.0414C185.564 45.6168 185.564 45.0506 185.422 44.4845C185.139 41.6538 184.148 37.6908 180.893 35.0017C179.053 33.4448 176.93 32.3125 174.383 31.7464C173.25 31.4633 172.118 31.3218 170.844 31.3218C163.484 31.3218 157.54 36.2755 156.408 42.6445C156.266 43.3522 156.266 44.0599 156.266 44.7676C156.266 45.1922 156.266 45.7583 156.408 46.3244C156.691 49.1551 157.681 53.1181 160.937 55.8073C162.777 57.3641 164.9 58.4964 167.447 59.0625C168.58 59.3456 169.712 59.4872 170.986 59.4872C175.515 59.4872 179.478 57.6472 182.167 54.675C182.308 54.5334 182.308 54.3919 182.167 54.2504L178.062 50.9951C177.921 50.8535 177.638 50.8535 177.496 50.9951C175.939 52.6935 173.675 53.8258 170.986 53.8258C170.137 53.8258 169.287 53.6842 168.58 53.5427C165.89 52.835 163.767 50.9951 162.918 48.589C162.777 48.4475 162.918 48.1644 163.201 48.1644C165.183 48.1644 173.25 48.1644 176.506 48.1644ZM170.986 36.9832C171.835 36.9832 172.684 37.1247 173.392 37.2662C176.081 37.9739 178.204 39.8139 179.053 42.2199C179.053 42.3615 179.053 42.503 178.912 42.503H163.343C163.06 42.503 162.918 42.3615 163.06 42.0784C164.192 39.1062 167.306 36.9832 170.986 36.9832Z" fill="#272742"/>
<path d="M153.691 45.6168C152.276 44.2015 150.294 43.3523 147.747 42.7861L143.217 41.9369C141.236 41.5123 140.387 40.6631 140.387 39.2478C140.387 38.3986 140.811 37.8324 141.519 37.1248C142.368 36.5586 143.359 36.2756 144.633 36.2756C145.624 36.2756 146.473 36.4171 147.18 36.7002C147.888 36.9832 148.454 37.2663 148.737 37.8324C149.162 38.257 149.445 38.6816 149.587 39.1062C149.728 39.2478 149.728 39.3893 149.728 39.6724C149.728 39.8139 150.011 39.9555 150.153 39.9555L155.389 38.8232C155.531 38.8232 155.673 38.6816 155.673 38.5401C155.531 37.8324 155.106 37.1248 154.823 36.4171C154.399 35.7094 153.833 35.0017 152.983 34.1525C152.134 33.3033 151.002 32.7372 149.587 32.1711C148.171 31.7464 146.473 31.4634 144.633 31.4634C141.802 31.4634 139.255 32.3126 137.273 33.8695C135.15 35.5679 134.159 37.5494 134.159 39.8139C134.159 41.6539 134.867 43.3523 136.141 44.6261C137.415 45.8999 139.255 46.8906 141.519 47.3153L146.331 48.306C148.596 48.7306 149.587 49.7213 149.587 51.1367C149.587 51.9859 149.162 52.6936 148.454 53.2597C147.605 53.8258 146.614 54.1089 145.199 54.1089C143.359 54.1089 141.944 53.6843 140.953 52.8351C140.104 52.1274 139.538 51.4198 139.255 50.429C139.255 50.2875 138.971 50.1459 138.83 50.1459L133.31 51.2782C133.31 51.2782 133.31 51.2782 133.31 51.4198C133.593 53.2597 134.725 55.0997 136.848 56.6565C138.83 58.2134 141.661 59.0626 145.34 59.0626C148.737 59.0626 151.285 58.2134 153.266 56.515C155.106 54.8166 156.097 52.8351 156.097 50.8536C155.814 48.7306 155.106 47.0322 153.691 45.6168Z" fill="#272742"/>
<path d="M67.1242 35.4263C67.4072 35.5678 67.6903 35.4263 67.6903 35.1432C67.6903 34.5771 67.6903 34.011 67.6903 33.3033C67.6903 33.1618 67.8318 33.0202 68.1149 33.0202C69.9549 33.0202 71.7948 33.0202 73.6348 33.0202C73.7763 33.0202 74.0594 33.1618 74.0594 33.3033C74.0594 41.6538 74.0594 49.8628 74.0594 58.2134C74.0594 58.3549 73.9178 58.4965 73.6348 58.4965C71.7948 58.4965 70.0964 58.4965 68.1149 58.4965C67.9734 58.4965 67.6903 58.3549 67.6903 58.2134C67.6903 57.6472 67.6903 57.2226 67.6903 56.515C67.6903 56.2319 67.2657 56.0904 67.1242 56.2319C65.5673 57.6472 63.8689 58.4964 62.0289 58.9211C54.2445 60.6195 46.3186 56.0904 44.7617 48.7306C43.6294 43.0692 45.1863 38.1155 50.5646 34.4356C54.8107 31.6049 60.8966 31.3218 65.0012 33.5864C65.7088 34.294 66.4165 34.8602 67.1242 35.4263ZM59.3398 54.2504C64.435 54.2504 67.8318 50.8536 67.8318 45.8999C67.8318 41.0877 64.1519 37.6909 59.1982 37.6909C54.2445 37.6909 50.7062 41.2292 50.7062 46.0414C50.8477 50.8536 54.3861 54.2504 59.3398 54.2504Z" fill="#272742"/>
<defs>
<filter id="filter0_d_202_6199" x="0.415527" y="0.321777" width="228.277" height="103.322" filterUnits="userSpaceOnUse" color-interpolation-filters="sRGB">
<feFlood flood-opacity="0" result="BackgroundImageFix"/>
<feColorMatrix in="SourceAlpha" type="matrix" values="0 0 0 0 0 0 0 0 0 0 0 0 0 0 0 0 0 0 127 0" result="hardAlpha"/>
<feOffset dy="7"/>
<feGaussianBlur stdDeviation="10"/>
<feComposite in2="hardAlpha" operator="out"/>
<feColorMatrix type="matrix" values="0 0 0 0 0.419608 0 0 0 0 0.145098 0 0 0 0 0.423529 0 0 0 0.08 0"/>
<feBlend mode="normal" in2="BackgroundImageFix" result="effect1_dropShadow_202_6199"/>
<feBlend mode="normal" in="SourceGraphic" in2="effect1_dropShadow_202_6199" result="shape"/>
</filter>
</defs>
</svg>
