<svg width="229" height="104" viewBox="0 0 229 104" fill="none" xmlns="http://www.w3.org/2000/svg">
<g filter="url(#filter0_d_202_6186)">
<rect x="20.1387" y="13.3218" width="188.277" height="63.3218" rx="10" fill="white"/>
</g>
<path d="M54.2894 56.6115L52.1755 51.4418H42.4222L40.3083 56.6115H35.1387L45.0175 33.4004H49.6848L59.5637 56.6115H54.2685H54.2894ZM47.2989 39.4909L44.2431 46.9629H50.3755L47.3198 39.4909H47.2989Z" fill="#0A5AFF"/>
<path d="M62.6978 37.0211V32.584H67.9721V37.0211H62.6978ZM62.8233 56.6113V38.9676H67.8255V56.6113H62.8233Z" fill="#0A5AFF"/>
<path d="M82.9178 43.8649C79.59 43.8649 77.5598 45.8741 77.5598 50.081V56.5901H72.5576V38.9673H77.5598V42.5254C78.5854 40.0975 80.2179 38.5068 83.1899 38.6324V43.8649H82.9178Z" fill="#0A5AFF"/>
<path d="M96.7924 56.9462C94.1343 56.9462 92.4809 55.7323 91.2879 54.3091V56.6113H86.2856V32.584H91.2879V41.5001C92.5018 39.8466 94.1762 38.6327 96.7924 38.6327C100.916 38.6327 104.829 41.8559 104.829 47.7581V47.8208C104.829 53.723 100.978 56.9462 96.7924 56.9462ZM99.8272 47.7581C99.8272 44.8279 97.8598 42.8814 95.5157 42.8814C93.1715 42.8814 91.246 44.8279 91.246 47.7581V47.8208C91.246 50.751 93.1925 52.6975 95.5157 52.6975C97.8389 52.6975 99.8272 50.7929 99.8272 47.8208V47.7581Z" fill="#0A5AFF"/>
<path d="M118.897 43.8649C115.569 43.8649 113.539 45.8741 113.539 50.081V56.5901H108.537V38.9673H113.539V42.5254C114.564 40.0975 116.197 38.5068 119.169 38.6324V43.8649H118.897Z" fill="#0A5AFF"/>
<path d="M122.375 37.0211V32.584H127.65V37.0211H122.375ZM122.501 56.6113V38.9676H127.503V56.6113H122.501Z" fill="#0A5AFF"/>
<path d="M144.957 56.6113V54.0788C143.743 55.7323 142.068 56.9462 139.452 56.9462C135.329 56.9462 131.415 53.723 131.415 47.8208V47.7581C131.415 41.8559 135.266 38.6327 139.452 38.6327C142.11 38.6327 143.764 39.8466 144.957 41.2698V32.584H149.959V56.6113H144.957ZM145.019 47.7581C145.019 44.8279 143.073 42.8814 140.75 42.8814C138.427 42.8814 136.438 44.786 136.438 47.7581V47.8208C136.438 50.751 138.406 52.6975 140.75 52.6975C143.094 52.6975 145.019 50.751 145.019 47.8208V47.7581Z" fill="#0A5AFF"/>
<path d="M162.327 61.9486C159.459 61.9486 156.759 61.2998 154.52 60.1068L156.236 56.3604C158.057 57.3859 159.857 57.972 162.201 57.972C165.633 57.972 167.245 56.3185 167.245 53.1581V52.3C165.759 54.079 164.147 55.1674 161.489 55.1674C157.366 55.1674 153.662 52.1744 153.662 46.942V46.8792C153.662 41.6049 157.45 38.6538 161.489 38.6538C164.231 38.6538 165.843 39.8049 167.182 41.291V38.9887H172.184V52.6558C172.184 59.3115 168.898 61.9695 162.347 61.9695L162.327 61.9486ZM167.245 46.8792C167.245 44.4723 165.361 42.7979 162.933 42.7979C160.506 42.7979 158.643 44.4723 158.643 46.8792V46.942C158.643 49.3698 160.485 51.0233 162.933 51.0233C165.382 51.0233 167.245 49.3489 167.245 46.942V46.8792Z" fill="#0A5AFF"/>
<path d="M193.056 49.5371H180.77C181.273 51.8185 182.842 52.9906 185.082 52.9906C186.756 52.9906 187.97 52.4673 189.373 51.1697L192.24 53.7022C190.586 55.7533 188.221 56.9881 185.019 56.9881C179.724 56.9881 175.81 53.2626 175.81 47.8628V47.8C175.81 42.7559 179.389 38.6118 184.538 38.6118C190.44 38.6118 193.14 43.1954 193.14 48.1976V48.2604C193.14 48.7627 193.098 49.0558 193.077 49.5162L193.056 49.5371ZM184.517 42.6513C182.445 42.6513 181.084 44.1373 180.687 46.3977H188.221C187.928 44.1582 186.61 42.6513 184.496 42.6513H184.517Z" fill="#0A5AFF"/>
<defs>
<filter id="filter0_d_202_6186" x="0.138672" y="0.321777" width="228.277" height="103.322" filterUnits="userSpaceOnUse" color-interpolation-filters="sRGB">
<feFlood flood-opacity="0" result="BackgroundImageFix"/>
<feColorMatrix in="SourceAlpha" type="matrix" values="0 0 0 0 0 0 0 0 0 0 0 0 0 0 0 0 0 0 127 0" result="hardAlpha"/>
<feOffset dy="7"/>
<feGaussianBlur stdDeviation="10"/>
<feComposite in2="hardAlpha" operator="out"/>
<feColorMatrix type="matrix" values="0 0 0 0 0.419608 0 0 0 0 0.145098 0 0 0 0 0.423529 0 0 0 0.08 0"/>
<feBlend mode="normal" in2="BackgroundImageFix" result="effect1_dropShadow_202_6186"/>
<feBlend mode="normal" in="SourceGraphic" in2="effect1_dropShadow_202_6186" result="shape"/>
</filter>
</defs>
</svg>
