<svg width="229" height="104" viewBox="0 0 229 104" fill="none" xmlns="http://www.w3.org/2000/svg">
<g filter="url(#filter0_d_202_6118)">
<rect x="20" y="13" width="188.277" height="63.3218" rx="10" fill="white"/>
</g>
<path d="M45.1539 38.2L50.1397 47.8C50.4908 48.4353 51.3334 49 52.0357 49H62.2178C62.92 49 63.2009 48.4353 62.8498 47.8L57.8641 38.2C57.513 37.5647 56.6703 37 55.9681 37H45.7859C45.7859 37 45.7859 37 45.7157 37C45.0837 37.0706 44.8028 37.5647 45.1539 38.2Z" fill="#75B82C"/>
<path d="M65.0996 49.8713L68.1759 56.2079C68.3905 56.604 68.8913 57 69.3205 57L75.5447 56.9208C75.9739 56.9208 76.117 56.5248 75.9024 56.1287L72.8261 49.7921C72.6115 49.396 72.1107 49 71.6814 49H65.4573C65.028 49.0792 64.885 49.396 65.0996 49.8713Z" fill="#75B82C"/>
<path d="M65.3969 28.346L59.3618 36.0274C58.9456 36.581 58.8762 37.4806 59.2231 38.1034L64.2176 47.4456C64.5645 48.0684 65.1888 48.2068 65.605 47.6532L71.6402 39.9718C72.0564 39.4182 72.1257 38.5186 71.7789 37.8958L66.7843 28.5536C66.5762 28.2076 66.2987 28 66.0212 28C65.7438 28 65.5357 28.1384 65.3969 28.346Z" fill="#3D90D5"/>
<path d="M63.4386 50.2099L60.1966 54.8289C59.9473 55.1788 59.9473 55.7387 60.1343 56.0886L62.8152 61.6873C63.0022 62.0372 63.3139 62.1072 63.5633 61.8273L66.8053 57.2083C67.0547 56.8584 67.0547 56.2985 66.8677 55.9486L64.1868 50.3499C64.0621 50.14 63.9374 50 63.7504 50C63.688 50 63.5633 50.07 63.4386 50.2099Z" fill="#3D90D5"/>
<path d="M147.001 53H150.001V35H147.001V53Z" fill="#3D90D5"/>
<path d="M105.001 41C101.721 41 99.001 43.8732 99.001 47.338V59H101.321V47.338C101.321 45.1408 103.001 43.4507 105.001 43.4507C107.081 43.4507 108.681 45.2253 108.681 47.338C108.681 49.5352 107.001 51.2254 105.001 51.2254C103.881 51.2254 102.841 50.6338 102.121 49.7887V52.9155C103.001 53.4225 103.961 53.6761 105.001 53.6761C108.281 53.6761 111.001 50.8028 111.001 47.338C111.001 43.7887 108.281 41 105.001 41Z" fill="#75B82C"/>
<path d="M118.001 41C114.721 41 112.001 43.8732 112.001 47.338V59H114.321V47.338C114.321 45.1408 116.001 43.4507 118.001 43.4507C120.081 43.4507 121.681 45.2253 121.681 47.338C121.681 49.5352 120.001 51.2254 118.001 51.2254C116.881 51.2254 115.841 50.6338 115.121 49.7887V52.9155C116.001 53.4225 116.961 53.6761 118.001 53.6761C121.281 53.6761 124.001 50.8028 124.001 47.338C124.001 43.7887 121.281 41 118.001 41Z" fill="#75B82C"/>
<path d="M90.501 35C87.4943 35 85.001 37.9633 85.001 41.5367V54H87.1276V41.5367C87.1276 39.3578 88.6676 37.5275 90.501 37.5275C92.3343 37.5275 93.8743 39.3578 93.8743 41.5367V42.9312H88.4476V45.4587H93.8743V53.9128H96.001V41.5367C96.001 37.8762 93.581 35 90.501 35Z" fill="#75B82C"/>
<path d="M139.352 41.5367C139.352 39.3578 141.055 37.5275 143.082 37.5275H146.001V35H143.082C139.758 35 137.001 37.9633 137.001 41.5367V54H139.352V45.8073H145.839V43.2798H139.352V41.5367Z" fill="#3D90D5"/>
<path d="M159.761 41.0845V48.7746C159.761 50.2958 158.561 51.5634 157.041 51.5634C155.601 51.5634 154.401 50.2958 154.321 48.7746V41.0845H152.001V48.7746C152.001 51.2254 153.681 53.338 155.841 53.8451V59H158.161V53.7606C160.321 53.2535 162.001 51.1408 162.001 48.6901V41H159.761" fill="#3D90D5"/>
<path d="M172.606 48.3628C172.367 49.3982 171.808 50.2611 170.85 50.865C169.094 51.9867 166.859 51.2965 165.821 49.3982C164.784 47.5 165.422 45.0841 167.178 43.9624C168.615 43.0996 170.291 43.3584 171.489 44.4801L166.3 47.6726L167.418 49.8296L169.813 48.3628L174.682 45.3429C174.522 44.9115 174.362 44.5664 174.203 44.2212C172.526 41.115 168.855 40.0796 165.981 41.8916C163.107 43.7035 162.15 47.6726 163.826 50.7788C165.502 53.885 169.174 54.9204 172.048 53.1084C173.724 52.073 174.682 50.3473 175.001 48.4491H172.606" fill="#3D90D5"/>
<path d="M182.557 41C181.297 41 180.112 41.5235 179.149 42.396V41.0872H177.001V54H179.149V47.5436C179.149 45.3624 180.705 43.5302 182.557 43.5302H183.001V41H182.557Z" fill="#3D90D5"/>
<path d="M133.345 47.8138L127.639 44.7655C127.401 44.5862 127.242 44.2276 127.401 43.9586C127.48 43.6897 127.718 43.6 127.876 43.6H134.376V41H127.876C126.767 41 125.737 41.7172 125.261 42.8828C124.627 44.4966 125.182 46.3793 126.608 47.1862L132.315 50.2345C132.632 50.4138 132.711 50.7724 132.553 51.0414C132.473 51.3103 132.236 51.4 132.077 51.4H125.419V54H132.077C133.187 54 134.217 53.2828 134.693 52.1172C135.406 50.5034 134.851 48.531 133.345 47.8138Z" fill="#75B82C"/>
<defs>
<filter id="filter0_d_202_6118" x="0" y="0" width="228.277" height="103.322" filterUnits="userSpaceOnUse" color-interpolation-filters="sRGB">
<feFlood flood-opacity="0" result="BackgroundImageFix"/>
<feColorMatrix in="SourceAlpha" type="matrix" values="0 0 0 0 0 0 0 0 0 0 0 0 0 0 0 0 0 0 127 0" result="hardAlpha"/>
<feOffset dy="7"/>
<feGaussianBlur stdDeviation="10"/>
<feComposite in2="hardAlpha" operator="out"/>
<feColorMatrix type="matrix" values="0 0 0 0 0.419608 0 0 0 0 0.145098 0 0 0 0 0.423529 0 0 0 0.08 0"/>
<feBlend mode="normal" in2="BackgroundImageFix" result="effect1_dropShadow_202_6118"/>
<feBlend mode="normal" in="SourceGraphic" in2="effect1_dropShadow_202_6118" result="shape"/>
</filter>
</defs>
</svg>
