<svg width="229" height="104" viewBox="0 0 229 104" fill="none" xmlns="http://www.w3.org/2000/svg">
<g filter="url(#filter0_d_202_6247)">
<rect x="20" y="13" width="188.277" height="63.3218" rx="10" fill="white"/>
</g>
<path d="M87.2248 54.0539L85.9671 50.1906H78.8695C78.6899 50.8195 78.4203 51.4484 78.2406 52.0773L77.6117 53.964H74.1978L80.5765 36.355H84.2601L90.4592 54.0539H87.2248ZM82.3734 40.2182C81.9242 41.3861 81.5648 42.5541 81.1156 43.722C80.6664 44.89 80.307 46.0579 79.8578 47.3157H84.9788L82.3734 40.2182Z" fill="black"/>
<path d="M100.883 36.4448H94.4141V54.1437H97.3788V48.1243H100.883C104.476 48.1243 106.183 46.597 106.183 43.5423V41.0268C106.183 37.8823 104.476 36.4448 100.883 36.4448ZM97.3788 39.2299H100.793C102.859 39.2299 103.129 39.769 103.129 41.0268V43.5423C103.129 44.8001 102.769 45.3392 100.793 45.3392H97.3788V39.2299Z" fill="black"/>
<path d="M116.152 36.4448H109.684V54.1437H112.648V48.1243H116.152C119.746 48.1243 121.453 46.597 121.453 43.5423V41.0268C121.453 37.8823 119.746 36.4448 116.152 36.4448ZM112.648 39.2299H116.062C118.129 39.2299 118.398 39.769 118.398 41.0268V43.5423C118.398 44.8001 118.039 45.3392 116.062 45.3392H112.648V39.2299Z" fill="black"/>
<path d="M128.239 52.3469H136.415V54.1437H126.442V36.4448H128.239V52.3469Z" fill="black"/>
<path d="M151.958 48.9329C151.958 51.8976 150.161 54.3234 145.579 54.3234C140.997 54.3234 139.2 51.8976 139.2 48.9329V41.476C139.2 38.5112 140.997 36.0854 145.579 36.0854C150.161 36.0854 151.958 38.5112 151.958 41.476V48.9329ZM140.907 48.9329C140.907 51.4484 142.435 52.8859 145.669 52.8859C148.903 52.8859 150.43 51.4484 150.43 48.9329V41.476C150.43 38.9604 148.903 37.5229 145.669 37.5229C142.435 37.5229 140.907 38.9604 140.907 41.476V48.9329Z" fill="black"/>
<path d="M154.742 36.4448H156.539L162.288 52.3469L168.038 36.4448H169.835L163.456 54.0539H161.12L154.742 36.4448Z" fill="black"/>
<path d="M175.133 54.0539H173.336V36.4448H175.133V54.0539Z" fill="black"/>
<path d="M183.677 38.5112V54.0539H181.97V36.4448H184.576L192.302 51.5383V36.4448H194.009V54.0539H191.853L183.677 38.5112Z" fill="black"/>
<path d="M66.0863 51.7178C63.8403 51.7178 62.0435 53.5146 62.0435 55.7607C62.0435 58.0067 63.8403 59.8036 66.0863 59.8036C68.3324 59.8036 70.1292 58.0067 70.1292 55.8505C70.1292 53.5146 68.3324 51.7178 66.0863 51.7178ZM68.5121 55.7607C68.5121 57.1083 67.434 58.0966 66.1762 58.0966C64.8286 58.0966 63.8403 57.0184 63.8403 55.7607C63.8403 54.413 64.9184 53.4248 66.1762 53.4248C67.434 53.4248 68.5121 54.413 68.5121 55.7607Z" fill="black"/>
<path d="M39.0429 51.7178C36.7968 51.7178 35 53.5146 35 55.7607C35 58.0067 36.7968 59.8036 39.0429 59.8036C41.2889 59.8036 43.0858 58.0067 43.0858 55.7607C42.9959 53.5146 41.1991 51.7178 39.0429 51.7178ZM41.3788 55.7607C41.3788 57.1083 40.3007 58.0966 39.0429 58.0966C37.6953 58.0966 36.707 57.0184 36.707 55.7607C36.707 54.413 37.7851 53.4248 39.0429 53.4248C40.3007 53.4248 41.3788 54.413 41.3788 55.7607Z" fill="black"/>
<path d="M52.6098 29.7964C50.3637 29.7964 48.5669 31.5932 48.5669 33.7494C48.5669 35.9955 50.3637 37.7923 52.5199 37.7923C54.766 37.7923 56.5628 35.9955 56.5628 33.8393C56.6527 31.5932 54.8558 29.7964 52.6098 29.7964ZM54.9457 33.8393C54.9457 35.1869 53.8676 36.1752 52.6098 36.1752C51.2622 36.1752 50.2739 35.0971 50.2739 33.8393C50.2739 32.4916 51.352 31.5034 52.6098 31.5034C53.8676 31.5034 54.9457 32.4916 54.9457 33.8393Z" fill="black"/>
<path d="M64.6499 52.1672L55.7556 36.2651L55.6657 36.0854L55.5759 36.2651C55.3063 36.6245 54.8571 36.9839 54.4978 37.1636H54.4079L54.4978 37.2534L62.314 51.3586C59.1695 50.7297 55.9352 50.3703 52.7009 50.3703C49.3768 50.2805 46.0526 50.6398 42.8183 51.3586L50.6346 37.2534L50.7244 37.1636L50.6346 37.0737C50.1854 36.894 49.826 36.5347 49.5565 36.1753L49.4666 35.9956L49.3768 36.1753L40.3926 52.1672L40.3027 52.257H40.3926C40.8418 52.4367 41.2012 52.9757 41.5605 53.2453L41.6504 53.3351H41.83C45.4237 52.4367 49.0174 52.0773 52.7009 52.1672C56.2048 52.1672 59.7984 52.5265 63.2124 53.3351L63.3023 53.425L63.3921 53.3351C63.7515 53.0656 64.1109 52.5265 64.5601 52.3468H64.7398L64.6499 52.1672Z" fill="black"/>
<defs>
<filter id="filter0_d_202_6247" x="0" y="0" width="228.277" height="103.322" filterUnits="userSpaceOnUse" color-interpolation-filters="sRGB">
<feFlood flood-opacity="0" result="BackgroundImageFix"/>
<feColorMatrix in="SourceAlpha" type="matrix" values="0 0 0 0 0 0 0 0 0 0 0 0 0 0 0 0 0 0 127 0" result="hardAlpha"/>
<feOffset dy="7"/>
<feGaussianBlur stdDeviation="10"/>
<feComposite in2="hardAlpha" operator="out"/>
<feColorMatrix type="matrix" values="0 0 0 0 0.419608 0 0 0 0 0.145098 0 0 0 0 0.423529 0 0 0 0.08 0"/>
<feBlend mode="normal" in2="BackgroundImageFix" result="effect1_dropShadow_202_6247"/>
<feBlend mode="normal" in="SourceGraphic" in2="effect1_dropShadow_202_6247" result="shape"/>
</filter>
</defs>
</svg>
