<svg width="63" height="58" viewBox="0 0 63 58" fill="none" xmlns="http://www.w3.org/2000/svg">
<path d="M50.2598 14.6002L37.5898 7.28008L34.0298 5.23016C32.2798 4.22016 30.1298 4.22016 28.3898 5.23016L24.8298 7.28008L12.1598 14.6002C10.4098 15.6102 9.33984 17.4702 9.33984 19.4902V38.2302C9.33984 40.2502 10.4198 42.1102 12.1598 43.1202L24.1098 50.0201L27.7198 46.4101L31.2098 42.9201L34.6998 46.4101L38.3098 50.0201L50.2598 43.1202C52.0098 42.1102 53.0798 40.2502 53.0798 38.2302V19.4902C53.0798 17.4702 51.9998 15.6102 50.2598 14.6002Z" fill="url(#paint0_linear_1896_12447)"/>
<path d="M28.0781 52.1503L29.8181 53.1603C30.6681 53.6503 31.7281 53.6503 32.5781 53.1603L34.3181 52.1503L31.1981 49.0303L28.0781 52.1503Z" fill="#913E1F"/>
<path d="M45.6386 20.2197L43.4886 23.9397L40.5686 28.9897L38.3086 25.0697L38.9586 23.9397L41.1086 20.2197H45.6386Z" fill="#913E1F"/>
<path d="M40.5688 28.9897L38.3088 32.9197L37.6388 34.0697L36.2788 36.4297L35.4888 37.7897H30.9688L33.1188 34.0697L34.6488 31.4097V31.3997L36.0387 28.9897L33.1288 23.9397L30.9788 20.2197H35.5088L35.6488 20.4697L37.6588 23.9397L38.3088 25.0697L40.5688 28.9897Z" fill="white"/>
<path d="M45.6486 37.7902H41.1286L38.9686 34.0702L38.3086 32.9202L40.5686 28.9902L43.5086 34.0702L45.6486 37.7902Z" fill="#913E1F"/>
<path d="M29.33 24.1896C28.99 23.3996 28.52 22.7097 27.93 22.1197C27.35 21.5297 26.65 21.0597 25.86 20.7197C24.26 20.0197 22.32 20.0397 20.74 20.7197C19.95 21.0597 19.25 21.5297 18.67 22.1197C18.08 22.7097 17.61 23.3996 17.27 24.1896C16.93 24.9896 16.75 25.8397 16.75 26.7397V37.7696H20.13V32.0096H26.49V37.7696H29.84V26.7397C29.84 25.8397 29.67 24.9896 29.32 24.1896H29.33ZM26.5 26.7397V28.6496H20.14V26.7397C20.14 26.2997 20.22 25.8896 20.39 25.5096C20.56 25.1196 20.79 24.7797 21.08 24.4897C21.37 24.1997 21.71 23.9696 22.1 23.7996C22.87 23.4696 23.79 23.4696 24.56 23.7996C24.94 23.9696 25.29 24.1997 25.58 24.4897C25.87 24.7797 26.1 25.1196 26.27 25.5096C26.43 25.8896 26.52 26.2997 26.52 26.7397H26.5Z" fill="white"/>
<defs>
<linearGradient id="paint0_linear_1896_12447" x1="2.13984" y1="55.3301" x2="52.3398" y2="9.62006" gradientUnits="userSpaceOnUse">
<stop offset="0.09" stop-color="#EE366D"/>
<stop offset="1" stop-color="#F9A024"/>
</linearGradient>
</defs>
</svg>
