<svg width="40" height="41" viewBox="0 0 40 41" fill="none" xmlns="http://www.w3.org/2000/svg">
<rect y="0.5" width="40" height="40" rx="10" fill="url(#paint0_linear_1713_12390)"/>
<path d="M13.75 26.5L13.35 26.15C12.4833 25.3833 11.875 24.5083 11.525 23.525C11.175 22.5417 11 21.55 11 20.55C11 18.9833 11.3958 17.5625 12.1875 16.2875C12.9792 15.0125 14.05 14.0333 15.4 13.35C15.6333 13.2167 15.8833 13.2083 16.15 13.325C16.4167 13.4417 16.5917 13.6333 16.675 13.9C16.7583 14.15 16.7542 14.4 16.6625 14.65C16.5708 14.9 16.4083 15.0917 16.175 15.225C15.2083 15.7583 14.4375 16.4958 13.8625 17.4375C13.2875 18.3792 13 19.4167 13 20.55C13 21.3 13.1417 22.0292 13.425 22.7375C13.7083 23.4458 14.15 24.1 14.75 24.7L15 24.95V23.5C15 23.2167 15.0958 22.9792 15.2875 22.7875C15.4792 22.5958 15.7167 22.5 16 22.5C16.2833 22.5 16.5208 22.5958 16.7125 22.7875C16.9042 22.9792 17 23.2167 17 23.5V27.5C17 27.7833 16.9042 28.0208 16.7125 28.2125C16.5208 28.4042 16.2833 28.5 16 28.5H12C11.7167 28.5 11.4792 28.4042 11.2875 28.2125C11.0958 28.0208 11 27.7833 11 27.5C11 27.2167 11.0958 26.9792 11.2875 26.7875C11.4792 26.5958 11.7167 26.5 12 26.5H13.75ZM25 16.05V17.5C25 17.7833 24.9042 18.0208 24.7125 18.2125C24.5208 18.4042 24.2833 18.5 24 18.5C23.7167 18.5 23.4792 18.4042 23.2875 18.2125C23.0958 18.0208 23 17.7833 23 17.5V13.5C23 13.2167 23.0958 12.9792 23.2875 12.7875C23.4792 12.5958 23.7167 12.5 24 12.5H28C28.2833 12.5 28.5208 12.5958 28.7125 12.7875C28.9042 12.9792 29 13.2167 29 13.5C29 13.7833 28.9042 14.0208 28.7125 14.2125C28.5208 14.4042 28.2833 14.5 28 14.5H26.25L26.65 14.85C27.3333 15.55 27.8583 16.2917 28.225 17.075C28.5917 17.8583 28.825 18.6667 28.925 19.5H26.9C26.8167 18.9167 26.6375 18.3583 26.3625 17.825C26.0875 17.2917 25.7167 16.7833 25.25 16.3L25 16.05ZM25.4 31.5C25.2667 31.5 25.1625 31.4625 25.0875 31.3875C25.0125 31.3125 24.9583 31.2167 24.925 31.1L24.7 30C24.5 29.9167 24.3125 29.8292 24.1375 29.7375C23.9625 29.6458 23.7833 29.5333 23.6 29.4L22.525 29.725C22.4083 29.7583 22.3 29.7542 22.2 29.7125C22.1 29.6708 22.0167 29.6 21.95 29.5L21.35 28.5C21.2833 28.4 21.2667 28.2917 21.3 28.175C21.3333 28.0583 21.3917 27.9583 21.475 27.875L22.3 27.15C22.2667 26.9167 22.25 26.7 22.25 26.5C22.25 26.3 22.2667 26.0833 22.3 25.85L21.475 25.125C21.3917 25.0417 21.3333 24.9417 21.3 24.825C21.2667 24.7083 21.2833 24.6 21.35 24.5L21.95 23.5C22.0167 23.4 22.1 23.3292 22.2 23.2875C22.3 23.2458 22.4083 23.2417 22.525 23.275L23.6 23.6C23.7833 23.4667 23.9625 23.3542 24.1375 23.2625C24.3125 23.1708 24.5 23.0833 24.7 23L24.925 21.9C24.9583 21.7833 25.0125 21.6875 25.0875 21.6125C25.1625 21.5375 25.2667 21.5 25.4 21.5H26.6C26.7333 21.5 26.8375 21.5375 26.9125 21.6125C26.9875 21.6875 27.0417 21.7833 27.075 21.9L27.3 23C27.5 23.0833 27.6875 23.175 27.8625 23.275C28.0375 23.375 28.2167 23.5 28.4 23.65L29.45 23.275C29.5667 23.2417 29.6792 23.2458 29.7875 23.2875C29.8958 23.3292 29.9833 23.4 30.05 23.5L30.65 24.55C30.7167 24.65 30.7375 24.7583 30.7125 24.875C30.6875 24.9917 30.6333 25.0917 30.55 25.175L29.7 25.9C29.7333 26.1 29.75 26.3083 29.75 26.525C29.75 26.7417 29.7333 26.95 29.7 27.15L30.525 27.875C30.6083 27.9583 30.6667 28.0583 30.7 28.175C30.7333 28.2917 30.7167 28.4 30.65 28.5L30.05 29.5C29.9833 29.6 29.9 29.6708 29.8 29.7125C29.7 29.7542 29.5917 29.7583 29.475 29.725L28.4 29.4C28.2167 29.5333 28.0375 29.6458 27.8625 29.7375C27.6875 29.8292 27.5 29.9167 27.3 30L27.075 31.1C27.0417 31.2167 26.9875 31.3125 26.9125 31.3875C26.8375 31.4625 26.7333 31.5 26.6 31.5H25.4ZM26 28.5C26.55 28.5 27.0208 28.3042 27.4125 27.9125C27.8042 27.5208 28 27.05 28 26.5C28 25.95 27.8042 25.4792 27.4125 25.0875C27.0208 24.6958 26.55 24.5 26 24.5C25.45 24.5 24.9792 24.6958 24.5875 25.0875C24.1958 25.4792 24 25.95 24 26.5C24 27.05 24.1958 27.5208 24.5875 27.9125C24.9792 28.3042 25.45 28.5 26 28.5Z" fill="white"/>
<defs>
<linearGradient id="paint0_linear_1713_12390" x1="36.0389" y1="0.24022" x2="-8.56635" y2="34.6278" gradientUnits="userSpaceOnUse">
<stop stop-color="#A85AA3"/>
<stop offset="1" stop-color="#6B256C"/>
</linearGradient>
</defs>
</svg>
