<svg width="75" height="75" viewBox="0 0 75 75" fill="none" xmlns="http://www.w3.org/2000/svg">
<g filter="url(#filter0_d_365_5092)">
<rect x="11" y="11" width="53" height="53" rx="26.5" stroke="url(#paint0_linear_365_5092)" stroke-width="2"/>
<path d="M29.9333 37.1C29.6889 36.8556 29.5667 36.5444 29.5667 36.1667C29.5667 35.7889 29.6889 35.4778 29.9333 35.2333L36.0667 29.1C36.2 28.9667 36.3444 28.8724 36.5 28.8173C36.6555 28.7613 36.8222 28.7333 37 28.7333C37.1778 28.7333 37.3444 28.7613 37.5 28.8173C37.6555 28.8724 37.8 28.9667 37.9333 29.1L44.0666 35.2333C44.3111 35.4778 44.4386 35.7831 44.4493 36.1493C44.4609 36.5164 44.3333 36.8333 44.0666 37.1C43.8222 37.3444 43.5111 37.4667 43.1333 37.4667C42.7555 37.4667 42.4444 37.3444 42.2 37.1L37 31.9333L31.8 37.1C31.5555 37.3444 31.2498 37.4724 30.8827 37.484C30.5164 37.4947 30.2 37.3667 29.9333 37.1ZM29.9333 45.1C29.6889 44.8556 29.5667 44.5444 29.5667 44.1667C29.5667 43.7889 29.6889 43.4778 29.9333 43.2333L36.0667 37.1C36.2 36.9667 36.3444 36.872 36.5 36.816C36.6555 36.7609 36.8222 36.7333 37 36.7333C37.1778 36.7333 37.3444 36.7609 37.5 36.816C37.6555 36.872 37.8 36.9667 37.9333 37.1L44.0666 43.2333C44.3111 43.4778 44.4386 43.7831 44.4493 44.1493C44.4609 44.5164 44.3333 44.8333 44.0666 45.1C43.8222 45.3444 43.5111 45.4667 43.1333 45.4667C42.7555 45.4667 42.4444 45.3444 42.2 45.1L37 39.9333L31.8 45.1C31.5555 45.3444 31.2498 45.4724 30.8827 45.484C30.5164 45.4947 30.2 45.3667 29.9333 45.1Z" fill="url(#paint1_linear_365_5092)"/>
</g>
<defs>
<filter id="filter0_d_365_5092" x="-8.2" y="-8.2" width="91.4" height="91.4" filterUnits="userSpaceOnUse" color-interpolation-filters="sRGB">
<feFlood flood-opacity="0" result="BackgroundImageFix"/>
<feColorMatrix in="SourceAlpha" type="matrix" values="0 0 0 0 0 0 0 0 0 0 0 0 0 0 0 0 0 0 127 0" result="hardAlpha"/>
<feOffset/>
<feGaussianBlur stdDeviation="4.1"/>
<feComposite in2="hardAlpha" operator="out"/>
<feColorMatrix type="matrix" values="0 0 0 0 0.952941 0 0 0 0 0.537255 0 0 0 0 0.690196 0 0 0 0.33 0"/>
<feBlend mode="normal" in2="BackgroundImageFix" result="effect1_dropShadow_365_5092"/>
<feBlend mode="normal" in="SourceGraphic" in2="effect1_dropShadow_365_5092" result="shape"/>
</filter>
<linearGradient id="paint0_linear_365_5092" x1="37.5" y1="10" x2="37.5" y2="65" gradientUnits="userSpaceOnUse">
<stop stop-color="#F0E91B"/>
<stop offset="1" stop-color="#F389B0"/>
</linearGradient>
<linearGradient id="paint1_linear_365_5092" x1="37.0083" y1="28.7333" x2="37.0083" y2="45.4846" gradientUnits="userSpaceOnUse">
<stop stop-color="#F0E91B"/>
<stop offset="1" stop-color="#F389B0"/>
</linearGradient>
</defs>
</svg>
