<svg width="40" height="41" viewBox="0 0 40 41" fill="none" xmlns="http://www.w3.org/2000/svg">
<rect x="2.25" y="2.75" width="35.5" height="35.5" rx="7.75" fill="#F389B0" fill-opacity="0.2"/>
<rect x="2.25" y="2.75" width="35.5" height="35.5" rx="7.75" stroke="url(#paint0_linear_1852_3077)" stroke-width="0.5"/>
<path d="M11.8758 20.0636L11.8757 20.0635C11.6272 19.8785 11.418 19.6771 11.25 19.4596V20.5C11.25 21.442 11.996 22.3219 13.7271 23.0968C15.4368 23.8621 17.525 24.25 20 24.25C22.475 24.25 24.5632 23.8621 26.2729 23.0968C28.004 22.3219 28.75 21.442 28.75 20.5V19.4596C28.582 19.6771 28.3728 19.8785 28.1243 20.0635L28.1242 20.0636C27.4162 20.59 26.5749 21.0136 25.6041 21.3372C24.639 21.6589 23.6362 21.8913 22.5961 22.0347M11.8758 20.0636L22.562 21.787M11.8758 20.0636C12.5838 20.59 13.4251 21.0136 14.3959 21.3372C15.361 21.6589 16.3638 21.8913 17.4039 22.0347M11.8758 20.0636L17.438 21.787M22.5961 22.0347L22.562 21.787M22.5961 22.0347C22.5962 22.0346 22.5963 22.0346 22.5963 22.0346L22.562 21.787M22.5961 22.0347C21.5653 22.1775 20.699 22.25 20 22.25C19.301 22.25 18.4347 22.1775 17.4039 22.0347M22.562 21.787C21.5373 21.929 20.6833 22 20 22C19.3167 22 18.4627 21.929 17.438 21.787M17.4039 22.0347L17.438 21.787M17.4039 22.0347C17.4038 22.0346 17.4037 22.0346 17.4037 22.0346L17.438 21.787M28.75 19.0043C28.9167 18.6969 29 18.3622 29 18V19.0659L28.75 19.0043ZM11.8757 25.0635L11.8758 25.0636C12.5838 25.59 13.4251 26.0136 14.3959 26.3372C15.361 26.6589 16.3637 26.8916 17.4037 27.0356L17.4038 27.0357C18.4347 27.1778 19.301 27.25 20 27.25C20.699 27.25 21.5653 27.1778 22.5962 27.0357L22.5963 27.0356C23.6363 26.8916 24.639 26.6589 25.6041 26.3372C26.5749 26.0136 27.4162 25.59 28.1242 25.0636L28.1243 25.0635C28.3728 24.8785 28.582 24.6771 28.75 24.4596V25.5C28.75 26.442 28.004 27.3219 26.2729 28.0968C24.5632 28.8621 22.475 29.25 20 29.25C17.525 29.25 15.4368 28.8621 13.7271 28.0968C11.996 27.3219 11.25 26.442 11.25 25.5V24.4596C11.418 24.6771 11.6272 24.8785 11.8757 25.0635ZM20 19.25C17.525 19.25 15.4368 18.8621 13.7271 18.0968C11.996 17.3219 11.25 16.442 11.25 15.5C11.25 14.558 11.996 13.6781 13.7271 12.9032C15.4368 12.1379 17.525 11.75 20 11.75C22.475 11.75 24.5632 12.1379 26.2729 12.9032C28.004 13.6781 28.75 14.558 28.75 15.5C28.75 16.442 28.004 17.3219 26.2729 18.0968C24.5632 18.8621 22.475 19.25 20 19.25Z" fill="#A85AA3" stroke="#231F20" stroke-width="0.5"/>
<defs>
<linearGradient id="paint0_linear_1852_3077" x1="23.75" y1="38.125" x2="24.125" y2="2.875" gradientUnits="userSpaceOnUse">
<stop stop-color="#F389B0"/>
<stop offset="1" stop-color="#F0E91B"/>
</linearGradient>
</defs>
</svg>
