<svg width="63" height="57" viewBox="0 0 63 57" fill="none" xmlns="http://www.w3.org/2000/svg">
<path d="M50.2598 14.1L37.5898 6.78021L34.0298 4.73016C32.2798 3.72016 30.1298 3.72016 28.3898 4.73016L24.8298 6.78021L12.1598 14.1C10.4098 15.11 9.33984 16.9702 9.33984 18.9902V37.7302C9.33984 39.7502 10.4198 41.6101 12.1598 42.62L24.1098 49.5202L27.7198 45.9101L31.2098 42.4201L34.6998 45.9101L38.3098 49.5202L50.2598 42.62C52.0098 41.6101 53.0798 39.7502 53.0798 37.7302V18.9902C53.0798 16.9702 51.9998 15.11 50.2598 14.1Z" fill="url(#paint0_linear_1896_12513)"/>
<path d="M28.0781 51.6501L29.8181 52.6602C30.6681 53.1502 31.7281 53.1502 32.5781 52.6602L34.3181 51.6501L31.1981 48.5303L28.0781 51.6501Z" fill="#3A853F"/>
<path d="M28.59 23.2705V19.9004H17.25V37.2905H28.59V33.9404H20.6V30.2805H27.59V26.9104H20.6V23.2705H28.59Z" fill="white"/>
<path d="M45.1503 19.71L43.0003 23.4299L40.0903 28.48L37.8203 24.5601L38.4703 23.4299L40.6203 19.71H45.1503Z" fill="#3A853F"/>
<path d="M40.0905 28.48L37.8205 32.3999L37.1505 33.5601L35.7905 35.9099L35.0005 37.28H30.4805L32.6305 33.5601L34.1705 30.8999V30.8899L35.5605 28.48L32.6405 23.4299L30.4905 19.71H35.0205L35.1605 19.96L37.1705 23.4299L37.8205 24.5601L40.0905 28.48Z" fill="white"/>
<path d="M45.1703 37.2805H40.6403L38.4903 33.5605L37.8203 32.4004L40.0903 28.4805L43.0203 33.5605L45.1703 37.2805Z" fill="#3A853F"/>
<defs>
<linearGradient id="paint0_linear_1896_12513" x1="32.1198" y1="60.3602" x2="31.1998" y2="28.2202" gradientUnits="userSpaceOnUse">
<stop offset="0.09" stop-color="#57AB46"/>
<stop offset="1" stop-color="#9ECE66"/>
</linearGradient>
</defs>
</svg>
