<svg width="7" height="14" viewBox="0 0 7 14" fill="none" xmlns="http://www.w3.org/2000/svg">
<g clip-path="url(#clip0_1896_12352)">
<g clip-path="url(#clip1_1896_12352)">
<path d="M1.38291 13.883C1.20991 13.767 1.30491 13.578 1.30391 13.429C1.29391 11.279 1.29391 9.129 1.29191 6.978C1.10452 6.93906 0.912206 6.92962 0.721906 6.95C0.489076 6.98064 0.25232 6.95737 0.0299063 6.882L0.00390625 4.8V4.752C0.00390625 4.643 0.0259062 4.552 0.170906 4.585C0.412484 4.56705 0.654926 4.56371 0.896906 4.575C1.20791 4.607 1.31991 4.503 1.31091 4.122C1.25735 3.52704 1.27852 2.92771 1.37391 2.338C1.35671 1.82213 1.52379 1.317 1.8452 0.913127C2.16661 0.509256 2.62134 0.233047 3.12791 0.134C3.19194 0.103288 3.2634 0.0914923 3.33391 0.1C3.41446 0.11338 3.49713 0.0974124 3.56691 0.055L3.76691 0.044C4.09691 0.017 4.42191 0 4.74791 0H4.81691C5.13025 0.000601383 5.44335 0.0176247 5.75491 0.051C5.81826 0.812685 5.81826 1.57831 5.75491 2.34C5.34591 2.352 4.93591 2.347 4.52791 2.382C4.22791 2.408 3.90491 2.438 3.88391 2.917C3.88391 3.362 3.88391 3.808 3.87191 4.253C3.86491 4.494 3.94391 4.578 4.15391 4.572C4.45391 4.564 4.74791 4.565 5.04491 4.572H5.56891C5.71691 4.572 5.83491 4.572 5.80691 4.815C5.73306 5.42392 5.67272 6.03441 5.62591 6.646C5.60591 6.92 5.49191 6.966 5.28491 6.957C5.14091 6.951 4.99591 6.957 4.85091 6.957C4.65854 6.96454 4.4659 6.9612 4.27391 6.947C3.95691 6.917 3.86291 7.031 3.86591 7.402C3.88191 9.415 3.87491 11.428 3.86591 13.442C3.86591 13.586 3.92891 13.75 3.80691 13.876C3.42791 13.905 3.04791 13.916 2.66891 13.916C2.24012 13.9105 1.81141 13.8995 1.38291 13.883ZM0.947906 4.691C0.998039 4.69655 1.04757 4.70659 1.09591 4.721H1.14191C1.16591 4.721 1.10091 4.621 1.10891 4.683H1.04391C1.01179 4.68399 0.979745 4.68666 0.947906 4.691ZM1.46291 4.366C1.46791 4.366 1.46291 4.358 1.44691 4.366C1.43091 4.374 1.42691 4.366 1.42491 4.348C1.42491 4.379 1.45391 4.372 1.46291 4.366ZM1.41491 4.1C1.41491 4.174 1.41491 4.249 1.42391 4.324C1.43091 4.174 1.43091 4.024 1.42891 3.875C1.42589 3.95009 1.42122 4.02511 1.41491 4.1Z" fill="white"/>
</g>
</g>
<defs>
<clipPath id="clip0_1896_12352">
<rect width="6.63" height="13.91" fill="white"/>
</clipPath>
<clipPath id="clip1_1896_12352">
<rect width="6.624" height="13.91" fill="white" transform="translate(0.00390625)"/>
</clipPath>
</defs>
</svg>
