<svg width="229" height="104" viewBox="0 0 229 104" fill="none" xmlns="http://www.w3.org/2000/svg">
<g filter="url(#filter0_d_202_6265)">
<rect x="20.2769" y="13" width="188.277" height="63.3218" rx="10" fill="white"/>
</g>
<path d="M78.1397 55.9217C78.1109 55.5897 78.4045 55.4716 78.5825 55.2937C82.803 51.0906 87.0354 46.8983 91.2547 42.694C92.3022 41.6501 93.5013 41.1899 94.9412 41.6795C96.9541 42.3638 98.4324 45.1083 96.1859 47.3471C92.8619 50.6597 89.566 53.9999 86.2282 57.2987C85.0387 58.4744 83.9727 59.7814 82.6112 60.7791C83.8648 58.0346 81.65 55.5148 79.1985 55.7653C78.8438 55.8012 78.4926 55.8689 78.1397 55.9223V55.9217Z" fill="#FBBC07"/>
<path d="M68.3159 37.0894C70.5445 34.8267 72.7712 32.5609 75.004 30.3024C75.508 29.7924 76.0359 29.3065 76.5525 28.8091C75.2773 31.6034 77.0343 33.6887 79.0046 34.0255C79.7117 34.1459 80.3619 33.8577 81.0462 33.8691C80.1395 34.9957 79.0393 35.9341 78.023 36.9534C76.0473 38.9345 74.0452 40.8892 72.0546 42.8553C72.0348 42.4592 71.7669 42.2171 71.5116 41.9631C70.4546 40.9102 69.4059 39.8483 68.3428 38.8015C67.9449 38.4096 67.5776 38.0644 68.3135 37.6389C68.5298 37.5137 68.6562 37.2746 68.3159 37.09V37.0894Z" fill="#3D82EF"/>
<path d="M78.1401 41.643C80.3034 39.1537 82.5763 36.758 85.1447 34.6978C86.3905 33.6982 88.3159 34.1962 89.3801 35.4366C90.4426 36.6753 90.5786 38.5713 89.4658 39.7506C87.2978 42.0475 85.0164 44.2377 82.7783 46.4681C82.7441 46.5023 82.6662 46.4933 82.6087 46.5041C83.8977 43.6582 81.5331 41.2415 79.1966 41.4914C78.843 41.5291 78.4925 41.5921 78.1407 41.643H78.1401Z" fill="#FBBC07"/>
<path d="M68.3155 37.0895C68.6565 37.2734 68.53 37.5125 68.3131 37.6384C67.5772 38.0644 67.9446 38.4096 68.3425 38.8009C69.4061 39.8478 70.4542 40.9096 71.5113 41.9625C71.7665 42.2166 72.0344 42.4587 72.0542 42.8548C70.5327 44.3888 69.0388 45.9511 67.4796 47.4462C66.4357 48.4475 64.9753 48.6021 63.7127 47.9825C62.4495 47.3629 61.6118 45.9337 61.7292 44.5494C61.7867 43.8681 62.1433 43.2689 62.5819 42.8098C64.4474 40.8587 66.3176 38.9088 68.3155 37.0889V37.0895Z" fill="#3D82EF"/>
<path d="M77.2494 51.9394C77.1852 52.0023 77.1211 52.0652 77.057 52.1287C77.0001 52.185 76.9425 52.242 76.8856 52.2983L76.876 52.3085C76.8191 52.3654 76.7628 52.4229 76.7058 52.4799C76.4583 52.8424 76.1455 53.1384 75.786 53.3877C75.6332 53.2936 75.4534 53.2265 75.3312 53.1019C74.237 51.9897 73.1128 50.9033 72.0887 49.7293C71.7363 49.3255 70.9903 49.4135 70.9321 48.7178C72.7484 46.7841 74.6241 44.9096 76.5542 43.0903C76.4781 43.2863 76.4008 43.4804 76.3271 43.677C75.4211 46.0901 77.3458 48.592 79.9022 48.3355C80.2893 48.2966 80.6405 48.0575 81.0462 48.1491C80.3486 49.1577 79.2868 49.7971 78.476 50.6911C78.4281 50.7469 78.3807 50.8026 78.3328 50.8589C78.2699 50.9212 78.2063 50.983 78.1434 51.0453C78.0859 51.1034 78.0278 51.1609 77.9702 51.2191L77.9642 51.2251C77.9061 51.2832 77.848 51.3407 77.7905 51.3988C77.667 51.5217 77.5436 51.6451 77.4201 51.768C77.3626 51.8255 77.3051 51.8824 77.2476 51.94L77.2494 51.9394Z" fill="#3D82EF"/>
<path d="M81.0481 48.1485C80.6424 48.0569 80.2907 48.2965 79.9042 48.3349C77.3472 48.5908 75.423 46.0895 76.3291 43.6764C76.4028 43.4804 76.4801 43.2857 76.5562 43.0897C76.9571 42.6858 77.358 42.2819 77.7595 41.8781C77.9177 41.8385 78.1082 41.8541 78.1568 41.6366L78.1436 41.6426C78.4953 41.5916 78.8459 41.5287 79.1995 41.4909C81.5359 41.2411 83.9011 43.6578 82.6115 46.5036C82.2742 47.0879 81.772 47.5205 81.2722 47.9556C81.1548 47.9772 81.0523 48.0149 81.0427 48.1587L81.0481 48.1491V48.1485Z" fill="#36A854"/>
<path d="M81.0451 33.8686C80.3608 33.8572 79.7106 34.146 79.0035 34.025C77.0332 33.6888 75.2762 31.6034 76.5514 28.8085C77.4425 27.655 78.5822 27.0072 80.0672 27.2391C81.349 27.4399 82.2658 28.1775 82.7338 29.403C83.2024 30.6308 82.9849 31.7718 82.1735 32.7887C81.914 33.1141 81.5767 33.3784 81.2746 33.6708C81.1548 33.693 81.0487 33.7301 81.0397 33.8769L81.0451 33.8674V33.8686Z" fill="#36A854"/>
<path d="M78.1413 55.9218C78.4943 55.8685 78.8454 55.8013 79.2002 55.7648C81.6517 55.5143 83.8671 58.0341 82.6129 60.7787C81.8069 62.058 80.6695 62.7436 79.1403 62.5746C77.768 62.423 76.8176 61.6506 76.3154 60.3586C75.739 58.8755 76.2004 57.5547 77.7638 56.1597C77.9196 56.1189 78.1036 56.1231 78.1539 55.9152L78.1407 55.9218H78.1413Z" fill="#36A854"/>
<path d="M70.9317 48.7173C70.9893 49.413 71.7359 49.3255 72.0883 49.7288C73.1124 50.9027 74.2372 51.9892 75.3308 53.1013C75.453 53.2254 75.6328 53.2931 75.7856 53.3872C74.8004 54.5437 73.8087 55.6967 72.0739 55.5714C70.6866 55.4708 69.6973 54.7559 69.1352 53.5064C68.5827 52.2786 68.7355 51.0843 69.5846 50.0356C69.9771 49.5508 70.4793 49.1541 70.9311 48.7179L70.9317 48.7173Z" fill="#3D82EF"/>
<path d="M78.1541 41.6366C78.105 41.8541 77.9144 41.8391 77.7568 41.8781C77.8659 41.76 77.9354 41.5755 78.1541 41.6366Z" fill="#FBBC07"/>
<path d="M78.1552 55.9154C78.1043 56.1233 77.9209 56.1191 77.7651 56.1599C77.8652 56.0316 77.9365 55.8555 78.1552 55.9154Z" fill="#FBBC07"/>
<path d="M81.04 33.8781C81.049 33.7307 81.1551 33.6936 81.2749 33.6714C81.197 33.7403 81.1185 33.8092 81.04 33.8781Z" fill="#3D82EF"/>
<path d="M81.04 48.1582C81.049 48.015 81.1515 47.9767 81.2695 47.9551C81.1934 48.0228 81.1167 48.0905 81.04 48.1582Z" fill="#3D82EF"/>
<path d="M78.332 50.8582C78.38 50.8025 78.4273 50.7468 78.4752 50.6904C78.4273 50.7462 78.38 50.8019 78.332 50.8582Z" fill="#4486F3"/>
<path d="M77.7905 51.3989C77.8487 51.3408 77.9068 51.2832 77.9643 51.2251C77.9062 51.2832 77.8481 51.3408 77.7905 51.3989Z" fill="#4486F3"/>
<path d="M111.161 43.7428C110.96 43.3551 110.68 43.062 110.322 42.8643C109.963 42.6665 109.549 42.5677 109.079 42.5677C108.564 42.5677 108.105 42.6833 107.702 42.9146C107.299 43.1459 106.983 43.4743 106.755 43.8998C106.528 44.3252 106.414 44.8178 106.414 45.3775C106.414 45.9372 106.528 46.4316 106.755 46.8606C106.983 47.2897 107.298 47.6199 107.702 47.8512C108.105 48.0825 108.563 48.1981 109.079 48.1981C109.773 48.1981 110.336 48.004 110.769 47.6163C111.202 47.2286 111.467 46.7024 111.564 46.0379H108.642V45.0192H112.929V46.0157C112.847 46.6203 112.633 47.1764 112.286 47.6834C111.939 48.1909 111.487 48.596 110.932 48.8981C110.375 49.2001 109.758 49.3517 109.079 49.3517C108.347 49.3517 107.679 49.1821 107.075 48.8423C106.47 48.5026 105.991 48.031 105.636 47.4263C105.281 46.8217 105.104 46.1391 105.104 45.3775C105.104 44.6159 105.282 43.9333 105.636 43.3287C105.99 42.7241 106.472 42.2524 107.08 41.9127C107.688 41.5729 108.354 41.4033 109.079 41.4033C109.907 41.4033 110.644 41.6065 111.289 42.0134C111.935 42.4202 112.403 42.9967 112.695 43.7428H111.161Z" fill="#64686C"/>
<path d="M114.913 48.9872C114.442 48.7223 114.073 48.349 113.805 47.8678C113.536 47.3866 113.401 46.8287 113.401 46.1941C113.401 45.5595 113.539 45.0112 113.815 44.5264C114.092 44.0416 114.469 43.6683 114.946 43.407C115.424 43.1458 115.957 43.0151 116.547 43.0151C117.136 43.0151 117.67 43.1458 118.147 43.407C118.625 43.6683 119.002 44.0416 119.278 44.5264C119.554 45.0118 119.692 45.5673 119.692 46.1941C119.692 46.8209 119.55 47.377 119.267 47.8618C118.983 48.3472 118.597 48.7223 118.108 48.9866C117.619 49.2515 117.08 49.3839 116.491 49.3839C115.902 49.3839 115.382 49.2515 114.913 48.9866V48.9872ZM117.414 48.0416C117.702 47.8846 117.935 47.6497 118.114 47.3363C118.294 47.0229 118.383 46.6424 118.383 46.1947C118.383 45.7471 118.297 45.3684 118.125 45.0586C117.953 44.7487 117.726 44.5156 117.442 44.3586C117.158 44.2016 116.852 44.1237 116.524 44.1237C116.196 44.1237 115.892 44.2022 115.612 44.3586C115.332 44.5156 115.11 44.7487 114.946 45.0586C114.781 45.3684 114.699 45.7471 114.699 46.1947C114.699 46.8593 114.869 47.3722 115.209 47.7342C115.548 48.0961 115.976 48.2771 116.49 48.2771C116.819 48.2771 117.127 48.1986 117.414 48.0422L117.414 48.0416Z" fill="#64686C"/>
<path d="M121.682 48.9872C121.212 48.7223 120.843 48.349 120.574 47.8678C120.306 47.3866 120.171 46.8287 120.171 46.1941C120.171 45.5595 120.309 45.0112 120.585 44.5264C120.861 44.0416 121.238 43.6683 121.716 43.407C122.193 43.1458 122.727 43.0151 123.316 43.0151C123.906 43.0151 124.439 43.1458 124.917 43.407C125.395 43.6683 125.771 44.0416 126.048 44.5264C126.324 45.0118 126.462 45.5673 126.462 46.1941C126.462 46.8209 126.32 47.377 126.036 47.8618C125.752 48.3472 125.366 48.7223 124.878 48.9866C124.389 49.2515 123.85 49.3839 123.261 49.3839C122.672 49.3839 122.152 49.2515 121.682 48.9866V48.9872ZM124.184 48.0416C124.471 47.8846 124.705 47.6497 124.884 47.3363C125.063 47.0229 125.152 46.6424 125.152 46.1947C125.152 45.7471 125.067 45.3684 124.895 45.0586C124.723 44.7487 124.496 44.5156 124.212 44.3586C123.928 44.2016 123.622 44.1237 123.294 44.1237C122.965 44.1237 122.661 44.2022 122.382 44.3586C122.102 44.5156 121.879 44.7487 121.715 45.0586C121.551 45.3684 121.469 45.7471 121.469 46.1947C121.469 46.8593 121.638 47.3722 121.978 47.7342C122.318 48.0961 122.745 48.2771 123.26 48.2771C123.588 48.2771 123.896 48.1986 124.183 48.0422L124.184 48.0416Z" fill="#64686C"/>
<path d="M131.114 43.3005C131.484 43.491 131.773 43.7277 131.982 44.0112V43.1159H133.269V49.3846C133.269 49.9515 133.15 50.4572 132.911 50.9013C132.672 51.3453 132.327 51.6941 131.875 51.9482C131.424 52.2016 130.885 52.3287 130.257 52.3287C129.421 52.3287 128.728 52.1327 128.175 51.7408C127.623 51.3489 127.309 50.8174 127.235 50.1456H128.5C128.597 50.4662 128.804 50.7257 129.121 50.9235C129.438 51.1212 129.817 51.2201 130.257 51.2201C130.772 51.2201 131.189 51.0631 131.506 50.7497C131.823 50.4363 131.981 49.9809 131.981 49.384V48.3539C131.765 48.6451 131.472 48.8896 131.102 49.0874C130.733 49.2851 130.313 49.384 129.843 49.384C129.305 49.384 128.814 49.248 128.37 48.9753C127.926 48.7033 127.576 48.3221 127.318 47.8338C127.06 47.3448 126.932 46.7911 126.932 46.1715C126.932 45.5518 127.06 45.0035 127.318 44.5259C127.576 44.0483 127.926 43.6768 128.37 43.4119C128.814 43.1471 129.305 43.0146 129.843 43.0146C130.32 43.0146 130.744 43.1099 131.113 43.2999L131.114 43.3005ZM131.719 45.0862C131.543 44.7728 131.314 44.5343 131.03 44.3695C130.747 44.2053 130.441 44.1232 130.112 44.1232C129.784 44.1232 129.478 44.2035 129.194 44.3641C128.911 44.5247 128.681 44.7596 128.506 45.0695C128.33 45.3793 128.243 45.7466 128.243 46.1721C128.243 46.5975 128.33 46.9709 128.506 47.2914C128.681 47.6126 128.913 47.8565 129.2 48.0249C129.487 48.1927 129.791 48.2766 130.112 48.2766C130.434 48.2766 130.746 48.1945 131.03 48.0303C131.314 47.8661 131.543 47.6258 131.719 47.3082C131.894 46.9912 131.982 46.6197 131.982 46.1942C131.982 45.7688 131.894 45.3996 131.719 45.0862Z" fill="#64686C"/>
<path d="M135.855 41V49.2839H134.579V41H135.855Z" fill="#64686C"/>
<path d="M142.774 46.6759H138.061C138.098 47.1685 138.281 47.564 138.609 47.8624C138.938 48.1608 139.34 48.3101 139.819 48.3101C140.505 48.3101 140.99 48.023 141.274 47.4483H142.651C142.464 48.0158 142.127 48.4802 141.638 48.8422C141.149 49.2041 140.542 49.3851 139.819 49.3851C139.229 49.3851 138.701 49.2527 138.235 48.9878C137.768 48.7229 137.402 48.3496 137.138 47.8684C136.873 47.3872 136.74 46.8293 136.74 46.1947C136.74 45.5601 136.869 45.0022 137.127 44.521C137.384 44.0398 137.746 43.6683 138.213 43.407C138.679 43.1458 139.215 43.0151 139.819 43.0151C140.424 43.0151 140.92 43.1422 141.375 43.3957C141.83 43.6497 142.185 44.0057 142.439 44.4647C142.693 44.9237 142.82 45.4517 142.82 46.0485C142.82 46.2798 142.805 46.489 142.775 46.6753L142.774 46.6759ZM141.487 45.6458C141.479 45.1754 141.311 44.7991 140.983 44.515C140.654 44.2316 140.248 44.0896 139.763 44.0896C139.322 44.0896 138.945 44.2292 138.632 44.5096C138.319 44.7895 138.132 45.1682 138.072 45.6458H141.487Z" fill="#64686C"/>
<path d="M150.938 47.6947H147.681L147.121 49.2845H145.789L148.577 41.4932H150.054L152.842 49.2845H151.499L150.939 47.6947H150.938ZM150.581 46.6532L149.316 43.0374L148.039 46.6532H150.581Z" fill="#64686C"/>
<path d="M153.642 44.5264C153.9 44.0488 154.25 43.6773 154.694 43.4124C155.138 43.1476 155.633 43.0151 156.177 43.0151C156.58 43.0151 156.978 43.1032 157.37 43.2782C157.762 43.4538 158.073 43.6869 158.305 43.9781V41.0005H159.592V49.2844H158.305V48.355C158.095 48.6534 157.807 48.8997 157.437 49.0939C157.068 49.288 156.644 49.3851 156.166 49.3851C155.629 49.3851 155.138 49.2491 154.694 48.9764C154.25 48.7044 153.9 48.3232 153.642 47.8349C153.384 47.3459 153.255 46.7922 153.255 46.1726C153.255 45.5529 153.384 45.004 153.642 44.5264ZM158.041 45.0861C157.865 44.7727 157.636 44.5342 157.352 44.3694C157.069 44.2052 156.763 44.1231 156.434 44.1231C156.106 44.1231 155.8 44.2034 155.516 44.364C155.233 44.5246 155.003 44.7595 154.828 45.0694C154.652 45.3792 154.565 45.7465 154.565 46.172C154.565 46.5974 154.652 46.9707 154.828 47.2913C155.003 47.6125 155.235 47.8564 155.522 48.0248C155.809 48.1926 156.113 48.2765 156.434 48.2765C156.756 48.2765 157.068 48.1944 157.352 48.0302C157.636 47.866 157.865 47.6257 158.041 47.3081C158.216 46.9911 158.304 46.6196 158.304 46.1941C158.304 45.7687 158.216 45.3995 158.041 45.0861Z" fill="#64686C"/>
<path d="M164.654 45.1659L167.281 49.2845H165.377L163.621 46.5238L161.967 49.2845H160.211L162.839 45.284L160.211 41.1504H162.115L163.872 43.9111L165.525 41.1504H167.281L164.654 45.1659Z" fill="#64686C"/>
<defs>
<filter id="filter0_d_202_6265" x="0.276855" y="0" width="228.277" height="103.322" filterUnits="userSpaceOnUse" color-interpolation-filters="sRGB">
<feFlood flood-opacity="0" result="BackgroundImageFix"/>
<feColorMatrix in="SourceAlpha" type="matrix" values="0 0 0 0 0 0 0 0 0 0 0 0 0 0 0 0 0 0 127 0" result="hardAlpha"/>
<feOffset dy="7"/>
<feGaussianBlur stdDeviation="10"/>
<feComposite in2="hardAlpha" operator="out"/>
<feColorMatrix type="matrix" values="0 0 0 0 0 0 0 0 0 0 0 0 0 0 0 0 0 0 0.07 0"/>
<feBlend mode="normal" in2="BackgroundImageFix" result="effect1_dropShadow_202_6265"/>
<feBlend mode="normal" in="SourceGraphic" in2="effect1_dropShadow_202_6265" result="shape"/>
</filter>
</defs>
</svg>
