<svg width="48" height="49" viewBox="0 0 48 49" fill="none" xmlns="http://www.w3.org/2000/svg">
<rect y="0.90918" width="48" height="48" rx="10" fill="white" fill-opacity="0.2"/>
<path fill-rule="evenodd" clip-rule="evenodd" d="M31.3267 27.55C30.4387 30.406 28.2254 32.3833 25.28 32.8193C20.7854 33.4847 16.372 30.0767 16.0227 25.5433C15.66 20.8393 19.3707 16.91 24.0014 16.91C25.072 16.91 26.0934 17.1207 27.0267 17.502C27.3507 17.634 27.7174 17.5207 27.8827 17.214L29.796 13.6847C29.9774 13.3473 29.8467 12.9127 29.4974 12.7553C27.8214 11.998 25.9627 11.5767 24.0054 11.5767C16.5094 11.5767 10.4574 17.758 10.672 25.3007C10.868 32.182 16.548 37.9393 23.424 38.2313C30.8187 38.5433 36.952 32.8367 37.324 25.606C37.3387 25.342 37.3334 23.8047 37.328 22.9033C37.3267 22.5353 37.028 22.2433 36.6614 22.2433H24.6627C24.2947 22.2433 23.996 22.5407 23.996 22.91V26.8833C23.996 27.25 24.2947 27.55 24.6627 27.55H31.3267Z" fill="#03133D"/>
<mask id="mask0_202_2515" style="mask-type:luminance" maskUnits="userSpaceOnUse" x="10" y="11" width="28" height="28">
<path fill-rule="evenodd" clip-rule="evenodd" d="M31.3267 27.55C30.4387 30.406 28.2254 32.3833 25.28 32.8193C20.7854 33.4847 16.372 30.0767 16.0227 25.5433C15.66 20.8393 19.3707 16.91 24.0014 16.91C25.072 16.91 26.0934 17.1207 27.0267 17.502C27.3507 17.634 27.7174 17.5207 27.8827 17.214L29.796 13.6847C29.9774 13.3473 29.8467 12.9127 29.4974 12.7553C27.8214 11.998 25.9627 11.5767 24.0054 11.5767C16.5094 11.5767 10.4574 17.758 10.672 25.3007C10.868 32.182 16.548 37.9393 23.424 38.2313C30.8187 38.5433 36.952 32.8367 37.324 25.606C37.3387 25.342 37.3334 23.8047 37.328 22.9033C37.3267 22.5353 37.028 22.2433 36.6614 22.2433H24.6627C24.2947 22.2433 23.996 22.5407 23.996 22.91V26.8833C23.996 27.25 24.2947 27.55 24.6627 27.55H31.3267Z" fill="white"/>
</mask>
<g mask="url(#mask0_202_2515)">
<rect x="8" y="8.90918" width="32" height="32" fill="white"/>
</g>
</svg>
