<svg width="230" height="104" viewBox="0 0 230 104" fill="none" xmlns="http://www.w3.org/2000/svg">
<g filter="url(#filter0_d_202_6230)">
<rect x="20.9692" y="13.3218" width="188.277" height="63.3218" rx="10" fill="white"/>
</g>
<mask id="mask0_202_6230" style="mask-type:luminance" maskUnits="userSpaceOnUse" x="46" y="28" width="138" height="37">
<path d="M183.155 28.4219H46.9697V64.3217H183.155V28.4219Z" fill="white"/>
</mask>
<g mask="url(#mask0_202_6230)">
<path d="M80.0438 52.4183H77.9289V38.718H80.0438V52.4183ZM80.5107 33.8616C80.5107 34.746 79.8103 35.4442 78.9451 35.4442C78.1623 35.4442 77.4619 34.7304 77.4619 33.8616C77.4619 32.9927 78.1623 32.0928 79.0275 32.0928C79.8103 32.0928 80.5107 32.8841 80.5107 33.8616Z" fill="#2C404C"/>
<path fill-rule="evenodd" clip-rule="evenodd" d="M107.949 43.7434V52.4183H105.624V44.5449C105.624 41.9519 104.25 40.5218 101.926 40.5218C101.141 40.4904 100.356 40.6947 99.6913 41.1504C99.2535 41.449 98.8761 41.8419 98.5892 42.2976C98.1514 42.9891 97.9401 43.8063 97.9854 44.6235V52.4026H95.6605V44.5292C95.6605 41.9362 94.2867 40.5061 91.9618 40.5061C89.7275 40.5061 87.9159 42.0305 87.9159 44.6235V52.4026H85.5911V38.4631H87.9159V40.2546C88.9727 38.8874 90.6031 38.1173 92.294 38.1959C94.6188 38.1959 96.4153 39.2646 97.2758 40.9618C98.393 38.9031 100.461 38.2745 102.348 38.2745C105.624 38.2745 107.949 40.4275 107.949 43.7434Z" fill="#2C404C"/>
<path d="M133.22 45.919C133.22 48.8624 135.254 51.2539 138.231 51.2539C141.208 51.2539 143.225 48.9627 143.225 45.919C143.225 42.8752 141.192 40.6844 138.215 40.6844C135.238 40.6844 133.22 42.9589 133.22 45.919ZM145.552 53.3444H143.046V51.4379C141.761 52.943 139.89 53.7792 137.954 53.729C133.969 53.729 130.715 50.401 130.715 46.3036C130.715 46.2033 130.715 46.1197 130.715 46.0193C130.715 41.4537 133.871 38.3096 137.938 38.3096C140.248 38.3096 141.924 39.1626 143.03 40.6008V38.5939H145.536V53.3444H145.552ZM115.439 45.919C115.439 48.9627 117.472 51.2539 120.449 51.2539C123.508 51.2539 125.46 48.8791 125.46 45.919C125.46 43.0592 123.427 40.6844 120.449 40.6844C117.472 40.6844 115.439 42.8585 115.439 45.919ZM127.949 45.919C127.949 50.401 124.793 53.6287 120.726 53.6287C118.416 53.6287 116.74 52.6754 115.634 51.3375V59.5322H113.031V38.5772H115.536V40.4837C116.822 38.9786 118.692 38.1424 120.628 38.1926C124.712 38.1926 127.852 41.437 127.852 45.9023H127.949V45.919Z" fill="#2C404C"/>
<path fill-rule="evenodd" clip-rule="evenodd" d="M175.249 41.2937H169.412V47.5186C169.412 49.4284 170.561 50.3468 172.067 50.3468C173.045 50.3468 174.1 49.924 174.892 49.5158L176.041 51.1778C174.83 52.0087 173.371 52.4461 171.88 52.4169C168.869 52.4169 167.022 50.755 167.022 47.5186V41.2937H164.103V39.2964H167.022V35.1416H169.412V39.2964H175.249V41.2937ZM161.899 40.9584L160.393 42.4453C159.431 41.4832 158.08 40.9438 156.683 40.9584C154.029 40.9584 151.995 42.8681 151.995 45.6088C151.995 48.3496 154.029 50.2593 156.683 50.2593C158.112 50.2593 159.478 49.7199 160.487 48.7578L161.899 50.3322C160.564 51.6443 158.701 52.3732 156.777 52.3295C154.37 52.4169 152.104 51.3236 150.769 49.4429C150.505 49.0785 150.288 48.6849 150.117 48.2767C149.946 47.8685 149.807 47.4457 149.729 47.0084C149.651 46.571 149.605 46.1337 149.62 45.6963C149.62 41.7893 152.539 38.8882 156.777 38.8882C158.903 38.8882 160.766 39.6317 161.899 40.9584Z" fill="#2C404C"/>
<path fill-rule="evenodd" clip-rule="evenodd" d="M52.4618 47.9966C54.5422 47.9966 56.3123 48.8506 57.4438 50.3174C57.535 50.1132 57.6263 49.8904 57.6992 49.6676C57.7722 49.4448 57.827 49.222 57.8635 48.9806C57.9547 48.5164 57.973 48.0523 57.9547 47.5881C57.9365 47.3467 57.9182 47.1239 57.8635 46.8826C57.8087 46.6598 57.754 46.4184 57.681 46.1956C57.608 45.9728 57.5168 45.75 57.4255 45.5458C57.3343 45.3416 57.2065 45.1188 57.097 44.9331C56.9693 44.7289 56.8415 44.5432 56.6956 44.3575C56.5496 44.1719 56.3853 44.0048 56.2211 43.8377C56.0568 43.6706 55.8744 43.522 55.6919 43.3921C55.5094 43.2621 55.3086 43.1321 55.1079 43.0207C54.9072 42.9093 54.7064 42.7979 54.4874 42.7237C54.2685 42.6308 54.0495 42.5751 53.8305 42.5009C53.1553 42.3338 52.4618 42.2781 51.7683 42.3709C51.5311 42.408 51.3121 42.4452 51.0931 42.5009C50.8742 42.5566 50.6552 42.6308 50.4362 42.7237C50.2172 42.8165 50.0165 42.9093 49.8157 43.0207C49.615 43.1321 49.4142 43.2621 49.2317 43.3921C49.0493 43.522 48.8668 43.6891 48.7025 43.8377C48.5383 44.0048 48.374 44.1719 48.2281 44.3575C48.0821 44.5432 47.9543 44.7289 47.8266 44.9331C47.6988 45.1373 47.5893 45.3416 47.4981 45.5458C47.4069 45.75 47.3156 45.9728 47.2426 46.1956C47.1696 46.4184 47.1149 46.6412 47.0784 46.8826C47.0419 47.1054 47.0054 47.3467 46.9871 47.5881C46.9506 48.0523 46.9871 48.535 47.0784 48.9806C47.1149 49.2034 47.1696 49.4448 47.2426 49.6676C47.3156 49.8904 47.4069 50.1132 47.4981 50.3174C48.7208 48.8506 50.5457 47.9966 52.4618 47.9966Z" fill="#A9B4BC"/>
<path fill-rule="evenodd" clip-rule="evenodd" d="M57.9611 54.8305C57.9611 54.4667 57.9247 54.1028 57.8519 53.7572C57.7792 53.4116 57.67 53.0659 57.5427 52.7203C57.2698 52.0472 56.8696 51.4468 56.3602 50.9374C55.5961 50.1734 54.6138 49.6458 53.5404 49.4275C52.831 49.282 52.1033 49.282 51.3938 49.4275C51.0481 49.5003 50.7025 49.6094 50.3569 49.7368C49.0106 50.3007 47.9373 51.3559 47.3916 52.7021C47.246 53.0295 47.1551 53.3752 47.0823 53.739C46.9368 54.4485 46.9368 55.1762 47.0823 55.8857C47.3006 56.959 47.81 57.9232 48.5922 58.7054C49.1016 59.2148 49.7019 59.615 50.375 59.8879C50.7025 60.0334 51.0481 60.1244 51.412 60.1972C52.1215 60.3427 52.8491 60.3427 53.5586 60.1972C55.7417 59.7605 57.4335 58.0687 57.8701 55.8857C57.9247 55.54 57.9611 55.1944 57.9611 54.8305Z" fill="#4B5E6A"/>
<path fill-rule="evenodd" clip-rule="evenodd" d="M57.9611 34.852C57.9611 34.4882 57.9248 34.1244 57.8521 33.7788C57.7068 33.0694 57.4344 32.3963 57.0348 31.796C56.8351 31.505 56.599 31.2139 56.3447 30.9593C56.0904 30.7046 55.818 30.4681 55.5093 30.268C55.2187 30.0679 54.8918 29.9042 54.5648 29.7587C54.2379 29.6132 53.8929 29.5222 53.5296 29.4495C52.8213 29.304 52.0949 29.304 51.3865 29.4495C51.0415 29.5222 50.6964 29.6314 50.3513 29.7587C50.0244 29.9042 49.6975 30.0679 49.4069 30.268C48.8076 30.6682 48.2991 31.1776 47.8995 31.7779C47.3002 32.6874 46.9732 33.7424 46.9732 34.8338C46.9551 37.8535 49.3888 40.3092 52.3854 40.3274C52.4036 40.3274 52.4218 40.3274 52.4581 40.3274C55.4366 40.3819 57.8884 37.999 57.9429 35.0158C57.9611 34.9612 57.9611 34.9066 57.9611 34.852Z" fill="#E31347"/>
</g>
<defs>
<filter id="filter0_d_202_6230" x="0.969238" y="0.321777" width="228.277" height="103.322" filterUnits="userSpaceOnUse" color-interpolation-filters="sRGB">
<feFlood flood-opacity="0" result="BackgroundImageFix"/>
<feColorMatrix in="SourceAlpha" type="matrix" values="0 0 0 0 0 0 0 0 0 0 0 0 0 0 0 0 0 0 127 0" result="hardAlpha"/>
<feOffset dy="7"/>
<feGaussianBlur stdDeviation="10"/>
<feComposite in2="hardAlpha" operator="out"/>
<feColorMatrix type="matrix" values="0 0 0 0 0.419608 0 0 0 0 0.145098 0 0 0 0 0.423529 0 0 0 0.08 0"/>
<feBlend mode="normal" in2="BackgroundImageFix" result="effect1_dropShadow_202_6230"/>
<feBlend mode="normal" in="SourceGraphic" in2="effect1_dropShadow_202_6230" result="shape"/>
</filter>
</defs>
</svg>
