<svg width="15" height="14" viewBox="0 0 15 14" fill="none" xmlns="http://www.w3.org/2000/svg">
<g clip-path="url(#clip0_1896_12363)">
<g clip-path="url(#clip1_1896_12363)">
<g clip-path="url(#clip2_1896_12363)">
<path d="M7.4098 13.889C6.61904 13.8615 5.82756 13.8615 5.0368 13.889H4.6468C4.48017 13.8817 4.31326 13.8833 4.1468 13.894C3.24616 13.8557 2.39173 13.4847 1.74887 12.8528C1.10602 12.2208 0.720457 11.3729 0.666801 10.473C0.496483 8.16514 0.496483 5.84786 0.666801 3.54C0.733875 2.61612 1.14341 1.75055 1.81521 1.11278C2.48701 0.475016 3.37268 0.110995 4.2988 0.092C5.3328 0.0306667 6.3668 0 7.4008 0H7.6578C8.6978 0 9.7378 0.031 10.7778 0.093C11.5585 0.116036 12.3112 0.38875 12.9255 0.871105C13.5398 1.35346 13.9833 2.02005 14.1908 2.773C14.3788 3.25921 14.4633 3.77929 14.4388 4.3C14.4481 5.00867 14.4528 5.718 14.4528 6.428V6.947C14.4528 7.891 14.4468 8.833 14.4438 9.777C14.4325 9.94502 14.4098 10.1121 14.3758 10.277C14.3747 10.9994 14.153 11.7043 13.7404 12.2972C13.3277 12.8902 12.7438 13.343 12.0668 13.595C10.9935 13.8271 9.89669 13.9328 8.7988 13.91C8.3388 13.91 7.8718 13.9 7.4098 13.889ZM8.1958 12.989C7.7328 12.989 7.2708 12.98 6.8088 12.97C7.2718 12.978 7.7388 12.986 8.1968 12.986L8.1958 12.989ZM5.7788 12.858C5.21456 12.8815 4.64984 12.8243 4.1018 12.688C4.65025 12.8237 5.21536 12.88 5.7798 12.855L5.7788 12.858ZM10.8848 12.858C11.3356 12.7988 11.7668 12.6366 12.1448 12.384C11.7665 12.6343 11.3358 12.7944 10.8858 12.852L10.8848 12.858ZM10.1758 12.714C10.6262 12.7394 11.0768 12.667 11.4966 12.5018C11.9164 12.3366 12.2955 12.0825 12.6078 11.757L13.0688 10.835C13.0652 10.6564 13.0905 10.4785 13.1438 10.308C13.1491 10.2929 13.1561 10.2784 13.1648 10.265C13.1587 10.253 13.156 10.2396 13.1571 10.2262C13.1581 10.2127 13.1629 10.1999 13.1708 10.189C13.1708 8.09033 13.1728 5.99033 13.1768 3.889C13.1588 3.815 13.1348 3.741 13.1208 3.665C13.0869 3.04193 12.8149 2.45571 12.3609 2.02761C11.9069 1.59951 11.3058 1.36228 10.6818 1.365C9.86507 1.28496 9.04393 1.25923 8.2238 1.288C7.9238 1.288 7.6238 1.296 7.3238 1.295C6.26642 1.25054 5.20722 1.27927 4.1538 1.381C3.6837 1.41247 3.23363 1.58328 2.86103 1.87163C2.48843 2.15999 2.21018 2.55282 2.0618 3C1.91249 3.43866 1.83943 3.89967 1.8458 4.363V9.64C1.84741 10.0255 1.8944 10.4095 1.9858 10.784C2.10378 11.2726 2.36632 11.7144 2.73915 12.0515C3.11199 12.3887 3.5778 12.6056 4.0758 12.674C6.1098 12.763 8.1388 12.779 10.1768 12.709L10.1758 12.714ZM13.1258 10.621C13.1258 10.562 13.1178 10.502 13.1178 10.443C13.1218 10.5 13.1298 10.562 13.1298 10.621H13.1258ZM13.1758 10.565C13.1758 10.483 13.1598 10.398 13.1598 10.315C13.1638 10.4 13.1798 10.482 13.1798 10.565H13.1758ZM13.2198 9.954C13.2198 9.88 13.2108 9.806 13.2108 9.733C13.2148 9.8 13.2238 9.879 13.2238 9.953L13.2198 9.954ZM13.2648 9.954C13.2648 9.903 13.2598 9.854 13.2598 9.801C13.2638 9.849 13.2688 9.9 13.2688 9.952L13.2648 9.954ZM14.3648 9.508C14.3563 9.17474 14.3523 8.84137 14.3528 8.508C14.3608 8.84 14.3628 9.172 14.3728 9.506L14.3648 9.508ZM13.2238 4.114C13.2259 4.0369 13.2105 3.96032 13.1788 3.89C13.21 3.9601 13.225 4.03631 13.2228 4.113L13.2238 4.114ZM4.6688 9.155C4.28315 8.66847 4.039 8.08509 3.96315 7.4689C3.88729 6.85271 3.98267 6.22754 4.2388 5.662C4.4544 5.08232 4.82613 4.57357 5.31287 4.19201C5.79962 3.81045 6.38241 3.57095 6.9968 3.5C7.51946 3.37064 8.06987 3.41271 8.5668 3.62C9.32878 3.83132 9.9955 4.29705 10.4561 4.93978C10.9168 5.58251 11.1435 6.36352 11.0988 7.153C11.0851 7.98195 10.7762 8.77883 10.2276 9.40041C9.67898 10.022 8.92663 10.4275 8.1058 10.544L7.9408 10.563C7.75831 10.5894 7.57418 10.6027 7.3898 10.603C6.85266 10.6013 6.32404 10.4685 5.84986 10.2162C5.37567 9.96386 4.97025 9.59958 4.6688 9.155ZM7.4248 10.537C7.42375 10.5321 7.42375 10.5269 7.4248 10.522C7.42561 10.5276 7.4273 10.533 7.4298 10.538L7.4248 10.537ZM8.0778 10.529C8.00852 10.4867 7.92984 10.4623 7.8488 10.458C7.93146 10.4612 8.01196 10.4853 8.0828 10.528L8.0778 10.529ZM5.2288 7.032C5.2243 7.33538 5.28006 7.63664 5.39283 7.91832C5.50561 8.19999 5.67317 8.45649 5.88581 8.67293C6.09844 8.88938 6.35191 9.06147 6.63154 9.17924C6.91117 9.29701 7.21139 9.35811 7.5148 9.359C8.12428 9.35255 8.70691 9.10723 9.13743 8.67576C9.56795 8.24429 9.81199 7.66113 9.8171 7.05163C9.82221 6.44214 9.58797 5.85497 9.16475 5.41634C8.74152 4.97772 8.16309 4.72266 7.5538 4.706H7.5388C7.23239 4.6998 6.9279 4.75585 6.64378 4.87075C6.35966 4.98565 6.10181 5.15702 5.88585 5.37448C5.66989 5.59193 5.50031 5.85096 5.38737 6.13587C5.27443 6.42077 5.22048 6.72564 5.2288 7.032ZM11.1818 4.086C11.0741 4.08638 10.9676 4.06459 10.8687 4.02198C10.7698 3.97937 10.6808 3.91685 10.6072 3.83833C10.5335 3.7598 10.4768 3.66695 10.4406 3.56556C10.4044 3.46417 10.3895 3.35641 10.3968 3.249C10.4021 3.03247 10.4903 2.82625 10.6433 2.67291C10.7963 2.51958 11.0023 2.43083 11.2188 2.425C11.4345 2.44032 11.6374 2.53341 11.7896 2.68697C11.9419 2.84054 12.0333 3.04415 12.0468 3.26C12.0408 3.48039 11.9495 3.68984 11.792 3.84414C11.6345 3.99845 11.4233 4.08552 11.2028 4.087L11.1818 4.086Z" fill="url(#paint0_linear_1896_12363)"/>
<path d="M7.4098 13.889C6.61904 13.8615 5.82756 13.8615 5.0368 13.889H4.6468C4.48017 13.8817 4.31326 13.8833 4.1468 13.894C3.24616 13.8557 2.39173 13.4847 1.74887 12.8528C1.10602 12.2208 0.720457 11.3729 0.666801 10.473C0.496483 8.16514 0.496483 5.84786 0.666801 3.54C0.733875 2.61612 1.14341 1.75055 1.81521 1.11278C2.48701 0.475016 3.37268 0.110995 4.2988 0.092C5.3328 0.0306667 6.3668 0 7.4008 0H7.6578C8.6978 0 9.7378 0.031 10.7778 0.093C11.5585 0.116036 12.3112 0.38875 12.9255 0.871105C13.5398 1.35346 13.9833 2.02005 14.1908 2.773C14.3788 3.25921 14.4633 3.77929 14.4388 4.3C14.4481 5.00867 14.4528 5.718 14.4528 6.428V6.947C14.4528 7.891 14.4468 8.833 14.4438 9.777C14.4325 9.94502 14.4098 10.1121 14.3758 10.277C14.3747 10.9994 14.153 11.7043 13.7404 12.2972C13.3277 12.8902 12.7438 13.343 12.0668 13.595C10.9935 13.8271 9.89669 13.9328 8.7988 13.91C8.3388 13.91 7.8718 13.9 7.4098 13.889ZM8.1958 12.989C7.7328 12.989 7.2708 12.98 6.8088 12.97C7.2718 12.978 7.7388 12.986 8.1968 12.986L8.1958 12.989ZM5.7788 12.858C5.21456 12.8815 4.64984 12.8243 4.1018 12.688C4.65025 12.8237 5.21536 12.88 5.7798 12.855L5.7788 12.858ZM10.8848 12.858C11.3356 12.7988 11.7668 12.6366 12.1448 12.384C11.7665 12.6343 11.3358 12.7944 10.8858 12.852L10.8848 12.858ZM10.1758 12.714C10.6262 12.7394 11.0768 12.667 11.4966 12.5018C11.9164 12.3366 12.2955 12.0825 12.6078 11.757L13.0688 10.835C13.0652 10.6564 13.0905 10.4785 13.1438 10.308C13.1491 10.2929 13.1561 10.2784 13.1648 10.265C13.1587 10.253 13.156 10.2396 13.1571 10.2262C13.1581 10.2127 13.1629 10.1999 13.1708 10.189C13.1708 8.09033 13.1728 5.99033 13.1768 3.889C13.1588 3.815 13.1348 3.741 13.1208 3.665C13.0869 3.04193 12.8149 2.45571 12.3609 2.02761C11.9069 1.59951 11.3058 1.36228 10.6818 1.365C9.86507 1.28496 9.04393 1.25923 8.2238 1.288C7.9238 1.288 7.6238 1.296 7.3238 1.295C6.26642 1.25054 5.20722 1.27927 4.1538 1.381C3.6837 1.41247 3.23363 1.58328 2.86103 1.87163C2.48843 2.15999 2.21018 2.55282 2.0618 3C1.91249 3.43866 1.83943 3.89967 1.8458 4.363V9.64C1.84741 10.0255 1.8944 10.4095 1.9858 10.784C2.10378 11.2726 2.36632 11.7144 2.73915 12.0515C3.11199 12.3887 3.5778 12.6056 4.0758 12.674C6.1098 12.763 8.1388 12.779 10.1768 12.709L10.1758 12.714ZM13.1258 10.621C13.1258 10.562 13.1178 10.502 13.1178 10.443C13.1218 10.5 13.1298 10.562 13.1298 10.621H13.1258ZM13.1758 10.565C13.1758 10.483 13.1598 10.398 13.1598 10.315C13.1638 10.4 13.1798 10.482 13.1798 10.565H13.1758ZM13.2198 9.954C13.2198 9.88 13.2108 9.806 13.2108 9.733C13.2148 9.8 13.2238 9.879 13.2238 9.953L13.2198 9.954ZM13.2648 9.954C13.2648 9.903 13.2598 9.854 13.2598 9.801C13.2638 9.849 13.2688 9.9 13.2688 9.952L13.2648 9.954ZM14.3648 9.508C14.3563 9.17474 14.3523 8.84137 14.3528 8.508C14.3608 8.84 14.3628 9.172 14.3728 9.506L14.3648 9.508ZM13.2238 4.114C13.2259 4.0369 13.2105 3.96032 13.1788 3.89C13.21 3.9601 13.225 4.03631 13.2228 4.113L13.2238 4.114ZM4.6688 9.155C4.28315 8.66847 4.039 8.08509 3.96315 7.4689C3.88729 6.85271 3.98267 6.22754 4.2388 5.662C4.4544 5.08232 4.82613 4.57357 5.31287 4.19201C5.79962 3.81045 6.38241 3.57095 6.9968 3.5C7.51946 3.37064 8.06987 3.41271 8.5668 3.62C9.32878 3.83132 9.9955 4.29705 10.4561 4.93978C10.9168 5.58251 11.1435 6.36352 11.0988 7.153C11.0851 7.98195 10.7762 8.77883 10.2276 9.40041C9.67898 10.022 8.92663 10.4275 8.1058 10.544L7.9408 10.563C7.75831 10.5894 7.57418 10.6027 7.3898 10.603C6.85266 10.6013 6.32404 10.4685 5.84986 10.2162C5.37567 9.96386 4.97025 9.59958 4.6688 9.155ZM7.4248 10.537C7.42375 10.5321 7.42375 10.5269 7.4248 10.522C7.42561 10.5276 7.4273 10.533 7.4298 10.538L7.4248 10.537ZM8.0778 10.529C8.00852 10.4867 7.92984 10.4623 7.8488 10.458C7.93146 10.4612 8.01196 10.4853 8.0828 10.528L8.0778 10.529ZM5.2288 7.032C5.2243 7.33538 5.28006 7.63664 5.39283 7.91832C5.50561 8.19999 5.67317 8.45649 5.88581 8.67293C6.09844 8.88938 6.35191 9.06147 6.63154 9.17924C6.91117 9.29701 7.21139 9.35811 7.5148 9.359C8.12428 9.35255 8.70691 9.10723 9.13743 8.67576C9.56795 8.24429 9.81199 7.66113 9.8171 7.05163C9.82221 6.44214 9.58797 5.85497 9.16475 5.41634C8.74152 4.97772 8.16309 4.72266 7.5538 4.706H7.5388C7.23239 4.6998 6.9279 4.75585 6.64378 4.87075C6.35966 4.98565 6.10181 5.15702 5.88585 5.37448C5.66989 5.59193 5.50031 5.85096 5.38737 6.13587C5.27443 6.42077 5.22048 6.72564 5.2288 7.032ZM11.1818 4.086C11.0741 4.08638 10.9676 4.06459 10.8687 4.02198C10.7698 3.97937 10.6808 3.91685 10.6072 3.83833C10.5335 3.7598 10.4768 3.66695 10.4406 3.56556C10.4044 3.46417 10.3895 3.35641 10.3968 3.249C10.4021 3.03247 10.4903 2.82625 10.6433 2.67291C10.7963 2.51958 11.0023 2.43083 11.2188 2.425C11.4345 2.44032 11.6374 2.53341 11.7896 2.68697C11.9419 2.84054 12.0333 3.04415 12.0468 3.26C12.0408 3.48039 11.9495 3.68984 11.792 3.84414C11.6345 3.99845 11.4233 4.08552 11.2028 4.087L11.1818 4.086Z" fill="white"/>
</g>
</g>
</g>
<defs>
<linearGradient id="paint0_linear_1896_12363" x1="0.539062" y1="0" x2="11.7529" y2="13.9136" gradientUnits="userSpaceOnUse">
<stop stop-color="#0027FF"/>
<stop offset="0.335" stop-color="#FF270A"/>
<stop offset="0.685" stop-color="#FF3915"/>
<stop offset="1" stop-color="#FFD008"/>
</linearGradient>
<clipPath id="clip0_1896_12363">
<rect width="13.91" height="13.91" fill="white" transform="translate(0.539062)"/>
</clipPath>
<clipPath id="clip1_1896_12363">
<rect width="13.91" height="13.91" fill="white" transform="translate(0.539062)"/>
</clipPath>
<clipPath id="clip2_1896_12363">
<rect width="13.91" height="13.91" fill="white" transform="translate(0.539062)"/>
</clipPath>
</defs>
</svg>
