<svg width="230" height="104" viewBox="0 0 230 104" fill="none" xmlns="http://www.w3.org/2000/svg">
<g filter="url(#filter0_d_202_6306)">
<rect x="20.8306" y="13" width="188.277" height="63.3218" rx="10" fill="white"/>
</g>
<path fill-rule="evenodd" clip-rule="evenodd" d="M91.464 38.2453V40.9048H87.8363V38.2453H91.464ZM91.464 42.0577L91.4501 51.5429L87.8267 51.5375L87.8396 42.0523L91.464 42.0577ZM96.2737 43.4966C96.6713 42.9022 97.1098 42.4811 97.589 42.233C98.1041 41.9777 98.6735 41.8511 99.2481 41.8641C99.4506 41.8526 99.6532 41.8845 99.8424 41.9577V44.9516H99.7661C98.6915 44.7766 97.8601 44.9151 97.272 45.3667C96.6839 45.8184 96.389 46.5834 96.3877 47.6617L96.3705 51.5515L92.746 51.5461L92.7599 42.062H96.2104V43.4966H96.2737ZM103.346 51.4751C102.72 51.2398 102.148 50.8819 101.662 50.4223C101.194 49.973 100.826 49.4307 100.579 48.8307C100.07 47.5463 100.073 46.1139 100.586 44.8312C100.834 44.2298 101.203 43.6861 101.671 43.2342C102.155 42.7712 102.728 42.4113 103.355 42.176C104.788 41.6691 106.353 41.6714 107.784 42.1824C108.41 42.4171 108.981 42.7784 109.461 43.2439C109.921 43.6987 110.283 44.2438 110.522 44.8452C111.02 46.1314 111.018 47.5586 110.517 48.8436C110.277 49.4418 109.913 49.983 109.451 50.4319C108.968 50.892 108.397 51.2487 107.771 51.4805C106.339 51.9887 104.775 51.9887 103.342 51.4805L103.346 51.4751ZM106.793 48.7866C107.074 48.2976 107.216 47.6498 107.217 46.8433C107.218 46.0367 107.077 45.3875 106.794 44.8957C106.55 44.4274 106.056 44.1402 105.529 44.1601C105.006 44.1367 104.516 44.4243 104.281 44.8925C104.013 45.3815 103.878 46.0292 103.876 46.8358C103.875 47.6423 104.008 48.29 104.276 48.779C104.509 49.2481 104.998 49.5375 105.521 49.5157C106.048 49.5358 106.542 49.2503 106.787 48.7833L106.793 48.7866ZM115.312 43.3944C115.673 42.9062 116.135 42.501 116.666 42.2061C117.22 41.9224 117.837 41.7826 118.459 41.7996C119.597 41.7996 120.453 42.1354 121.027 42.8072C121.602 43.4791 121.888 44.3598 121.887 45.4495L121.878 51.5869L118.255 51.5816L118.262 46.3002C118.262 45.8047 118.155 45.4079 117.94 45.1097C117.725 44.8115 117.377 44.6609 116.894 44.658C116.472 44.6397 116.066 44.831 115.81 45.1689C115.537 45.5423 115.398 45.997 115.415 46.4594L115.408 51.574L111.785 51.5687L111.798 42.0846H115.249V43.3858L115.312 43.3944ZM126.405 51.6267C125.698 51.4613 125.025 51.1742 124.416 50.7782C123.864 50.4156 123.404 49.9273 123.075 49.3533C122.739 48.7376 122.565 48.0461 122.57 47.3444L126.674 47.3498C126.736 47.8832 126.969 48.2776 127.371 48.5328C127.774 48.788 128.308 48.9159 128.973 48.9167C129.174 48.9159 129.376 48.898 129.574 48.8629C129.771 48.8303 129.962 48.7675 130.139 48.6769C130.301 48.5945 130.442 48.4774 130.553 48.3338C130.663 48.1868 130.721 48.0068 130.717 47.823C130.722 47.6399 130.661 47.4609 130.545 47.3197C130.407 47.1667 130.237 47.0459 130.047 46.9659C129.783 46.8507 129.51 46.7572 129.231 46.6863C128.906 46.5988 128.533 46.5053 128.111 46.4056C127.538 46.2679 126.95 46.1059 126.347 45.9195C125.773 45.7442 125.222 45.4967 124.71 45.1828C124.227 44.8877 123.816 44.4905 123.503 44.0192C123.19 43.5474 123.034 42.9581 123.036 42.2512C123.036 41.4949 123.187 40.8497 123.489 40.3155C123.784 39.7896 124.203 39.3433 124.709 39.0153C125.261 38.6653 125.872 38.4173 126.512 38.283C127.23 38.1263 127.963 38.0495 128.697 38.0539C129.384 38.0531 130.069 38.1288 130.739 38.2797C131.361 38.4144 131.955 38.6575 132.493 38.9981C132.995 39.3182 133.415 39.7522 133.718 40.2649C134.037 40.8289 134.202 41.4675 134.195 42.1157H130.227C130.173 41.7734 129.992 41.4638 129.719 41.25C129.444 41.0349 129.032 40.9274 128.483 40.9274C128.035 40.9274 127.674 41.0138 127.399 41.1866C127.124 41.3594 126.986 41.5823 126.986 41.8555C126.981 42.0409 127.06 42.2188 127.201 42.3394C127.386 42.4858 127.597 42.5954 127.824 42.6621C128.156 42.7709 128.496 42.8581 128.839 42.9234C129.241 43.0051 129.699 43.1073 130.209 43.232C130.78 43.368 131.343 43.5335 131.896 43.7278C132.424 43.9093 132.922 44.17 133.372 44.501C133.8 44.8197 134.154 45.2274 134.41 45.6958C134.671 46.1733 134.801 46.7655 134.8 47.4724C134.814 48.1441 134.65 48.8076 134.327 49.3963C134.012 49.949 133.576 50.4224 133.05 50.7804C132.477 51.1681 131.841 51.4537 131.17 51.6246C130.425 51.819 129.658 51.9147 128.888 51.9096C128.052 51.9151 127.219 51.8201 126.405 51.6267ZM138.561 51.5192C137.934 51.2841 137.361 50.9261 136.875 50.4664C136.408 50.0169 136.039 49.4748 135.794 48.8747C135.283 47.5913 135.283 46.1597 135.794 44.8763C136.043 44.2758 136.413 43.733 136.881 43.2815C137.367 42.818 137.941 42.4579 138.569 42.2233C140.003 41.7179 141.567 41.7202 142.999 42.2297C143.625 42.4647 144.195 42.8265 144.675 43.2922C145.135 43.747 145.497 44.2923 145.737 44.8935C146.233 46.1801 146.231 47.6068 145.731 48.892C145.491 49.4884 145.129 50.028 144.669 50.476C144.186 50.9356 143.615 51.2923 142.99 51.5246C141.557 52.0314 139.992 52.0292 138.561 51.5181V51.5192ZM142.006 48.8307C142.288 48.3417 142.429 47.6939 142.43 46.8874C142.431 46.0808 142.291 45.4331 142.011 44.9441C141.768 44.4766 141.276 44.1893 140.75 44.2074C140.226 44.1833 139.736 44.4718 139.502 44.9409C139.233 45.4305 139.098 46.0779 139.097 46.8831C139.096 47.6882 139.229 48.3363 139.497 48.8274C139.73 49.2963 140.219 49.5856 140.742 49.5641C141.268 49.5832 141.761 49.2973 142.006 48.8307ZM153.526 50.3986H153.469C153.127 50.8684 152.685 51.2557 152.173 51.5321C151.63 51.8031 151.028 51.9365 150.421 51.9203C149.897 51.9311 149.376 51.8387 148.887 51.6482C148.474 51.4828 148.104 51.2254 147.805 50.8955C147.512 50.5598 147.293 50.1669 147.16 49.7415C147.01 49.2601 146.937 48.7575 146.946 48.2532L146.954 42.1351H150.579L150.571 47.4176C150.571 48.4212 151.005 48.9231 151.872 48.9231C152.345 48.9231 152.713 48.7751 152.976 48.479C153.239 48.1829 153.37 47.7738 153.37 47.2519L153.378 42.1373L157.001 42.1426L156.988 51.6278L153.537 51.6224L153.526 50.3986ZM161.8 43.5848C162.198 42.9904 162.636 42.5696 163.115 42.3222C163.63 42.0667 164.2 41.9397 164.775 41.9523C164.977 41.9413 165.18 41.9733 165.369 42.0458V45.0409H165.293C164.218 44.8659 163.387 45.004 162.8 45.4549C162.212 45.9058 161.917 46.6712 161.914 47.7509L161.909 51.6375H158.284L158.298 42.1523L161.75 42.1577V43.5891L161.8 43.5848ZM168.892 51.5644C168.264 51.3272 167.689 50.9691 167.198 50.5105C166.725 50.0637 166.353 49.5211 166.107 48.9188C165.594 47.6358 165.594 46.2035 166.107 44.9204C166.356 44.3171 166.729 43.7727 167.202 43.3224C167.692 42.8601 168.27 42.5007 168.901 42.2652C170.216 41.7961 171.649 41.7623 172.984 42.1684C173.519 42.337 174.02 42.6024 174.46 42.9513C174.87 43.2816 175.212 43.6898 175.464 44.1526C175.722 44.6279 175.884 45.1493 175.941 45.6872H172.452C172.35 45.2527 172.191 44.9208 171.974 44.6914C171.757 44.462 171.451 44.3469 171.054 44.3462C170.492 44.3462 170.076 44.5749 169.807 45.0323C169.537 45.4897 169.404 46.1214 169.406 46.9272C169.406 47.7208 169.546 48.3442 169.825 48.7973C170.104 49.2504 170.526 49.4773 171.09 49.4781C171.537 49.4781 171.872 49.339 172.097 49.0608C172.321 48.7826 172.459 48.3704 172.511 47.8241L176 47.8294C176.004 48.3912 175.882 48.9468 175.644 49.4555C175.406 49.9576 175.066 50.4039 174.644 50.7653C174.188 51.1533 173.66 51.4494 173.091 51.6375C171.722 52.0788 170.245 52.0542 168.891 51.5676L168.892 51.5644ZM179.6 51.5504C178.975 51.3176 178.402 50.963 177.914 50.5072C177.443 50.0599 177.071 49.5173 176.824 48.9156C176.313 47.6255 176.313 46.1879 176.824 44.8978C177.071 44.2984 177.436 43.7549 177.898 43.2998C178.372 42.8399 178.933 42.4803 179.549 42.2426C180.886 41.7493 182.354 41.7378 183.7 42.2104C184.272 42.4277 184.801 42.7465 185.261 43.1514C185.868 43.6957 186.323 44.389 186.581 45.1624C186.866 46.0061 186.995 46.8951 186.961 47.7853L179.982 47.7757C180.083 48.3341 180.29 48.7683 180.603 49.078C180.915 49.3877 181.345 49.5433 181.892 49.5447C182.531 49.5447 182.984 49.31 183.254 48.8403H186.763C186.647 49.2997 186.427 49.726 186.118 50.0857C185.424 50.892 184.5 51.4683 183.471 51.7375C182.914 51.8669 182.345 51.9286 181.773 51.9214C181.032 51.9314 180.295 51.806 179.599 51.5515L179.6 51.5504ZM180.567 44.6795C180.263 45.0297 180.063 45.4581 179.99 45.9163H183.365C183.289 45.3829 183.108 44.9674 182.821 44.6699C182.539 44.374 182.146 44.211 181.738 44.2214C181.239 44.2236 180.849 44.3763 180.567 44.6795Z" fill="#0D148C"/>
<path fill-rule="evenodd" clip-rule="evenodd" d="M59.8193 28C59.8186 28 59.8179 28 59.8172 28C50.4986 28 42.8306 35.6742 42.8306 45.0002C42.8306 54.3262 50.4986 62.0004 59.8172 62.0004C69.1353 62.0004 76.8032 54.3269 76.8037 45.0013C76.8037 45.0005 76.8037 44.9999 76.8037 44.9991C76.8037 35.6741 69.1369 28.0005 59.8193 28ZM51.5764 36.7453H56.2152V40.4318L51.5753 40.4254L51.5764 36.7453ZM50.1333 46.053C50.7694 45.8455 51.5398 45.6455 51.5409 45.0927L51.5463 41.3933L56.2152 41.4008V44.5281C56.2152 46.0745 55.693 46.9446 54.5508 47.2597C55.7467 47.7393 56.2099 48.5921 56.2077 50.4182V53.0949L51.528 53.0572V49.5589C51.528 48.861 50.7586 48.7749 50.1236 48.5588L50.1333 46.053ZM63.2321 53.5756C59.0252 53.5691 57.0126 51.3226 57.0169 48.4889V47.6285L61.7309 47.635V48.0081C61.7309 48.933 62.208 49.5686 63.1279 49.5697C63.9725 49.5697 64.3872 49.1804 64.3883 48.5211C64.3883 46.6488 57.1813 46.9532 57.1888 41.7073C57.1888 38.8789 58.9854 36.4151 63.4427 36.4216C67.4487 36.427 69.4355 38.68 69.4312 41.5051V42.4267L64.7193 42.4203V41.8922C64.7193 41.1319 64.3281 40.3716 63.4373 40.3705C62.7281 40.3705 62.3176 40.7641 62.3166 41.3976C62.3166 43.4677 69.5161 42.9462 69.5161 48.1899C69.5021 51.0247 67.6249 53.582 63.2299 53.5767L63.2321 53.5756Z" fill="#0D148C"/>
<defs>
<filter id="filter0_d_202_6306" x="0.830566" y="0" width="228.277" height="103.322" filterUnits="userSpaceOnUse" color-interpolation-filters="sRGB">
<feFlood flood-opacity="0" result="BackgroundImageFix"/>
<feColorMatrix in="SourceAlpha" type="matrix" values="0 0 0 0 0 0 0 0 0 0 0 0 0 0 0 0 0 0 127 0" result="hardAlpha"/>
<feOffset dy="7"/>
<feGaussianBlur stdDeviation="10"/>
<feComposite in2="hardAlpha" operator="out"/>
<feColorMatrix type="matrix" values="0 0 0 0 0.419608 0 0 0 0 0.145098 0 0 0 0 0.423529 0 0 0 0.08 0"/>
<feBlend mode="normal" in2="BackgroundImageFix" result="effect1_dropShadow_202_6306"/>
<feBlend mode="normal" in="SourceGraphic" in2="effect1_dropShadow_202_6306" result="shape"/>
</filter>
</defs>
</svg>
