<svg width="229" height="104" viewBox="0 0 229 104" fill="none" xmlns="http://www.w3.org/2000/svg">
<g filter="url(#filter0_d_202_6173)">
<rect x="20.1074" y="13" width="188.277" height="63.3218" rx="10" fill="white"/>
</g>
<path d="M34.5483 35.0688H38.529V43.6782L46.4904 35.0688H51.3968L43.6206 43.1228L51.7671 54.0465H46.8607L40.8434 45.9L38.529 48.3069V54.0465H34.5483V35.0688Z" fill="#231F20"/>
<path d="M52.4158 44.6964C52.4158 39.2346 56.6742 34.791 62.5063 34.791C68.3385 34.791 72.5969 39.142 72.5969 44.5113C72.5969 49.8806 68.3385 54.3241 62.5063 54.3241C56.6742 54.3241 52.4158 50.1583 52.4158 44.6964ZM68.4311 44.6964C68.4311 41.2712 66.0241 38.494 62.5063 38.494C59.0811 38.494 56.6742 41.2712 56.6742 44.6039C56.6742 47.9365 59.0811 50.7137 62.5989 50.7137C66.0241 50.8063 68.4311 48.0291 68.4311 44.6964Z" fill="#231F20"/>
<path d="M75.0964 44.6964C75.0964 39.2346 79.1697 34.791 85.0018 34.791C88.6122 34.791 90.7414 35.9945 92.5003 37.7534L89.9083 40.7157C88.4271 39.3271 86.8533 38.494 84.9093 38.494C81.5766 38.494 79.1697 41.2712 79.1697 44.6039C79.1697 47.9365 81.484 50.7137 84.9093 50.7137C87.131 50.7137 88.5197 49.788 90.0008 48.492L92.5929 51.084C90.6489 53.1207 88.5197 54.5093 84.8167 54.5093C79.2623 54.4167 75.0964 50.1583 75.0964 44.6964Z" fill="#231F20"/>
<path d="M96.2041 35.0688H100.277V42.6599H108.239V35.0688H112.219V54.1391H108.239V46.4554H100.277V54.2317H96.2967V35.0688H96.2041Z" fill="#231F20"/>
<path d="M123.697 34.9761H127.4L135.547 54.1389H131.381L129.622 49.7879H121.383L119.624 54.1389H115.551L123.697 34.9761ZM128.141 46.2701L125.456 39.7899L122.771 46.2701H128.141Z" fill="#231F20"/>
<path d="M134.807 35.0688H139.25L144.434 48.7698L149.526 35.0688H153.877L146.101 54.2317H142.49L134.807 35.0688Z" fill="#231F20"/>
<path d="M160.54 34.9761H164.243L172.482 54.1389H168.316L166.557 49.7879H158.318L156.559 54.1389H152.486L160.54 34.9761ZM164.984 46.2701L162.299 39.7899L159.614 46.2701H164.984Z" fill="#231F20"/>
<path opacity="0.9" d="M182.85 42.1969H175.352C175.259 42.1969 175.167 42.3821 175.259 42.4747L181.277 46.8256L179.61 53.9538C179.61 54.0464 179.703 54.139 179.795 54.0464L185.165 49.6029L190.812 54.0464C190.904 54.139 191.089 54.0464 190.997 53.8613L189.053 46.7331L195.07 42.3821C195.163 42.2895 195.07 42.1044 194.978 42.1044H187.479L185.257 34.9762C185.257 34.8836 185.072 34.8836 184.98 34.9762L182.85 42.1969Z" fill="#BC2330"/>
<defs>
<filter id="filter0_d_202_6173" x="0.107422" y="0" width="228.277" height="103.322" filterUnits="userSpaceOnUse" color-interpolation-filters="sRGB">
<feFlood flood-opacity="0" result="BackgroundImageFix"/>
<feColorMatrix in="SourceAlpha" type="matrix" values="0 0 0 0 0 0 0 0 0 0 0 0 0 0 0 0 0 0 127 0" result="hardAlpha"/>
<feOffset dy="7"/>
<feGaussianBlur stdDeviation="10"/>
<feComposite in2="hardAlpha" operator="out"/>
<feColorMatrix type="matrix" values="0 0 0 0 0.419608 0 0 0 0 0.145098 0 0 0 0 0.423529 0 0 0 0.08 0"/>
<feBlend mode="normal" in2="BackgroundImageFix" result="effect1_dropShadow_202_6173"/>
<feBlend mode="normal" in="SourceGraphic" in2="effect1_dropShadow_202_6173" result="shape"/>
</filter>
</defs>
</svg>
