<svg width="15" height="14" viewBox="0 0 15 14" fill="none" xmlns="http://www.w3.org/2000/svg">
<g clip-path="url(#clip0_1896_12359)">
<path d="M3.74326 13.911H0.859263V4.62396H3.74326V13.911ZM2.29926 3.35696C1.96739 3.35854 1.6425 3.26167 1.36569 3.0786C1.08887 2.89554 0.872549 2.6345 0.744088 2.3285C0.615626 2.02249 0.580789 1.68526 0.643983 1.35946C0.707177 1.03366 0.865564 0.73391 1.09911 0.498122C1.33266 0.262335 1.63089 0.101098 1.95607 0.0347999C2.28126 -0.0314978 2.6188 0.00012172 2.92602 0.12566C3.23323 0.251198 3.49632 0.465017 3.68202 0.740077C3.86772 1.01514 3.96768 1.33909 3.96926 1.67096C3.96981 2.11551 3.79454 2.54225 3.4817 2.85809C3.16885 3.17394 2.7438 3.35326 2.29926 3.35696ZM14.5363 13.911H11.6593V9.38996C11.6593 8.31296 11.6373 6.93096 10.1593 6.93096C8.66026 6.93096 8.42926 8.09996 8.42926 9.31196V13.912H5.54926V4.62396H8.31526V5.89096H8.35526C8.63181 5.41737 9.03171 5.02771 9.51232 4.76355C9.99292 4.49938 10.5362 4.37061 11.0843 4.39096C14.0033 4.39096 14.5393 6.31296 14.5393 8.80896V13.909L14.5363 13.911Z" fill="white"/>
</g>
<defs>
<clipPath id="clip0_1896_12359">
<rect width="13.91" height="13.91" fill="white" transform="translate(0.628906)"/>
</clipPath>
</defs>
</svg>
