<svg width="148" height="31" viewBox="0 0 148 31" fill="none" xmlns="http://www.w3.org/2000/svg">
<path d="M26.0823 6.36841L18.0056 1.76676L15.7374 0.475091C14.6247 -0.158364 13.2552 -0.158364 12.1424 0.475091L9.87422 1.76676L1.79746 6.36841C0.684746 7.00186 0 8.17266 0 9.44103V21.2277C0 22.4946 0.684746 23.6654 1.79746 24.3003L9.41084 28.6384L11.7115 26.3681L13.9384 24.1707L16.1653 26.3681L18.466 28.6384L26.0794 24.3003C27.1921 23.6668 27.8769 22.496 27.8769 21.2277V9.44103C27.8769 8.17412 27.1921 7.00332 26.0794 6.36841H26.0823Z" fill="url(#paint0_linear_1564_4316)"/>
<path d="M11.9492 29.984L13.0605 30.6174C13.605 30.9276 14.2765 30.9276 14.821 30.6174L15.9323 29.984L13.9415 28.0195L11.9507 29.984H11.9492Z" fill="#6B256C"/>
<path d="M12.5114 16.4239C12.3417 16.0308 12.1055 15.6798 11.8104 15.3828C11.5123 15.0842 11.1581 14.8469 10.7567 14.6794C10.3524 14.5105 9.91996 14.4231 9.46985 14.4231H8.60654C8.44568 14.4231 8.29663 14.394 8.15201 14.3343C8.00739 14.2746 7.8849 14.1945 7.77865 14.0896C7.67092 13.9833 7.58975 13.8639 7.52925 13.7227C7.47022 13.5872 7.4407 13.4445 7.4407 13.2858C7.4407 13.1271 7.47022 12.98 7.52925 12.8373C7.58975 12.6946 7.67092 12.5737 7.77717 12.4689C7.8849 12.3626 8.00591 12.2825 8.15054 12.2242C8.29516 12.1645 8.44273 12.1354 8.60507 12.1354H12.3107V10.0137H8.60507C8.15496 10.0137 7.72257 10.0996 7.31674 10.27C6.91534 10.4389 6.55968 10.6748 6.2601 10.9719C5.95905 11.2689 5.72146 11.617 5.55027 12.0058C5.37761 12.4004 5.28906 12.8315 5.28906 13.2858C5.28906 13.7401 5.37613 14.1566 5.54879 14.5571C5.71998 14.9546 5.96053 15.3041 6.26158 15.5954C6.56116 15.8866 6.91681 16.1196 7.31674 16.2871C7.72109 16.456 8.15349 16.5434 8.60359 16.5434H9.4669C9.62776 16.5434 9.77681 16.5725 9.92143 16.6307C10.0631 16.689 10.1812 16.7676 10.2815 16.871C10.3878 16.9802 10.4719 17.1055 10.5383 17.254C10.6003 17.3923 10.6313 17.5365 10.6313 17.6938C10.6313 17.851 10.6003 17.9938 10.5383 18.1335C10.4719 18.2821 10.3878 18.4073 10.2815 18.5151C10.1812 18.617 10.0631 18.6956 9.91996 18.7554C9.77533 18.8151 9.62628 18.8442 9.46543 18.8442H5.74654V20.9528H9.46543C9.91553 20.9528 10.3479 20.8669 10.7538 20.6965C11.1552 20.5276 11.5079 20.2946 11.8045 20.0019C12.0996 19.7092 12.3372 19.3611 12.5084 18.9665C12.6811 18.5675 12.7681 18.1394 12.7681 17.6952C12.7681 17.2511 12.6811 16.8244 12.5084 16.4239H12.5114Z" fill="white"/>
<path d="M22.5794 9.89648L21.2114 12.2366L19.3534 15.4126L17.9102 12.9458L18.3234 12.2366L19.6943 9.89648H22.5794Z" fill="#6B256C"/>
<path d="M19.3533 15.4126L17.9101 17.8795L17.485 18.6047L16.6173 20.0871L16.1141 20.9463H13.2305L14.6014 18.6047L15.5799 16.9315V16.9257L16.4653 15.4126L14.6088 12.2366L13.2378 9.89648H16.1259L16.2174 10.0538L17.4939 12.2366L17.9101 12.9458L19.3533 15.4126Z" fill="white"/>
<path d="M22.5912 20.9457H19.7047L18.3337 18.6041L17.9102 17.8789L19.3534 15.4121L21.2217 18.6041L22.5912 20.9457Z" fill="#6B256C"/>
<path d="M37.9536 15.9304C36.7582 15.5445 35.7237 15.0027 34.8516 14.3052L36.7686 11.6564C38.1676 12.7398 39.7997 13.2815 41.6636 13.2815C42.5963 13.2815 43.3371 13.1257 43.8861 12.814C44.4351 12.5024 44.7096 12.0801 44.7096 11.5457C44.7096 11.0418 44.4542 10.6472 43.9422 10.3661C43.4301 10.0836 42.6184 9.88414 41.5057 9.76473C39.3541 9.52736 37.7794 9.03079 36.7789 8.27356C35.7783 7.51632 35.2781 6.4329 35.2781 5.02328C35.2781 4.07382 35.5481 3.23504 36.0897 2.50839C36.6313 1.78174 37.3898 1.21672 38.3683 0.816262C39.3452 0.415802 40.4742 0.214844 41.7522 0.214844C42.8501 0.214844 43.9215 0.37066 44.9663 0.68229C46.0112 0.993921 46.932 1.43224 47.7304 1.9958L45.9935 4.55583C44.7597 3.70977 43.3991 3.28747 41.9101 3.28747C40.9921 3.28747 40.2587 3.436 39.7112 3.73307C39.1622 4.03014 38.8877 4.4306 38.8877 4.93445C38.8877 5.4383 39.1239 5.80236 39.599 6.0703C40.0728 6.33679 40.8652 6.53775 41.9794 6.67172C44.1148 6.90908 45.7086 7.43186 46.7623 8.24152C47.8145 9.05118 48.3414 10.1594 48.3414 11.569C48.3414 12.549 48.0624 13.4126 47.5061 14.1625C46.9497 14.9125 46.1676 15.4906 45.1597 15.8983C44.1517 16.3061 42.9933 16.5099 41.6857 16.5099C40.3782 16.5099 39.1475 16.3163 37.9521 15.9318L37.9536 15.9304Z" fill="#231F20"/>
<path d="M60.9514 5.1543V16.1517H57.8833L57.6575 14.8833C57.2369 15.3726 56.7219 15.7483 56.1124 16.0075C55.5029 16.2667 54.8373 16.3978 54.1157 16.3978C52.7477 16.3978 51.6571 15.9522 50.844 15.0624C50.0323 14.1712 49.625 12.9407 49.625 11.3665V5.15575H53.1668V11.167C53.1668 11.8791 53.3439 12.4354 53.6966 12.8373C54.0493 13.2378 54.5348 13.4387 55.1517 13.4387C55.829 13.4387 56.3736 13.2043 56.7868 12.7368C57.2 12.2694 57.4066 11.6651 57.4066 10.9224V5.15721H60.9484L60.9514 5.1543Z" fill="#231F20"/>
<path d="M71.0372 5.18829C71.5478 5.37469 71.992 5.64409 72.3683 6.00086L70.8793 8.5609C70.5635 8.36868 70.2698 8.22742 69.9997 8.13859C69.7297 8.04976 69.4434 8.00462 69.1423 8.00462C68.3897 8.00462 67.7964 8.24199 67.3596 8.71671C66.9228 9.19144 66.7059 9.88897 66.7059 10.8093V16.1522H63.1641V5.1548H66.2543L66.5243 6.5353C67.246 5.45187 68.2392 4.91016 69.5024 4.91016C70.013 4.91016 70.5251 5.00335 71.0372 5.18829Z" fill="#231F20"/>
<path d="M83.8625 15.7631C84.2757 16.3645 84.4823 17.0577 84.4823 17.8441C84.4823 18.7644 84.227 19.577 83.7149 20.2818C83.2028 20.9866 82.4812 21.5283 81.5485 21.9069C80.6158 22.2855 79.5326 22.4748 78.3004 22.4748C77.0681 22.4748 76.044 22.2812 75.1423 21.8967C74.2406 21.5108 73.5441 20.9618 73.0556 20.2497C72.5671 19.5376 72.3221 18.7134 72.3221 17.7785C72.3221 17.5412 72.3295 17.3635 72.3443 17.2441H75.7503C75.7193 17.9707 75.9274 18.5358 76.3701 18.9362C76.8128 19.3367 77.4563 19.5376 78.2989 19.5376C79.0501 19.5376 79.6596 19.3702 80.1259 19.0367C80.5922 18.7032 80.8254 18.2605 80.8254 17.7115C80.8254 17.1625 80.6114 16.7126 80.182 16.4097C79.754 16.1053 79.1401 15.9539 78.3432 15.9539C77.1095 15.9539 76.0307 15.7238 75.1054 15.2636C74.1801 14.8035 73.4658 14.154 72.9626 13.3152C72.4579 12.4764 72.207 11.5008 72.207 10.3882C72.207 9.27567 72.4668 8.36699 72.9848 7.5282C73.5042 6.68942 74.2259 6.03704 75.1511 5.56959C76.0764 5.10214 77.1331 4.86769 78.321 4.86769C79.239 4.86769 80.0801 5.04535 80.8475 5.40212L82.1565 3.79883L84.7509 5.64677L83.2619 7.36074C84.013 8.2068 84.3893 9.21596 84.3893 10.3882C84.3893 11.2052 84.1901 11.958 83.7916 12.6483C83.3932 13.3385 82.8324 13.9064 82.1108 14.3506C82.8634 14.6928 83.4448 15.1632 83.8595 15.7646L83.8625 15.7631ZM80.2189 12.2784C80.7 11.8037 80.9405 11.1731 80.9405 10.3868C80.9405 9.6004 80.7044 8.97277 80.2292 8.50533C79.7555 8.03788 79.1194 7.80343 78.3225 7.80343C77.5256 7.80343 76.9088 8.03642 76.4277 8.50533C75.9466 8.97277 75.706 9.6004 75.706 10.3868C75.706 11.1731 75.9466 11.7862 76.4277 12.2682C76.9088 12.7502 77.5404 12.9919 78.3225 12.9919C79.1047 12.9919 79.7363 12.7546 80.2174 12.2798L80.2189 12.2784Z" fill="#231F20"/>
<path d="M94.7718 5.59021C95.6587 6.04309 96.339 6.68092 96.8127 7.50514C97.2864 8.32936 97.524 9.29046 97.524 10.3885C97.524 10.7452 97.4857 11.1821 97.4119 11.702H89.223C89.3277 12.2655 89.6362 12.7228 90.1482 13.0708C90.6589 13.4203 91.3141 13.5936 92.111 13.5936C92.6673 13.5936 93.2089 13.512 93.7358 13.3489C94.2626 13.1858 94.7127 12.9558 95.089 12.6587L96.9396 14.6173C96.308 15.1954 95.5598 15.641 94.695 15.9527C93.8302 16.2643 92.9094 16.4201 91.931 16.4201C90.6367 16.4201 89.5166 16.1871 88.5692 15.7182C87.6218 15.2508 86.8913 14.5867 86.3807 13.7261C85.8686 12.8655 85.6133 11.849 85.6133 10.6768C85.6133 9.50453 85.8656 8.54779 86.3689 7.67115C86.8721 6.79596 87.576 6.11736 88.4777 5.6339C89.3794 5.15189 90.4257 4.91016 91.6137 4.91016C92.8016 4.91016 93.8848 5.13733 94.7718 5.58875V5.59021ZM90.0007 8.20558C89.5565 8.56235 89.3056 9.05892 89.2451 9.69675H94.1638C94.118 9.05892 93.8819 8.5609 93.4524 8.20558C93.0245 7.84881 92.4489 7.67115 91.7273 7.67115C91.0057 7.67115 90.4449 7.84881 90.0022 8.20558H90.0007Z" fill="#231F20"/>
<path d="M127.999 0.568359H131.315V16.1514H127.638V6.40052L122.991 12.0099H122.269L117.576 6.37722V16.1499H113.898V0.568359H117.214L122.607 7.20289L127.999 0.568359Z" fill="#231F20"/>
<path d="M145.042 1.24841C145.951 1.7013 146.655 2.35077 147.151 3.19683C147.647 4.0429 147.895 5.03021 147.895 6.15733C147.895 7.28444 147.647 8.27176 147.151 9.11782C146.655 9.96388 145.951 10.6134 145.042 11.0662C144.132 11.5191 143.068 11.7448 141.85 11.7448H137.993V16.1528H134.293V0.568359H141.85C143.068 0.568359 144.132 0.794073 145.042 1.24696V1.24841ZM143.531 7.91498C143.99 7.4854 144.219 6.90582 144.219 6.17917C144.219 5.45252 143.99 4.87294 143.531 4.44336C143.072 4.01232 142.452 3.79825 141.67 3.79825H137.971V8.56155H141.67C142.452 8.56155 143.072 8.34603 143.531 7.91644V7.91498Z" fill="#231F20"/>
<path d="M106.331 8.37227H102.494L98.9518 1.83385C98.6389 1.25427 99.0964 0.574219 99.7989 0.574219H101.521C101.88 0.574219 102.209 0.760615 102.368 1.05623L106.329 8.37227H106.331Z" fill="url(#paint1_linear_1564_4316)"/>
<path d="M99.8003 16.1477H101.523C101.881 16.1477 102.21 15.9613 102.37 15.6657L106.331 8.34961H102.494L98.9518 14.888C98.6389 15.4676 99.0964 16.1477 99.7989 16.1477H99.8003Z" fill="url(#paint2_linear_1564_4316)"/>
<path d="M111.068 1.83435L107.662 8.12521L105.742 4.58077L107.652 1.05818C107.813 0.762568 108.139 0.576172 108.496 0.576172H110.22C110.924 0.576172 111.381 1.25477 111.068 1.8358V1.83435Z" fill="#231F20"/>
<path d="M110.22 16.1477H108.496C108.139 16.1477 107.811 15.9627 107.652 15.6657L105.742 12.1431L107.662 8.60156L111.068 14.8924C111.382 15.4705 110.925 16.1491 110.22 16.1491V16.1477Z" fill="#231F20"/>
<path d="M95.2567 25.9568C95.4028 26.0369 95.515 26.149 95.5917 26.2917C95.6685 26.4359 95.7068 26.599 95.7068 26.7839C95.7068 26.9689 95.6685 27.1276 95.5917 27.2703C95.515 27.413 95.4028 27.5237 95.2538 27.6038C95.1062 27.6839 94.9306 27.7232 94.7299 27.7232H93.6688V28.7324H93.4844V25.8359H94.7299C94.9336 25.8359 95.1092 25.8753 95.2567 25.9553V25.9568ZM95.3173 27.3373C95.4574 27.196 95.5268 27.0111 95.5268 26.7796C95.5268 26.548 95.4574 26.3616 95.3173 26.2204C95.1771 26.0791 94.9808 26.0092 94.7255 26.0092H93.6688V27.5485H94.7255C94.9793 27.5485 95.1771 27.4786 95.3173 27.3373Z" fill="#231F20"/>
<path d="M96.8573 28.6318C96.6965 28.5415 96.571 28.4148 96.4795 28.2532C96.388 28.0916 96.3438 27.911 96.3438 27.7086C96.3438 27.5062 96.3895 27.3256 96.4795 27.1639C96.571 27.0023 96.6965 26.8771 96.8573 26.7853C97.0182 26.695 97.1997 26.6484 97.4004 26.6484C97.6011 26.6484 97.787 26.6936 97.9479 26.7853C98.1087 26.8756 98.2342 27.0023 98.3257 27.1639C98.4172 27.3256 98.4614 27.5062 98.4614 27.7086C98.4614 27.911 98.4157 28.0916 98.3257 28.2532C98.2342 28.4148 98.1087 28.5401 97.9479 28.6318C97.787 28.7221 97.604 28.7687 97.4004 28.7687C97.1967 28.7687 97.0182 28.7236 96.8573 28.6318ZM97.8534 28.4862C97.9877 28.409 98.0925 28.3027 98.1707 28.1658C98.2475 28.0289 98.2858 27.8775 98.2858 27.7086C98.2858 27.5396 98.2475 27.3882 98.1707 27.2513C98.094 27.1144 97.9877 27.0081 97.8534 26.9309C97.7191 26.8538 97.5686 26.8159 97.4004 26.8159C97.2321 26.8159 97.0816 26.8538 96.9473 26.9309C96.813 27.0081 96.7083 27.1144 96.633 27.2513C96.5577 27.3882 96.5194 27.5396 96.5194 27.7086C96.5194 27.8775 96.5577 28.0289 96.633 28.1658C96.7083 28.3027 96.813 28.409 96.9473 28.4862C97.0816 28.5634 97.2321 28.6012 97.4004 28.6012C97.5686 28.6012 97.7191 28.5634 97.8534 28.4862Z" fill="#231F20"/>
<path d="M101.964 26.6875H102.153L101.436 28.7306H101.247L101.042 28.1466L100.614 26.9598L100.186 28.1466L99.9808 28.7306H99.7919L99.0703 26.6875H99.2592L99.5529 27.535L99.8879 28.499L100.537 26.6875H100.692L101.339 28.5078L101.674 27.535L101.963 26.6875H101.964Z" fill="#231F20"/>
<path d="M104.351 26.7751C104.509 26.8596 104.63 26.9775 104.716 27.129C104.801 27.2804 104.844 27.4552 104.844 27.6547C104.844 27.7071 104.844 27.7464 104.84 27.7741H102.94C102.959 28.0304 103.048 28.2328 103.204 28.3828C103.361 28.5313 103.563 28.6056 103.812 28.6056C103.966 28.6056 104.114 28.575 104.252 28.5153C104.392 28.4541 104.5 28.3741 104.575 28.275L104.701 28.3784C104.603 28.4993 104.477 28.5954 104.319 28.6653C104.162 28.7352 103.992 28.7701 103.811 28.7701C103.61 28.7701 103.429 28.725 103.269 28.6333C103.11 28.5415 102.986 28.4163 102.896 28.2546C102.806 28.093 102.762 27.911 102.762 27.7071C102.762 27.5032 102.806 27.3212 102.895 27.161C102.983 27.0008 103.106 26.8756 103.263 26.7853C103.421 26.695 103.601 26.6484 103.802 26.6484C104.003 26.6484 104.192 26.6907 104.35 26.7751H104.351ZM103.204 27.0329C103.048 27.18 102.959 27.3736 102.94 27.6139H104.671C104.671 27.4566 104.634 27.3168 104.561 27.196C104.487 27.0751 104.385 26.9805 104.255 26.912C104.125 26.845 103.975 26.8101 103.805 26.8101C103.562 26.8101 103.362 26.8843 103.206 27.0314L103.204 27.0329Z" fill="#231F20"/>
<path d="M107.002 26.7786L106.923 26.9272C106.819 26.866 106.703 26.8369 106.574 26.8369C106.446 26.8369 106.328 26.8748 106.22 26.949C106.112 27.0233 106.028 27.1252 105.966 27.2548C105.904 27.3844 105.875 27.5271 105.875 27.6815V28.7329H105.699V26.6898H105.867V27.1442C105.94 26.9956 106.039 26.8791 106.163 26.7947C106.287 26.7102 106.427 26.668 106.58 26.668C106.746 26.668 106.886 26.7058 107.004 26.7801L107.002 26.7786Z" fill="#231F20"/>
<path d="M109.042 26.7751C109.2 26.8596 109.321 26.9775 109.407 27.129C109.493 27.2804 109.535 27.4552 109.535 27.6547C109.535 27.7071 109.535 27.7464 109.531 27.7741H107.632C107.651 28.0304 107.739 28.2328 107.896 28.3828C108.052 28.5313 108.254 28.6056 108.504 28.6056C108.657 28.6056 108.805 28.575 108.944 28.5153C109.084 28.4541 109.192 28.3741 109.267 28.275L109.392 28.3784C109.295 28.4993 109.168 28.5954 109.01 28.6653C108.854 28.7352 108.684 28.7701 108.502 28.7701C108.302 28.7701 108.12 28.725 107.961 28.6333C107.801 28.5415 107.677 28.4163 107.587 28.2546C107.497 28.093 107.453 27.911 107.453 27.7071C107.453 27.5032 107.497 27.3212 107.586 27.161C107.674 27.0008 107.797 26.8756 107.955 26.7853C108.113 26.695 108.293 26.6484 108.494 26.6484C108.694 26.6484 108.883 26.6907 109.041 26.7751H109.042ZM107.896 27.0329C107.739 27.18 107.651 27.3736 107.632 27.6139H109.363C109.363 27.4566 109.326 27.3168 109.252 27.196C109.178 27.0751 109.076 26.9805 108.947 26.912C108.817 26.845 108.666 26.8101 108.496 26.8101C108.253 26.8101 108.054 26.8843 107.897 27.0314L107.896 27.0329Z" fill="#231F20"/>
<path d="M112.347 25.8359V28.7324H112.179L112.174 28.2809C112.096 28.4295 111.978 28.5474 111.82 28.6348C111.662 28.7222 111.484 28.7658 111.286 28.7658C111.088 28.7658 110.91 28.7207 110.752 28.6319C110.594 28.5416 110.471 28.4178 110.383 28.2576C110.294 28.0974 110.25 27.9154 110.25 27.7115C110.25 27.5077 110.294 27.3257 110.383 27.1655C110.471 27.0053 110.594 26.88 110.752 26.7912C110.91 26.7009 111.088 26.6572 111.286 26.6572C111.484 26.6572 111.662 26.6995 111.819 26.7854C111.975 26.8713 112.093 26.9878 112.171 27.1378V25.8389H112.347V25.8359ZM111.749 28.4921C111.882 28.4178 111.985 28.313 112.059 28.1775C112.133 28.0421 112.17 27.8863 112.17 27.7101C112.17 27.5339 112.133 27.3781 112.059 27.2426C111.985 27.1072 111.882 27.0024 111.749 26.9281C111.617 26.8538 111.466 26.816 111.299 26.816C111.133 26.816 110.978 26.8524 110.846 26.9281C110.715 27.0024 110.612 27.1072 110.538 27.2426C110.464 27.3781 110.427 27.5339 110.427 27.7101C110.427 27.8863 110.464 28.0421 110.538 28.1775C110.612 28.313 110.715 28.4178 110.846 28.4921C110.978 28.5663 111.128 28.6042 111.299 28.6042C111.47 28.6042 111.617 28.5663 111.749 28.4921Z" fill="#231F20"/>
<path d="M116.431 26.7893C116.589 26.8795 116.712 27.0033 116.8 27.1635C116.889 27.3237 116.933 27.5057 116.933 27.7096C116.933 27.9135 116.889 28.0955 116.8 28.2557C116.712 28.4159 116.589 28.5411 116.431 28.6299C116.273 28.7202 116.093 28.7639 115.893 28.7639C115.692 28.7639 115.512 28.7202 115.354 28.6314C115.196 28.5426 115.079 28.4246 115.004 28.2761V28.7304H114.836V25.834H115.012V27.1329C115.09 26.9844 115.206 26.8664 115.361 26.7805C115.516 26.6946 115.693 26.6524 115.891 26.6524C116.089 26.6524 116.272 26.6975 116.43 26.7864L116.431 26.7893ZM116.335 28.4916C116.468 28.4173 116.571 28.3125 116.645 28.177C116.719 28.0416 116.756 27.8858 116.756 27.7096C116.756 27.5334 116.719 27.3776 116.645 27.2421C116.571 27.1067 116.468 27.0019 116.335 26.9276C116.202 26.8533 116.052 26.8155 115.885 26.8155C115.718 26.8155 115.563 26.8519 115.432 26.9276C115.301 27.0033 115.197 27.1067 115.124 27.2421C115.05 27.3776 115.013 27.5334 115.013 27.7096C115.013 27.8858 115.05 28.0416 115.124 28.177C115.197 28.3125 115.301 28.4173 115.432 28.4916C115.563 28.5659 115.714 28.6037 115.885 28.6037C116.056 28.6037 116.202 28.5659 116.335 28.4916Z" fill="#231F20"/>
<path d="M119.296 26.687H119.49L118.148 29.7232H117.955L118.399 28.7184L117.531 26.687H117.725L118.223 27.8695L118.496 28.5102L119.298 26.6855L119.296 26.687Z" fill="#231F20"/>
<path d="M124.509 25.8359H124.709V28.7324H124.529V26.1141L123.259 27.847H123.213L121.942 26.117V28.7324H121.758V25.8359H121.959L123.234 27.5776L124.509 25.8359Z" fill="#231F20"/>
<path d="M126.146 28.6318C125.986 28.5415 125.86 28.4148 125.769 28.2532C125.677 28.0916 125.633 27.911 125.633 27.7086C125.633 27.5062 125.679 27.3256 125.769 27.1639C125.86 27.0023 125.986 26.8771 126.146 26.7853C126.307 26.695 126.489 26.6484 126.689 26.6484C126.89 26.6484 127.076 26.6936 127.237 26.7853C127.398 26.8756 127.523 27.0023 127.615 27.1639C127.706 27.3256 127.751 27.5062 127.751 27.7086C127.751 27.911 127.705 28.0916 127.615 28.2532C127.523 28.4148 127.398 28.5401 127.237 28.6318C127.076 28.7221 126.893 28.7687 126.689 28.7687C126.486 28.7687 126.307 28.7236 126.146 28.6318ZM127.143 28.4862C127.277 28.409 127.382 28.3027 127.46 28.1658C127.537 28.0289 127.575 27.8775 127.575 27.7086C127.575 27.5396 127.537 27.3882 127.46 27.2513C127.383 27.1144 127.277 27.0081 127.143 26.9309C127.008 26.8538 126.858 26.8159 126.689 26.8159C126.521 26.8159 126.371 26.8538 126.236 26.9309C126.102 27.0081 125.997 27.1144 125.922 27.2513C125.847 27.3882 125.808 27.5396 125.808 27.7086C125.808 27.8775 125.847 28.0289 125.922 28.1658C125.997 28.3027 126.102 28.409 126.236 28.4862C126.371 28.5634 126.521 28.6012 126.689 28.6012C126.858 28.6012 127.008 28.5634 127.143 28.4862Z" fill="#231F20"/>
<path d="M130.24 26.7893C130.398 26.8795 130.52 27.0033 130.609 27.1635C130.697 27.3237 130.742 27.5057 130.742 27.7096C130.742 27.9135 130.697 28.0955 130.609 28.2557C130.52 28.4159 130.398 28.5411 130.24 28.6299C130.082 28.7202 129.902 28.7639 129.701 28.7639C129.5 28.7639 129.32 28.7202 129.163 28.6314C129.005 28.5426 128.888 28.4246 128.813 28.2761V28.7304H128.645V25.834H128.82V27.1329C128.898 26.9844 129.015 26.8664 129.17 26.7805C129.325 26.6946 129.502 26.6524 129.7 26.6524C129.897 26.6524 130.08 26.6975 130.238 26.7864L130.24 26.7893ZM130.144 28.4916C130.277 28.4173 130.38 28.3125 130.454 28.177C130.528 28.0416 130.564 27.8858 130.564 27.7096C130.564 27.5334 130.528 27.3776 130.454 27.2421C130.38 27.1067 130.277 27.0019 130.144 26.9276C130.011 26.8533 129.861 26.8155 129.694 26.8155C129.527 26.8155 129.372 26.8519 129.241 26.9276C129.109 27.0033 129.006 27.1067 128.932 27.2421C128.859 27.3776 128.822 27.5334 128.822 27.7096C128.822 27.8858 128.859 28.0416 128.932 28.177C129.006 28.3125 129.109 28.4173 129.241 28.4916C129.372 28.5659 129.523 28.6037 129.694 28.6037C129.865 28.6037 130.011 28.5659 130.144 28.4916Z" fill="#231F20"/>
<path d="M133.964 28.7324L133.633 28.0042H131.848L131.517 28.7324H131.316L132.633 25.8359H132.851L134.168 28.7324H133.967H133.964ZM132.741 26.0311L131.923 27.8266H133.558L132.741 26.0311Z" fill="#231F20"/>
<path d="M136.361 26.6875H136.554L135.682 28.7306H135.489L134.621 26.6875H134.814L135.192 27.586L135.586 28.5296L135.985 27.586L136.362 26.6875H136.361Z" fill="#231F20"/>
<path d="M138.742 26.7751C138.9 26.8596 139.021 26.9775 139.106 27.129C139.192 27.2804 139.235 27.4552 139.235 27.6547C139.235 27.7071 139.235 27.7464 139.23 27.7741H137.331C137.35 28.0304 137.439 28.2328 137.595 28.3828C137.751 28.5313 137.954 28.6056 138.203 28.6056C138.357 28.6056 138.504 28.575 138.643 28.5153C138.783 28.4541 138.891 28.3741 138.966 28.275L139.091 28.3784C138.994 28.4993 138.867 28.5954 138.709 28.6653C138.553 28.7352 138.383 28.7701 138.202 28.7701C138.001 28.7701 137.819 28.725 137.66 28.6333C137.501 28.5415 137.377 28.4163 137.287 28.2546C137.197 28.093 137.152 27.911 137.152 27.7071C137.152 27.5032 137.197 27.3212 137.285 27.161C137.374 27.0008 137.496 26.8756 137.654 26.7853C137.812 26.695 137.992 26.6484 138.193 26.6484C138.393 26.6484 138.582 26.6907 138.74 26.7751H138.742ZM137.595 27.0329C137.439 27.18 137.35 27.3736 137.331 27.6139H139.062C139.062 27.4566 139.025 27.3168 138.951 27.196C138.877 27.0751 138.776 26.9805 138.646 26.912C138.516 26.845 138.365 26.8101 138.196 26.8101C137.952 26.8101 137.753 26.8843 137.597 27.0314L137.595 27.0329Z" fill="#231F20"/>
<path d="M141.717 26.8941C141.872 27.0514 141.95 27.2713 141.95 27.5523V28.7319H141.775V27.5611C141.775 27.3237 141.713 27.1417 141.59 27.015C141.468 26.8883 141.292 26.8242 141.066 26.8242C140.913 26.8242 140.776 26.8577 140.653 26.9261C140.532 26.9931 140.438 27.0863 140.37 27.2028C140.302 27.3193 140.269 27.4504 140.269 27.5931V28.7304H140.094V26.6873H140.262V27.0892C140.343 26.9567 140.455 26.8519 140.597 26.7747C140.739 26.6975 140.9 26.6582 141.075 26.6582C141.35 26.6582 141.564 26.7368 141.719 26.8941H141.717Z" fill="#231F20"/>
<path d="M144.753 26.687V28.7301H144.585V28.3209C144.504 28.4563 144.393 28.5626 144.254 28.6412C144.114 28.7199 143.958 28.7592 143.785 28.7592C143.517 28.7592 143.306 28.6806 143.152 28.5233C142.999 28.366 142.922 28.1476 142.922 27.8651V26.6855H143.097V27.8563C143.097 28.0937 143.158 28.2757 143.28 28.4024C143.402 28.5291 143.574 28.5932 143.798 28.5932C143.949 28.5932 144.085 28.5597 144.203 28.4913C144.321 28.4243 144.414 28.3311 144.48 28.2146C144.545 28.0981 144.579 27.967 144.579 27.8243V26.687H144.755H144.753Z" fill="#231F20"/>
<path d="M147.23 26.7751C147.388 26.8596 147.509 26.9775 147.595 27.129C147.68 27.2804 147.723 27.4552 147.723 27.6547C147.723 27.7071 147.723 27.7464 147.718 27.7741H145.819C145.838 28.0304 145.927 28.2328 146.083 28.3828C146.24 28.5313 146.442 28.6056 146.691 28.6056C146.845 28.6056 146.992 28.575 147.131 28.5153C147.271 28.4541 147.379 28.3741 147.454 28.275L147.58 28.3784C147.482 28.4993 147.355 28.5954 147.198 28.6653C147.041 28.7352 146.871 28.7701 146.69 28.7701C146.489 28.7701 146.308 28.725 146.148 28.6333C145.989 28.5415 145.865 28.4163 145.775 28.2546C145.685 28.093 145.641 27.911 145.641 27.7071C145.641 27.5032 145.685 27.3212 145.773 27.161C145.862 27.0008 145.984 26.8756 146.142 26.7853C146.3 26.695 146.48 26.6484 146.681 26.6484C146.882 26.6484 147.071 26.6907 147.229 26.7751H147.23ZM146.083 27.0329C145.927 27.18 145.838 27.3736 145.819 27.6139H147.55C147.55 27.4566 147.513 27.3168 147.44 27.196C147.366 27.0751 147.264 26.9805 147.134 26.912C147.004 26.845 146.854 26.8101 146.684 26.8101C146.44 26.8101 146.241 26.8843 146.085 27.0314L146.083 27.0329Z" fill="#231F20"/>
<defs>
<linearGradient id="paint0_linear_1564_4316" x1="12.8788" y1="34.5026" x2="16.4241" y2="-31.2101" gradientUnits="userSpaceOnUse">
<stop offset="0.09" stop-color="#F389B0"/>
<stop offset="1" stop-color="#F0E91B"/>
</linearGradient>
<linearGradient id="paint1_linear_1564_4316" x1="102.328" y1="0.322293" x2="103.205" y2="16.0348" gradientUnits="userSpaceOnUse">
<stop offset="0.09" stop-color="#F389B0"/>
<stop offset="1" stop-color="#F0E91B"/>
</linearGradient>
<linearGradient id="paint2_linear_1564_4316" x1="100.729" y1="19.8581" x2="101.805" y2="15.058" gradientUnits="userSpaceOnUse">
<stop offset="0.09" stop-color="#F389B0"/>
<stop offset="1" stop-color="#A85AA3"/>
</linearGradient>
</defs>
</svg>
