<svg width="168" height="36" viewBox="0 0 168 36" fill="none" xmlns="http://www.w3.org/2000/svg">
<path d="M30.1595 7.893L21.0732 2.68587L18.5214 1.22425C17.2696 0.507444 15.7289 0.507444 14.4771 1.22425L11.9254 2.68587L2.83904 7.893C1.58723 8.60981 0.816895 9.93466 0.816895 11.3699V24.7074C0.816895 26.141 1.58723 27.4659 2.83904 28.1843L11.4041 33.0932L13.9924 30.5243L16.4976 28.0377L19.0029 30.5243L21.5912 33.0932L30.1562 28.1843C31.408 27.4675 32.1784 26.1427 32.1784 24.7074V11.3699C32.1784 9.93631 31.408 8.61146 30.1562 7.893H30.1595Z" fill="url(#paint0_linear_202_1667)"/>
<path d="M14.2598 34.6158L15.5099 35.3326C16.1225 35.6836 16.8779 35.6836 17.4905 35.3326L18.7407 34.6158L16.5011 32.3929L14.2614 34.6158H14.2598Z" fill="#6B256C"/>
<path d="M14.8922 19.2713C14.7013 18.8264 14.4356 18.4293 14.1036 18.0931C13.7682 17.7553 13.3698 17.4867 12.9182 17.2972C12.4633 17.1061 11.9768 17.0072 11.4705 17.0072H10.4993C10.3183 17.0072 10.1506 16.9742 9.98791 16.9067C9.82521 16.8391 9.68741 16.7485 9.56787 16.6298C9.44668 16.5096 9.35537 16.3744 9.2873 16.2146C9.22089 16.0613 9.18768 15.8999 9.18768 15.7202C9.18768 15.5406 9.22089 15.3742 9.2873 15.2127C9.35537 15.0512 9.44668 14.9145 9.56621 14.7958C9.68741 14.6755 9.82355 14.5849 9.98625 14.519C10.1489 14.4514 10.315 14.4185 10.4976 14.4185H14.6664V12.0176H10.4976C9.99123 12.0176 9.50478 12.1148 9.04823 12.3076C8.59665 12.4987 8.19654 12.7657 7.85951 13.1018C7.52083 13.438 7.25353 13.8318 7.06095 14.2718C6.8667 14.7184 6.76709 15.2061 6.76709 15.7202C6.76709 16.2344 6.86504 16.7056 7.05929 17.1588C7.25187 17.6087 7.52249 18.0041 7.86117 18.3337C8.19819 18.6633 8.59831 18.9269 9.04823 19.1164C9.50312 19.3076 9.98957 19.4064 10.4959 19.4064H11.4672C11.6481 19.4064 11.8158 19.4394 11.9785 19.5053C12.1379 19.5712 12.2707 19.6602 12.3836 19.7772C12.5031 19.9008 12.5978 20.0425 12.6725 20.2106C12.7422 20.3671 12.7771 20.5302 12.7771 20.7082C12.7771 20.8862 12.7422 21.0477 12.6725 21.2059C12.5978 21.3739 12.5031 21.5156 12.3836 21.6376C12.2707 21.7529 12.1379 21.8419 11.9768 21.9095C11.8141 21.977 11.6465 22.01 11.4655 22.01H7.28176V24.3961H11.4655C11.9719 24.3961 12.4583 24.2988 12.9149 24.106C13.3664 23.9149 13.7632 23.6512 14.0969 23.32C14.429 22.9888 14.6963 22.595 14.8889 22.1484C15.0831 21.6969 15.1811 21.2125 15.1811 20.7099C15.1811 20.2073 15.0831 19.7245 14.8889 19.2713H14.8922Z" fill="white"/>
<path d="M26.2183 11.8857L24.6792 14.5338L22.589 18.1277L20.9653 15.3363L21.4302 14.5338L22.9725 11.8857H26.2183Z" fill="#6B256C"/>
<path d="M22.5889 18.1277L20.9652 20.9191L20.4871 21.7397L19.5109 23.4172L18.9447 24.3895H15.7007L17.243 21.7397L18.3437 19.8464V19.8398L19.3399 18.1277L17.2513 14.5338L15.709 11.8857H18.958L19.061 12.0637L20.497 14.5338L20.9652 15.3363L22.5889 18.1277Z" fill="white"/>
<path d="M26.2315 24.3894H22.9842L21.4418 21.7397L20.9653 20.9191L22.589 18.1277L24.6909 21.7397L26.2315 24.3894Z" fill="#6B256C"/>
<path d="M43.5161 18.7127C42.1714 18.276 41.0076 17.663 40.0264 16.8737L42.183 13.8763C43.7569 15.1023 45.5931 15.7153 47.6899 15.7153C48.7392 15.7153 49.5726 15.539 50.1902 15.1863C50.8078 14.8337 51.1166 14.3558 51.1166 13.7511C51.1166 13.1809 50.8294 12.7344 50.2533 12.4163C49.6772 12.0966 48.7641 11.8709 47.5123 11.7358C45.0917 11.4672 43.3202 10.9053 42.1946 10.0484C41.069 9.19152 40.5062 7.96554 40.5062 6.37044C40.5062 5.29606 40.81 4.34691 41.4193 3.52465C42.0286 2.70238 42.8819 2.06303 43.9827 1.60987C45.0817 1.15672 46.3518 0.929321 47.7895 0.929321C49.0247 0.929321 50.2301 1.10564 51.4055 1.45827C52.5809 1.81091 53.6169 2.3069 54.5151 2.94461L52.561 5.84149C51.1731 4.88411 49.6423 4.40624 47.9672 4.40624C46.9345 4.40624 46.1094 4.57431 45.4935 4.91047C44.8759 5.24663 44.5671 5.69978 44.5671 6.26993C44.5671 6.84008 44.8327 7.25203 45.3673 7.55523C45.9002 7.85678 46.7917 8.08418 48.0452 8.23578C50.4475 8.50438 52.2406 9.09595 53.426 10.0121C54.6097 10.9283 55.2024 12.1823 55.2024 13.7774C55.2024 14.8864 54.8886 15.8636 54.2627 16.7122C53.6368 17.5608 52.7569 18.215 51.623 18.6764C50.489 19.1378 49.1858 19.3685 47.7148 19.3685C46.2439 19.3685 44.8593 19.1493 43.5145 18.7143L43.5161 18.7127Z" fill="white"/>
<path d="M69.3906 6.51874V18.9631H65.939L65.685 17.5279C65.2118 18.0815 64.6324 18.5067 63.9467 18.8C63.2611 19.0933 62.5123 19.2416 61.7005 19.2416C60.1615 19.2416 58.9346 18.7374 58.0198 17.7305C57.1067 16.7221 56.6484 15.3297 56.6484 13.5484V6.52039H60.633V13.3226C60.633 14.1284 60.8322 14.7579 61.229 15.2127C61.6258 15.6658 62.172 15.8932 62.8659 15.8932C63.628 15.8932 64.2406 15.6279 64.7055 15.099C65.1703 14.57 65.4027 13.8862 65.4027 13.0458V6.52203H69.3873L69.3906 6.51874Z" fill="white"/>
<path d="M80.7347 6.55668C81.3091 6.7676 81.8089 7.07245 82.2322 7.47617L80.557 10.373C80.2018 10.1555 79.8714 9.99569 79.5676 9.89517C79.2637 9.79466 78.9417 9.74358 78.603 9.74358C77.7563 9.74358 77.0889 10.0122 76.5974 10.5494C76.106 11.0866 75.862 11.8759 75.862 12.9173V18.9632H71.8774V6.51878H75.3539L75.6578 8.08092C76.4696 6.85493 77.5869 6.24194 79.0081 6.24194C79.5825 6.24194 80.1586 6.3474 80.7347 6.55668Z" fill="white"/>
<path d="M95.1636 18.5232C95.6285 19.2037 95.8609 19.9881 95.8609 20.8779C95.8609 21.9193 95.5737 22.8388 94.9976 23.6364C94.4215 24.4339 93.6097 25.0469 92.5604 25.4753C91.5112 25.9038 90.2926 26.118 88.9063 26.118C87.52 26.118 86.3678 25.8988 85.3534 25.4638C84.339 25.0271 83.5554 24.4059 83.0059 23.6001C82.4564 22.7943 82.1808 21.8617 82.1808 20.8038C82.1808 20.5352 82.1891 20.3341 82.2057 20.199H86.0374C86.0026 21.0213 86.2367 21.6606 86.7347 22.1138C87.2328 22.5669 87.9567 22.7943 88.9046 22.7943C89.7497 22.7943 90.4354 22.6048 90.96 22.2275C91.4846 21.8501 91.7469 21.3492 91.7469 20.728C91.7469 20.1067 91.5062 19.5975 91.0231 19.2548C90.5416 18.9104 89.851 18.739 88.9544 18.739C87.5665 18.739 86.3529 18.4787 85.3119 17.958C84.271 17.4372 83.4674 16.7023 82.9013 15.7532C82.3335 14.804 82.0513 13.7 82.0513 12.441C82.0513 11.1821 82.3435 10.1539 82.9262 9.2047C83.5106 8.25555 84.3224 7.51733 85.3634 6.98838C86.4044 6.45942 87.5931 6.19412 88.9295 6.19412C89.9622 6.19412 90.9085 6.39516 91.7718 6.79888L93.2444 4.98462L96.1631 7.07571L94.4879 9.0152C95.333 9.97259 95.7563 11.1145 95.7563 12.441C95.7563 13.3655 95.5322 14.2174 95.084 14.9985C94.6357 15.7795 94.0048 16.4222 93.193 16.9248C94.0397 17.312 94.6938 17.8443 95.1603 18.5248L95.1636 18.5232ZM91.0646 14.5799C91.6058 14.0427 91.8764 13.3292 91.8764 12.4394C91.8764 11.5496 91.6108 10.8393 91.0762 10.3104C90.5433 9.78144 89.8277 9.51614 88.9312 9.51614C88.0347 9.51614 87.3407 9.77979 86.7995 10.3104C86.2583 10.8393 85.9876 11.5496 85.9876 12.4394C85.9876 13.3292 86.2583 14.0229 86.7995 14.5684C87.3407 15.1138 88.0513 15.3873 88.9312 15.3873C89.8111 15.3873 90.5217 15.1188 91.0629 14.5816L91.0646 14.5799Z" fill="white"/>
<path d="M107.435 7.01148C108.432 7.52395 109.198 8.2457 109.731 9.17837C110.264 10.111 110.531 11.1986 110.531 12.4411C110.531 12.8448 110.488 13.3391 110.405 13.9274H101.192C101.31 14.5651 101.657 15.0825 102.233 15.4764C102.808 15.8718 103.545 16.0679 104.441 16.0679C105.067 16.0679 105.676 15.9757 106.269 15.7911C106.862 15.6065 107.368 15.3462 107.792 15.01L109.873 17.2264C109.163 17.8805 108.321 18.3848 107.348 18.7374C106.375 19.09 105.339 19.2664 104.239 19.2664C102.783 19.2664 101.523 19.0027 100.457 18.4721C99.3909 17.9432 98.5691 17.1917 97.9947 16.2179C97.4186 15.244 97.1313 14.0938 97.1313 12.7673C97.1313 11.4408 97.4152 10.3582 97.9814 9.36622C98.5475 8.37588 99.3394 7.60799 100.354 7.06091C101.368 6.51548 102.545 6.24194 103.882 6.24194C105.218 6.24194 106.437 6.499 107.435 7.00983V7.01148ZM102.067 9.97097C101.567 10.3747 101.285 10.9366 101.217 11.6583H106.751C106.699 10.9366 106.434 10.373 105.95 9.97097C105.469 9.56726 104.821 9.36622 104.01 9.36622C103.198 9.36622 102.567 9.56726 102.069 9.97097H102.067Z" fill="white"/>
<path d="M144.819 1.32977H148.549V18.9632H144.412V7.92932L139.184 14.2767H138.372L133.093 7.90295V18.9615H128.956V1.32977H132.686L138.752 8.83727L144.819 1.32977Z" fill="white"/>
<path d="M163.993 2.09931C165.016 2.61178 165.808 3.34671 166.365 4.3041C166.923 5.26149 167.202 6.37871 167.202 7.65413C167.202 8.92955 166.923 10.0468 166.365 11.0042C165.808 11.9616 165.016 12.6965 163.993 13.209C162.969 13.7214 161.772 13.9768 160.402 13.9768H156.062V18.9648H151.9V1.32977H160.402C161.772 1.32977 162.969 1.58519 163.993 2.09766V2.09931ZM162.293 9.64306C162.809 9.15695 163.067 8.50112 163.067 7.67885C163.067 6.85658 162.809 6.20075 162.293 5.71464C161.777 5.22688 161.079 4.98465 160.199 4.98465H156.037V10.3747H160.199C161.079 10.3747 161.777 10.1308 162.293 9.64471V9.64306Z" fill="white"/>
<path d="M120.442 10.1605H116.126L112.141 2.76173C111.789 2.1059 112.304 1.33636 113.094 1.33636H115.032C115.435 1.33636 115.805 1.54729 115.984 1.8818L120.44 10.1605H120.442Z" fill="url(#paint1_linear_202_1667)"/>
<path d="M113.096 18.9599H115.033C115.437 18.9599 115.807 18.7489 115.986 18.4144L120.442 10.1357H116.126L112.141 17.5345C111.789 18.1903 112.304 18.9599 113.094 18.9599H113.096Z" fill="url(#paint2_linear_202_1667)"/>
<path d="M125.773 2.76174L121.941 9.88035L119.781 5.86954L121.93 1.88344C122.111 1.54893 122.477 1.33801 122.879 1.33801H124.818C125.61 1.33801 126.125 2.1059 125.773 2.76338V2.76174Z" fill="white"/>
<path d="M124.818 18.9582H122.879C122.477 18.9582 122.109 18.749 121.93 18.4128L119.781 14.4267L121.941 10.4192L125.773 17.5378C126.127 18.192 125.612 18.9599 124.818 18.9599V18.9582Z" fill="white"/>
<path d="M107.984 30.058C108.148 30.1487 108.274 30.2755 108.361 30.437C108.447 30.6002 108.49 30.7847 108.49 30.994C108.49 31.2033 108.447 31.3829 108.361 31.5444C108.274 31.7059 108.148 31.8311 107.98 31.9217C107.814 32.0124 107.617 32.0568 107.391 32.0568H106.197V33.1988H105.99V29.9213H107.391C107.62 29.9213 107.818 29.9658 107.984 30.0564V30.058ZM108.052 31.6202C108.209 31.4603 108.287 31.2511 108.287 30.9891C108.287 30.7271 108.209 30.5161 108.052 30.3563C107.894 30.1965 107.673 30.1174 107.386 30.1174H106.197V31.8591H107.386C107.672 31.8591 107.894 31.78 108.052 31.6202Z" fill="white"/>
<path d="M109.785 33.0867C109.604 32.9845 109.463 32.8412 109.36 32.6583C109.257 32.4753 109.207 32.271 109.207 32.042C109.207 31.8129 109.258 31.6086 109.36 31.4257C109.463 31.2428 109.604 31.1011 109.785 30.9972C109.966 30.8951 110.17 30.8423 110.396 30.8423C110.622 30.8423 110.831 30.8934 111.012 30.9972C111.193 31.0994 111.334 31.2428 111.437 31.4257C111.54 31.6086 111.589 31.8129 111.589 32.042C111.589 32.271 111.538 32.4753 111.437 32.6583C111.334 32.8412 111.193 32.9829 111.012 33.0867C110.831 33.1889 110.625 33.2416 110.396 33.2416C110.167 33.2416 109.966 33.1905 109.785 33.0867ZM110.905 32.9219C111.057 32.8346 111.174 32.7143 111.262 32.5594C111.349 32.4045 111.392 32.2331 111.392 32.042C111.392 31.8508 111.349 31.6794 111.262 31.5245C111.176 31.3697 111.057 31.2494 110.905 31.162C110.754 31.0747 110.585 31.0318 110.396 31.0318C110.206 31.0318 110.037 31.0747 109.886 31.162C109.735 31.2494 109.617 31.3697 109.532 31.5245C109.448 31.6794 109.405 31.8508 109.405 32.042C109.405 32.2331 109.448 32.4045 109.532 32.5594C109.617 32.7143 109.735 32.8346 109.886 32.9219C110.037 33.0092 110.206 33.0521 110.396 33.0521C110.585 33.0521 110.754 33.0092 110.905 32.9219Z" fill="white"/>
<path d="M115.528 30.8852H115.74L114.933 33.1971H114.721L114.49 32.5363L114.009 31.1933L113.527 32.5363L113.296 33.1971H113.084L112.272 30.8852H112.484L112.815 31.8442L113.192 32.9351L113.922 30.8852H114.097L114.824 32.945L115.201 31.8442L115.526 30.8852H115.528Z" fill="white"/>
<path d="M118.214 30.9857C118.391 31.0813 118.528 31.2148 118.624 31.3861C118.72 31.5575 118.768 31.7552 118.768 31.981C118.768 32.0403 118.768 32.0848 118.763 32.1161H116.627C116.648 32.4061 116.748 32.6352 116.924 32.8049C117.1 32.973 117.327 33.057 117.608 33.057C117.781 33.057 117.947 33.0224 118.103 32.9549C118.26 32.8857 118.382 32.795 118.466 32.683L118.607 32.8C118.498 32.9367 118.355 33.0455 118.177 33.1246C118.001 33.2037 117.81 33.2432 117.606 33.2432C117.38 33.2432 117.176 33.1921 116.997 33.0883C116.818 32.9845 116.678 32.8428 116.577 32.6599C116.476 32.477 116.426 32.271 116.426 32.0403C116.426 31.8096 116.476 31.6036 116.575 31.4224C116.675 31.2411 116.813 31.0994 116.99 30.9972C117.168 30.8951 117.37 30.8423 117.596 30.8423C117.822 30.8423 118.035 30.8901 118.212 30.9857H118.214ZM116.924 31.2774C116.748 31.4438 116.648 31.663 116.627 31.9349H118.574C118.574 31.7569 118.533 31.5987 118.45 31.4619C118.367 31.3252 118.252 31.2181 118.106 31.1406C117.96 31.0648 117.79 31.0253 117.6 31.0253C117.326 31.0253 117.101 31.1093 116.926 31.2757L116.924 31.2774Z" fill="white"/>
<path d="M121.197 30.989L121.108 31.1571C120.992 31.0879 120.86 31.0549 120.716 31.0549C120.572 31.0549 120.439 31.0978 120.317 31.1818C120.196 31.2658 120.102 31.3812 120.032 31.5278C119.962 31.6745 119.929 31.836 119.929 32.0107V33.2004H119.731V30.8885H119.921V31.4026C120.002 31.2345 120.113 31.1027 120.253 31.0071C120.392 30.9116 120.55 30.8638 120.723 30.8638C120.909 30.8638 121.066 30.9066 121.199 30.9907L121.197 30.989Z" fill="white"/>
<path d="M123.492 30.9857C123.669 31.0813 123.805 31.2148 123.902 31.3861C123.998 31.5575 124.046 31.7552 124.046 31.981C124.046 32.0403 124.046 32.0848 124.041 32.1161H121.904C121.926 32.4061 122.026 32.6352 122.202 32.8049C122.378 32.973 122.605 33.057 122.886 33.057C123.058 33.057 123.224 33.0224 123.38 32.9549C123.538 32.8857 123.659 32.795 123.744 32.683L123.885 32.8C123.776 32.9367 123.633 33.0455 123.455 33.1246C123.279 33.2037 123.088 33.2432 122.884 33.2432C122.658 33.2432 122.454 33.1921 122.275 33.0883C122.095 32.9845 121.956 32.8428 121.855 32.6599C121.753 32.477 121.704 32.271 121.704 32.0403C121.704 31.8096 121.753 31.6036 121.853 31.4224C121.953 31.2411 122.09 31.0994 122.268 30.9972C122.446 30.8951 122.648 30.8423 122.874 30.8423C123.1 30.8423 123.312 30.8901 123.49 30.9857H123.492ZM122.202 31.2774C122.026 31.4438 121.926 31.663 121.904 31.9349H123.852C123.852 31.7569 123.81 31.5987 123.727 31.4619C123.644 31.3252 123.53 31.2181 123.384 31.1406C123.238 31.0648 123.068 31.0253 122.877 31.0253C122.603 31.0253 122.379 31.1093 122.203 31.2757L122.202 31.2774Z" fill="white"/>
<path d="M127.211 29.9212V33.1987H127.021L127.016 32.6879C126.928 32.856 126.796 32.9895 126.618 33.0883C126.44 33.1872 126.24 33.2366 126.017 33.2366C125.795 33.2366 125.594 33.1855 125.416 33.085C125.238 32.9829 125.101 32.8428 125.001 32.6615C124.901 32.4803 124.852 32.2743 124.852 32.0436C124.852 31.8129 124.901 31.6069 125.001 31.4257C125.101 31.2444 125.238 31.1027 125.416 31.0022C125.594 30.9 125.795 30.8506 126.017 30.8506C126.24 30.8506 126.44 30.8984 126.616 30.9956C126.792 31.0928 126.925 31.2246 127.013 31.3944V29.9245H127.211V29.9212ZM126.538 32.9268C126.688 32.8428 126.804 32.7242 126.887 32.5709C126.97 32.4177 127.012 32.2413 127.012 32.042C127.012 31.8426 126.97 31.6663 126.887 31.513C126.804 31.3598 126.688 31.2411 126.538 31.1571C126.389 31.073 126.22 31.0302 126.032 31.0302C125.844 31.0302 125.67 31.0714 125.522 31.1571C125.375 31.2411 125.258 31.3598 125.175 31.513C125.092 31.6663 125.051 31.8426 125.051 32.042C125.051 32.2413 125.092 32.4177 125.175 32.5709C125.258 32.7242 125.375 32.8428 125.522 32.9268C125.67 33.0109 125.839 33.0537 126.032 33.0537C126.225 33.0537 126.389 33.0109 126.538 32.9268Z" fill="white"/>
<path d="M131.803 31.0005C131.981 31.1027 132.118 31.2428 132.218 31.424C132.318 31.6053 132.367 31.8113 132.367 32.042C132.367 32.2727 132.318 32.4786 132.218 32.6599C132.118 32.8412 131.981 32.9829 131.803 33.0834C131.625 33.1855 131.423 33.235 131.197 33.235C130.971 33.235 130.769 33.1855 130.591 33.085C130.413 32.9845 130.282 32.851 130.198 32.683V33.1971H130.008V29.9196H130.206V31.3894C130.294 31.2213 130.425 31.0879 130.599 30.9906C130.774 30.8934 130.973 30.8456 131.195 30.8456C131.418 30.8456 131.624 30.8967 131.801 30.9972L131.803 31.0005ZM131.695 32.9268C131.845 32.8428 131.961 32.7242 132.044 32.5709C132.127 32.4177 132.168 32.2413 132.168 32.042C132.168 31.8426 132.127 31.6663 132.044 31.513C131.961 31.3598 131.845 31.2411 131.695 31.1571C131.546 31.073 131.376 31.0302 131.189 31.0302C131.001 31.0302 130.827 31.0714 130.679 31.1571C130.531 31.2428 130.415 31.3598 130.332 31.513C130.249 31.6663 130.208 31.8426 130.208 32.042C130.208 32.2413 130.249 32.4177 130.332 32.5709C130.415 32.7242 130.531 32.8428 130.679 32.9268C130.827 33.0109 130.996 33.0537 131.189 33.0537C131.381 33.0537 131.546 33.0109 131.695 32.9268Z" fill="white"/>
<path d="M135.027 30.8852H135.245L133.735 34.3209H133.518L134.018 33.1839L133.042 30.8852H133.259L133.82 32.2232L134.127 32.9483L135.029 30.8835L135.027 30.8852Z" fill="white"/>
<path d="M140.889 29.9212H141.115V33.1987H140.912V30.2359L139.483 32.1969H139.431L138.002 30.2392V33.1987H137.794V29.9212H138.02L139.455 31.892L140.889 29.9212Z" fill="white" stroke="white" stroke-width="0.22" stroke-miterlimit="10"/>
<path d="M142.735 33.0867C142.555 32.9845 142.413 32.8412 142.31 32.6583C142.208 32.4753 142.158 32.271 142.158 32.042C142.158 31.8129 142.209 31.6086 142.31 31.4257C142.413 31.2428 142.555 31.1011 142.735 30.9972C142.916 30.8951 143.121 30.8423 143.346 30.8423C143.572 30.8423 143.781 30.8934 143.962 30.9972C144.143 31.0994 144.284 31.2428 144.387 31.4257C144.49 31.6086 144.54 31.8129 144.54 32.042C144.54 32.271 144.489 32.4753 144.387 32.6583C144.284 32.8412 144.143 32.9829 143.962 33.0867C143.781 33.1889 143.576 33.2416 143.346 33.2416C143.117 33.2416 142.916 33.1905 142.735 33.0867ZM143.856 32.9219C144.007 32.8346 144.125 32.7143 144.213 32.5594C144.299 32.4045 144.343 32.2331 144.343 32.042C144.343 31.8508 144.299 31.6794 144.213 31.5245C144.127 31.3697 144.007 31.2494 143.856 31.162C143.705 31.0747 143.536 31.0318 143.346 31.0318C143.157 31.0318 142.988 31.0747 142.837 31.162C142.686 31.2494 142.568 31.3697 142.483 31.5245C142.398 31.6794 142.355 31.8508 142.355 32.042C142.355 32.2331 142.398 32.4045 142.483 32.5594C142.568 32.7143 142.686 32.8346 142.837 32.9219C142.988 33.0092 143.157 33.0521 143.346 33.0521C143.536 33.0521 143.705 33.0092 143.856 32.9219Z" fill="white" stroke="white" stroke-width="0.22" stroke-miterlimit="10"/>
<path d="M147.339 31.0005C147.517 31.1027 147.655 31.2428 147.754 31.424C147.854 31.6053 147.904 31.8113 147.904 32.042C147.904 32.2727 147.854 32.4786 147.754 32.6599C147.655 32.8412 147.517 32.9829 147.339 33.0834C147.161 33.1855 146.959 33.235 146.733 33.235C146.507 33.235 146.305 33.1855 146.127 33.085C145.95 32.9845 145.818 32.851 145.734 32.683V33.1971H145.544V29.9196H145.742V31.3894C145.83 31.2213 145.961 31.0879 146.135 30.9906C146.31 30.8934 146.509 30.8456 146.731 30.8456C146.954 30.8456 147.16 30.8967 147.337 30.9972L147.339 31.0005ZM147.231 32.9268C147.381 32.8428 147.497 32.7242 147.58 32.5709C147.663 32.4177 147.704 32.2413 147.704 32.042C147.704 31.8426 147.663 31.6663 147.58 31.513C147.497 31.3598 147.381 31.2411 147.231 31.1571C147.082 31.073 146.912 31.0302 146.725 31.0302C146.537 31.0302 146.363 31.0714 146.215 31.1571C146.067 31.2428 145.951 31.3598 145.868 31.513C145.785 31.6663 145.744 31.8426 145.744 32.042C145.744 32.2413 145.785 32.4177 145.868 32.5709C145.951 32.7242 146.067 32.8428 146.215 32.9268C146.363 33.0109 146.532 33.0537 146.725 33.0537C146.917 33.0537 147.082 33.0109 147.231 32.9268Z" fill="white" stroke="white" stroke-width="0.22" stroke-miterlimit="10"/>
<path d="M151.529 33.1987L151.157 32.3748H149.148L148.777 33.1987H148.551L150.032 29.9212H150.277L151.758 33.1987H151.533H151.529ZM150.153 30.142L149.233 32.1738H151.073L150.153 30.142Z" fill="white" stroke="white" stroke-width="0.22" stroke-miterlimit="10"/>
<path d="M154.224 30.8852H154.441L153.46 33.1971H153.243L152.267 30.8852H152.484L152.909 31.9019L153.352 32.9697L153.801 31.9019L154.226 30.8852H154.224Z" fill="white" stroke="white" stroke-width="0.22" stroke-miterlimit="10"/>
<path d="M156.905 30.9857C157.083 31.0813 157.219 31.2148 157.315 31.3861C157.412 31.5575 157.46 31.7552 157.46 31.981C157.46 32.0403 157.46 32.0848 157.455 32.1161H155.318C155.34 32.4061 155.439 32.6352 155.615 32.8049C155.791 32.973 156.019 33.057 156.299 33.057C156.472 33.057 156.638 33.0224 156.794 32.9549C156.952 32.8857 157.073 32.795 157.158 32.683L157.299 32.8C157.189 32.9367 157.046 33.0455 156.869 33.1246C156.693 33.2037 156.502 33.2432 156.298 33.2432C156.072 33.2432 155.868 33.1921 155.688 33.0883C155.509 32.9845 155.37 32.8428 155.268 32.6599C155.167 32.477 155.117 32.271 155.117 32.0403C155.117 31.8096 155.167 31.6036 155.267 31.4224C155.366 31.2411 155.504 31.0994 155.682 30.9972C155.859 30.8951 156.062 30.8423 156.288 30.8423C156.513 30.8423 156.726 30.8901 156.904 30.9857H156.905ZM155.615 31.2774C155.439 31.4438 155.34 31.663 155.318 31.9349H157.265C157.265 31.7569 157.224 31.5987 157.141 31.4619C157.058 31.3252 156.943 31.2181 156.797 31.1406C156.651 31.0648 156.482 31.0253 156.291 31.0253C156.017 31.0253 155.793 31.1093 155.617 31.2757L155.615 31.2774Z" fill="white" stroke="white" stroke-width="0.22" stroke-miterlimit="10"/>
<path d="M160.249 31.1192C160.423 31.2971 160.511 31.546 160.511 31.864V33.1987H160.314V31.8739C160.314 31.6053 160.244 31.3993 160.106 31.256C159.969 31.1126 159.771 31.0401 159.517 31.0401C159.344 31.0401 159.19 31.078 159.052 31.1554C158.916 31.2312 158.81 31.3367 158.733 31.4685C158.657 31.6003 158.62 31.7487 158.62 31.9101V33.1971H158.423V30.8852H158.612V31.34C158.703 31.19 158.83 31.0714 158.989 30.9841C159.148 30.8967 159.329 30.8522 159.527 30.8522C159.836 30.8522 160.076 30.9412 160.251 31.1192H160.249Z" fill="white" stroke="white" stroke-width="0.22" stroke-miterlimit="10"/>
<path d="M163.666 30.8852V33.1971H163.477V32.7341C163.385 32.8873 163.261 33.0076 163.105 33.0966C162.947 33.1856 162.771 33.2301 162.577 33.2301C162.275 33.2301 162.037 33.1411 161.864 32.9631C161.692 32.7851 161.605 32.538 161.605 32.2183V30.8835H161.803V32.2084C161.803 32.477 161.871 32.683 162.009 32.8263C162.145 32.9697 162.339 33.0422 162.592 33.0422C162.761 33.0422 162.914 33.0043 163.047 32.9269C163.179 32.8511 163.284 32.7456 163.359 32.6138C163.432 32.4819 163.47 32.3336 163.47 32.1721V30.8852H163.667H163.666Z" fill="white" stroke="white" stroke-width="0.22" stroke-miterlimit="10"/>
<path d="M166.455 30.9857C166.632 31.0813 166.768 31.2148 166.865 31.3861C166.961 31.5575 167.009 31.7552 167.009 31.981C167.009 32.0403 167.009 32.0848 167.004 32.1161H164.867C164.889 32.4061 164.989 32.6352 165.165 32.8049C165.341 32.973 165.568 33.057 165.849 33.057C166.021 33.057 166.187 33.0224 166.343 32.9549C166.501 32.8857 166.622 32.795 166.707 32.683L166.848 32.8C166.738 32.9367 166.596 33.0455 166.418 33.1246C166.242 33.2037 166.051 33.2432 165.847 33.2432C165.621 33.2432 165.417 33.1921 165.238 33.0883C165.058 32.9845 164.919 32.8428 164.818 32.6599C164.716 32.477 164.667 32.271 164.667 32.0403C164.667 31.8096 164.716 31.6036 164.816 31.4224C164.916 31.2411 165.053 31.0994 165.231 30.9972C165.409 30.8951 165.611 30.8423 165.837 30.8423C166.063 30.8423 166.275 30.8901 166.453 30.9857H166.455ZM165.165 31.2774C164.989 31.4438 164.889 31.663 164.867 31.9349H166.815C166.815 31.7569 166.773 31.5987 166.69 31.4619C166.607 31.3252 166.493 31.2181 166.347 31.1406C166.201 31.0648 166.031 31.0253 165.84 31.0253C165.566 31.0253 165.342 31.1093 165.166 31.2757L165.165 31.2774Z" fill="white" stroke="white" stroke-width="0.22" stroke-miterlimit="10"/>
<defs>
<linearGradient id="paint0_linear_202_1667" x1="15.3056" y1="39.729" x2="19.3406" y2="-34.6275" gradientUnits="userSpaceOnUse">
<stop offset="0.09" stop-color="#F389B0"/>
<stop offset="1" stop-color="#F0E91B"/>
</linearGradient>
<linearGradient id="paint1_linear_202_1667" x1="115.94" y1="1.05129" x2="116.937" y2="18.8305" gradientUnits="userSpaceOnUse">
<stop offset="0.09" stop-color="#F389B0"/>
<stop offset="1" stop-color="#F0E91B"/>
</linearGradient>
<linearGradient id="paint2_linear_202_1667" x1="114.14" y1="23.1585" x2="115.364" y2="17.7299" gradientUnits="userSpaceOnUse">
<stop offset="0.09" stop-color="#F389B0"/>
<stop offset="1" stop-color="#A85AA3"/>
</linearGradient>
</defs>
</svg>
