<svg width="229" height="104" viewBox="0 0 229 104" fill="none" xmlns="http://www.w3.org/2000/svg">
<g filter="url(#filter0_d_202_6337)">
<rect x="20.4155" y="13.3218" width="188.277" height="63.3218" rx="10" fill="white"/>
</g>
<path d="M193.416 54.9554C190.453 55.0889 188.972 53.8208 188.972 51.1513C188.972 45.2951 189.13 39.4388 188.893 33.5826C188.788 31.105 189.551 30.254 192.075 30.6795C192.496 30.7546 192.969 30.7296 193.416 30.7546V54.9304V54.9554Z" fill="black"/>
<path d="M87.7499 33.3071C81.4385 33.3572 75.1534 33.3822 68.8419 33.4323C67.7111 33.4323 67.1852 33.1069 67.2641 32.0057C67.343 31.1048 67.3693 30.1788 67.3956 29.2778H87.7762C87.7762 30.6293 87.7499 31.9807 87.7236 33.3071H87.7499Z" fill="#01D0AD"/>
<path d="M87.7485 33.3071C87.7485 31.9557 87.7748 30.6042 87.8011 29.2778H97.9783C97.9783 30.6293 97.9783 31.9807 98.0046 33.3322C94.5859 33.3322 91.1672 33.3322 87.7485 33.3322V33.3071Z" fill="#FECD00"/>
<path d="M98.0087 33.3322C98.0087 31.9807 98.0087 30.6293 97.9824 29.2778C99.5866 29.2778 101.191 29.2778 102.821 29.2778C102.769 29.428 102.69 29.6032 102.69 29.7533C102.567 32.3895 101.015 33.5824 98.035 33.3322H98.0087Z" fill="#0E0D0B"/>
<path d="M39.7054 39.3387C39.7054 43.9936 39.6002 48.6486 39.758 53.3036C39.8106 55.1806 38.785 55.0304 37.4701 55.0304C36.1552 55.0304 35.1559 55.1806 35.2085 53.3036C35.34 46.3462 35.3137 39.3887 35.2085 32.4313C35.2085 30.9798 35.7082 30.7545 37.1283 30.6044C40.2051 30.279 41.8881 31.1049 42.9663 34.0581C44.5968 38.5128 46.8321 42.7673 48.9622 47.4473C51.3027 42.2918 53.4854 37.4617 55.6681 32.6315C56.3781 31.0298 60.7172 29.7785 62.2425 30.7045C62.7947 31.0549 62.6107 31.6054 62.6107 32.0809C62.6107 39.2136 62.5581 46.3462 62.6632 53.4537C62.6895 55.5309 61.2958 54.8552 60.2176 54.9804C58.8501 55.1305 58.1401 54.8803 58.1664 53.3036C58.2715 48.6236 58.219 43.9436 58.219 38.8382C56.8252 40.4148 56.4307 42.0416 55.747 43.4931C54.1954 46.7716 52.749 50.1002 51.2764 53.4037C50.8556 54.3797 50.4349 55.0554 49.0411 55.0304C47.7262 55.0054 47.1739 54.5048 46.7269 53.4537C44.6231 48.6987 42.4404 43.9686 40.284 39.2136C40.0999 39.2386 39.9158 39.2636 39.7054 39.2886V39.3387Z" fill="#030303"/>
<path d="M147.314 53.5288C140.161 56.8823 133.744 54.73 132.035 48.4233C130.983 44.5442 132.035 41.0905 135.296 38.4377C138.346 35.96 142.186 35.6847 145.999 37.6118C146.972 38.1123 147.051 38.0373 147.735 37.1113C148.339 36.2604 150.285 36.6358 151.548 36.9111C152.705 37.1613 152.074 38.3376 152.1 39.0884C152.153 43.8685 152.179 48.6486 152.1 53.4287C152.021 58.7844 149.286 61.6624 143.658 62.3131C140.292 62.6885 137.137 62.0128 134.06 60.6363C132.009 59.7104 133.665 58.7593 133.876 57.8334C134.112 56.7071 134.691 56.3568 135.927 56.9824C138.162 58.1337 140.582 58.7093 143.133 58.434C146.13 58.1337 147.393 56.7072 147.34 53.5288H147.314ZM147.393 45.8706C147.419 42.9925 144.973 40.615 141.897 40.5149C138.793 40.4148 136.137 42.7172 136.058 45.5202C135.98 48.5485 138.425 50.926 141.686 50.926C144.868 50.926 147.366 48.7236 147.393 45.8456V45.8706Z" fill="#080808"/>
<path d="M180.899 44.3689C180.715 42.4168 180.32 40.8652 178.532 40.4147C176.639 39.9392 174.561 39.814 173.141 41.5159C171.774 43.1676 170.038 42.0664 168.46 42.3167C169.196 38.1122 172.01 36.2352 177.165 36.3353C181.925 36.4354 185.107 38.7129 185.37 42.617C185.632 46.371 185.475 50.1501 185.501 53.9041C185.501 54.4797 185.554 55.2555 184.659 55.1554C183.45 55.0052 181.74 55.9563 181.162 54.5047C180.741 53.4786 180.557 53.5787 179.873 54.0793C177.743 55.681 175.245 55.706 172.747 55.4307C169.696 55.1053 167.435 52.878 167.198 50.1751C166.961 47.4222 168.828 45.1698 172.01 44.3689C174.903 43.6431 177.822 43.8934 180.925 44.3439L180.899 44.3689ZM176.902 46.9967C176.323 47.0718 175.797 47.1469 175.271 47.247C172.615 47.7225 171.405 48.9238 171.931 50.5505C172.405 52.0521 174.587 52.7779 176.691 52.1522C177.191 52.002 177.691 51.7768 178.138 51.5015C179.426 50.7007 181.03 49.6245 180.636 48.223C180.241 46.8465 178.19 47.3721 176.902 46.9717V46.9967Z" fill="#080808"/>
<path d="M114.18 47.4475C115.889 51.7521 119.334 52.8783 123.068 50.4256C125.067 49.0992 126.119 50.751 127.486 51.3516C128.039 51.6019 127.329 52.1525 127.013 52.5029C123.989 55.7063 118.493 56.4821 114.548 54.2547C110.393 51.9022 108.631 46.5465 110.551 42.0918C112.286 38.0374 116.81 35.6599 121.306 36.4107C125.935 37.1865 129.406 41.2909 129.38 45.7707C129.38 47.047 128.933 47.4975 127.513 47.4725C123.147 47.3974 118.782 47.4475 114.206 47.4475H114.18ZM124.699 43.7435C123.962 41.5412 122.49 40.5401 120.465 40.2398C118.282 39.9144 116.468 40.5902 115.126 42.267C114.443 43.1179 114.206 43.7686 115.784 43.7435C118.677 43.7435 121.569 43.7435 124.699 43.7435Z" fill="#070707"/>
<path d="M80.7828 39.2137C83.623 36.1604 86.6998 35.5598 90.0396 36.9112C93.4057 38.2877 94.3787 41.1157 94.405 44.3441C94.405 47.3724 94.2735 50.3756 94.4576 53.4038C94.5891 55.3809 93.3268 55.0305 92.1171 55.0806C90.7759 55.1306 89.724 55.2057 89.8555 53.3287C90.0396 50.5758 89.9344 47.7978 89.9081 45.0449C89.8555 41.9666 88.3565 40.3649 85.5953 40.3899C82.7551 40.3899 80.9406 42.1418 80.8354 45.0699C80.7565 47.8229 80.6776 50.6008 80.8354 53.3537C80.9669 55.2558 79.7835 55.0305 78.5212 55.0556C77.18 55.0806 76.1544 55.1306 76.207 53.3037C76.3385 48.5236 76.207 43.7435 76.2859 38.9634C76.2859 38.0374 75.6548 36.5859 77.706 36.711C79.205 36.8111 81.3351 35.9602 80.7828 39.1887V39.2137Z" fill="#0A0A0A"/>
<path d="M107.368 51.4514C107.42 53.879 106.973 55.6058 103.844 55.5308C100.557 55.4557 98.3739 54.1042 98.1372 51.101C97.8742 47.8476 98.032 44.5691 98.0057 41.2906C98.0057 38.2373 99.6186 36.7107 102.844 36.7107C104.002 36.7107 105.185 36.5606 106.316 36.7608C107.131 36.9109 108.788 35.8348 108.604 37.7368C108.472 38.9881 108.709 40.5898 106.237 40.4647C102.634 40.3146 102.634 40.4647 102.634 43.9184C102.634 45.5201 102.634 47.0968 102.634 48.6985C102.634 51.6767 102.95 51.9269 106.026 51.5015C106.447 51.4514 106.868 51.4514 107.368 51.4264V51.4514Z" fill="#0A0A0A"/>
<path d="M155.884 45.6455C155.884 43.293 155.831 40.9655 155.91 38.613C155.91 37.9873 155.358 36.8361 156.567 36.8111C157.856 36.8111 159.671 35.9101 160.354 37.4617C160.88 38.638 161.064 38.4878 161.827 37.8371C162.274 37.4367 162.8 37.0113 163.379 36.8861C164.325 36.6859 165.798 35.4096 166.113 37.0863C166.35 38.2376 167.455 40.2647 164.641 40.8654C161.432 41.5411 160.486 42.9426 160.459 46.096C160.459 48.5235 160.328 50.9511 160.486 53.3787C160.617 55.2557 159.434 55.1306 158.145 55.0805C156.936 55.0555 155.673 55.4059 155.805 53.4288C155.989 50.851 155.857 48.2482 155.857 45.6455H155.884Z" fill="#0A0A0A"/>
<path d="M67.2732 45.7706C67.2732 43.2429 67.3784 40.7403 67.2469 38.2126C67.1417 36.3606 68.404 36.736 69.5085 36.736C70.5604 36.736 71.8227 36.2605 71.7701 38.1875C71.6386 43.293 71.6386 48.4235 71.7701 53.5289C71.8227 55.4059 70.613 55.0055 69.5348 55.0055C68.4829 55.0055 67.1417 55.456 67.2469 53.5539C67.3784 50.9512 67.2732 48.3484 67.2732 45.7456V45.7706Z" fill="black"/>
<defs>
<filter id="filter0_d_202_6337" x="0.415527" y="0.321777" width="228.277" height="103.322" filterUnits="userSpaceOnUse" color-interpolation-filters="sRGB">
<feFlood flood-opacity="0" result="BackgroundImageFix"/>
<feColorMatrix in="SourceAlpha" type="matrix" values="0 0 0 0 0 0 0 0 0 0 0 0 0 0 0 0 0 0 127 0" result="hardAlpha"/>
<feOffset dy="7"/>
<feGaussianBlur stdDeviation="10"/>
<feComposite in2="hardAlpha" operator="out"/>
<feColorMatrix type="matrix" values="0 0 0 0 0.419608 0 0 0 0 0.145098 0 0 0 0 0.423529 0 0 0 0.08 0"/>
<feBlend mode="normal" in2="BackgroundImageFix" result="effect1_dropShadow_202_6337"/>
<feBlend mode="normal" in="SourceGraphic" in2="effect1_dropShadow_202_6337" result="shape"/>
</filter>
</defs>
</svg>
