<svg width="63" height="58" viewBox="0 0 63 58" fill="none" xmlns="http://www.w3.org/2000/svg">
<path d="M50.2598 14.6002L37.5898 7.28021L34.0298 5.23016C32.2798 4.22016 30.1298 4.22016 28.3898 5.23016L24.8298 7.28021L12.1598 14.6002C10.4098 15.6102 9.33984 17.4702 9.33984 19.4902V38.2302C9.33984 40.2502 10.4198 42.1102 12.1598 43.1202L24.1098 50.0202L27.7198 46.4102L31.2098 42.9201L34.6998 46.4102L38.3098 50.0202L50.2598 43.1202C52.0098 42.1102 53.0798 40.2502 53.0798 38.2302V19.4902C53.0798 17.4702 51.9998 15.6102 50.2598 14.6002Z" fill="url(#paint0_linear_1896_12487)"/>
<path d="M28.0781 52.1503L29.8181 53.1603C30.6681 53.6503 31.7281 53.6503 32.5781 53.1603L34.3181 52.1503L31.1981 49.0303L28.0781 52.1503Z" fill="url(#paint1_linear_1896_12487)"/>
<path d="M29.5605 24.0804C29.2205 23.2904 28.7505 22.6005 28.1605 22.0105C27.5705 21.4205 26.8805 20.9504 26.0905 20.6104C24.4905 19.9204 22.5505 19.9304 20.9705 20.6104C20.1805 20.9504 19.4905 21.4205 18.9005 22.0105C18.3105 22.6005 17.8405 23.2904 17.5005 24.0804C17.1605 24.8804 16.9805 25.7305 16.9805 26.6305V31.3905C16.9805 32.2905 17.1605 33.1404 17.5005 33.9304C17.8405 34.7104 18.3105 35.4004 18.9005 35.9904C19.4905 36.5804 20.1805 37.0505 20.9705 37.3905C21.7605 37.7305 22.6305 37.9105 23.5405 37.9105C24.4505 37.9105 25.2905 37.7405 26.0905 37.3905C26.8805 37.0505 27.5805 36.5804 28.1605 35.9904C28.7505 35.4004 29.2205 34.7104 29.5605 33.9304C29.9005 33.1404 30.0805 32.2905 30.0805 31.3905V26.6305C30.0805 25.7305 29.9105 24.8804 29.5605 24.0804ZM26.7205 26.6305V31.3905C26.7205 31.8305 26.6405 32.2404 26.4705 32.6204C26.3005 33.0004 26.0805 33.3404 25.7905 33.6204C25.5005 33.9104 25.1505 34.1304 24.7705 34.3004C24.0005 34.6304 23.0805 34.6304 22.3105 34.3004C21.9205 34.1304 21.5805 33.9004 21.2905 33.6204C21.0005 33.3404 20.7805 33.0104 20.6105 32.6204C20.4505 32.2404 20.3605 31.8305 20.3605 31.3905V26.6305C20.3605 26.1905 20.4405 25.7805 20.6105 25.4005C20.7805 25.0105 21.0105 24.6705 21.3005 24.3805C21.5905 24.0905 21.9305 23.8604 22.3205 23.6904C22.7105 23.5204 23.1105 23.4404 23.5505 23.4404C23.9905 23.4404 24.4005 23.5204 24.7805 23.6904C25.1705 23.8604 25.5105 24.0905 25.8005 24.3805C26.0905 24.6705 26.3205 25.0105 26.4905 25.4005C26.6505 25.7805 26.7405 26.1905 26.7405 26.6305H26.7205Z" fill="white"/>
<path d="M45.4137 20.1006L43.2738 23.8206L40.3538 28.8806L38.0938 24.9506L38.7337 23.8206L40.8938 20.1006H45.4137Z" fill="url(#paint2_linear_1896_12487)"/>
<path d="M40.3522 28.8806L38.0922 32.8005L37.4222 33.9506L36.0622 36.3105L35.2722 37.6805H30.7422L32.8922 33.9506L34.4322 31.2905V31.2806L35.8222 28.8806L32.9122 23.8206L30.7522 20.1006H35.2922L35.4322 20.3506L37.4322 23.8206L38.0922 24.9506L40.3522 28.8806Z" fill="white"/>
<path d="M45.4337 37.6808H40.9037L38.7537 33.9508L38.0938 32.8008L40.3538 28.8809L43.2838 33.9508L45.4337 37.6808Z" fill="url(#paint3_linear_1896_12487)"/>
<defs>
<linearGradient id="paint0_linear_1896_12487" x1="51.8598" y1="1.94015" x2="-9.42023" y2="81.7902" gradientUnits="userSpaceOnUse">
<stop offset="0.09" stop-color="#4AC7EE"/>
<stop offset="0.51" stop-color="#FDB925"/>
<stop offset="1" stop-color="#F3787D"/>
</linearGradient>
<linearGradient id="paint1_linear_1896_12487" x1="56.7781" y1="51.2803" x2="57.3081" y2="51.2803" gradientUnits="userSpaceOnUse">
<stop offset="0.09" stop-color="#5B7860"/>
<stop offset="1" stop-color="#EFE533"/>
</linearGradient>
<linearGradient id="paint2_linear_1896_12487" x1="68.4038" y1="26.6506" x2="-46.5063" y2="16.9006" gradientUnits="userSpaceOnUse">
<stop offset="0.09" stop-color="#5B7860"/>
<stop offset="1" stop-color="#EFE533"/>
</linearGradient>
<linearGradient id="paint3_linear_1896_12487" x1="67.6437" y1="35.5708" x2="-47.2662" y2="25.8207" gradientUnits="userSpaceOnUse">
<stop offset="0.09" stop-color="#5B7860"/>
<stop offset="1" stop-color="#EFE533"/>
</linearGradient>
</defs>
</svg>
