<svg width="63" height="58" viewBox="0 0 63 58" fill="none" xmlns="http://www.w3.org/2000/svg">
<path d="M50.2598 14.5954L37.5898 7.27532L34.0298 5.22527C32.2798 4.21527 30.1298 4.21527 28.3898 5.22527L24.8298 7.27532L12.1598 14.5954C10.4098 15.6054 9.33984 17.4653 9.33984 19.4853V38.2253C9.33984 40.2453 10.4198 42.1053 12.1598 43.1153L24.1098 50.0153L27.7198 46.4053L31.2098 42.9153L34.6998 46.4053L38.3098 50.0153L50.2598 43.1153C52.0098 42.1053 53.0798 40.2453 53.0798 38.2253V19.4853C53.0798 17.4653 51.9998 15.6054 50.2598 14.5954Z" fill="url(#paint0_linear_1896_12459)"/>
<path d="M28.0781 52.1552L29.8181 53.1652C30.6681 53.6552 31.7281 53.6552 32.5781 53.1652L34.3181 52.1552L31.1981 49.0352L28.0781 52.1552Z" fill="url(#paint1_linear_1896_12459)"/>
<path d="M30.9316 22.1255C29.8616 20.8955 28.2716 20.1055 26.5116 20.1055H16.1016L19.6016 23.6055H26.5116C27.3116 23.6055 28.0116 24.0055 28.4416 24.6155C28.7116 24.9955 28.8716 25.4656 28.8716 25.9656C28.8716 26.4656 28.7116 26.9356 28.4416 27.3156C28.0116 27.9256 27.3116 28.3156 26.5116 28.3156H19.6016L16.1016 31.8156H26.5116C28.2716 31.8156 29.8516 31.0355 30.9316 29.7955C31.8316 28.7655 32.3716 27.4256 32.3716 25.9556C32.3716 24.4856 31.8316 23.1455 30.9316 22.1155V22.1255Z" fill="#F7F8F8"/>
<path d="M16.1016 31.8154V37.8054H19.6016V28.3154L18.9616 28.9554L16.1016 31.8154Z" fill="#F7F8F8"/>
<path d="M46.3027 20.3154L44.1527 24.0354L41.2327 29.0854L38.9727 25.1654L39.6227 24.0354L41.7727 20.3154H46.3027Z" fill="url(#paint2_linear_1896_12459)"/>
<path d="M41.2328 29.0854L38.9728 33.0054L38.3028 34.1654L36.9428 36.5254L36.1528 37.8854H31.6328L33.7828 34.1654L35.3128 31.5054V31.4954L36.7028 29.0854L33.7928 24.0354L31.6428 20.3154H36.1728L36.3128 20.5654L38.3228 24.0354L38.9728 25.1654L41.2328 29.0854Z" fill="#F7F8F8"/>
<path d="M46.3127 37.8859H41.7927L39.6327 34.1659L38.9727 33.0059L41.2327 29.0859L44.1727 34.1659L46.3127 37.8859Z" fill="url(#paint3_linear_1896_12459)"/>
<defs>
<linearGradient id="paint0_linear_1896_12459" x1="31.2098" y1="9.76528" x2="31.2098" y2="82.1853" gradientUnits="userSpaceOnUse">
<stop offset="0.09" stop-color="#F498C0"/>
<stop offset="1" stop-color="#3E54A5"/>
</linearGradient>
<linearGradient id="paint1_linear_1896_12459" x1="31.3981" y1="43.3052" x2="31.0881" y2="57.2352" gradientUnits="userSpaceOnUse">
<stop offset="0.09" stop-color="#F498C0"/>
<stop offset="1" stop-color="#3E54A5"/>
</linearGradient>
<linearGradient id="paint2_linear_1896_12459" x1="71.4927" y1="12.7654" x2="42.7126" y2="24.2254" gradientUnits="userSpaceOnUse">
<stop offset="0.09" stop-color="#F389B0"/>
<stop offset="1" stop-color="#794075"/>
</linearGradient>
<linearGradient id="paint3_linear_1896_12459" x1="74.8227" y1="21.136" x2="46.0427" y2="32.5861" gradientUnits="userSpaceOnUse">
<stop offset="0.09" stop-color="#F389B0"/>
<stop offset="1" stop-color="#794075"/>
</linearGradient>
</defs>
</svg>
