<svg width="230" height="104" viewBox="0 0 230 104" fill="none" xmlns="http://www.w3.org/2000/svg">
<g filter="url(#filter0_d_202_6368)">
<rect x="20.9692" y="13.3218" width="188.277" height="63.3218" rx="10" fill="white"/>
</g>
<path d="M109.91 54.2405C106.925 54.2405 106.056 51.6472 106.029 49.297C106.056 46.9468 106.925 44.3535 109.91 44.3535C112.895 44.3535 113.764 46.9468 113.791 49.297C113.791 51.6742 112.895 54.2405 109.91 54.2405ZM110.833 40.7607C108.879 40.7607 107.359 41.436 106.165 42.5436V37.0058V35.439C106.165 34.9257 105.758 34.5205 105.242 34.5205H103.152C102.637 34.5205 102.23 34.9257 102.23 35.439V37.0058V53.9704V56.5637C102.23 57.0769 102.637 57.4821 103.152 57.4821H105.242C105.758 57.4821 106.165 57.0769 106.165 56.5637V55.9153H106.219C107.196 57.0769 108.444 57.8873 110.806 57.8873C115.012 57.8873 117.943 54.0514 117.943 49.351C117.97 44.5966 115.039 40.7607 110.833 40.7607ZM99.5699 42.8407V42.0843C99.5699 41.5711 99.1628 41.1659 98.6472 41.1659H96.5574C96.0418 41.1659 95.6347 41.5711 95.6347 42.0843V42.8407V49.9183C95.6347 51.8903 94.7391 54.0514 91.7537 54.0514C89.7454 54.0514 88.8498 53.1059 88.8498 50.8638V42.0843C88.8498 41.5711 88.4427 41.1659 87.9271 41.1659H85.8373C85.3217 41.1659 84.9146 41.5711 84.9146 42.0843V42.4625V51.9713C84.9146 56.6987 88.117 57.8603 90.9124 57.8603C93.1378 57.8603 94.7391 56.9959 95.6075 55.8613H95.6618V56.5096V56.5637C95.6618 57.0769 96.0689 57.4821 96.5846 57.4821H98.6743C99.1899 57.4821 99.597 57.0769 99.597 56.5637V56.5096V42.8407H99.5699ZM74.3845 46.1364H70.0693V38.1133H74.2217C76.7185 38.1133 78.4283 39.0588 78.4283 42.2464C78.4283 44.5156 77.1256 46.1364 74.3845 46.1364ZM74.9001 34.5205H69.1466H66.9754H66.6769C66.1612 34.5205 65.7542 34.9257 65.7542 35.439V35.7361V56.0504V56.5637C65.7542 57.0769 66.1612 57.4821 66.6769 57.4821H69.1466C69.6622 57.4821 70.0693 57.0769 70.0693 56.5637V56.0504V49.7292H75.1987C79.7581 49.7292 82.9606 46.7847 82.9606 42.2464C82.9877 37.8162 80.328 34.5205 74.9001 34.5205Z" fill="#4FC8ED"/>
<path d="M155.2 49.3238C154.684 49.5939 154.033 49.783 153.327 49.8911L151.156 50.3503C149.663 50.6475 148.442 51.0527 148.442 52.5925C148.442 53.8081 149.582 54.6185 150.993 54.6185C152.838 54.6185 155.2 53.727 155.2 51.62V49.3238ZM159.162 54.5645V56.5635C159.162 57.0767 158.755 57.4819 158.239 57.4819H157.289H156.15C155.634 57.4819 155.227 57.0767 155.227 56.5635V56.0232C153.707 57.2388 151.916 57.8871 149.88 57.8871C146.759 57.8871 144.317 55.9151 144.317 52.7546C144.317 49.5669 146.868 48.1352 149.31 47.649L150.966 47.3248C152.404 47.0277 154.25 46.7035 155.254 46.3523V45.8661C155.254 44.2452 153.87 43.813 152.133 43.813C150.125 43.813 149.256 44.2993 149.039 45.839C149.012 46.0011 148.93 46.1092 148.822 46.2443V46.2713C148.632 46.4604 148.388 46.5684 148.116 46.5684L146.026 46.4604C145.294 46.4063 145.158 46.0281 145.185 45.5419C145.185 45.5419 145.185 45.5419 145.185 45.5149C145.538 42.1652 148.768 40.8415 152.16 40.8415C155.688 40.8415 159.216 41.5439 159.216 46.1902V54.5645H159.162ZM192.951 51.2688H191.295C190.671 51.2688 190.318 51.674 189.992 52.2683L189.965 52.3493C189.287 53.4839 188.147 54.2673 186.844 54.2673C184.022 54.2673 182.583 51.8901 182.583 49.3238C182.583 46.7845 184.022 44.3803 186.844 44.3803C188.147 44.3803 189.287 45.1367 189.965 46.2983L189.992 46.3793C190.318 46.9736 190.671 47.3518 191.295 47.3518H192.951C193.738 47.3518 194.09 46.8386 193.928 46.1902V46.1632C193.765 45.5149 193.521 44.9206 193.222 44.3803L193.168 44.2723C192.055 42.3273 190.155 40.7605 186.79 40.7605C181.471 40.7605 178.377 44.4343 178.377 49.2968C178.377 54.1593 181.443 57.8331 186.79 57.8331C190.155 57.8331 192.055 56.2933 193.168 54.3213L193.222 54.2133C193.521 53.673 193.765 53.0787 193.928 52.4304V52.4034C194.09 51.7821 193.738 51.2688 192.951 51.2688ZM176.396 36.5193C176.396 35.3307 175.5 34.3853 174.36 34.3853C173.247 34.3853 172.325 35.3307 172.325 36.5193C172.325 37.7079 173.247 38.6534 174.36 38.6534C175.473 38.6534 176.396 37.6809 176.396 36.5193ZM176.341 42.0842C176.341 41.5709 175.934 41.1657 175.418 41.1657H173.329C172.813 41.1657 172.406 41.5709 172.406 42.0842V56.5635C172.406 57.0767 172.813 57.4819 173.329 57.4819H175.418C175.934 57.4819 176.341 57.0767 176.341 56.5635V42.0842ZM169.421 41.1657H167.412V36.3032C167.412 35.79 167.005 35.3848 166.49 35.3848H164.4C163.884 35.3848 163.477 35.79 163.477 36.3032V41.1657H161.442C161.035 41.1657 160.709 41.4898 160.709 41.8951V43.5429C160.709 43.9481 161.035 44.2723 161.442 44.2723H163.477V56.5365C163.477 57.0497 163.884 57.4549 164.4 57.4549H166.49C167.005 57.4549 167.412 57.0497 167.412 56.5365V44.2723H169.421C169.828 44.2723 170.181 43.9481 170.181 43.5429V41.8951C170.153 41.4898 169.828 41.1657 169.421 41.1657ZM142.091 56.3204V56.5635C142.091 57.0767 141.684 57.4819 141.169 57.4819H138.862C138.346 57.4819 137.939 57.0767 137.939 56.5635V38.5454V38.3292H137.885L136.012 46.2443L134.438 52.9166L133.597 56.4554L133.569 56.5635C133.461 57.0497 133.162 57.4819 132.647 57.4819H129.96C129.471 57.4549 129.146 57.0497 129.037 56.5635V56.5365L124.776 38.5454H124.668V56.3474V56.5635C124.668 57.0767 124.261 57.4819 123.745 57.4819H121.411C120.895 57.4819 120.488 57.0767 120.488 56.5635V35.4388V35.4118C120.515 34.9255 120.923 34.5203 121.411 34.5203H126.405H126.432C126.839 34.5203 127.165 34.8175 127.273 35.1686V35.2227V35.2497L131.317 52.2953H131.371L135.415 35.2497C135.496 34.8445 135.849 34.5203 136.283 34.4933H136.311H141.033H141.087C141.603 34.4933 142.01 34.8985 142.01 35.3848V56.3204H142.091Z" fill="black"/>
<path d="M37.3926 57.4821H60.434V34.5205H37.3926V57.4821Z" fill="#4FC8ED"/>
<defs>
<filter id="filter0_d_202_6368" x="0.969238" y="0.321777" width="228.277" height="103.322" filterUnits="userSpaceOnUse" color-interpolation-filters="sRGB">
<feFlood flood-opacity="0" result="BackgroundImageFix"/>
<feColorMatrix in="SourceAlpha" type="matrix" values="0 0 0 0 0 0 0 0 0 0 0 0 0 0 0 0 0 0 127 0" result="hardAlpha"/>
<feOffset dy="7"/>
<feGaussianBlur stdDeviation="10"/>
<feComposite in2="hardAlpha" operator="out"/>
<feColorMatrix type="matrix" values="0 0 0 0 0.419608 0 0 0 0 0.145098 0 0 0 0 0.423529 0 0 0 0.08 0"/>
<feBlend mode="normal" in2="BackgroundImageFix" result="effect1_dropShadow_202_6368"/>
<feBlend mode="normal" in="SourceGraphic" in2="effect1_dropShadow_202_6368" result="shape"/>
</filter>
</defs>
</svg>
