<svg width="529" height="420" viewBox="0 0 529 420" fill="none" xmlns="http://www.w3.org/2000/svg">
<g filter="url(#filter0_d_202_1849)">
<rect x="10" y="124" width="509" height="282" rx="10" fill="white" shape-rendering="crispEdges"/>
<path d="M83.129 308.5C66.148 314.72 37 300 37 300V376H492V197.197C472.901 190.535 447.119 139.891 435.566 159.474C400.295 219.262 358.281 154.029 319.171 172.998C279.267 192.351 269.829 226.811 226.877 228.87C206.989 229.824 209.939 290.694 190.065 292C169.771 293.333 151.153 241.851 131.939 249.867C111.398 258.437 103.924 300.883 83.129 308.5Z" fill="url(#paint0_linear_202_1849)"/>
<line x1="34.5" y1="155" x2="34.5" y2="361" stroke="#E6E8EC"/>
<line x1="495" y1="361.5" x2="34" y2="361.5" stroke="#E6E8EC"/>
<path d="M37 301.543C37 301.543 66.5243 315.524 83.5426 309.487C104.384 302.095 111.561 258.394 132.147 250.077C151.404 242.296 170.135 294.547 190.473 293.253C210.391 291.986 207.362 230.623 227.295 229.698C270.341 227.699 279.8 194.252 319.791 175.468C358.987 157.057 401.093 220.372 436.442 162.343C448.02 143.336 473.859 192.49 493 198.956" stroke="#A85AA3" stroke-width="4" stroke-linecap="round" stroke-linejoin="round"/>
<line x1="468.5" y1="356.5" x2="468.5" y2="365.5" stroke="#E6E8EC" stroke-linecap="round" stroke-linejoin="round"/>
<line x1="364.5" y1="356.5" x2="364.5" y2="365.5" stroke="#E6E8EC" stroke-linecap="round" stroke-linejoin="round"/>
<line x1="167.5" y1="356.5" x2="167.5" y2="365.5" stroke="#E6E8EC" stroke-linecap="round" stroke-linejoin="round"/>
<line x1="60.5" y1="356.5" x2="60.5" y2="365.5" stroke="#E6E8EC" stroke-linecap="round" stroke-linejoin="round"/>
<path d="M262 366L262 222" stroke="#6B256C" stroke-opacity="0.28"/>
<circle cx="261.279" cy="218.279" r="5.27909" fill="white" stroke="#6B256C" stroke-width="2.11163"/>
<circle cx="262" cy="360.474" r="3" fill="white" stroke="#6B256C" stroke-width="2.11163"/>
<path d="M36.2101 386V378.728L34.8541 379.028V378.332L36.5461 377.6H37.2301V386H36.2101ZM42.2792 386.144C41.5352 386.144 40.8912 385.964 40.3472 385.604C39.8112 385.236 39.3992 384.728 39.1112 384.08C38.8232 383.424 38.6792 382.664 38.6792 381.8C38.6792 380.936 38.8232 380.18 39.1112 379.532C39.3992 378.876 39.8112 378.368 40.3472 378.008C40.8912 377.64 41.5352 377.456 42.2792 377.456C43.0232 377.456 43.6632 377.64 44.1992 378.008C44.7352 378.368 45.1472 378.876 45.4352 379.532C45.7232 380.18 45.8672 380.936 45.8672 381.8C45.8672 382.664 45.7232 383.424 45.4352 384.08C45.1472 384.728 44.7352 385.236 44.1992 385.604C43.6632 385.964 43.0232 386.144 42.2792 386.144ZM42.2792 385.256C42.7672 385.256 43.2032 385.12 43.5872 384.848C43.9792 384.568 44.2832 384.172 44.4992 383.66C44.7232 383.14 44.8352 382.52 44.8352 381.8C44.8352 381.08 44.7232 380.464 44.4992 379.952C44.2832 379.44 43.9792 379.048 43.5872 378.776C43.2032 378.496 42.7672 378.356 42.2792 378.356C41.7832 378.356 41.3432 378.496 40.9592 378.776C40.5752 379.048 40.2712 379.44 40.0472 379.952C39.8232 380.464 39.7112 381.08 39.7112 381.8C39.7112 382.52 39.8232 383.14 40.0472 383.66C40.2712 384.172 40.5752 384.568 40.9592 384.848C41.3432 385.12 41.7832 385.256 42.2792 385.256ZM47.6115 386.06C47.4115 386.06 47.2435 385.996 47.1075 385.868C46.9795 385.732 46.9155 385.568 46.9155 385.376C46.9155 385.184 46.9795 385.024 47.1075 384.896C47.2435 384.76 47.4115 384.692 47.6115 384.692C47.8035 384.692 47.9635 384.76 48.0915 384.896C48.2275 385.024 48.2955 385.184 48.2955 385.376C48.2955 385.568 48.2275 385.732 48.0915 385.868C47.9635 385.996 47.8035 386.06 47.6115 386.06ZM47.6115 381.272C47.4115 381.272 47.2435 381.208 47.1075 381.08C46.9795 380.944 46.9155 380.78 46.9155 380.588C46.9155 380.396 46.9795 380.236 47.1075 380.108C47.2435 379.972 47.4115 379.904 47.6115 379.904C47.8035 379.904 47.9635 379.972 48.0915 380.108C48.2275 380.236 48.2955 380.396 48.2955 380.588C48.2955 380.78 48.2275 380.944 48.0915 381.08C47.9635 381.208 47.8035 381.272 47.6115 381.272ZM52.3302 386.144C51.7942 386.144 51.3102 386.048 50.8782 385.856C50.4462 385.656 50.0982 385.36 49.8342 384.968C49.5782 384.576 49.4422 384.088 49.4262 383.504H50.4462C50.4542 383.984 50.6222 384.4 50.9502 384.752C51.2782 385.096 51.7382 385.268 52.3302 385.268C52.9222 385.268 53.3662 385.104 53.6622 384.776C53.9662 384.448 54.1182 384.052 54.1182 383.588C54.1182 383.196 54.0222 382.876 53.8302 382.628C53.6462 382.38 53.3942 382.196 53.0742 382.076C52.7622 381.956 52.4182 381.896 52.0422 381.896H51.4182V381.044H52.0422C52.5862 381.044 53.0102 380.92 53.3142 380.672C53.6262 380.424 53.7822 380.076 53.7822 379.628C53.7822 379.252 53.6582 378.944 53.4102 378.704C53.1702 378.456 52.8102 378.332 52.3302 378.332C51.8662 378.332 51.4942 378.472 51.2142 378.752C50.9342 379.024 50.7782 379.368 50.7462 379.784H49.7262C49.7502 379.328 49.8702 378.924 50.0862 378.572C50.3102 378.22 50.6142 377.948 50.9982 377.756C51.3822 377.556 51.8262 377.456 52.3302 377.456C52.8742 377.456 53.3262 377.552 53.6862 377.744C54.0542 377.936 54.3302 378.192 54.5142 378.512C54.7062 378.832 54.8022 379.184 54.8022 379.568C54.8022 379.992 54.6862 380.38 54.4542 380.732C54.2222 381.076 53.8742 381.308 53.4102 381.428C53.9062 381.532 54.3182 381.768 54.6462 382.136C54.9742 382.504 55.1382 382.988 55.1382 383.588C55.1382 384.052 55.0302 384.48 54.8142 384.872C54.6062 385.256 54.2942 385.564 53.8782 385.796C53.4622 386.028 52.9462 386.144 52.3302 386.144ZM60.0449 386.144C59.3009 386.144 58.6569 385.964 58.1129 385.604C57.5769 385.236 57.1649 384.728 56.8769 384.08C56.5889 383.424 56.4449 382.664 56.4449 381.8C56.4449 380.936 56.5889 380.18 56.8769 379.532C57.1649 378.876 57.5769 378.368 58.1129 378.008C58.6569 377.64 59.3009 377.456 60.0449 377.456C60.7889 377.456 61.4289 377.64 61.9649 378.008C62.5009 378.368 62.9129 378.876 63.2009 379.532C63.4889 380.18 63.6329 380.936 63.6329 381.8C63.6329 382.664 63.4889 383.424 63.2009 384.08C62.9129 384.728 62.5009 385.236 61.9649 385.604C61.4289 385.964 60.7889 386.144 60.0449 386.144ZM60.0449 385.256C60.5329 385.256 60.9689 385.12 61.3529 384.848C61.7449 384.568 62.0489 384.172 62.2649 383.66C62.4889 383.14 62.6009 382.52 62.6009 381.8C62.6009 381.08 62.4889 380.464 62.2649 379.952C62.0489 379.44 61.7449 379.048 61.3529 378.776C60.9689 378.496 60.5329 378.356 60.0449 378.356C59.5489 378.356 59.1089 378.496 58.7249 378.776C58.3409 379.048 58.0369 379.44 57.8129 379.952C57.5889 380.464 57.4769 381.08 57.4769 381.8C57.4769 382.52 57.5889 383.14 57.8129 383.66C58.0369 384.172 58.3409 384.568 58.7249 384.848C59.1089 385.12 59.5489 385.256 60.0449 385.256ZM67.737 386L70.833 377.6H71.901L74.985 386H73.917L73.149 383.84H69.573L68.793 386H67.737ZM69.873 383.024H72.849L71.361 378.872L69.873 383.024ZM76.2337 386V377.6H77.4097L80.4337 383.456L83.4337 377.6H84.6217V386H83.6137V379.4L80.8057 384.8H80.0497L77.2417 379.412V386H76.2337Z" fill="#68718B"/>
<path d="M445.603 386.144C444.859 386.144 444.215 385.964 443.671 385.604C443.135 385.236 442.723 384.728 442.435 384.08C442.147 383.424 442.003 382.664 442.003 381.8C442.003 380.936 442.147 380.18 442.435 379.532C442.723 378.876 443.135 378.368 443.671 378.008C444.215 377.64 444.859 377.456 445.603 377.456C446.347 377.456 446.987 377.64 447.523 378.008C448.059 378.368 448.471 378.876 448.759 379.532C449.047 380.18 449.191 380.936 449.191 381.8C449.191 382.664 449.047 383.424 448.759 384.08C448.471 384.728 448.059 385.236 447.523 385.604C446.987 385.964 446.347 386.144 445.603 386.144ZM445.603 385.256C446.091 385.256 446.527 385.12 446.911 384.848C447.303 384.568 447.607 384.172 447.823 383.66C448.047 383.14 448.159 382.52 448.159 381.8C448.159 381.08 448.047 380.464 447.823 379.952C447.607 379.44 447.303 379.048 446.911 378.776C446.527 378.496 446.091 378.356 445.603 378.356C445.107 378.356 444.667 378.496 444.283 378.776C443.899 379.048 443.595 379.44 443.371 379.952C443.147 380.464 443.035 381.08 443.035 381.8C443.035 382.52 443.147 383.14 443.371 383.66C443.595 384.172 443.899 384.568 444.283 384.848C444.667 385.12 445.107 385.256 445.603 385.256ZM450.399 386V385.292C450.967 384.844 451.503 384.392 452.007 383.936C452.519 383.472 452.971 383.016 453.363 382.568C453.763 382.12 454.075 381.68 454.299 381.248C454.531 380.816 454.647 380.4 454.647 380C454.647 379.704 454.595 379.428 454.491 379.172C454.395 378.916 454.235 378.712 454.011 378.56C453.787 378.4 453.483 378.32 453.099 378.32C452.731 378.32 452.423 378.404 452.175 378.572C451.927 378.732 451.739 378.948 451.611 379.22C451.491 379.492 451.431 379.784 451.431 380.096H450.459C450.459 379.544 450.575 379.072 450.807 378.68C451.039 378.28 451.355 377.976 451.755 377.768C452.155 377.56 452.607 377.456 453.111 377.456C453.855 377.456 454.463 377.668 454.935 378.092C455.415 378.508 455.655 379.132 455.655 379.964C455.655 380.46 455.531 380.952 455.283 381.44C455.035 381.92 454.719 382.388 454.335 382.844C453.951 383.292 453.539 383.712 453.099 384.104C452.667 384.496 452.263 384.848 451.887 385.16H455.943V386H450.399ZM457.686 386.06C457.486 386.06 457.318 385.996 457.182 385.868C457.054 385.732 456.99 385.568 456.99 385.376C456.99 385.184 457.054 385.024 457.182 384.896C457.318 384.76 457.486 384.692 457.686 384.692C457.878 384.692 458.038 384.76 458.166 384.896C458.302 385.024 458.37 385.184 458.37 385.376C458.37 385.568 458.302 385.732 458.166 385.868C458.038 385.996 457.878 386.06 457.686 386.06ZM457.686 381.272C457.486 381.272 457.318 381.208 457.182 381.08C457.054 380.944 456.99 380.78 456.99 380.588C456.99 380.396 457.054 380.236 457.182 380.108C457.318 379.972 457.486 379.904 457.686 379.904C457.878 379.904 458.038 379.972 458.166 380.108C458.302 380.236 458.37 380.396 458.37 380.588C458.37 380.78 458.302 380.944 458.166 381.08C458.038 381.208 457.878 381.272 457.686 381.272ZM462.404 386.144C461.868 386.144 461.384 386.048 460.952 385.856C460.52 385.656 460.172 385.36 459.908 384.968C459.652 384.576 459.516 384.088 459.5 383.504H460.52C460.528 383.984 460.696 384.4 461.024 384.752C461.352 385.096 461.812 385.268 462.404 385.268C462.996 385.268 463.44 385.104 463.736 384.776C464.04 384.448 464.192 384.052 464.192 383.588C464.192 383.196 464.096 382.876 463.904 382.628C463.72 382.38 463.468 382.196 463.148 382.076C462.836 381.956 462.492 381.896 462.116 381.896H461.492V381.044H462.116C462.66 381.044 463.084 380.92 463.388 380.672C463.7 380.424 463.856 380.076 463.856 379.628C463.856 379.252 463.732 378.944 463.484 378.704C463.244 378.456 462.884 378.332 462.404 378.332C461.94 378.332 461.568 378.472 461.288 378.752C461.008 379.024 460.852 379.368 460.82 379.784H459.8C459.824 379.328 459.944 378.924 460.16 378.572C460.384 378.22 460.688 377.948 461.072 377.756C461.456 377.556 461.9 377.456 462.404 377.456C462.948 377.456 463.4 377.552 463.76 377.744C464.128 377.936 464.404 378.192 464.588 378.512C464.78 378.832 464.876 379.184 464.876 379.568C464.876 379.992 464.76 380.38 464.528 380.732C464.296 381.076 463.948 381.308 463.484 381.428C463.98 381.532 464.392 381.768 464.72 382.136C465.048 382.504 465.212 382.988 465.212 383.588C465.212 384.052 465.104 384.48 464.888 384.872C464.68 385.256 464.368 385.564 463.952 385.796C463.536 386.028 463.02 386.144 462.404 386.144ZM470.119 386.144C469.375 386.144 468.731 385.964 468.187 385.604C467.651 385.236 467.239 384.728 466.951 384.08C466.663 383.424 466.519 382.664 466.519 381.8C466.519 380.936 466.663 380.18 466.951 379.532C467.239 378.876 467.651 378.368 468.187 378.008C468.731 377.64 469.375 377.456 470.119 377.456C470.863 377.456 471.503 377.64 472.039 378.008C472.575 378.368 472.987 378.876 473.275 379.532C473.563 380.18 473.707 380.936 473.707 381.8C473.707 382.664 473.563 383.424 473.275 384.08C472.987 384.728 472.575 385.236 472.039 385.604C471.503 385.964 470.863 386.144 470.119 386.144ZM470.119 385.256C470.607 385.256 471.043 385.12 471.427 384.848C471.819 384.568 472.123 384.172 472.339 383.66C472.563 383.14 472.675 382.52 472.675 381.8C472.675 381.08 472.563 380.464 472.339 379.952C472.123 379.44 471.819 379.048 471.427 378.776C471.043 378.496 470.607 378.356 470.119 378.356C469.623 378.356 469.183 378.496 468.799 378.776C468.415 379.048 468.111 379.44 467.887 379.952C467.663 380.464 467.551 381.08 467.551 381.8C467.551 382.52 467.663 383.14 467.887 383.66C468.111 384.172 468.415 384.568 468.799 384.848C469.183 385.12 469.623 385.256 470.119 385.256ZM478.339 386V377.6H481.099C481.755 377.6 482.295 377.708 482.719 377.924C483.143 378.14 483.455 378.432 483.655 378.8C483.863 379.168 483.967 379.584 483.967 380.048C483.967 380.504 483.867 380.916 483.667 381.284C483.467 381.652 483.155 381.948 482.731 382.172C482.307 382.388 481.763 382.496 481.099 382.496H479.347V386H478.339ZM479.347 381.644H481.075C481.747 381.644 482.223 381.504 482.503 381.224C482.791 380.936 482.935 380.544 482.935 380.048C482.935 379.544 482.791 379.152 482.503 378.872C482.223 378.584 481.747 378.44 481.075 378.44H479.347V381.644ZM485.288 386V377.6H486.464L489.488 383.456L492.488 377.6H493.676V386H492.668V379.4L489.86 384.8H489.104L486.296 379.412V386H485.288Z" fill="#68718B"/>
<path d="M343.168 386.144C342.424 386.144 341.78 385.964 341.236 385.604C340.7 385.236 340.288 384.728 340 384.08C339.712 383.424 339.568 382.664 339.568 381.8C339.568 380.936 339.712 380.18 340 379.532C340.288 378.876 340.7 378.368 341.236 378.008C341.78 377.64 342.424 377.456 343.168 377.456C343.912 377.456 344.552 377.64 345.088 378.008C345.624 378.368 346.036 378.876 346.324 379.532C346.612 380.18 346.756 380.936 346.756 381.8C346.756 382.664 346.612 383.424 346.324 384.08C346.036 384.728 345.624 385.236 345.088 385.604C344.552 385.964 343.912 386.144 343.168 386.144ZM343.168 385.256C343.656 385.256 344.092 385.12 344.476 384.848C344.868 384.568 345.172 384.172 345.388 383.66C345.612 383.14 345.724 382.52 345.724 381.8C345.724 381.08 345.612 380.464 345.388 379.952C345.172 379.44 344.868 379.048 344.476 378.776C344.092 378.496 343.656 378.356 343.168 378.356C342.672 378.356 342.232 378.496 341.848 378.776C341.464 379.048 341.16 379.44 340.936 379.952C340.712 380.464 340.6 381.08 340.6 381.8C340.6 382.52 340.712 383.14 340.936 383.66C341.16 384.172 341.464 384.568 341.848 384.848C342.232 385.12 342.672 385.256 343.168 385.256ZM349.04 386V378.728L347.684 379.028V378.332L349.376 377.6H350.06V386H349.04ZM352.121 386.06C351.921 386.06 351.753 385.996 351.617 385.868C351.489 385.732 351.425 385.568 351.425 385.376C351.425 385.184 351.489 385.024 351.617 384.896C351.753 384.76 351.921 384.692 352.121 384.692C352.313 384.692 352.473 384.76 352.601 384.896C352.737 385.024 352.805 385.184 352.805 385.376C352.805 385.568 352.737 385.732 352.601 385.868C352.473 385.996 352.313 386.06 352.121 386.06ZM352.121 381.272C351.921 381.272 351.753 381.208 351.617 381.08C351.489 380.944 351.425 380.78 351.425 380.588C351.425 380.396 351.489 380.236 351.617 380.108C351.753 379.972 351.921 379.904 352.121 379.904C352.313 379.904 352.473 379.972 352.601 380.108C352.737 380.236 352.805 380.396 352.805 380.588C352.805 380.78 352.737 380.944 352.601 381.08C352.473 381.208 352.313 381.272 352.121 381.272ZM356.84 386.144C356.304 386.144 355.82 386.048 355.388 385.856C354.956 385.656 354.608 385.36 354.344 384.968C354.088 384.576 353.952 384.088 353.936 383.504H354.956C354.964 383.984 355.132 384.4 355.46 384.752C355.788 385.096 356.248 385.268 356.84 385.268C357.432 385.268 357.876 385.104 358.172 384.776C358.476 384.448 358.628 384.052 358.628 383.588C358.628 383.196 358.532 382.876 358.34 382.628C358.156 382.38 357.904 382.196 357.584 382.076C357.272 381.956 356.928 381.896 356.552 381.896H355.928V381.044H356.552C357.096 381.044 357.52 380.92 357.824 380.672C358.136 380.424 358.292 380.076 358.292 379.628C358.292 379.252 358.168 378.944 357.92 378.704C357.68 378.456 357.32 378.332 356.84 378.332C356.376 378.332 356.004 378.472 355.724 378.752C355.444 379.024 355.288 379.368 355.256 379.784H354.236C354.26 379.328 354.38 378.924 354.596 378.572C354.82 378.22 355.124 377.948 355.508 377.756C355.892 377.556 356.336 377.456 356.84 377.456C357.384 377.456 357.836 377.552 358.196 377.744C358.564 377.936 358.84 378.192 359.024 378.512C359.216 378.832 359.312 379.184 359.312 379.568C359.312 379.992 359.196 380.38 358.964 380.732C358.732 381.076 358.384 381.308 357.92 381.428C358.416 381.532 358.828 381.768 359.156 382.136C359.484 382.504 359.648 382.988 359.648 383.588C359.648 384.052 359.54 384.48 359.324 384.872C359.116 385.256 358.804 385.564 358.388 385.796C357.972 386.028 357.456 386.144 356.84 386.144ZM364.555 386.144C363.811 386.144 363.167 385.964 362.623 385.604C362.087 385.236 361.675 384.728 361.387 384.08C361.099 383.424 360.955 382.664 360.955 381.8C360.955 380.936 361.099 380.18 361.387 379.532C361.675 378.876 362.087 378.368 362.623 378.008C363.167 377.64 363.811 377.456 364.555 377.456C365.299 377.456 365.939 377.64 366.475 378.008C367.011 378.368 367.423 378.876 367.711 379.532C367.999 380.18 368.143 380.936 368.143 381.8C368.143 382.664 367.999 383.424 367.711 384.08C367.423 384.728 367.011 385.236 366.475 385.604C365.939 385.964 365.299 386.144 364.555 386.144ZM364.555 385.256C365.043 385.256 365.479 385.12 365.863 384.848C366.255 384.568 366.559 384.172 366.775 383.66C366.999 383.14 367.111 382.52 367.111 381.8C367.111 381.08 366.999 380.464 366.775 379.952C366.559 379.44 366.255 379.048 365.863 378.776C365.479 378.496 365.043 378.356 364.555 378.356C364.059 378.356 363.619 378.496 363.235 378.776C362.851 379.048 362.547 379.44 362.323 379.952C362.099 380.464 361.987 381.08 361.987 381.8C361.987 382.52 362.099 383.14 362.323 383.66C362.547 384.172 362.851 384.568 363.235 384.848C363.619 385.12 364.059 385.256 364.555 385.256ZM372.775 386V377.6H375.535C376.191 377.6 376.731 377.708 377.155 377.924C377.579 378.14 377.891 378.432 378.091 378.8C378.299 379.168 378.403 379.584 378.403 380.048C378.403 380.504 378.303 380.916 378.103 381.284C377.903 381.652 377.591 381.948 377.167 382.172C376.743 382.388 376.199 382.496 375.535 382.496H373.783V386H372.775ZM373.783 381.644H375.511C376.183 381.644 376.659 381.504 376.939 381.224C377.227 380.936 377.371 380.544 377.371 380.048C377.371 379.544 377.227 379.152 376.939 378.872C376.659 378.584 376.183 378.44 375.511 378.44H373.783V381.644ZM379.724 386V377.6H380.9L383.924 383.456L386.924 377.6H388.112V386H387.104V379.4L384.296 384.8H383.54L380.732 379.412V386H379.724Z" fill="#68718B"/>
<path d="M238.937 386V378.728L237.581 379.028V378.332L239.273 377.6H239.957V386H238.937ZM241.598 386V385.292C242.166 384.844 242.702 384.392 243.206 383.936C243.718 383.472 244.17 383.016 244.562 382.568C244.962 382.12 245.274 381.68 245.498 381.248C245.73 380.816 245.846 380.4 245.846 380C245.846 379.704 245.794 379.428 245.69 379.172C245.594 378.916 245.434 378.712 245.21 378.56C244.986 378.4 244.682 378.32 244.298 378.32C243.93 378.32 243.622 378.404 243.374 378.572C243.126 378.732 242.938 378.948 242.81 379.22C242.69 379.492 242.63 379.784 242.63 380.096H241.658C241.658 379.544 241.774 379.072 242.006 378.68C242.238 378.28 242.554 377.976 242.954 377.768C243.354 377.56 243.806 377.456 244.31 377.456C245.054 377.456 245.662 377.668 246.134 378.092C246.614 378.508 246.854 379.132 246.854 379.964C246.854 380.46 246.73 380.952 246.482 381.44C246.234 381.92 245.918 382.388 245.534 382.844C245.15 383.292 244.738 383.712 244.298 384.104C243.866 384.496 243.462 384.848 243.086 385.16H247.142V386H241.598ZM248.885 386.06C248.685 386.06 248.517 385.996 248.381 385.868C248.253 385.732 248.189 385.568 248.189 385.376C248.189 385.184 248.253 385.024 248.381 384.896C248.517 384.76 248.685 384.692 248.885 384.692C249.077 384.692 249.237 384.76 249.365 384.896C249.501 385.024 249.569 385.184 249.569 385.376C249.569 385.568 249.501 385.732 249.365 385.868C249.237 385.996 249.077 386.06 248.885 386.06ZM248.885 381.272C248.685 381.272 248.517 381.208 248.381 381.08C248.253 380.944 248.189 380.78 248.189 380.588C248.189 380.396 248.253 380.236 248.381 380.108C248.517 379.972 248.685 379.904 248.885 379.904C249.077 379.904 249.237 379.972 249.365 380.108C249.501 380.236 249.569 380.396 249.569 380.588C249.569 380.78 249.501 380.944 249.365 381.08C249.237 381.208 249.077 381.272 248.885 381.272ZM253.604 386.144C253.068 386.144 252.584 386.048 252.152 385.856C251.72 385.656 251.372 385.36 251.108 384.968C250.852 384.576 250.716 384.088 250.7 383.504H251.72C251.728 383.984 251.896 384.4 252.224 384.752C252.552 385.096 253.012 385.268 253.604 385.268C254.196 385.268 254.64 385.104 254.936 384.776C255.24 384.448 255.392 384.052 255.392 383.588C255.392 383.196 255.296 382.876 255.104 382.628C254.92 382.38 254.668 382.196 254.348 382.076C254.036 381.956 253.692 381.896 253.316 381.896H252.692V381.044H253.316C253.86 381.044 254.284 380.92 254.588 380.672C254.9 380.424 255.056 380.076 255.056 379.628C255.056 379.252 254.932 378.944 254.684 378.704C254.444 378.456 254.084 378.332 253.604 378.332C253.14 378.332 252.768 378.472 252.488 378.752C252.208 379.024 252.052 379.368 252.02 379.784H251C251.024 379.328 251.144 378.924 251.36 378.572C251.584 378.22 251.888 377.948 252.272 377.756C252.656 377.556 253.1 377.456 253.604 377.456C254.148 377.456 254.6 377.552 254.96 377.744C255.328 377.936 255.604 378.192 255.788 378.512C255.98 378.832 256.076 379.184 256.076 379.568C256.076 379.992 255.96 380.38 255.728 380.732C255.496 381.076 255.148 381.308 254.684 381.428C255.18 381.532 255.592 381.768 255.92 382.136C256.248 382.504 256.412 382.988 256.412 383.588C256.412 384.052 256.304 384.48 256.088 384.872C255.88 385.256 255.568 385.564 255.152 385.796C254.736 386.028 254.22 386.144 253.604 386.144ZM261.318 386.144C260.574 386.144 259.93 385.964 259.386 385.604C258.85 385.236 258.438 384.728 258.15 384.08C257.862 383.424 257.718 382.664 257.718 381.8C257.718 380.936 257.862 380.18 258.15 379.532C258.438 378.876 258.85 378.368 259.386 378.008C259.93 377.64 260.574 377.456 261.318 377.456C262.062 377.456 262.702 377.64 263.238 378.008C263.774 378.368 264.186 378.876 264.474 379.532C264.762 380.18 264.906 380.936 264.906 381.8C264.906 382.664 264.762 383.424 264.474 384.08C264.186 384.728 263.774 385.236 263.238 385.604C262.702 385.964 262.062 386.144 261.318 386.144ZM261.318 385.256C261.806 385.256 262.242 385.12 262.626 384.848C263.018 384.568 263.322 384.172 263.538 383.66C263.762 383.14 263.874 382.52 263.874 381.8C263.874 381.08 263.762 380.464 263.538 379.952C263.322 379.44 263.018 379.048 262.626 378.776C262.242 378.496 261.806 378.356 261.318 378.356C260.822 378.356 260.382 378.496 259.998 378.776C259.614 379.048 259.31 379.44 259.086 379.952C258.862 380.464 258.75 381.08 258.75 381.8C258.75 382.52 258.862 383.14 259.086 383.66C259.31 384.172 259.614 384.568 259.998 384.848C260.382 385.12 260.822 385.256 261.318 385.256ZM269.01 386L272.106 377.6H273.174L276.258 386H275.19L274.422 383.84H270.846L270.066 386H269.01ZM271.146 383.024H274.122L272.634 378.872L271.146 383.024ZM277.507 386V377.6H278.683L281.707 383.456L284.707 377.6H285.895V386H284.887V379.4L282.079 384.8H281.323L278.515 379.412V386H277.507Z" fill="#68718B"/>
<path d="M145.06 386V378.728L143.704 379.028V378.332L145.396 377.6H146.08V386H145.06ZM148.681 386V378.728L147.325 379.028V378.332L149.017 377.6H149.701V386H148.681ZM151.762 386.06C151.562 386.06 151.394 385.996 151.258 385.868C151.13 385.732 151.066 385.568 151.066 385.376C151.066 385.184 151.13 385.024 151.258 384.896C151.394 384.76 151.562 384.692 151.762 384.692C151.954 384.692 152.114 384.76 152.242 384.896C152.378 385.024 152.446 385.184 152.446 385.376C152.446 385.568 152.378 385.732 152.242 385.868C152.114 385.996 151.954 386.06 151.762 386.06ZM151.762 381.272C151.562 381.272 151.394 381.208 151.258 381.08C151.13 380.944 151.066 380.78 151.066 380.588C151.066 380.396 151.13 380.236 151.258 380.108C151.394 379.972 151.562 379.904 151.762 379.904C151.954 379.904 152.114 379.972 152.242 380.108C152.378 380.236 152.446 380.396 152.446 380.588C152.446 380.78 152.378 380.944 152.242 381.08C152.114 381.208 151.954 381.272 151.762 381.272ZM156.481 386.144C155.945 386.144 155.461 386.048 155.029 385.856C154.597 385.656 154.249 385.36 153.985 384.968C153.729 384.576 153.593 384.088 153.577 383.504H154.597C154.605 383.984 154.773 384.4 155.101 384.752C155.429 385.096 155.889 385.268 156.481 385.268C157.073 385.268 157.517 385.104 157.813 384.776C158.117 384.448 158.269 384.052 158.269 383.588C158.269 383.196 158.173 382.876 157.981 382.628C157.797 382.38 157.545 382.196 157.225 382.076C156.913 381.956 156.569 381.896 156.193 381.896H155.569V381.044H156.193C156.737 381.044 157.161 380.92 157.465 380.672C157.777 380.424 157.933 380.076 157.933 379.628C157.933 379.252 157.809 378.944 157.561 378.704C157.321 378.456 156.961 378.332 156.481 378.332C156.017 378.332 155.645 378.472 155.365 378.752C155.085 379.024 154.929 379.368 154.897 379.784H153.877C153.901 379.328 154.021 378.924 154.237 378.572C154.461 378.22 154.765 377.948 155.149 377.756C155.533 377.556 155.977 377.456 156.481 377.456C157.025 377.456 157.477 377.552 157.837 377.744C158.205 377.936 158.481 378.192 158.665 378.512C158.857 378.832 158.953 379.184 158.953 379.568C158.953 379.992 158.837 380.38 158.605 380.732C158.373 381.076 158.025 381.308 157.561 381.428C158.057 381.532 158.469 381.768 158.797 382.136C159.125 382.504 159.289 382.988 159.289 383.588C159.289 384.052 159.181 384.48 158.965 384.872C158.757 385.256 158.445 385.564 158.029 385.796C157.613 386.028 157.097 386.144 156.481 386.144ZM164.195 386.144C163.451 386.144 162.807 385.964 162.263 385.604C161.727 385.236 161.315 384.728 161.027 384.08C160.739 383.424 160.595 382.664 160.595 381.8C160.595 380.936 160.739 380.18 161.027 379.532C161.315 378.876 161.727 378.368 162.263 378.008C162.807 377.64 163.451 377.456 164.195 377.456C164.939 377.456 165.579 377.64 166.115 378.008C166.651 378.368 167.063 378.876 167.351 379.532C167.639 380.18 167.783 380.936 167.783 381.8C167.783 382.664 167.639 383.424 167.351 384.08C167.063 384.728 166.651 385.236 166.115 385.604C165.579 385.964 164.939 386.144 164.195 386.144ZM164.195 385.256C164.683 385.256 165.119 385.12 165.503 384.848C165.895 384.568 166.199 384.172 166.415 383.66C166.639 383.14 166.751 382.52 166.751 381.8C166.751 381.08 166.639 380.464 166.415 379.952C166.199 379.44 165.895 379.048 165.503 378.776C165.119 378.496 164.683 378.356 164.195 378.356C163.699 378.356 163.259 378.496 162.875 378.776C162.491 379.048 162.187 379.44 161.963 379.952C161.739 380.464 161.627 381.08 161.627 381.8C161.627 382.52 161.739 383.14 161.963 383.66C162.187 384.172 162.491 384.568 162.875 384.848C163.259 385.12 163.699 385.256 164.195 385.256ZM171.887 386L174.983 377.6H176.051L179.135 386H178.067L177.299 383.84H173.723L172.943 386H171.887ZM174.023 383.024H176.999L175.511 378.872L174.023 383.024ZM180.384 386V377.6H181.56L184.584 383.456L187.584 377.6H188.772V386H187.764V379.4L184.956 384.8H184.2L181.392 379.412V386H180.384Z" fill="#68718B"/>
</g>
<rect x="34" y="39" width="48" height="48" rx="10" fill="#006EEA"/>
<path fill-rule="evenodd" clip-rule="evenodd" d="M64.6667 51.6667C64.6667 51.2987 64.3667 51 64 51H60.6667C56.984 51 54 53.6867 54 57V60.6H50.6667C50.2987 60.6 50 60.8987 50 61.2667V64.7333C50 65.1013 50.2987 65.4 50.6667 65.4H54V74.3333C54 74.7013 54.2987 75 54.6667 75H58.6667C59.0333 75 59.3333 74.7013 59.3333 74.3333V65.4H62.8253C63.1253 65.4 63.388 65.2 63.4693 64.912L64.4307 61.4453C64.5493 61.0213 64.2293 60.6 63.7893 60.6H59.3333V57C59.3333 56.3373 59.9293 55.8 60.6667 55.8H64C64.3667 55.8 64.6667 55.5013 64.6667 55.1333V51.6667Z" fill="#03133D"/>
<mask id="mask0_202_1849" style="mask-type:luminance" maskUnits="userSpaceOnUse" x="50" y="51" width="15" height="24">
<path fill-rule="evenodd" clip-rule="evenodd" d="M64.6667 51.6667C64.6667 51.2987 64.3667 51 64 51H60.6667C56.984 51 54 53.6867 54 57V60.6H50.6667C50.2987 60.6 50 60.8987 50 61.2667V64.7333C50 65.1013 50.2987 65.4 50.6667 65.4H54V74.3333C54 74.7013 54.2987 75 54.6667 75H58.6667C59.0333 75 59.3333 74.7013 59.3333 74.3333V65.4H62.8253C63.1253 65.4 63.388 65.2 63.4693 64.912L64.4307 61.4453C64.5493 61.0213 64.2293 60.6 63.7893 60.6H59.3333V57C59.3333 56.3373 59.9293 55.8 60.6667 55.8H64C64.3667 55.8 64.6667 55.5013 64.6667 55.1333V51.6667Z" fill="white"/>
</mask>
<g mask="url(#mask0_202_1849)">
<rect x="42" y="47" width="32" height="32" fill="white"/>
</g>
<rect x="142" y="133" width="48" height="48" rx="10" fill="#0298EB"/>
<path fill-rule="evenodd" clip-rule="evenodd" d="M160.769 167.667C170.431 167.667 176.02 160.166 176.02 153.047C176.02 152.851 177.393 151.672 177.981 149.215C178.101 148.716 177.616 148.323 177.159 148.532C175.985 149.071 174.795 148.644 174.277 148.031C172.288 145.862 168.961 145.758 166.845 147.798C165.481 149.114 164.903 151.074 165.325 152.944C160.857 153.263 157.789 151.146 155.267 148.243C154.941 147.866 154.337 148.064 154.269 148.563C153.896 151.339 153.779 158.088 160.467 161.964C159.305 163.634 157.032 164.619 154.501 165.042C153.941 165.136 153.808 165.912 154.32 166.163C156.325 167.15 158.529 167.666 160.769 167.663" fill="#03133D"/>
<mask id="mask1_202_1849" style="mask-type:luminance" maskUnits="userSpaceOnUse" x="154" y="146" width="24" height="22">
<path fill-rule="evenodd" clip-rule="evenodd" d="M160.769 167.667C170.431 167.667 176.02 160.166 176.02 153.047C176.02 152.851 177.393 151.672 177.981 149.215C178.101 148.716 177.616 148.323 177.159 148.532C175.985 149.071 174.795 148.644 174.277 148.031C172.288 145.862 168.961 145.758 166.845 147.798C165.481 149.114 164.903 151.074 165.325 152.944C160.857 153.263 157.789 151.146 155.267 148.243C154.941 147.866 154.337 148.064 154.269 148.563C153.896 151.339 153.779 158.088 160.467 161.964C159.305 163.634 157.032 164.619 154.501 165.042C153.941 165.136 153.808 165.912 154.32 166.163C156.325 167.15 158.529 167.666 160.769 167.663" fill="white"/>
</mask>
<g mask="url(#mask1_202_1849)">
<rect x="150" y="141" width="32" height="32" fill="white"/>
</g>
<rect x="277" width="194" height="205" rx="10" fill="url(#paint1_linear_202_1849)"/>
<path d="M332.852 84.4113C326.761 89.8959 321.858 96.5705 318.446 104.023C315.034 111.476 313.185 119.549 313.013 127.743C312.842 135.938 314.351 144.081 317.448 151.67C320.545 159.259 325.164 166.133 331.02 171.868L339.416 163.295C334.731 158.707 331.036 153.208 328.558 147.136C326.081 141.065 324.873 134.551 325.011 127.995C325.148 121.439 326.627 114.981 329.357 109.019C332.086 103.056 336.009 97.7167 340.882 93.329L332.852 84.4113Z" fill="#6B256C"/>
<path d="M328.411 169.148C336.89 178.564 348.131 185.054 360.525 187.689C372.919 190.323 385.829 188.966 397.404 183.813C408.98 178.659 418.626 169.973 424.962 159C431.297 148.027 433.996 135.33 432.671 122.728L420.737 123.983C421.797 134.064 419.638 144.221 414.569 153C409.501 161.779 401.784 168.727 392.523 172.85C383.263 176.973 372.935 178.059 363.02 175.951C353.105 173.844 344.112 168.651 337.329 161.118L328.411 169.148Z" fill="#F0E91B"/>
<path d="M437 129C437 116.171 433.144 103.638 425.933 93.0267C418.722 82.4158 408.488 74.2171 396.56 69.4943C384.632 64.7715 371.559 63.7427 359.039 66.5413C346.519 69.34 335.128 75.8368 326.346 85.189L340.342 98.3323C346.49 91.7858 354.463 87.238 363.227 85.2789C371.991 83.3199 381.142 84.0401 389.492 87.346C397.842 90.652 405.005 96.3911 410.053 103.819C415.101 111.246 417.8 120.019 417.8 129H437Z" fill="white"/>
<path d="M343.063 119V109.2H349.027V110.166H344.239V113.61H348.313V114.562H344.239V119H343.063ZM352.303 119.168C351.725 119.168 351.244 119.07 350.861 118.874C350.479 118.678 350.194 118.417 350.007 118.09C349.821 117.763 349.727 117.409 349.727 117.026C349.727 116.317 349.998 115.771 350.539 115.388C351.081 115.005 351.818 114.814 352.751 114.814H354.627V114.73C354.627 114.123 354.469 113.666 354.151 113.358C353.834 113.041 353.409 112.882 352.877 112.882C352.42 112.882 352.023 112.999 351.687 113.232C351.361 113.456 351.155 113.787 351.071 114.226H349.867C349.914 113.722 350.082 113.297 350.371 112.952C350.67 112.607 351.039 112.345 351.477 112.168C351.916 111.981 352.383 111.888 352.877 111.888C353.848 111.888 354.576 112.149 355.061 112.672C355.556 113.185 355.803 113.871 355.803 114.73V119H354.753L354.683 117.754C354.487 118.146 354.198 118.482 353.815 118.762C353.442 119.033 352.938 119.168 352.303 119.168ZM352.485 118.174C352.933 118.174 353.316 118.057 353.633 117.824C353.96 117.591 354.207 117.287 354.375 116.914C354.543 116.541 354.627 116.149 354.627 115.738V115.724H352.849C352.159 115.724 351.669 115.845 351.379 116.088C351.099 116.321 350.959 116.615 350.959 116.97C350.959 117.334 351.09 117.628 351.351 117.852C351.622 118.067 352 118.174 352.485 118.174ZM360.76 119.168C360.097 119.168 359.5 119.019 358.968 118.72C358.445 118.412 358.03 117.987 357.722 117.446C357.423 116.895 357.274 116.256 357.274 115.528C357.274 114.8 357.423 114.165 357.722 113.624C358.03 113.073 358.445 112.649 358.968 112.35C359.5 112.042 360.097 111.888 360.76 111.888C361.581 111.888 362.272 112.103 362.832 112.532C363.401 112.961 363.76 113.535 363.91 114.254H362.706C362.612 113.825 362.384 113.493 362.02 113.26C361.656 113.017 361.231 112.896 360.746 112.896C360.354 112.896 359.985 112.994 359.64 113.19C359.294 113.386 359.014 113.68 358.8 114.072C358.585 114.464 358.478 114.949 358.478 115.528C358.478 116.107 358.585 116.592 358.8 116.984C359.014 117.376 359.294 117.675 359.64 117.88C359.985 118.076 360.354 118.174 360.746 118.174C361.231 118.174 361.656 118.057 362.02 117.824C362.384 117.581 362.612 117.241 362.706 116.802H363.91C363.77 117.502 363.415 118.071 362.846 118.51C362.276 118.949 361.581 119.168 360.76 119.168ZM368.674 119.168C368.011 119.168 367.423 119.019 366.91 118.72C366.397 118.412 365.991 117.987 365.692 117.446C365.403 116.905 365.258 116.265 365.258 115.528C365.258 114.8 365.403 114.165 365.692 113.624C365.981 113.073 366.383 112.649 366.896 112.35C367.419 112.042 368.021 111.888 368.702 111.888C369.374 111.888 369.953 112.042 370.438 112.35C370.933 112.649 371.311 113.045 371.572 113.54C371.833 114.035 371.964 114.567 371.964 115.136C371.964 115.239 371.959 115.341 371.95 115.444C371.95 115.547 371.95 115.663 371.95 115.794H366.42C366.448 116.326 366.569 116.769 366.784 117.124C367.008 117.469 367.283 117.731 367.61 117.908C367.946 118.085 368.301 118.174 368.674 118.174C369.159 118.174 369.565 118.062 369.892 117.838C370.219 117.614 370.457 117.311 370.606 116.928H371.768C371.581 117.572 371.222 118.109 370.69 118.538C370.167 118.958 369.495 119.168 368.674 119.168ZM368.674 112.882C368.114 112.882 367.615 113.055 367.176 113.4C366.747 113.736 366.499 114.231 366.434 114.884H370.802C370.774 114.259 370.559 113.769 370.158 113.414C369.757 113.059 369.262 112.882 368.674 112.882ZM377.233 119.168C376.663 119.168 376.155 119.051 375.707 118.818C375.268 118.585 374.932 118.258 374.699 117.838L374.587 119H373.523V108.92H374.699V113.204C374.923 112.868 375.24 112.565 375.651 112.294C376.071 112.023 376.603 111.888 377.247 111.888C377.937 111.888 378.539 112.047 379.053 112.364C379.566 112.681 379.963 113.115 380.243 113.666C380.532 114.217 380.677 114.842 380.677 115.542C380.677 116.242 380.532 116.867 380.243 117.418C379.963 117.959 379.561 118.389 379.039 118.706C378.525 119.014 377.923 119.168 377.233 119.168ZM377.107 118.146C377.573 118.146 377.984 118.039 378.339 117.824C378.693 117.6 378.973 117.292 379.179 116.9C379.384 116.508 379.487 116.051 379.487 115.528C379.487 115.005 379.384 114.548 379.179 114.156C378.973 113.764 378.693 113.461 378.339 113.246C377.984 113.022 377.573 112.91 377.107 112.91C376.64 112.91 376.229 113.022 375.875 113.246C375.52 113.461 375.24 113.764 375.035 114.156C374.829 114.548 374.727 115.005 374.727 115.528C374.727 116.051 374.829 116.508 375.035 116.9C375.24 117.292 375.52 117.6 375.875 117.824C376.229 118.039 376.64 118.146 377.107 118.146ZM385.478 119.168C384.824 119.168 384.236 119.019 383.714 118.72C383.191 118.421 382.776 118.001 382.468 117.46C382.169 116.909 382.02 116.265 382.02 115.528C382.02 114.791 382.174 114.151 382.482 113.61C382.79 113.059 383.205 112.635 383.728 112.336C384.26 112.037 384.852 111.888 385.506 111.888C386.159 111.888 386.747 112.037 387.27 112.336C387.792 112.635 388.203 113.059 388.502 113.61C388.81 114.151 388.964 114.791 388.964 115.528C388.964 116.265 388.81 116.909 388.502 117.46C388.194 118.001 387.774 118.421 387.242 118.72C386.719 119.019 386.131 119.168 385.478 119.168ZM385.478 118.16C385.879 118.16 386.252 118.062 386.598 117.866C386.943 117.67 387.223 117.376 387.438 116.984C387.652 116.592 387.76 116.107 387.76 115.528C387.76 114.949 387.652 114.464 387.438 114.072C387.232 113.68 386.957 113.386 386.612 113.19C386.266 112.994 385.898 112.896 385.506 112.896C385.104 112.896 384.731 112.994 384.386 113.19C384.04 113.386 383.76 113.68 383.546 114.072C383.331 114.464 383.224 114.949 383.224 115.528C383.224 116.107 383.331 116.592 383.546 116.984C383.76 117.376 384.036 117.67 384.372 117.866C384.717 118.062 385.086 118.16 385.478 118.16ZM393.763 119.168C393.109 119.168 392.521 119.019 391.999 118.72C391.476 118.421 391.061 118.001 390.753 117.46C390.454 116.909 390.305 116.265 390.305 115.528C390.305 114.791 390.459 114.151 390.767 113.61C391.075 113.059 391.49 112.635 392.013 112.336C392.545 112.037 393.137 111.888 393.791 111.888C394.444 111.888 395.032 112.037 395.555 112.336C396.077 112.635 396.488 113.059 396.787 113.61C397.095 114.151 397.249 114.791 397.249 115.528C397.249 116.265 397.095 116.909 396.787 117.46C396.479 118.001 396.059 118.421 395.527 118.72C395.004 119.019 394.416 119.168 393.763 119.168ZM393.763 118.16C394.164 118.16 394.537 118.062 394.883 117.866C395.228 117.67 395.508 117.376 395.723 116.984C395.937 116.592 396.045 116.107 396.045 115.528C396.045 114.949 395.937 114.464 395.723 114.072C395.517 113.68 395.242 113.386 394.897 113.19C394.551 112.994 394.183 112.896 393.791 112.896C393.389 112.896 393.016 112.994 392.671 113.19C392.325 113.386 392.045 113.68 391.831 114.072C391.616 114.464 391.509 114.949 391.509 115.528C391.509 116.107 391.616 116.592 391.831 116.984C392.045 117.376 392.321 117.67 392.657 117.866C393.002 118.062 393.371 118.16 393.763 118.16ZM398.884 119V108.92H400.06V114.982L402.902 112.056H404.344L401.264 115.192L404.736 119H403.238L400.06 115.402V119H398.884Z" fill="white"/>
<path d="M356.235 149.288C355.131 149.288 354.131 149.096 353.235 148.712C352.339 148.312 351.619 147.704 351.075 146.888C350.531 146.072 350.243 145.048 350.211 143.816H353.235C353.251 144.632 353.515 145.32 354.027 145.88C354.555 146.424 355.291 146.696 356.235 146.696C357.131 146.696 357.819 146.448 358.299 145.952C358.779 145.456 359.019 144.832 359.019 144.08C359.019 143.2 358.699 142.536 358.059 142.088C357.435 141.624 356.627 141.392 355.635 141.392H354.387V138.872H355.659C356.475 138.872 357.155 138.68 357.699 138.296C358.243 137.912 358.515 137.344 358.515 136.592C358.515 135.968 358.307 135.472 357.891 135.104C357.491 134.72 356.931 134.528 356.211 134.528C355.427 134.528 354.811 134.76 354.363 135.224C353.931 135.688 353.691 136.256 353.643 136.928H350.643C350.707 135.376 351.243 134.152 352.251 133.256C353.275 132.36 354.595 131.912 356.211 131.912C357.363 131.912 358.331 132.12 359.115 132.536C359.915 132.936 360.515 133.472 360.915 134.144C361.331 134.816 361.539 135.56 361.539 136.376C361.539 137.32 361.275 138.12 360.747 138.776C360.235 139.416 359.595 139.848 358.827 140.072C359.771 140.264 360.539 140.728 361.131 141.464C361.723 142.184 362.019 143.096 362.019 144.2C362.019 145.128 361.795 145.976 361.347 146.744C360.899 147.512 360.243 148.128 359.379 148.592C358.531 149.056 357.483 149.288 356.235 149.288ZM370.628 149.288C369.364 149.288 368.3 149.056 367.436 148.592C366.572 148.128 365.876 147.504 365.348 146.72C364.82 145.936 364.436 145.064 364.196 144.104C363.972 143.144 363.86 142.16 363.86 141.152C363.86 139.28 364.124 137.656 364.652 136.28C365.18 134.888 365.94 133.816 366.932 133.064C367.924 132.296 369.124 131.912 370.532 131.912C371.684 131.912 372.66 132.144 373.46 132.608C374.276 133.056 374.908 133.648 375.356 134.384C375.804 135.12 376.068 135.912 376.148 136.76H373.292C373.148 136.024 372.836 135.456 372.356 135.056C371.876 134.656 371.26 134.456 370.508 134.456C369.436 134.456 368.572 134.952 367.916 135.944C367.26 136.92 366.908 138.416 366.86 140.432C367.244 139.776 367.82 139.232 368.588 138.8C369.356 138.368 370.212 138.152 371.156 138.152C372.084 138.152 372.956 138.376 373.772 138.824C374.588 139.272 375.244 139.904 375.74 140.72C376.252 141.536 376.508 142.496 376.508 143.6C376.508 144.608 376.26 145.544 375.764 146.408C375.284 147.272 374.596 147.968 373.7 148.496C372.82 149.024 371.796 149.288 370.628 149.288ZM370.46 146.648C371.356 146.648 372.092 146.376 372.668 145.832C373.26 145.272 373.556 144.568 373.556 143.72C373.556 142.824 373.26 142.104 372.668 141.56C372.076 141.016 371.324 140.744 370.412 140.744C369.82 140.744 369.284 140.88 368.804 141.152C368.34 141.408 367.972 141.76 367.7 142.208C367.428 142.64 367.292 143.128 367.292 143.672C367.292 144.536 367.588 145.248 368.18 145.808C368.788 146.368 369.548 146.648 370.46 146.648ZM382.052 140.456C381.284 140.456 380.588 140.288 379.964 139.952C379.34 139.6 378.844 139.104 378.476 138.464C378.108 137.824 377.924 137.064 377.924 136.184C377.924 135.304 378.108 134.544 378.476 133.904C378.844 133.264 379.34 132.776 379.964 132.44C380.588 132.088 381.292 131.912 382.076 131.912C382.844 131.912 383.532 132.088 384.14 132.44C384.764 132.776 385.26 133.264 385.628 133.904C385.996 134.544 386.18 135.304 386.18 136.184C386.18 137.064 385.996 137.824 385.628 138.464C385.26 139.104 384.764 139.6 384.14 139.952C383.516 140.288 382.82 140.456 382.052 140.456ZM381.14 149L390.62 132.2H393.62L384.14 149H381.14ZM382.052 138.32C382.516 138.32 382.916 138.144 383.252 137.792C383.588 137.424 383.756 136.888 383.756 136.184C383.756 135.48 383.588 134.944 383.252 134.576C382.932 134.208 382.532 134.024 382.052 134.024C381.572 134.024 381.164 134.208 380.828 134.576C380.508 134.944 380.348 135.48 380.348 136.184C380.348 136.888 380.508 137.424 380.828 137.792C381.164 138.144 381.572 138.32 382.052 138.32ZM392.804 149.288C392.036 149.288 391.34 149.12 390.716 148.784C390.092 148.432 389.596 147.936 389.228 147.296C388.86 146.656 388.676 145.896 388.676 145.016C388.676 144.136 388.86 143.384 389.228 142.76C389.596 142.12 390.092 141.632 390.716 141.296C391.34 140.944 392.044 140.768 392.828 140.768C393.596 140.768 394.284 140.944 394.892 141.296C395.516 141.632 396.012 142.12 396.38 142.76C396.748 143.384 396.932 144.136 396.932 145.016C396.932 145.896 396.748 146.656 396.38 147.296C396.012 147.936 395.516 148.432 394.892 148.784C394.284 149.12 393.588 149.288 392.804 149.288ZM392.804 147.152C393.284 147.152 393.684 146.976 394.004 146.624C394.34 146.256 394.508 145.72 394.508 145.016C394.508 144.312 394.34 143.776 394.004 143.408C393.684 143.04 393.284 142.856 392.804 142.856C392.324 142.856 391.916 143.04 391.58 143.408C391.26 143.776 391.1 144.312 391.1 145.016C391.1 145.72 391.26 146.256 391.58 146.624C391.916 146.976 392.324 147.152 392.804 147.152Z" fill="white"/>
<path d="M316.554 30V19.254H312.882V17.4H322.548V19.254H318.858V30H316.554ZM323.322 30V21.072H325.374L325.59 22.746C325.914 22.17 326.352 21.714 326.904 21.378C327.468 21.03 328.128 20.856 328.884 20.856V23.286H328.236C327.732 23.286 327.282 23.364 326.886 23.52C326.49 23.676 326.178 23.946 325.95 24.33C325.734 24.714 325.626 25.248 325.626 25.932V30H323.322ZM333.537 30.216C332.769 30.216 332.139 30.096 331.647 29.856C331.155 29.604 330.789 29.274 330.549 28.866C330.309 28.458 330.189 28.008 330.189 27.516C330.189 26.688 330.513 26.016 331.161 25.5C331.809 24.984 332.781 24.726 334.077 24.726H336.345V24.51C336.345 23.898 336.171 23.448 335.823 23.16C335.475 22.872 335.043 22.728 334.527 22.728C334.059 22.728 333.651 22.842 333.303 23.07C332.955 23.286 332.739 23.61 332.655 24.042H330.405C330.465 23.394 330.681 22.83 331.053 22.35C331.437 21.87 331.929 21.504 332.529 21.252C333.129 20.988 333.801 20.856 334.545 20.856C335.817 20.856 336.819 21.174 337.551 21.81C338.283 22.446 338.649 23.346 338.649 24.51V30H336.687L336.471 28.56C336.207 29.04 335.835 29.436 335.355 29.748C334.887 30.06 334.281 30.216 333.537 30.216ZM334.059 28.416C334.719 28.416 335.229 28.2 335.589 27.768C335.961 27.336 336.195 26.802 336.291 26.166H334.329C333.717 26.166 333.279 26.28 333.015 26.508C332.751 26.724 332.619 26.994 332.619 27.318C332.619 27.666 332.751 27.936 333.015 28.128C333.279 28.32 333.627 28.416 334.059 28.416ZM341.262 30V22.998H340.038V21.072H341.262V20.028C341.262 18.948 341.532 18.18 342.072 17.724C342.624 17.268 343.368 17.04 344.304 17.04H345.294V19.002H344.664C344.268 19.002 343.986 19.08 343.818 19.236C343.65 19.392 343.566 19.656 343.566 20.028V21.072H345.492V22.998H343.566V30H341.262ZM347.73 30V22.998H346.506V21.072H347.73V20.028C347.73 18.948 348 18.18 348.54 17.724C349.092 17.268 349.836 17.04 350.772 17.04H351.762V19.002H351.132C350.736 19.002 350.454 19.08 350.286 19.236C350.118 19.392 350.034 19.656 350.034 20.028V21.072H355.794V30H353.49V22.998H350.034V30H347.73ZM354.66 19.794C354.24 19.794 353.892 19.668 353.616 19.416C353.352 19.164 353.22 18.846 353.22 18.462C353.22 18.078 353.352 17.766 353.616 17.526C353.892 17.274 354.24 17.148 354.66 17.148C355.08 17.148 355.422 17.274 355.686 17.526C355.962 17.766 356.1 18.078 356.1 18.462C356.1 18.846 355.962 19.164 355.686 19.416C355.422 19.668 355.08 19.794 354.66 19.794ZM362.607 30.216C361.695 30.216 360.891 30.018 360.195 29.622C359.499 29.226 358.947 28.674 358.539 27.966C358.143 27.258 357.945 26.448 357.945 25.536C357.945 24.624 358.143 23.814 358.539 23.106C358.947 22.398 359.499 21.846 360.195 21.45C360.891 21.054 361.695 20.856 362.607 20.856C363.747 20.856 364.707 21.156 365.487 21.756C366.267 22.344 366.765 23.16 366.98 24.204H364.551C364.431 23.772 364.191 23.436 363.831 23.196C363.483 22.944 363.069 22.818 362.589 22.818C361.953 22.818 361.413 23.058 360.969 23.538C360.525 24.018 360.303 24.684 360.303 25.536C360.303 26.388 360.525 27.054 360.969 27.534C361.413 28.014 361.953 28.254 362.589 28.254C363.069 28.254 363.483 28.134 363.831 27.894C364.191 27.654 364.431 27.312 364.551 26.868H366.98C366.765 27.876 366.267 28.686 365.487 29.298C364.707 29.91 363.747 30.216 362.607 30.216ZM378.877 30.216C377.689 30.216 376.651 29.946 375.763 29.406C374.875 28.866 374.185 28.116 373.693 27.156C373.201 26.184 372.955 25.056 372.955 23.772C372.955 22.476 373.207 21.336 373.711 20.352C374.227 19.356 374.953 18.582 375.889 18.03C376.837 17.466 377.959 17.184 379.255 17.184C380.731 17.184 381.955 17.538 382.927 18.246C383.899 18.954 384.529 19.932 384.817 21.18H382.243C382.051 20.592 381.703 20.136 381.199 19.812C380.695 19.476 380.047 19.308 379.255 19.308C377.995 19.308 377.023 19.71 376.339 20.514C375.655 21.306 375.313 22.398 375.313 23.79C375.313 25.182 375.649 26.262 376.321 27.03C377.005 27.786 377.929 28.164 379.093 28.164C380.233 28.164 381.091 27.858 381.667 27.246C382.255 26.622 382.609 25.806 382.729 24.798H379.543V23.07H385.051V30H382.927L382.747 28.344C382.339 28.944 381.829 29.406 381.217 29.73C380.605 30.054 379.825 30.216 378.877 30.216ZM387.236 30V21.072H389.288L389.504 22.746C389.828 22.17 390.266 21.714 390.818 21.378C391.382 21.03 392.042 20.856 392.798 20.856V23.286H392.15C391.646 23.286 391.196 23.364 390.8 23.52C390.404 23.676 390.092 23.946 389.864 24.33C389.648 24.714 389.54 25.248 389.54 25.932V30H387.236ZM398.499 30.216C397.635 30.216 396.855 30.018 396.159 29.622C395.475 29.226 394.929 28.68 394.521 27.984C394.125 27.276 393.927 26.46 393.927 25.536C393.927 24.612 394.131 23.802 394.539 23.106C394.947 22.398 395.493 21.846 396.177 21.45C396.873 21.054 397.653 20.856 398.517 20.856C399.369 20.856 400.137 21.054 400.821 21.45C401.517 21.846 402.063 22.398 402.459 23.106C402.867 23.802 403.071 24.612 403.071 25.536C403.071 26.46 402.867 27.276 402.459 27.984C402.063 28.68 401.517 29.226 400.821 29.622C400.125 30.018 399.351 30.216 398.499 30.216ZM398.499 28.218C399.099 28.218 399.621 27.996 400.065 27.552C400.509 27.096 400.731 26.424 400.731 25.536C400.731 24.648 400.509 23.982 400.065 23.538C399.621 23.082 399.105 22.854 398.517 22.854C397.905 22.854 397.377 23.082 396.933 23.538C396.501 23.982 396.285 24.648 396.285 25.536C396.285 26.424 396.501 27.096 396.933 27.552C397.377 27.996 397.899 28.218 398.499 28.218ZM406.561 30L403.951 21.072H406.237L407.785 27.498L409.585 21.072H412.141L413.941 27.498L415.507 21.072H417.793L415.165 30H412.771L410.863 23.322L408.955 30H406.561ZM423.224 30C422.288 30 421.538 29.772 420.974 29.316C420.41 28.86 420.128 28.05 420.128 26.886V22.998H418.598V21.072H420.128L420.398 18.678H422.432V21.072H424.844V22.998H422.432V26.904C422.432 27.336 422.522 27.636 422.702 27.804C422.894 27.96 423.218 28.038 423.674 28.038H424.79V30H423.224ZM426.822 30V17.04H429.126V22.44C429.426 21.948 429.828 21.564 430.332 21.288C430.848 21 431.436 20.856 432.096 20.856C433.2 20.856 434.052 21.204 434.652 21.9C435.264 22.596 435.57 23.616 435.57 24.96V30H433.284V25.176C433.284 24.408 433.128 23.82 432.816 23.412C432.516 23.004 432.036 22.8 431.376 22.8C430.728 22.8 430.188 23.028 429.756 23.484C429.336 23.94 429.126 24.576 429.126 25.392V30H426.822Z" fill="white"/>
<path d="M304.194 53V45.428H301.686V44.6H307.71V45.428H305.202V53H304.194ZM310.515 53.144C309.955 53.144 309.451 53.016 309.003 52.76C308.555 52.504 308.199 52.144 307.935 51.68C307.679 51.208 307.551 50.656 307.551 50.024C307.551 49.392 307.683 48.844 307.947 48.38C308.211 47.908 308.567 47.544 309.015 47.288C309.471 47.032 309.979 46.904 310.539 46.904C311.099 46.904 311.603 47.032 312.051 47.288C312.499 47.544 312.851 47.908 313.107 48.38C313.371 48.844 313.503 49.392 313.503 50.024C313.503 50.656 313.371 51.208 313.107 51.68C312.843 52.144 312.483 52.504 312.027 52.76C311.579 53.016 311.075 53.144 310.515 53.144ZM310.515 52.28C310.859 52.28 311.179 52.196 311.475 52.028C311.771 51.86 312.011 51.608 312.195 51.272C312.379 50.936 312.471 50.52 312.471 50.024C312.471 49.528 312.379 49.112 312.195 48.776C312.019 48.44 311.783 48.188 311.487 48.02C311.191 47.852 310.875 47.768 310.539 47.768C310.195 47.768 309.875 47.852 309.579 48.02C309.283 48.188 309.043 48.44 308.859 48.776C308.675 49.112 308.583 49.528 308.583 50.024C308.583 50.52 308.675 50.936 308.859 51.272C309.043 51.608 309.279 51.86 309.567 52.028C309.863 52.196 310.179 52.28 310.515 52.28ZM317.022 53C316.478 53 316.05 52.868 315.738 52.604C315.426 52.34 315.27 51.864 315.27 51.176V47.9H314.238V47.048H315.27L315.402 45.62H316.278V47.048H318.03V47.9H316.278V51.176C316.278 51.552 316.354 51.808 316.506 51.944C316.658 52.072 316.926 52.136 317.31 52.136H317.934V53H317.022ZM321.29 53.144C320.794 53.144 320.382 53.06 320.054 52.892C319.726 52.724 319.482 52.5 319.322 52.22C319.162 51.94 319.082 51.636 319.082 51.308C319.082 50.7 319.314 50.232 319.778 49.904C320.242 49.576 320.874 49.412 321.674 49.412H323.282V49.34C323.282 48.82 323.146 48.428 322.874 48.164C322.602 47.892 322.238 47.756 321.782 47.756C321.39 47.756 321.05 47.856 320.762 48.056C320.482 48.248 320.306 48.532 320.234 48.908H319.202C319.242 48.476 319.386 48.112 319.634 47.816C319.89 47.52 320.206 47.296 320.582 47.144C320.958 46.984 321.358 46.904 321.782 46.904C322.614 46.904 323.238 47.128 323.654 47.576C324.078 48.016 324.29 48.604 324.29 49.34V53H323.39L323.33 51.932C323.162 52.268 322.914 52.556 322.586 52.796C322.266 53.028 321.834 53.144 321.29 53.144ZM321.446 52.292C321.83 52.292 322.158 52.192 322.43 51.992C322.71 51.792 322.922 51.532 323.066 51.212C323.21 50.892 323.282 50.556 323.282 50.204V50.192H321.758C321.166 50.192 320.746 50.296 320.498 50.504C320.258 50.704 320.138 50.956 320.138 51.26C320.138 51.572 320.25 51.824 320.474 52.016C320.706 52.2 321.03 52.292 321.446 52.292ZM325.803 53V44.36H326.811V53H325.803ZM333.991 53C333.447 53 333.019 52.868 332.707 52.604C332.395 52.34 332.239 51.864 332.239 51.176V47.9H331.207V47.048H332.239L332.371 45.62H333.247V47.048H334.999V47.9H333.247V51.176C333.247 51.552 333.323 51.808 333.475 51.944C333.627 52.072 333.895 52.136 334.279 52.136H334.903V53H333.991ZM336.279 53V47.048H337.191L337.275 48.188C337.459 47.796 337.739 47.484 338.115 47.252C338.491 47.02 338.955 46.904 339.507 46.904V47.96H339.231C338.879 47.96 338.555 48.024 338.259 48.152C337.963 48.272 337.727 48.48 337.551 48.776C337.375 49.072 337.287 49.48 337.287 50V53H336.279ZM342.619 53.144C342.123 53.144 341.711 53.06 341.383 52.892C341.055 52.724 340.811 52.5 340.651 52.22C340.491 51.94 340.411 51.636 340.411 51.308C340.411 50.7 340.643 50.232 341.107 49.904C341.571 49.576 342.203 49.412 343.003 49.412H344.611V49.34C344.611 48.82 344.475 48.428 344.203 48.164C343.931 47.892 343.567 47.756 343.111 47.756C342.719 47.756 342.379 47.856 342.091 48.056C341.811 48.248 341.635 48.532 341.563 48.908H340.531C340.571 48.476 340.715 48.112 340.963 47.816C341.219 47.52 341.535 47.296 341.911 47.144C342.287 46.984 342.687 46.904 343.111 46.904C343.943 46.904 344.567 47.128 344.983 47.576C345.407 48.016 345.619 48.604 345.619 49.34V53H344.719L344.659 51.932C344.491 52.268 344.243 52.556 343.915 52.796C343.595 53.028 343.163 53.144 342.619 53.144ZM342.775 52.292C343.159 52.292 343.487 52.192 343.759 51.992C344.039 51.792 344.251 51.532 344.395 51.212C344.539 50.892 344.611 50.556 344.611 50.204V50.192H343.087C342.495 50.192 342.075 50.296 341.827 50.504C341.587 50.704 341.467 50.956 341.467 51.26C341.467 51.572 341.579 51.824 341.803 52.016C342.035 52.2 342.359 52.292 342.775 52.292ZM347.455 53V47.9H346.555V47.048H347.455V46.016C347.455 45.44 347.599 45.02 347.887 44.756C348.175 44.492 348.595 44.36 349.147 44.36H349.747V45.224H349.303C348.999 45.224 348.783 45.288 348.655 45.416C348.527 45.536 348.463 45.744 348.463 46.04V47.048H349.927V47.9H348.463V53H347.455ZM351.451 53V47.9H350.551V47.048H351.451V46.016C351.451 45.44 351.595 45.02 351.883 44.756C352.171 44.492 352.591 44.36 353.143 44.36H353.743V45.224H353.299C352.995 45.224 352.779 45.288 352.651 45.416C352.523 45.536 352.459 45.744 352.459 46.04V47.048H356.155V53H355.147V47.9H352.459V53H351.451ZM355.663 45.908C355.471 45.908 355.307 45.844 355.171 45.716C355.035 45.58 354.967 45.412 354.967 45.212C354.967 45.02 355.035 44.86 355.171 44.732C355.307 44.604 355.471 44.54 355.663 44.54C355.863 44.54 356.027 44.604 356.155 44.732C356.291 44.86 356.359 45.02 356.359 45.212C356.359 45.412 356.291 45.58 356.155 45.716C356.027 45.844 355.863 45.908 355.663 45.908ZM360.671 53.144C360.103 53.144 359.591 53.016 359.135 52.76C358.687 52.496 358.331 52.132 358.067 51.668C357.811 51.196 357.683 50.648 357.683 50.024C357.683 49.4 357.811 48.856 358.067 48.392C358.331 47.92 358.687 47.556 359.135 47.3C359.591 47.036 360.103 46.904 360.671 46.904C361.375 46.904 361.967 47.088 362.447 47.456C362.935 47.824 363.243 48.316 363.371 48.932H362.339C362.259 48.564 362.063 48.28 361.751 48.08C361.439 47.872 361.075 47.768 360.659 47.768C360.323 47.768 360.007 47.852 359.711 48.02C359.415 48.188 359.175 48.44 358.991 48.776C358.807 49.112 358.715 49.528 358.715 50.024C358.715 50.52 358.807 50.936 358.991 51.272C359.175 51.608 359.415 51.864 359.711 52.04C360.007 52.208 360.323 52.292 360.659 52.292C361.075 52.292 361.439 52.192 361.751 51.992C362.063 51.784 362.259 51.492 362.339 51.116H363.371C363.251 51.716 362.947 52.204 362.459 52.58C361.971 52.956 361.375 53.144 360.671 53.144ZM370.307 51.128C369.971 51.128 369.663 51.084 369.383 50.996L368.783 51.56C368.871 51.624 368.979 51.68 369.107 51.728C369.243 51.768 369.435 51.808 369.683 51.848C369.931 51.88 370.279 51.916 370.727 51.956C371.527 52.012 372.099 52.196 372.443 52.508C372.787 52.82 372.959 53.228 372.959 53.732C372.959 54.076 372.863 54.404 372.671 54.716C372.487 55.028 372.199 55.284 371.807 55.484C371.423 55.684 370.927 55.784 370.319 55.784C369.783 55.784 369.307 55.712 368.891 55.568C368.475 55.432 368.151 55.22 367.919 54.932C367.687 54.652 367.571 54.296 367.571 53.864C367.571 53.64 367.631 53.396 367.751 53.132C367.871 52.876 368.095 52.632 368.423 52.4C368.247 52.328 368.095 52.252 367.967 52.172C367.847 52.084 367.735 51.988 367.631 51.884V51.608L368.651 50.6C368.179 50.2 367.943 49.672 367.943 49.016C367.943 48.624 368.035 48.268 368.219 47.948C368.403 47.628 368.671 47.376 369.023 47.192C369.375 47 369.803 46.904 370.307 46.904C370.651 46.904 370.963 46.952 371.243 47.048H373.439V47.804L372.323 47.852C372.555 48.188 372.671 48.576 372.671 49.016C372.671 49.408 372.575 49.764 372.383 50.084C372.199 50.404 371.931 50.66 371.579 50.852C371.235 51.036 370.811 51.128 370.307 51.128ZM370.307 50.3C370.731 50.3 371.067 50.192 371.315 49.976C371.571 49.752 371.699 49.432 371.699 49.016C371.699 48.608 371.571 48.296 371.315 48.08C371.067 47.856 370.731 47.744 370.307 47.744C369.875 47.744 369.531 47.856 369.275 48.08C369.027 48.296 368.903 48.608 368.903 49.016C368.903 49.432 369.027 49.752 369.275 49.976C369.531 50.192 369.875 50.3 370.307 50.3ZM368.555 53.768C368.555 54.168 368.723 54.464 369.059 54.656C369.395 54.856 369.815 54.956 370.319 54.956C370.815 54.956 371.211 54.848 371.507 54.632C371.811 54.416 371.963 54.128 371.963 53.768C371.963 53.512 371.859 53.288 371.651 53.096C371.443 52.912 371.059 52.804 370.499 52.772C370.059 52.74 369.679 52.7 369.359 52.652C369.031 52.828 368.815 53.016 368.711 53.216C368.607 53.424 368.555 53.608 368.555 53.768ZM374.576 53V47.048H375.488L375.572 48.188C375.756 47.796 376.036 47.484 376.412 47.252C376.788 47.02 377.252 46.904 377.804 46.904V47.96H377.528C377.176 47.96 376.852 48.024 376.556 48.152C376.26 48.272 376.024 48.48 375.848 48.776C375.672 49.072 375.584 49.48 375.584 50V53H374.576ZM381.425 53.144C380.865 53.144 380.361 53.016 379.913 52.76C379.465 52.504 379.109 52.144 378.845 51.68C378.589 51.208 378.461 50.656 378.461 50.024C378.461 49.392 378.593 48.844 378.857 48.38C379.121 47.908 379.477 47.544 379.925 47.288C380.381 47.032 380.889 46.904 381.449 46.904C382.009 46.904 382.513 47.032 382.961 47.288C383.409 47.544 383.761 47.908 384.017 48.38C384.281 48.844 384.413 49.392 384.413 50.024C384.413 50.656 384.281 51.208 384.017 51.68C383.753 52.144 383.393 52.504 382.937 52.76C382.489 53.016 381.985 53.144 381.425 53.144ZM381.425 52.28C381.769 52.28 382.089 52.196 382.385 52.028C382.681 51.86 382.921 51.608 383.105 51.272C383.289 50.936 383.381 50.52 383.381 50.024C383.381 49.528 383.289 49.112 383.105 48.776C382.929 48.44 382.693 48.188 382.397 48.02C382.101 47.852 381.785 47.768 381.449 47.768C381.105 47.768 380.785 47.852 380.489 48.02C380.193 48.188 379.953 48.44 379.769 48.776C379.585 49.112 379.493 49.528 379.493 50.024C379.493 50.52 379.585 50.936 379.769 51.272C379.953 51.608 380.189 51.86 380.477 52.028C380.773 52.196 381.089 52.28 381.425 52.28ZM386.792 53L385.052 47.048H386.06L387.32 51.716L388.712 47.048H389.852L391.256 51.716L392.504 47.048H393.524L391.784 53H390.752L389.288 48.092L387.824 53H386.792ZM396.991 53C396.447 53 396.019 52.868 395.707 52.604C395.395 52.34 395.239 51.864 395.239 51.176V47.9H394.207V47.048H395.239L395.371 45.62H396.247V47.048H397.999V47.9H396.247V51.176C396.247 51.552 396.323 51.808 396.475 51.944C396.627 52.072 396.895 52.136 397.279 52.136H397.903V53H396.991ZM399.279 53V44.36H400.287V48.068C400.487 47.7 400.771 47.416 401.139 47.216C401.507 47.008 401.907 46.904 402.339 46.904C403.027 46.904 403.579 47.12 403.995 47.552C404.411 47.976 404.619 48.632 404.619 49.52V53H403.623V49.628C403.623 48.388 403.123 47.768 402.123 47.768C401.603 47.768 401.167 47.956 400.815 48.332C400.463 48.7 400.287 49.228 400.287 49.916V53H399.279ZM412.034 53.144C411.474 53.144 410.97 53.016 410.522 52.76C410.074 52.504 409.718 52.144 409.454 51.68C409.198 51.208 409.07 50.656 409.07 50.024C409.07 49.392 409.202 48.844 409.466 48.38C409.73 47.908 410.086 47.544 410.534 47.288C410.99 47.032 411.498 46.904 412.058 46.904C412.618 46.904 413.122 47.032 413.57 47.288C414.018 47.544 414.37 47.908 414.626 48.38C414.89 48.844 415.022 49.392 415.022 50.024C415.022 50.656 414.89 51.208 414.626 51.68C414.362 52.144 414.002 52.504 413.546 52.76C413.098 53.016 412.594 53.144 412.034 53.144ZM412.034 52.28C412.378 52.28 412.698 52.196 412.994 52.028C413.29 51.86 413.53 51.608 413.714 51.272C413.898 50.936 413.99 50.52 413.99 50.024C413.99 49.528 413.898 49.112 413.714 48.776C413.538 48.44 413.302 48.188 413.006 48.02C412.71 47.852 412.394 47.768 412.058 47.768C411.714 47.768 411.394 47.852 411.098 48.02C410.802 48.188 410.562 48.44 410.378 48.776C410.194 49.112 410.102 49.528 410.102 50.024C410.102 50.52 410.194 50.936 410.378 51.272C410.562 51.608 410.798 51.86 411.086 52.028C411.382 52.196 411.698 52.28 412.034 52.28ZM416.748 53V47.9H415.848V47.048H416.748V46.016C416.748 45.44 416.892 45.02 417.18 44.756C417.468 44.492 417.888 44.36 418.44 44.36H419.04V45.224H418.596C418.292 45.224 418.076 45.288 417.948 45.416C417.82 45.536 417.756 45.744 417.756 46.04V47.048H419.22V47.9H417.756V53H416.748ZM427.46 53V51.2H423.2V50.42L427.28 44.6H428.456V50.312H429.704V51.2H428.456V53H427.46ZM424.316 50.312H427.508V45.716L424.316 50.312ZM433.777 53.144C433.201 53.144 432.701 53.04 432.277 52.832C431.853 52.624 431.513 52.34 431.257 51.98C431.009 51.612 430.857 51.196 430.801 50.732H431.785C431.881 51.196 432.105 51.572 432.457 51.86C432.809 52.14 433.253 52.28 433.789 52.28C434.189 52.28 434.533 52.188 434.821 52.004C435.109 51.812 435.329 51.556 435.481 51.236C435.641 50.916 435.721 50.56 435.721 50.168C435.721 49.544 435.545 49.04 435.193 48.656C434.841 48.272 434.385 48.08 433.825 48.08C433.361 48.08 432.965 48.184 432.637 48.392C432.309 48.6 432.069 48.872 431.917 49.208H430.957L431.677 44.6H436.081V45.476H432.457L431.965 48.032C432.157 47.8 432.421 47.608 432.757 47.456C433.101 47.304 433.493 47.228 433.933 47.228C434.485 47.228 434.965 47.356 435.373 47.612C435.789 47.868 436.113 48.216 436.345 48.656C436.577 49.096 436.693 49.596 436.693 50.156C436.693 50.692 436.577 51.188 436.345 51.644C436.121 52.1 435.789 52.464 435.349 52.736C434.917 53.008 434.393 53.144 433.777 53.144ZM439.781 48.5C439.421 48.5 439.093 48.42 438.797 48.26C438.509 48.092 438.281 47.86 438.113 47.564C437.945 47.26 437.861 46.9 437.861 46.484C437.861 46.068 437.945 45.712 438.113 45.416C438.289 45.112 438.521 44.88 438.809 44.72C439.105 44.552 439.433 44.468 439.793 44.468C440.153 44.468 440.477 44.552 440.765 44.72C441.053 44.88 441.281 45.112 441.449 45.416C441.617 45.712 441.701 46.068 441.701 46.484C441.701 46.9 441.613 47.26 441.437 47.564C441.269 47.86 441.041 48.092 440.753 48.26C440.465 48.42 440.141 48.5 439.781 48.5ZM439.037 53L443.921 44.6H444.929L440.045 53H439.037ZM439.781 47.72C440.061 47.72 440.305 47.616 440.513 47.408C440.729 47.2 440.837 46.892 440.837 46.484C440.837 46.068 440.733 45.756 440.525 45.548C440.317 45.332 440.073 45.224 439.793 45.224C439.513 45.224 439.261 45.332 439.037 45.548C438.821 45.756 438.713 46.068 438.713 46.484C438.713 46.892 438.821 47.2 439.037 47.408C439.253 47.616 439.501 47.72 439.781 47.72ZM444.269 53.144C443.909 53.144 443.581 53.064 443.285 52.904C442.997 52.736 442.769 52.504 442.601 52.208C442.433 51.904 442.349 51.544 442.349 51.128C442.349 50.712 442.433 50.356 442.601 50.06C442.777 49.756 443.009 49.524 443.297 49.364C443.585 49.196 443.909 49.112 444.269 49.112C444.629 49.112 444.953 49.196 445.241 49.364C445.529 49.524 445.757 49.756 445.925 50.06C446.093 50.356 446.177 50.712 446.177 51.128C446.177 51.544 446.093 51.904 445.925 52.208C445.757 52.504 445.529 52.736 445.241 52.904C444.953 53.064 444.629 53.144 444.269 53.144ZM444.257 52.364C444.545 52.364 444.793 52.26 445.001 52.052C445.217 51.844 445.325 51.536 445.325 51.128C445.325 50.712 445.221 50.4 445.013 50.192C444.805 49.984 444.557 49.88 444.269 49.88C443.989 49.88 443.741 49.984 443.525 50.192C443.309 50.4 443.201 50.712 443.201 51.128C443.201 51.536 443.305 51.844 443.513 52.052C443.729 52.26 443.977 52.364 444.257 52.364Z" fill="white"/>
<defs>
<filter id="filter0_d_202_1849" x="0" y="118" width="529" height="302" filterUnits="userSpaceOnUse" color-interpolation-filters="sRGB">
<feFlood flood-opacity="0" result="BackgroundImageFix"/>
<feColorMatrix in="SourceAlpha" type="matrix" values="0 0 0 0 0 0 0 0 0 0 0 0 0 0 0 0 0 0 127 0" result="hardAlpha"/>
<feOffset dy="4"/>
<feGaussianBlur stdDeviation="5"/>
<feComposite in2="hardAlpha" operator="out"/>
<feColorMatrix type="matrix" values="0 0 0 0 0.419608 0 0 0 0 0.145098 0 0 0 0 0.423529 0 0 0 0.08 0"/>
<feBlend mode="normal" in2="BackgroundImageFix" result="effect1_dropShadow_202_1849"/>
<feBlend mode="normal" in="SourceGraphic" in2="effect1_dropShadow_202_1849" result="shape"/>
</filter>
<linearGradient id="paint0_linear_202_1849" x1="286.838" y1="125.106" x2="286.838" y2="371.729" gradientUnits="userSpaceOnUse">
<stop stop-color="#A85AA3" stop-opacity="0.3"/>
<stop offset="1" stop-color="#A85AA3" stop-opacity="0"/>
</linearGradient>
<linearGradient id="paint1_linear_202_1849" x1="277" y1="0" x2="481.689" y2="193.705" gradientUnits="userSpaceOnUse">
<stop stop-color="#F389B0"/>
<stop offset="1" stop-color="#A85AA3"/>
</linearGradient>
</defs>
</svg>
