<svg width="63" height="58" viewBox="0 0 63 58" fill="none" xmlns="http://www.w3.org/2000/svg">
<path d="M49.5893 14.8531L37.1233 7.67016L33.6283 5.65388C31.9123 4.65834 29.7926 4.65834 28.0766 5.65388L24.5816 7.67016L12.1157 14.8531C10.3997 15.8487 9.33984 17.6759 9.33984 19.6544V38.0655C9.33984 40.044 10.3997 41.8713 12.1157 42.8668L23.8624 49.6465L27.4079 46.1054L30.8398 42.6778L34.2718 46.1054L37.8172 49.6465L49.564 42.8668C51.28 41.8713 52.3398 40.044 52.3398 38.0655V19.6544C52.3398 17.6759 51.28 15.8487 49.564 14.8531H49.5893Z" fill="url(#paint0_linear_1896_12421)"/>
<path d="M27.7743 51.7506L29.4903 52.7335C30.3357 53.2124 31.3703 53.2124 32.203 52.7335L33.919 51.7506L30.8404 48.6758L27.7617 51.7506H27.7743Z" fill="#217293"/>
<path d="M26.2817 30.6426C26.1303 30.2772 25.9789 29.9117 25.8275 29.5715C26.0672 29.4581 26.3069 29.3069 26.5214 29.1556C26.9504 28.8406 27.3289 28.4751 27.6444 28.0467C27.9598 27.6182 28.2121 27.152 28.3762 26.6353C28.5528 26.1186 28.6411 25.5641 28.6411 24.9845C28.6411 24.4048 28.5023 23.5983 28.2374 22.9808C27.9724 22.3759 27.6065 21.834 27.1523 21.3678C26.6981 20.9015 26.1429 20.5361 25.5246 20.2714C24.9064 20.0068 24.2377 19.8682 23.5437 19.8682H17.5V36.9561H20.7931V30.0756H22.446L25.4111 36.9561H28.9944L26.2817 30.63V30.6426ZM20.8058 23.195H23.5437C23.7961 23.195 24.0232 23.2454 24.2503 23.3336C24.4648 23.4219 24.654 23.5479 24.8181 23.7117C24.9821 23.8755 25.1083 24.0645 25.1966 24.2914C25.2849 24.5182 25.3354 24.745 25.3354 24.9971C25.3354 25.2491 25.2849 25.4633 25.1966 25.6776C25.1083 25.8918 24.9821 26.0808 24.8181 26.2446C24.654 26.4085 24.4648 26.5345 24.2377 26.6227C24.0106 26.7109 23.7835 26.7613 23.5311 26.7613H20.7931V23.195H20.8058Z" fill="white"/>
<path d="M44.1507 19.793L42.031 23.4475L39.1669 28.4126L36.9336 24.5564L37.5771 23.4475L39.6968 19.793H44.1507Z" fill="#217293"/>
<path d="M39.1692 28.4126L36.9359 32.2687L36.2798 33.4028L34.9423 35.7216L34.1727 37.0573H29.7188L31.8259 33.4028L33.3399 30.7817L34.7152 28.4126L31.8385 23.4475L29.7314 19.793H34.1853L34.3241 20.045L36.2924 23.4475L36.9359 24.5564L39.1692 28.4126Z" fill="white"/>
<path d="M44.1633 37.0579H39.7094L37.5897 33.4034L36.9336 32.2692L39.1669 28.4131L42.0436 33.4034L44.1633 37.0579Z" fill="#217293"/>
<defs>
<linearGradient id="paint0_linear_1896_12421" x1="31.0039" y1="1.89856" x2="30.7018" y2="55.7332" gradientUnits="userSpaceOnUse">
<stop stop-color="#47C5EA"/>
<stop offset="1" stop-color="#9AD094"/>
</linearGradient>
</defs>
</svg>
