<svg width="40" height="41" viewBox="0 0 40 41" fill="none" xmlns="http://www.w3.org/2000/svg">
<rect y="0.5" width="40" height="40" rx="10" fill="url(#paint0_linear_1713_8360)"/>
<g clip-path="url(#clip0_1713_8360)">
<path d="M27.5006 20.5C27.5006 20.27 27.4906 20.05 27.4706 19.82L29.3306 18.41C29.7306 18.11 29.8406 17.55 29.5906 17.11L27.7206 13.88C27.4706 13.44 26.9306 13.26 26.4706 13.46L24.3206 14.37C23.9506 14.11 23.5606 13.88 23.1506 13.69L22.8606 11.38C22.8006 10.88 22.3706 10.5 21.8706 10.5H18.1406C17.6306 10.5 17.2006 10.88 17.1406 11.38L16.8506 13.69C16.4406 13.88 16.0506 14.11 15.6806 14.37L13.5306 13.46C13.0706 13.26 12.5306 13.44 12.2806 13.88L10.4106 17.12C10.1606 17.56 10.2706 18.11 10.6706 18.42L12.5306 19.83C12.5106 20.05 12.5006 20.27 12.5006 20.5C12.5006 20.73 12.5106 20.95 12.5306 21.18L10.6706 22.59C10.2706 22.89 10.1606 23.45 10.4106 23.89L12.2806 27.12C12.5306 27.56 13.0706 27.74 13.5306 27.54L15.6806 26.63C16.0506 26.89 16.4406 27.12 16.8506 27.31L17.1406 29.62C17.2006 30.12 17.6306 30.5 18.1306 30.5H21.8606C22.3606 30.5 22.7906 30.12 22.8506 29.62L23.1406 27.31C23.5506 27.12 23.9406 26.89 24.3106 26.63L26.4606 27.54C26.9206 27.74 27.4606 27.56 27.7106 27.12L29.5806 23.89C29.8306 23.45 29.7206 22.9 29.3206 22.59L27.4606 21.18C27.4906 20.95 27.5006 20.73 27.5006 20.5ZM20.0406 24C18.1106 24 16.5406 22.43 16.5406 20.5C16.5406 18.57 18.1106 17 20.0406 17C21.9706 17 23.5406 18.57 23.5406 20.5C23.5406 22.43 21.9706 24 20.0406 24Z" fill="#FDFDFD"/>
</g>
<defs>
<linearGradient id="paint0_linear_1713_8360" x1="36.0389" y1="0.24022" x2="-8.56635" y2="34.6278" gradientUnits="userSpaceOnUse">
<stop stop-color="#A85AA3"/>
<stop offset="1" stop-color="#6B256C"/>
</linearGradient>
<clipPath id="clip0_1713_8360">
<rect width="24" height="24" fill="white" transform="translate(8 8.5)"/>
</clipPath>
</defs>
</svg>
