<svg width="229" height="104" viewBox="0 0 229 104" fill="none" xmlns="http://www.w3.org/2000/svg">
<g filter="url(#filter0_d_202_6139)">
<rect x="20.5537" y="13" width="188.277" height="63.3218" rx="10" fill="white"/>
</g>
<path d="M130.006 51.763C125.088 54.7571 120.597 54.2224 117.603 50.5868C114.822 47.0581 115.143 41.9255 118.351 38.6106C120.81 35.9374 126.799 35.082 129.899 38.1829C130.327 35.9374 132.038 37.0067 133.214 37.0067C134.711 36.8998 134.07 38.2899 134.07 38.9314C134.177 42.8878 133.963 46.8443 134.177 50.8007C134.497 58.2858 129.579 62.3491 121.345 60.8521C120.383 60.6382 119.42 60.3174 118.565 59.8897C116.426 58.9274 116.426 58.9273 117.603 56.7887C118.137 55.8264 118.458 55.7194 119.42 56.2541C121.238 57.3234 123.163 57.7511 125.195 57.5373C128.296 57.1095 129.899 55.1848 130.006 51.763ZM130.113 45.0264C130.113 42.2463 127.868 39.8938 124.981 39.8938C122.307 39.8938 119.955 42.2463 119.955 44.9195C119.955 47.6997 122.201 50.0522 125.088 50.0522C127.868 50.0522 130.006 47.8066 130.113 45.0264Z" fill="#3E94E5"/>
<path d="M178.017 38.1832C178.551 37.7555 178.017 36.5792 178.658 36.6862C179.834 37.0069 180.69 36.1515 181.759 36.4723C182.294 36.6862 182.294 37.1139 182.294 37.5416C182.294 42.6742 182.294 47.6999 182.294 52.7257C182.294 53.3672 182.08 53.9019 181.331 53.795C180.155 53.5811 178.123 54.8643 178.123 52.191C173.419 55.185 169.141 54.8643 166.254 51.4425C163.367 48.0207 163.153 42.4604 166.04 39.1455C169.034 35.6169 173.205 35.2961 178.017 38.1832ZM173.419 50.4801C176.199 50.4801 178.551 48.1277 178.551 45.3475C178.551 42.2465 176.199 39.8941 173.205 39.8941C170.531 39.8941 168.179 42.2465 168.179 45.0267C168.179 48.1277 170.318 50.4801 173.419 50.4801Z" fill="#3E94E5"/>
<path d="M100.387 38.3969C102.204 36.1514 104.557 36.1514 106.909 36.1514C109.689 36.2583 112.256 39.0385 112.363 42.1394C112.47 45.3473 112.363 48.6622 112.363 51.8701C112.363 53.474 111.828 53.7948 110.331 53.7948C108.513 53.7948 107.872 53.474 108.086 51.5493C108.299 49.0899 108.192 46.6305 108.086 44.1711C108.086 41.3909 106.589 39.787 104.236 39.6801C101.884 39.6801 100.173 41.4979 100.173 44.0642C100.173 46.7374 100.066 49.4107 100.173 52.1909C100.28 54.0087 98.9965 53.581 98.0341 53.581C97.0717 53.581 95.8955 54.1156 95.8955 52.1909C96.0024 47.2721 95.8955 42.3533 95.8955 37.5415C95.8955 36.5791 96.2163 36.0444 97.1787 36.2583C98.5688 36.7929 100.6 35.4029 100.387 38.3969Z" fill="#3C93E4"/>
<path d="M137.49 42.6744C137.49 41.0705 137.49 39.5734 137.49 37.9695C137.49 36.9002 137.704 36.2586 138.88 36.4725C139.308 36.4725 139.629 36.4725 140.057 36.4725C141.34 36.2586 141.874 36.6863 141.767 38.0764C141.661 40.8566 141.661 43.5299 141.767 46.31C141.767 48.5556 142.944 50.0526 144.761 50.3734C146.9 50.8011 148.825 49.1971 148.932 46.9516C148.932 44.0645 148.932 41.0705 148.932 38.1834C148.932 37.1141 149.039 36.9002 150.215 36.9002C153.209 37.0071 153.209 37.0071 153.209 40.0012C153.209 42.4606 153.209 44.9199 153.102 47.2724C152.888 51.5496 149.894 54.1159 145.296 54.1159C140.805 54.1159 137.704 51.3357 137.597 47.1655C137.49 45.6685 137.49 44.1714 137.49 42.6744Z" fill="#3C93E4"/>
<path d="M78.6783 54.2227C75.7912 54.3296 73.8664 53.4742 72.1556 51.9772C71.407 51.3356 71.0863 50.694 72.0486 50.0524C72.7971 49.5178 73.1179 47.9138 74.508 49.3039C75.6842 50.4802 77.0743 51.0148 78.7852 50.801C79.6407 50.694 80.4961 50.2663 80.8169 49.3039C81.0307 48.2346 80.2822 47.7 79.4268 47.3792C77.9298 46.6307 76.3258 45.9891 74.8288 45.2406C72.7971 44.1713 71.9417 42.1396 72.5833 39.8941C73.1179 37.9694 75.0427 36.6862 77.0743 36.3654C79.4268 35.9377 81.5654 36.2585 83.5971 37.6486C84.1317 38.0763 85.0941 38.504 84.1317 39.2525C83.3832 39.8941 83.2763 41.9258 81.5654 40.4287C80.603 39.6802 79.4268 39.3594 78.2506 39.4664C77.3951 39.4664 76.8605 40.001 76.6466 40.7495C76.4328 41.498 76.9674 42.0327 77.609 42.3535C78.8921 42.9951 80.2822 43.5297 81.5654 44.0644C84.5594 45.4545 85.5218 46.9515 85.201 49.6247C84.8802 51.8703 82.8486 53.6881 80.0684 54.1158C79.2129 54.2227 78.6783 54.2227 78.6783 54.2227Z" fill="#3C93E4"/>
<path d="M156.417 41.605C156.417 38.0763 156.417 34.4407 156.417 30.912C156.417 29.8427 156.631 29.5219 157.701 29.6288C158.235 29.7358 158.877 29.7358 159.412 29.6288C160.374 29.5219 160.588 30.0566 160.588 30.8051C160.588 38.0763 160.588 45.3475 160.588 52.5119C160.588 53.4742 160.16 53.6881 159.305 53.6881C156.417 53.795 156.417 53.795 156.417 51.0148C156.417 47.9139 156.417 44.8129 156.417 41.605Z" fill="#3E94E5"/>
<path d="M189.564 39.0385C191.168 36.7929 192.772 36.1514 194.696 36.1514C195.979 36.1514 196.728 36.2583 196.514 37.9692C196.3 39.3593 196.407 40.6424 194.162 40.2147C192.13 39.787 190.205 41.7117 190.098 43.9573C189.884 46.6305 189.884 49.3038 189.991 51.977C190.098 54.0087 189.029 53.7948 187.746 53.9018C186.249 54.0087 185.714 53.6879 185.714 51.977C185.821 47.5929 185.714 43.2087 185.821 38.8246C185.821 38.0761 185.073 36.4722 186.89 36.686C187.96 36.686 190.098 35.4029 189.564 39.0385Z" fill="#3C93E4"/>
<path d="M92.4725 37.221C92.4725 42.3536 92.4725 47.3794 92.5794 52.4051C92.5794 53.2605 92.3656 53.6882 91.2963 53.7951C88.3022 53.9021 88.3022 53.9021 88.3022 51.015C88.3022 46.8447 88.4092 42.5675 88.3022 38.3972C88.3022 37.0071 88.623 36.5794 90.0131 36.7933C90.6547 36.9002 91.4032 36.7933 92.0448 36.9002C92.1517 37.0071 92.3656 37.1141 92.4725 37.221Z" fill="#3E94E5"/>
<path d="M61.4199 45C60.9718 37.2273 57.3871 31.9725 50.5537 28.4692C52.234 27.7029 53.9144 28.0313 55.3707 28.3598C63.2123 30.2208 64.1084 31.9725 63.3243 39.9641C63.3243 41.6063 62.6521 43.2484 61.4199 45Z" fill="#3E94E5"/>
<path d="M66.5537 51C64.9435 55.24 62.2599 58.0667 58.5029 59.8334C58.2882 59.9512 57.8588 60.069 57.6441 59.9512C53.4577 58.8912 49.9153 56.5356 47.5537 52.2956C54.2091 55.5934 60.4351 55.1223 66.5537 51Z" fill="#3E94E5"/>
<path d="M56.5537 53C62.8098 48.6709 65.7732 42.7468 65.3342 35C67.9683 38.5316 68.9561 42.519 68.4073 46.8481C68.4073 47.1899 68.0781 47.5316 67.8586 47.8734C64.7854 51.1772 61.0537 53 56.5537 53Z" fill="#3E94E5"/>
<path d="M56.5537 36.6082C50.002 33.2447 43.7778 33.7086 37.5537 38C37.7721 36.0283 38.8641 34.6365 39.8468 33.5926C45.1974 27.7935 47.4905 27.4456 53.933 32.7808C55.025 33.8246 56.0077 34.9844 56.5537 36.6082Z" fill="#3E94E5"/>
<path d="M48.5537 36.0582C41.4458 40.1723 38.6944 46.1148 39.153 54C37.4333 52.6287 36.9747 51.143 36.5162 49.6574C34.5672 42.4578 35.1404 40.4008 42.363 37.201C44.0826 36.2868 46.0316 35.8297 48.5537 36.0582Z" fill="#3E94E5"/>
<path d="M54.5537 60.8641C50.3027 61.3109 47.0858 60.6408 43.8689 59.0772C42.0306 58.1837 40.9966 56.9552 40.7668 54.9449C40.3072 51.2594 40.4221 47.7972 42.8348 44C42.72 52.1529 46.856 57.402 54.5537 60.8641Z" fill="#3E94E5"/>
<path d="M90.4413 34.5477C89.0512 34.5477 87.875 33.3714 87.875 31.8744C87.875 30.3774 88.9443 29.3081 90.4413 29.3081C92.0453 29.3081 93.2215 30.4843 93.1146 31.9814C93.1146 33.3714 91.8314 34.5477 90.4413 34.5477Z" fill="#3E94E5"/>
<path d="M92.4707 37.2207C92.3638 37.1138 92.2568 37.0068 92.043 36.8999C92.3638 36.8999 92.4707 37.0068 92.4707 37.2207Z" fill="#3C93E4"/>
<defs>
<filter id="filter0_d_202_6139" x="0.553711" y="0" width="228.277" height="103.322" filterUnits="userSpaceOnUse" color-interpolation-filters="sRGB">
<feFlood flood-opacity="0" result="BackgroundImageFix"/>
<feColorMatrix in="SourceAlpha" type="matrix" values="0 0 0 0 0 0 0 0 0 0 0 0 0 0 0 0 0 0 127 0" result="hardAlpha"/>
<feOffset dy="7"/>
<feGaussianBlur stdDeviation="10"/>
<feComposite in2="hardAlpha" operator="out"/>
<feColorMatrix type="matrix" values="0 0 0 0 0.419608 0 0 0 0 0.145098 0 0 0 0 0.423529 0 0 0 0.08 0"/>
<feBlend mode="normal" in2="BackgroundImageFix" result="effect1_dropShadow_202_6139"/>
<feBlend mode="normal" in="SourceGraphic" in2="effect1_dropShadow_202_6139" result="shape"/>
</filter>
</defs>
</svg>
