<svg width="63" height="58" viewBox="0 0 63 58" fill="none" xmlns="http://www.w3.org/2000/svg">
<path d="M49.5718 14.9481L37.1134 7.80854L33.6147 5.8045C31.8983 4.82168 29.7859 4.82168 28.0695 5.8045L24.5708 7.80854L12.1124 14.9481C10.3961 15.9309 9.33984 17.7474 9.33984 19.7153V38.0025C9.33984 39.9681 10.3961 41.7846 12.1124 42.7697L23.856 49.5003L27.4049 45.978L30.8398 42.5686L34.2748 45.978L37.8236 49.5003L49.5673 42.7697C51.2836 41.7869 52.3398 39.9704 52.3398 38.0025V19.7153C52.3398 17.7497 51.2836 15.9332 49.5673 14.9481H49.5718Z" fill="url(#paint0_linear_1896_12434)"/>
<path d="M27.7734 51.5879L29.4875 52.5707C30.3275 53.052 31.3632 53.052 32.2032 52.5707L33.9173 51.5879L30.8465 48.54L27.7757 51.5879H27.7734Z" fill="#6B256C"/>
<path d="M28.6365 30.5492C28.3747 29.9392 28.0105 29.3946 27.5552 28.9337C27.0954 28.4706 26.5491 28.1023 25.9299 27.8425C25.3062 27.5804 24.6392 27.4448 23.945 27.4448H22.6133C22.3652 27.4448 22.1353 27.3996 21.9122 27.307C21.6891 27.2144 21.5002 27.0901 21.3363 26.9274C21.1701 26.7625 21.0449 26.5772 20.9516 26.3581C20.8605 26.148 20.815 25.9265 20.815 25.6803C20.815 25.434 20.8605 25.2058 20.9516 24.9844C21.0449 24.763 21.1701 24.5755 21.334 24.4128C21.5002 24.2478 21.6868 24.1236 21.9099 24.0332C22.133 23.9406 22.3606 23.8954 22.611 23.8954H28.3269V20.6035H22.611C21.9167 20.6035 21.2498 20.7368 20.6238 21.0012C20.0046 21.2632 19.456 21.6293 18.9939 22.0902C18.5296 22.5511 18.1631 23.0911 17.899 23.6943C17.6327 24.3066 17.4961 24.9754 17.4961 25.6803C17.4961 26.3852 17.6304 27.0314 17.8967 27.6527C18.1608 28.2695 18.5318 28.8117 18.9962 29.2636C19.4583 29.7155 20.0069 30.077 20.6238 30.3368C21.2475 30.5989 21.9145 30.7344 22.6087 30.7344H23.9404C24.1885 30.7344 24.4184 30.7796 24.6415 30.87C24.86 30.9604 25.0422 31.0824 25.1969 31.2428C25.3608 31.4122 25.4906 31.6066 25.593 31.837C25.6886 32.0516 25.7364 32.2753 25.7364 32.5193C25.7364 32.7633 25.6886 32.9848 25.593 33.2017C25.4906 33.4321 25.3608 33.6264 25.1969 33.7936C25.0422 33.9518 24.86 34.0738 24.6392 34.1664C24.4162 34.259 24.1862 34.3042 23.9381 34.3042H18.2018V37.5758H23.9381C24.6324 37.5758 25.2994 37.4425 25.9254 37.1781C26.5445 36.916 27.0886 36.5545 27.5461 36.1004C28.0014 35.6463 28.3679 35.1063 28.6319 34.494C28.8983 33.8749 29.0326 33.2107 29.0326 32.5216C29.0326 31.8325 28.8983 31.1705 28.6319 30.5492H28.6365Z" fill="white"/>
<path d="M44.1672 20.4229L42.057 24.0536L39.1911 28.9813L36.9648 25.1539L37.6022 24.0536L39.7169 20.4229H44.1672Z" fill="#6B256C"/>
<path d="M39.1906 28.9813L36.9644 32.8086L36.3088 33.9338L34.9703 36.2338L34.1941 37.5668H29.7461L31.8608 33.9338L33.37 31.3378V31.3287L34.7358 28.9813L31.8722 24.0536L29.7575 20.4229H34.2123L34.3534 20.6669L36.3224 24.0536L36.9644 25.1539L39.1906 28.9813Z" fill="white"/>
<path d="M44.1854 37.567H39.7329L37.6182 33.9339L36.9648 32.8088L39.1911 28.9814L42.0729 33.9339L44.1854 37.567Z" fill="#6B256C"/>
<defs>
<linearGradient id="paint0_linear_1896_12434" x1="29.2054" y1="58.5987" x2="34.7379" y2="-43.3522" gradientUnits="userSpaceOnUse">
<stop offset="0.09" stop-color="#F389B0"/>
<stop offset="1" stop-color="#F0E91B"/>
</linearGradient>
</defs>
</svg>
