<svg width="230" height="104" viewBox="0 0 230 104" fill="none" xmlns="http://www.w3.org/2000/svg">
<g filter="url(#filter0_d_202_6159)">
<rect x="20.8306" y="13" width="188.277" height="63.3218" rx="10" fill="white"/>
</g>
<path d="M77.7339 43.3238C77.7339 43.7743 77.7677 44.2249 77.7264 44.6717C77.6513 45.4901 77.5724 46.3124 77.4223 47.1159C77.3021 47.7579 77.1106 48.3962 76.8741 49.0082C76.5587 49.8191 76.2208 50.6264 75.8003 51.3848C75.4549 52.008 74.933 52.5337 74.5726 53.1532C73.8517 54.3884 72.7216 55.2294 71.7341 56.2056C71.3362 56.5998 70.7842 56.8364 70.3037 57.1442C69.9845 57.347 69.6767 57.5723 69.3425 57.7337C68.7868 58.004 68.2124 58.2406 67.6417 58.4846C67.2737 58.646 66.9058 58.8112 66.5266 58.9502C66.2037 59.0703 65.8771 59.2055 65.5429 59.2543C64.6568 59.3857 63.7633 59.4796 62.8734 59.5847C62.2239 59.6635 61.5706 59.81 60.9211 59.7912C60.0125 59.7687 59.1001 59.6635 58.199 59.5133C57.5082 59.4007 56.8249 59.1942 56.1566 58.9727C55.4657 58.7474 54.7486 58.5334 54.1254 58.1692C53.4345 57.7637 52.7174 57.4033 52.0453 56.9452C51.0466 56.2657 50.1305 55.5185 49.282 54.6775C48.9366 54.3321 48.6512 53.9303 48.3471 53.5436C47.9979 53.0968 47.615 52.6688 47.3296 52.1845C46.988 51.6025 46.7214 50.9793 46.4398 50.3635C46.1732 49.7741 45.8992 49.1846 45.6852 48.5801C45.5312 48.1484 45.4636 47.6866 45.366 47.2398C45.2046 46.5001 45.0431 45.7642 44.8929 45.0246C44.8516 44.8218 44.8479 44.6078 44.8479 44.3976C44.8441 43.6467 44.8066 42.8958 44.8554 42.1524C44.9042 41.409 45.0018 40.6656 45.1445 39.9372C45.2684 39.3064 45.4486 38.6794 45.6701 38.0749C45.8691 37.5268 46.1507 37.0086 46.3948 36.4755C46.4961 36.2502 46.6013 36.0212 46.6876 35.7884C46.9805 34.9774 47.5399 34.3317 47.9867 33.6145C48.4748 32.8261 49.1281 32.1953 49.7288 31.5233C50.2957 30.8887 51.0579 30.4307 51.7375 29.9013C52.143 29.5859 52.556 29.2743 52.9802 28.9777C53.1867 28.835 53.412 28.7111 53.6448 28.6173C54.3919 28.3206 55.1579 28.0766 55.89 27.7537C56.532 27.4684 57.2266 27.3858 57.8686 27.1793C58.597 26.9465 59.3367 27.1342 60.0012 26.9127C60.6357 26.7024 61.2815 26.6086 61.8672 26.755C62.6444 26.9465 63.4253 26.8827 64.1913 27.0028C64.9272 27.1192 65.6706 27.2919 66.3689 27.551C67.3526 27.9189 68.31 28.3657 69.2524 28.835C69.8944 29.1542 70.5102 29.5371 71.1034 29.9464C72.226 30.7235 73.1947 31.6847 74.0957 32.6984C74.475 33.1265 74.7303 33.6596 75.0532 34.1327C75.2784 34.4631 75.5375 34.7747 75.759 35.1088C75.8904 35.3041 75.9993 35.5218 76.0819 35.7434C76.2884 36.2953 76.4724 36.8622 76.6751 37.4179C76.9154 38.0749 77.167 38.732 77.411 39.389C77.4298 39.4453 77.441 39.5054 77.4485 39.5655C77.5837 40.812 77.7151 42.0623 77.8503 43.3088C77.8127 43.3125 77.7789 43.3163 77.7414 43.32L77.7339 43.3238ZM61.274 28.5647C56.104 28.6773 52.0341 30.9075 49.0868 35.1126C47.3935 37.5268 46.4698 40.3089 46.5337 43.2374C46.6388 48.0583 48.5348 52.1507 52.4658 55.0717C54.9025 56.8852 57.6922 57.8801 60.8047 57.9439C66.1474 58.0566 70.4013 55.9803 73.495 51.6776C75.1358 49.3986 76.0031 46.7667 76.0857 43.9283C76.2321 38.7583 74.2159 34.5682 70.1234 31.4594C67.5516 29.5071 64.5855 28.4821 61.2815 28.5647H61.274Z" fill="#8ED1FC"/>
<path d="M115.07 46.7894C112.716 46.7894 110.358 46.7894 108.004 46.7894C107.347 46.7894 107.35 46.7894 107.583 47.3939C107.621 47.4877 107.617 47.6004 107.613 47.7055C107.591 48.3025 107.79 48.8243 108.097 49.3312C108.259 49.594 108.263 49.9695 108.454 50.1985C109.021 50.8781 109.607 51.5576 110.268 52.1471C110.62 52.4625 111.157 52.5601 111.578 52.8079C112.655 53.4424 113.834 53.3223 115.002 53.3223C115.622 53.3223 116.158 53.0257 116.729 52.868C117.334 52.699 117.81 52.3761 118.257 51.9969C118.809 51.5239 119.301 50.9794 119.845 50.4951C119.958 50.3937 120.266 50.3449 120.367 50.4238C120.889 50.818 121.351 51.2911 121.877 51.6778C122.139 51.8693 122.061 52.0795 121.94 52.1884C121.298 52.7779 120.818 53.5325 119.999 53.9418C119.47 54.2083 119.016 54.6251 118.494 54.9142C118.19 55.0832 117.825 55.1395 117.484 55.2446C116.981 55.4023 116.481 55.5637 115.978 55.7177C115.881 55.7477 115.772 55.759 115.667 55.759C114.69 55.759 113.714 55.8153 112.742 55.7402C112.201 55.6989 111.676 55.4473 111.142 55.2859C110.831 55.192 110.515 55.0982 110.219 54.9743C109.757 54.779 109.261 54.6176 108.86 54.3322C108.203 53.8667 107.568 53.3523 107.005 52.7816C106.592 52.3611 106.288 51.8205 105.969 51.3173C105.702 50.8968 105.458 50.4576 105.24 50.0033C105.101 49.7104 105.019 49.3875 104.936 49.0721C104.823 48.6516 104.67 48.2236 104.655 47.7993C104.617 46.6167 104.594 45.4302 104.662 44.2513C104.692 43.7257 104.951 43.2075 105.131 42.6969C105.308 42.2051 105.496 41.7132 105.713 41.2402C105.863 40.9135 106.044 40.5831 106.276 40.3166C106.885 39.622 107.5 38.9349 108.173 38.3004C108.499 37.9925 108.938 37.7973 109.344 37.587C109.877 37.3129 110.414 37.0426 110.973 36.8323C111.39 36.6747 111.837 36.5432 112.276 36.5245C113.414 36.4794 114.559 36.4569 115.693 36.5282C116.215 36.562 116.725 36.8323 117.236 37.0051C117.506 37.0952 117.773 37.2003 118.039 37.2979C118.989 37.6433 119.733 38.2891 120.39 39.0137C120.897 39.5732 121.298 40.2264 121.708 40.8647C121.873 41.1238 121.843 41.5593 122.053 41.7245C122.44 42.0249 122.263 42.5167 122.556 42.8133C122.594 42.8509 122.609 42.9222 122.616 42.9785C122.714 44.0523 122.823 45.1224 122.898 46.1999C122.924 46.6017 122.68 46.7894 122.252 46.7894C119.853 46.7894 117.45 46.7894 115.051 46.7894H115.07ZM119.853 44.5742C119.838 44.2701 119.883 43.9697 119.8 43.7144C119.583 43.0423 119.342 42.374 119.046 41.7358C118.854 41.3265 118.58 40.9436 118.291 40.5944C117.867 40.08 117.326 39.7158 116.703 39.4417C116.177 39.2127 115.67 38.9311 115.085 38.9649C114.048 39.0175 112.982 38.7171 111.972 39.209C111.48 39.4493 110.902 39.5544 110.459 39.8547C109.963 40.1927 109.543 40.6582 109.145 41.1163C108.751 41.5631 108.255 41.9498 108.124 42.5918C108.067 42.8659 107.921 43.1174 107.842 43.3878C107.729 43.7632 107.639 44.1462 107.527 44.578H119.849L119.853 44.5742Z" fill="#8ED1FC"/>
<path d="M131.044 55.2296H128.318C128.318 55.0269 128.318 54.8392 128.318 54.6514C128.314 48.8657 128.311 43.0799 128.299 37.2942C128.299 36.915 128.397 36.7535 128.806 36.7798C129.298 36.8136 129.797 36.7873 130.293 36.7873C130.834 36.7873 131.025 36.9826 131.029 37.5307C131.036 38.1014 131.036 38.6684 131.048 39.2391C131.048 39.3892 131.081 39.5357 131.104 39.7384C131.712 38.7923 132.388 38.0451 133.33 37.5608C133.77 37.3355 134.175 37.0314 134.629 36.8399C135.024 36.6747 135.459 36.5433 135.88 36.5245C136.912 36.4795 137.952 36.4532 138.985 36.5283C139.492 36.5658 139.998 36.8061 140.475 37.0201C141.012 37.2604 141.549 37.5307 142.022 37.8762C142.615 38.3079 143.01 38.9237 143.321 39.5957C143.535 40.0613 143.794 40.5043 144.035 40.9549C144.05 40.9812 144.057 41.0112 144.061 41.0412C144.166 41.6757 144.354 42.3103 144.357 42.9448C144.384 46.9171 144.372 50.8894 144.372 54.8617C144.372 54.9631 144.357 55.0682 144.35 55.2034H141.617V54.6139C141.617 51.2423 141.662 47.867 141.583 44.4992C141.564 43.7032 141.515 42.8472 141.151 42.0737C141.001 41.7583 141.001 41.3604 140.817 41.075C140.513 40.6019 140.299 40.035 139.751 39.7497C139.281 39.5056 138.835 39.0776 138.346 39.025C137.295 38.9162 136.218 38.9162 135.166 39.0363C134.644 39.0964 134.115 39.4568 133.683 39.7985C133.203 40.1777 132.782 40.6545 132.414 41.1501C132.106 41.5669 131.907 42.0625 131.663 42.5243C131.645 42.5618 131.622 42.6031 131.615 42.6482C131.509 43.354 131.404 44.0636 131.303 44.7695C130.815 48.1561 131.205 51.5652 131.078 54.9631C131.078 55.0344 131.063 55.1095 131.048 55.2259L131.044 55.2296Z" fill="#8ED1FC"/>
<path d="M173.516 39.4754C174.14 38.8822 174.729 38.3002 175.341 37.7483C175.54 37.5681 175.799 37.4442 176.043 37.3203C176.392 37.1438 176.745 36.9524 177.117 36.8285C177.541 36.6858 177.981 36.5431 178.424 36.5206C179.291 36.4718 180.162 36.5018 181.033 36.5018C181.668 36.5018 182.246 36.6895 182.798 36.9974C183.357 37.309 183.947 37.5644 184.476 37.9173C184.757 38.105 184.96 38.4279 185.152 38.7208C185.52 39.2914 185.921 39.8546 186.188 40.4704C186.394 40.9509 186.398 41.5141 186.53 42.0323C187.059 44.1573 186.714 46.3124 186.774 48.4525C186.838 50.5964 186.789 52.7402 186.785 54.884C186.785 54.9854 186.77 55.0868 186.759 55.2144H184.029V54.6888C184.029 51.719 184.104 48.7491 183.988 45.7868C183.95 44.7768 183.924 43.7368 183.748 42.7381C183.492 41.3189 182.783 40.1062 181.521 39.3177C181.202 39.1187 180.793 39.0098 180.413 38.9761C179.771 38.916 179.126 38.9498 178.48 38.9423C177.845 38.9348 177.308 39.2426 176.73 39.4304C175.897 39.7007 175.458 40.369 174.906 40.9059C174.583 41.2175 174.463 41.7432 174.264 42.1787C174.095 42.5504 173.944 42.9333 173.787 43.3126C173.768 43.3539 173.757 43.3989 173.749 43.4402C173.663 44.2136 173.509 44.9833 173.501 45.7568C173.471 48.7266 173.49 51.6927 173.49 54.6625V55.2182H170.734C170.734 55.0154 170.734 54.8277 170.734 54.64C170.734 49.4212 170.731 44.2061 170.727 38.9873C170.727 38.4166 170.719 37.8497 170.704 37.279C170.697 36.9373 170.791 36.7534 171.189 36.7797C171.695 36.8134 172.21 36.8097 172.72 36.7797C173.092 36.7609 173.209 36.896 173.231 37.2602C173.28 37.9736 173.385 38.6795 173.471 39.3891C173.475 39.4266 173.513 39.4604 173.52 39.4754H173.516Z" fill="#8ED1FC"/>
<path d="M101.947 52.5373C101.947 53.307 101.98 54.0279 101.92 54.7375C101.905 54.9102 101.609 55.1354 101.395 55.2068C100.265 55.5822 99.0857 55.5334 97.918 55.4996C97.3848 55.4846 96.923 55.2218 96.4349 55.0341C95.898 54.8276 95.5001 54.4671 95.0758 54.1255C94.8656 53.9565 94.6891 53.7275 94.5502 53.4947C94.0433 52.6424 93.9532 51.7 93.957 50.7239C93.9795 47.097 93.9645 43.4701 93.9645 39.8432C93.9645 39.4352 93.753 39.23 93.3299 39.2275C92.3125 39.2275 91.295 39.2275 90.2062 39.2275C90.2062 38.469 90.1949 37.7444 90.2249 37.0198C90.2249 36.9372 90.4765 36.8058 90.6154 36.802C91.5465 36.7833 92.4777 36.7758 93.405 36.7983C93.8293 36.8058 93.9795 36.6669 93.972 36.2238C93.9457 34.876 93.9607 33.5281 93.9645 32.1764C93.9645 31.985 93.987 31.7972 93.9983 31.5645C94.8693 31.5645 95.7028 31.5645 96.5401 31.5645C96.8479 31.5645 96.8029 31.7972 96.8029 31.9812C96.8066 33.239 96.8029 34.5005 96.8029 35.7583C96.8029 36.0737 96.8029 36.3853 96.8029 36.7645C96.9906 36.7758 97.1633 36.7908 97.336 36.7908C98.6727 36.7908 100.006 36.8058 101.342 36.7833C101.785 36.7758 101.973 36.9072 101.943 37.3652C101.913 37.842 101.92 38.3264 101.943 38.8032C101.958 39.1449 101.819 39.2387 101.496 39.235C100.069 39.2237 98.6464 39.2312 97.2196 39.235C97.1033 39.235 96.9831 39.2462 96.8404 39.2575C96.8292 39.3852 96.8066 39.5015 96.8066 39.6142C96.8066 43.3011 96.7841 46.9881 96.8367 50.6713C96.8479 51.3772 97.0807 52.1243 97.6664 52.6199C97.933 52.8452 98.3197 52.9841 98.6689 53.0404C99.1232 53.1117 99.6075 53.1193 100.058 53.0404C100.52 52.9578 100.952 52.7288 101.406 52.5861C101.549 52.5411 101.714 52.5598 101.935 52.5448L101.947 52.5373Z" fill="#8ED1FC"/>
<path d="M146.433 64.3679C146.527 63.9887 146.639 63.587 146.722 63.1778C146.767 62.945 146.763 62.7009 146.778 62.4644C146.805 61.9988 147.094 61.8674 147.533 62.0439C148.231 62.3292 148.926 62.2992 149.658 62.0364C150.187 61.8486 150.462 61.4544 150.811 61.1053C150.841 61.0752 150.875 61.0377 150.882 61.0001C150.983 60.5045 151.164 60.0052 151.167 59.5058C151.19 52.2108 151.186 44.9119 151.19 37.6169C151.19 37.4667 151.19 37.3165 151.19 37.1663C151.19 36.911 151.303 36.7871 151.573 36.7871C152.249 36.7946 152.925 36.7758 153.597 36.8021C153.713 36.8059 153.859 36.9786 153.923 37.1062C153.98 37.2151 153.942 37.3691 153.942 37.5042C153.942 44.7242 153.942 51.9479 153.942 59.1679C153.942 59.6185 153.98 60.0765 153.897 60.512C153.799 61.0227 153.593 61.5145 153.42 62.0101C153.109 62.9074 152.38 63.4669 151.716 64.0676C151.52 64.244 151.261 64.3792 151.006 64.4468C149.88 64.7434 148.731 64.8523 147.571 64.7246C147.233 64.6871 146.91 64.5219 146.429 64.3642L146.433 64.3679Z" fill="#8ED1FC"/>
<path d="M163.758 55.218H160.934C160.927 55.0303 160.912 54.8688 160.912 54.7111C160.912 48.9704 160.912 43.2298 160.912 37.4853C160.912 37.0223 161.144 36.7907 161.61 36.7907C162.196 36.7907 162.781 36.802 163.367 36.787C163.641 36.7795 163.75 36.8921 163.758 37.1474C163.758 37.2375 163.761 37.3276 163.761 37.4177C163.761 43.2035 163.761 48.9892 163.761 54.7787V55.2218L163.758 55.218Z" fill="#8ED1FC"/>
<path d="M164.287 29.8523C164.295 30.3029 164.298 30.7234 163.897 31.0688C163.405 31.5006 162.905 31.9361 162.222 31.8084C161.771 31.7258 161.313 31.5043 160.938 31.234C160.405 30.851 160.277 30.2503 160.371 29.612C160.495 28.7785 160.957 27.8549 162.643 27.9976C163.683 28.0877 164.302 28.7147 164.283 29.8486L164.287 29.8523Z" fill="#8ED1FC"/>
<path d="M154.489 29.8261C154.631 31.1703 153.561 31.7034 152.675 31.8198C151.677 31.9475 150.674 30.8699 150.644 29.9613C150.61 28.91 151.414 27.9827 152.491 27.9751C153.745 27.9676 154.631 28.7824 154.489 29.8261Z" fill="#8ED1FC"/>
<path d="M69.6509 54.3735C69.2417 54.5762 68.8024 54.7339 68.4232 54.9855C67.9013 55.3346 67.3419 55.207 66.7899 55.237C66.0991 55.2746 65.4758 55.0718 64.8826 54.7339C64.5147 54.5237 64.0942 54.4035 63.7563 54.1557C63.1743 53.7277 62.5511 53.3072 62.1118 52.7515C61.68 52.2071 61.2107 51.6327 61.0981 50.8743C61.0568 50.5852 60.8465 50.3186 60.7151 50.0407C60.6851 49.9732 60.6513 49.9093 60.6325 49.838C60.4335 49.1209 60.2721 48.3888 60.028 47.6829C59.8027 47.0334 59.5812 46.3575 59.1945 45.8019C58.6651 45.0397 58.0869 44.2813 57.2309 43.8082C56.5776 43.4478 55.9168 43.1587 55.1922 42.9372C54.4 42.6969 53.6378 42.7232 52.8681 42.7645C52.3162 42.7945 51.7643 43.031 51.2311 43.2188C50.7618 43.384 50.3 43.5829 49.8645 43.8232C49.4928 44.026 49.1812 44.3376 48.817 44.5479C48.6668 44.6342 48.4265 44.638 48.2613 44.5816C48.1712 44.5516 48.1074 44.3263 48.0961 44.1799C47.9872 43.0085 48.4565 42.0774 49.3276 41.3302C49.8307 40.8984 50.33 40.4629 50.8782 40.095C51.1673 39.8997 51.554 39.8547 51.8882 39.727C53.3224 39.1864 54.8055 39.4717 56.2622 39.4943C56.9193 39.5055 57.5725 39.8021 58.2258 39.9673C59.2058 40.2114 60.197 40.4066 61.2032 40.2339C61.8415 40.125 62.4797 39.9448 63.0729 39.6932C63.546 39.4943 63.9327 39.1 64.3945 38.8597C65.0966 38.4955 65.3595 37.7371 65.9189 37.2453C66.1179 37.0688 66.1667 36.7159 66.2793 36.4418C66.4333 36.0664 66.5872 35.6947 66.7374 35.3192C66.7524 35.2779 66.7862 35.2404 66.7862 35.1991C66.8387 34.2754 67.2367 33.3819 67.0415 32.4357C66.9927 32.1954 66.8725 31.9626 66.835 31.7224C66.8162 31.6022 66.8838 31.3844 66.9664 31.3507C67.0753 31.3056 67.2442 31.3957 67.3794 31.4408C67.7661 31.5684 68.1078 31.7449 68.4081 32.049C68.8512 32.4958 69.1403 32.9989 69.3768 33.5771C69.8536 34.741 69.6546 35.9387 69.5495 37.0951C69.4932 37.7221 69.3393 38.4618 68.8474 39.0324C68.5058 39.4267 68.3406 39.9748 68.0027 40.3728C67.2405 41.2701 66.4333 42.1262 65.6223 42.9785C65.198 43.4253 64.8789 43.9208 64.5898 44.469C64.113 45.3776 63.8126 46.32 63.8802 47.3262C63.9252 48.0095 64.1655 48.6779 64.3382 49.3499C64.4133 49.6465 64.5485 49.9319 64.6311 50.2285C64.8413 50.9569 65.3444 51.4825 65.8776 51.9743C66.3657 52.4211 66.88 52.8491 67.4094 53.2434C67.6272 53.4048 67.9238 53.4649 68.1791 53.5813C68.6522 53.7915 69.1253 54.0055 69.5983 54.2195C69.6134 54.2684 69.6284 54.3172 69.6434 54.366L69.6509 54.3735Z" fill="#8ED1FC"/>
<defs>
<filter id="filter0_d_202_6159" x="0.830566" y="0" width="228.277" height="103.322" filterUnits="userSpaceOnUse" color-interpolation-filters="sRGB">
<feFlood flood-opacity="0" result="BackgroundImageFix"/>
<feColorMatrix in="SourceAlpha" type="matrix" values="0 0 0 0 0 0 0 0 0 0 0 0 0 0 0 0 0 0 127 0" result="hardAlpha"/>
<feOffset dy="7"/>
<feGaussianBlur stdDeviation="10"/>
<feComposite in2="hardAlpha" operator="out"/>
<feColorMatrix type="matrix" values="0 0 0 0 0.419608 0 0 0 0 0.145098 0 0 0 0 0.423529 0 0 0 0.08 0"/>
<feBlend mode="normal" in2="BackgroundImageFix" result="effect1_dropShadow_202_6159"/>
<feBlend mode="normal" in="SourceGraphic" in2="effect1_dropShadow_202_6159" result="shape"/>
</filter>
</defs>
</svg>
