<svg width="229" height="104" viewBox="0 0 229 104" fill="none" xmlns="http://www.w3.org/2000/svg">
<g filter="url(#filter0_d_202_6211)">
<rect x="20.6924" y="13.3218" width="188.277" height="63.3218" rx="10" fill="white"/>
</g>
<path d="M188.659 56.2434C187.266 56.2434 185.848 56.2434 184.455 56.2434C184.231 56.2434 184.132 56.0692 184.008 55.9448C182.614 54.5518 181.246 53.1836 179.878 51.7905C179.629 51.5417 179.381 51.4173 179.032 51.4173C177.166 51.4173 175.326 51.4173 173.46 51.4173C173.087 51.4173 172.987 51.3178 173.012 50.9447C173.037 50.2481 173.037 49.5516 173.012 48.8302C173.012 48.457 173.136 48.3824 173.485 48.3824C176.072 48.3824 178.684 48.3824 181.271 48.3824C182.341 48.3824 183.311 48.1336 184.157 47.4868C185.848 46.1684 185.475 43.2827 183.51 42.4369C182.813 42.1384 182.042 42.0389 181.296 42.014C178.087 42.014 174.903 42.014 171.694 42.014C171.246 42.014 171.246 42.213 171.246 42.5364C171.246 46.9147 171.246 51.3178 171.246 55.6961C171.246 56.119 171.146 56.2682 170.723 56.2434C170.027 56.2185 169.355 56.2185 168.659 56.2434C168.286 56.2434 168.211 56.1439 168.211 55.7956C168.211 52.2382 168.211 48.656 168.211 45.0987C168.211 43.2578 168.211 41.3921 168.211 39.5512C168.211 39.1781 168.261 39.0288 168.708 39.0288C172.714 39.0288 176.719 39.0288 180.724 39.0288C182.44 39.0288 184.132 39.3025 185.625 40.198C189.431 42.5115 189.306 48.1834 185.376 50.3228C184.928 50.5715 184.48 50.7954 184.008 50.8949C183.585 50.9944 183.659 51.1188 183.908 51.3676C185.401 52.8353 186.893 54.303 188.386 55.7707C188.485 55.8702 188.635 55.9697 188.759 56.0692C188.759 56.119 188.709 56.1687 188.684 56.2185L188.659 56.2434Z" fill="#052D4E"/>
<path d="M71.6651 51.0692C73.3816 52.8105 75.0483 54.4773 76.7399 56.144C76.6404 56.3181 76.4912 56.2435 76.3668 56.2435C75.1727 56.2435 74.0035 56.2435 72.8094 56.2435C72.486 56.2435 72.2622 56.144 72.0383 55.9201C70.6452 54.5021 69.2272 53.1091 67.8341 51.6911C67.6351 51.4921 67.4361 51.4174 67.1625 51.4174C65.2967 51.4174 63.4061 51.4174 61.5404 51.4174C61.1672 51.4174 61.018 51.3428 61.0428 50.9448C61.0677 50.2731 61.0677 49.5766 61.0428 48.88C61.0428 48.482 61.1423 48.3825 61.5155 48.4074C64.1027 48.4074 66.7147 48.4074 69.3018 48.4074C70.2969 48.4074 71.2422 48.1835 72.0631 47.5865C73.8543 46.268 73.5309 43.3326 71.491 42.437C70.7696 42.1136 69.9984 42.039 69.2272 42.039C66.0679 42.039 62.8837 42.039 59.7244 42.039C59.3264 42.039 59.2517 42.1634 59.2517 42.5365C59.2517 46.9397 59.2517 51.3428 59.2517 55.746C59.2517 56.144 59.1771 56.2932 58.7542 56.2684C58.0577 56.2186 57.3362 56.2684 56.6397 56.2684C56.3412 56.2684 56.2168 56.2435 56.2168 55.8952C56.2168 50.4224 56.2168 44.9247 56.2168 39.4518C56.2168 39.1036 56.3412 39.0538 56.6397 39.0787C60.8438 39.0787 65.048 39.0787 69.2272 39.1036C70.9686 39.1036 72.6104 39.5762 74.103 40.5713C77.0633 42.5614 77.5111 48.1586 73.3318 50.4224C72.8094 50.696 72.2373 50.9199 71.6402 51.1189L71.6651 51.0692Z" fill="#042D4D"/>
<path d="M101.76 56.2436C100.516 56.2436 99.3222 56.2436 98.1281 56.2436C97.8793 56.2436 97.8047 56.0694 97.7301 55.9202C96.9092 54.5768 96.0882 53.2335 95.2922 51.8653C95.0932 51.5419 94.8942 51.4175 94.521 51.4175C92.1329 51.4175 89.7447 51.4175 87.3566 51.4175C87.2073 51.4175 87.0083 51.4922 86.9337 51.3429C86.859 51.1936 87.0332 51.0693 87.1078 50.9449C87.5307 50.2235 87.9785 49.5269 88.4014 48.7806C88.5506 48.507 88.7248 48.4075 89.0482 48.4075C90.3915 48.4075 91.7348 48.4075 93.1777 48.4075C92.1577 46.7407 91.2124 45.1486 90.1925 43.4819C89.1726 45.1735 88.1775 46.7656 87.2073 48.3826C85.6898 50.8702 84.1724 53.3579 82.6549 55.8455C82.4808 56.1441 82.3066 56.2436 81.9584 56.2187C80.9882 56.2187 79.9931 56.2187 79.0229 56.2187C78.6 56.2187 78.5752 56.1192 78.7742 55.7709C80.217 53.3828 81.6599 50.9946 83.1027 48.6065C84.645 46.0442 86.1874 43.5068 87.7297 40.9445C88.1277 40.2977 88.6004 39.7007 89.2472 39.3027C89.9686 38.8549 90.6652 38.8798 91.3866 39.3275C91.8592 39.6509 92.2821 40.049 92.5558 40.5216C95.5907 45.671 98.6008 50.7956 101.636 55.9451C101.661 55.9948 101.685 56.0694 101.735 56.1938L101.76 56.2436Z" fill="#052D4E"/>
<path d="M115.301 56.2434C113.883 56.2434 112.49 56.2434 111.072 56.2434C106.171 56.2434 102.564 52.7109 102.415 47.8351C102.315 44.825 103.31 42.3125 105.848 40.5463C107.191 39.601 108.709 39.1034 110.351 39.0786C113.734 39.0288 117.142 39.0786 120.525 39.0288C120.848 39.0288 120.873 39.1532 120.873 39.4268C120.873 40.1731 120.848 40.8945 120.873 41.6408C120.873 42.014 120.724 42.0389 120.426 42.0389C117.316 42.0389 114.231 42.0389 111.122 42.0389C108.336 42.0389 106.196 43.6558 105.574 46.2181C104.654 49.9994 107.191 53.2333 111.097 53.2333C114.182 53.2333 117.266 53.2333 120.326 53.2333C120.749 53.2333 120.848 53.3577 120.824 53.7557C120.799 54.4523 120.799 55.1488 120.824 55.8702C120.824 56.1936 120.749 56.2682 120.426 56.2682C118.709 56.2682 116.993 56.2682 115.251 56.2682L115.301 56.2434Z" fill="#042D4D"/>
<path d="M150.243 47.6361C150.243 44.9245 150.243 42.213 150.243 39.5015C150.243 39.1034 150.343 39.0288 150.741 39.0288C155.392 39.0288 160.069 39.0288 164.721 39.0288C165.144 39.0288 165.244 39.1532 165.219 39.5512C165.194 40.2478 165.194 40.9194 165.219 41.616C165.219 41.9891 165.119 42.0637 164.746 42.0637C161.114 42.0637 157.482 42.0637 153.85 42.0637C153.402 42.0637 153.253 42.1633 153.253 42.6359C153.253 46.0191 153.253 49.3774 153.253 52.7607C153.253 53.1587 153.353 53.2831 153.775 53.2582C157.407 53.2582 161.039 53.2582 164.671 53.2582C165.094 53.2582 165.244 53.3328 165.219 53.7806C165.169 54.4771 165.219 55.1737 165.219 55.8951C165.219 56.1687 165.169 56.2931 164.846 56.2931C160.094 56.2931 155.343 56.2931 150.591 56.2931C150.218 56.2931 150.243 56.0941 150.243 55.8453C150.243 53.1089 150.243 50.3974 150.243 47.661V47.6361Z" fill="#042D4D"/>
<path d="M46.22 39.0537C48.8071 39.0537 51.4192 39.0537 54.0063 39.0537C54.4044 39.0537 54.5287 39.1532 54.5287 39.5761C54.5039 40.2478 54.5039 40.9443 54.5287 41.6409C54.5287 42.014 54.4292 42.0886 54.0561 42.0886C52.0909 42.0886 50.1256 42.0886 48.1604 42.0886C47.7623 42.0886 47.6877 42.1882 47.6877 42.5862C47.6877 46.9893 47.6877 51.3925 47.6877 55.7956C47.6877 56.2434 47.5633 56.3429 47.1404 56.318C46.4936 56.2931 45.822 56.2931 45.1752 56.318C44.7772 56.318 44.6528 56.2434 44.6528 55.8205C44.6528 51.492 44.6528 47.1386 44.6528 42.8101C44.6528 42.3457 44.4206 42.1135 43.9562 42.1135C42.0656 42.1135 40.175 42.1135 38.2844 42.1135C37.9112 42.1135 37.8117 42.014 37.8366 41.6657C37.8615 40.9692 37.8615 40.2975 37.8366 39.601C37.8366 39.203 37.9361 39.0786 38.3341 39.0786C40.9462 39.0786 43.5582 39.0786 46.1702 39.0786L46.22 39.0537Z" fill="#042D4D"/>
<path d="M141.271 39.0537C139.778 40.3224 138.41 41.4916 137.042 42.6608C135.126 44.2778 133.236 45.9196 131.32 47.5366C131.022 47.7853 131.046 47.8849 131.32 48.1336C134.405 50.6461 137.465 53.1587 140.524 55.6712C140.723 55.8453 140.922 56.0195 141.246 56.2682C140.077 56.2682 139.032 56.2185 137.987 56.2682C137.141 56.318 136.519 56.0692 135.872 55.4971C133.385 53.3577 130.847 51.2929 128.31 49.2033C127.016 48.1087 127.016 47.4122 128.31 46.2928C131.022 43.9792 133.708 41.6906 136.42 39.3522C136.693 39.1034 136.992 39.0288 137.34 39.0288C138.584 39.0288 139.853 39.0288 141.271 39.0288V39.0537Z" fill="#052D4E"/>
<path d="M147.113 47.7107C147.113 50.3725 147.113 53.0592 147.113 55.721C147.113 56.1439 147.038 56.2931 146.59 56.2682C145.894 56.2185 145.172 56.2682 144.476 56.2682C144.177 56.2682 144.053 56.2185 144.053 55.8702C144.053 50.3974 144.053 44.8997 144.053 39.4268C144.053 39.1034 144.177 39.0288 144.476 39.0288C145.197 39.0288 145.918 39.0537 146.64 39.0288C147.038 39.0288 147.113 39.1532 147.113 39.5263C147.113 42.2379 147.113 44.9743 147.113 47.6858V47.7107Z" fill="#083050"/>
<path d="M123.784 47.6363C123.784 44.9247 123.784 42.2132 123.784 39.5265C123.784 39.1285 123.884 39.029 124.282 39.0539C124.978 39.0787 125.7 39.0539 126.396 39.0539C126.695 39.0539 126.819 39.1036 126.819 39.427C126.819 44.8998 126.819 50.3976 126.819 55.8704C126.819 56.1938 126.72 56.2684 126.396 56.2684C125.675 56.2684 124.953 56.2435 124.232 56.2684C123.859 56.2684 123.784 56.144 123.784 55.7958C123.784 53.0842 123.784 50.3478 123.784 47.6363Z" fill="#042D4D"/>
<path d="M140.343 47.8104C140.343 49.104 140.343 50.4225 140.343 51.716C140.343 51.9648 140.343 52.2136 140.07 52.3131C139.821 52.4126 139.647 52.3131 139.472 52.1389C137.806 50.7707 136.139 49.4025 134.447 48.0343C134.199 47.8353 134.273 47.7358 134.447 47.5865C136.114 46.2183 137.806 44.8501 139.472 43.4819C139.647 43.3327 139.846 43.2083 140.07 43.3327C140.318 43.457 140.318 43.6809 140.318 43.9048C140.318 45.1984 140.318 46.5168 140.318 47.8104H140.343Z" fill="#037DFE"/>
<path d="M159.452 46.0439C160.945 46.0439 162.438 46.0439 163.93 46.0439C164.278 46.0439 164.403 46.0937 164.403 46.4917C164.378 47.238 164.403 48.0092 164.403 48.7555C164.403 49.0043 164.328 49.0789 164.079 49.0789C160.995 49.0789 157.935 49.0789 154.85 49.0789C154.577 49.0789 154.502 48.9794 154.502 48.7306C154.502 47.9843 154.502 47.2131 154.502 46.4668C154.502 46.1435 154.601 46.0688 154.9 46.0688C156.417 46.0688 157.935 46.0688 159.428 46.0688L159.452 46.0439Z" fill="#052D4E"/>
<path d="M193.284 36.367C193.284 38.0089 191.941 39.3273 190.299 39.3273C188.657 39.3273 187.314 37.984 187.314 36.3421C187.314 34.7003 188.657 33.3818 190.324 33.3818C191.966 33.3818 193.309 34.7252 193.284 36.367ZM192.787 36.4168C192.812 35.0486 191.742 33.9042 190.374 33.8794C189.03 33.8296 187.861 34.9491 187.836 36.3173C187.836 37.6855 188.906 38.8298 190.299 38.8298C191.642 38.8298 192.787 37.7601 192.812 36.4168H192.787Z" fill="#333030"/>
<path d="M192.787 36.4169C192.762 37.7603 191.618 38.8548 190.274 38.83C188.906 38.83 187.787 37.6856 187.811 36.3174C187.811 34.9492 189.006 33.8298 190.349 33.8795C191.742 33.9293 192.812 35.0487 192.762 36.4169H192.787ZM189.354 36.2428C189.354 36.6159 189.354 36.9891 189.354 37.3622C189.354 37.5861 189.428 37.6608 189.652 37.6608C190.175 37.6856 189.976 37.3125 190.001 37.0637C190.001 36.9393 189.926 36.7652 190.125 36.7155C190.299 36.6657 190.399 36.7652 190.498 36.9145C190.598 37.1135 190.722 37.3125 190.821 37.4866C190.996 37.7354 191.294 37.6856 191.468 37.611C191.692 37.4866 191.443 37.3125 191.369 37.1881C191.195 36.8647 190.971 36.6408 191.369 36.2428C191.742 35.8696 191.518 35.1731 191.021 34.9492C190.523 34.7253 189.976 34.7253 189.503 34.8746C189.18 34.9741 189.428 35.5214 189.379 35.8448C189.379 35.9692 189.379 36.0935 189.379 36.193L189.354 36.2428Z" fill="#FDFDFD"/>
<path d="M189.352 36.2428C189.352 36.2428 189.352 35.994 189.352 35.8945C189.402 35.5463 189.153 35.0238 189.476 34.9243C189.924 34.7751 190.496 34.7751 190.994 34.999C191.491 35.2229 191.715 35.9194 191.342 36.2925C190.944 36.6906 191.168 36.9145 191.342 37.2379C191.417 37.3622 191.666 37.5364 191.442 37.6608C191.267 37.7603 190.969 37.81 190.795 37.5364C190.67 37.3622 190.571 37.1632 190.471 36.9642C190.397 36.815 190.297 36.6906 190.098 36.7652C189.899 36.815 189.999 36.9891 189.974 37.1135C189.924 37.3622 190.148 37.7354 189.626 37.7105C189.402 37.7105 189.327 37.611 189.327 37.412C189.327 37.0388 189.327 36.6657 189.327 36.2925L189.352 36.2428ZM190.297 36.1433C190.571 36.1433 190.82 36.1184 190.82 35.8199C190.82 35.4716 190.546 35.4965 190.297 35.4716C190.049 35.4716 189.974 35.5711 189.974 35.795C189.974 36.0438 190.024 36.193 190.272 36.1433H190.297Z" fill="#333030"/>
<path d="M190.298 36.1431C190.049 36.1929 189.999 36.0436 189.999 35.7949C189.999 35.5461 190.049 35.4466 190.322 35.4715C190.571 35.4715 190.845 35.4715 190.845 35.8198C190.845 36.1183 190.596 36.1431 190.322 36.1431H190.298Z" fill="#FDFDFD"/>
<defs>
<filter id="filter0_d_202_6211" x="0.692383" y="0.321777" width="228.277" height="103.322" filterUnits="userSpaceOnUse" color-interpolation-filters="sRGB">
<feFlood flood-opacity="0" result="BackgroundImageFix"/>
<feColorMatrix in="SourceAlpha" type="matrix" values="0 0 0 0 0 0 0 0 0 0 0 0 0 0 0 0 0 0 127 0" result="hardAlpha"/>
<feOffset dy="7"/>
<feGaussianBlur stdDeviation="10"/>
<feComposite in2="hardAlpha" operator="out"/>
<feColorMatrix type="matrix" values="0 0 0 0 0.419608 0 0 0 0 0.145098 0 0 0 0 0.423529 0 0 0 0.08 0"/>
<feBlend mode="normal" in2="BackgroundImageFix" result="effect1_dropShadow_202_6211"/>
<feBlend mode="normal" in="SourceGraphic" in2="effect1_dropShadow_202_6211" result="shape"/>
</filter>
</defs>
</svg>
