<svg width="48" height="49" viewBox="0 0 48 49" fill="none" xmlns="http://www.w3.org/2000/svg">
<rect y="0.90918" width="48" height="48" rx="10" fill="white" fill-opacity="0.2"/>
<path fill-rule="evenodd" clip-rule="evenodd" d="M18.7692 35.5764C28.4306 35.5764 34.0199 28.075 34.0199 20.9564C34.0199 20.7604 35.3932 19.5817 35.9812 17.1244C36.1012 16.6257 35.6159 16.2324 35.1586 16.4417C33.9852 16.9804 32.7946 16.5537 32.2772 15.9404C30.2879 13.771 26.9612 13.667 24.8452 15.707C23.4812 17.023 22.9026 18.983 23.3252 20.8537C18.8572 21.1724 15.7892 19.055 13.2666 16.1524C12.9412 15.775 12.3372 15.9737 12.2692 16.4724C11.8959 19.2484 11.7786 25.9977 18.4666 29.8737C17.3052 31.543 15.0319 32.5284 12.5012 32.951C11.9412 33.0457 11.8079 33.8217 12.3199 34.0724C14.3252 35.059 16.5292 35.575 18.7692 35.5724" fill="#03133D"/>
<mask id="mask0_202_2513" style="mask-type:luminance" maskUnits="userSpaceOnUse" x="12" y="14" width="24" height="22">
<path fill-rule="evenodd" clip-rule="evenodd" d="M18.7692 35.5764C28.4306 35.5764 34.0199 28.075 34.0199 20.9564C34.0199 20.7604 35.3932 19.5817 35.9812 17.1244C36.1012 16.6257 35.6159 16.2324 35.1586 16.4417C33.9852 16.9804 32.7946 16.5537 32.2772 15.9404C30.2879 13.771 26.9612 13.667 24.8452 15.707C23.4812 17.023 22.9026 18.983 23.3252 20.8537C18.8572 21.1724 15.7892 19.055 13.2666 16.1524C12.9412 15.775 12.3372 15.9737 12.2692 16.4724C11.8959 19.2484 11.7786 25.9977 18.4666 29.8737C17.3052 31.543 15.0319 32.5284 12.5012 32.951C11.9412 33.0457 11.8079 33.8217 12.3199 34.0724C14.3252 35.059 16.5292 35.575 18.7692 35.5724" fill="white"/>
</mask>
<g mask="url(#mask0_202_2513)">
<rect x="8" y="8.90918" width="32" height="32" fill="white"/>
</g>
</svg>
