<svg width="229" height="104" viewBox="0 0 229 104" fill="none" xmlns="http://www.w3.org/2000/svg">
<g filter="url(#filter0_d_202_6297)">
<rect x="20.5537" y="13" width="188.277" height="63.3218" rx="10" fill="white"/>
</g>
<path d="M106.413 46.3995V36.812H110.431V46.5405C110.431 48.1619 111.277 49.2193 113.251 49.2193C115.084 49.2193 116.001 48.0914 116.001 46.47V36.812H120.019V46.3995C120.019 50.1358 117.763 52.3917 113.251 52.3917C108.669 52.4622 106.413 50.2063 106.413 46.3995ZM121.852 40.4778H125.447V42.0992H125.518C126.364 40.8303 127.491 40.1958 129.113 40.1958C131.651 40.1958 133.131 42.0287 133.131 44.6371V52.1802H129.395V45.342C129.395 44.1436 128.76 43.2976 127.562 43.2976C126.364 43.2976 125.518 44.3551 125.518 45.765V52.1802H121.781V40.4778H121.852ZM135.035 35.8955H138.771V38.9269H135.035V35.8955ZM135.035 40.4778H138.771V52.1097H135.035V40.4778ZM141.661 49.0783V43.5091H140.11V40.4778H141.661V36.812H145.257V40.4778H147.371V43.5091H145.257V48.3029C145.257 49.2193 145.75 49.4308 146.526 49.4308H147.371V52.1097C147.019 52.1802 146.314 52.3212 145.327 52.3212C143.212 52.3212 141.661 51.6162 141.661 49.0783ZM149.698 53.0966H150.967C152.024 53.0966 152.518 52.6736 152.518 51.8982C152.518 51.4047 152.306 50.6997 151.813 49.5013L148.358 40.5483H152.236L153.787 45.483C154.139 46.611 154.492 48.1619 154.492 48.1619H154.562C154.562 48.1619 154.915 46.611 155.267 45.483L156.818 40.5483H160.554L156.536 52.3212C155.62 55.0705 154.492 55.987 152.165 55.987H149.768L149.698 53.0966Z" fill="black"/>
<path d="M98.5147 51.6868V35.8956L84.8384 28V34.0627L90.1961 37.1645C90.4076 37.3055 90.4076 37.5875 90.1961 37.658L83.8514 41.3238C83.6399 41.4648 83.4284 41.3943 83.2875 41.3238L76.9428 37.658C76.7313 37.5875 76.7313 37.235 76.9428 37.1645L82.3005 34.0627V28L68.5537 35.8956V51.6868L73.7704 48.6554V42.4518C73.7704 42.2403 74.0524 42.0993 74.1934 42.1698L80.5381 45.8356C80.7496 45.9766 80.8201 46.1176 80.8201 46.3291V53.6607C80.8201 53.8722 80.5381 54.0132 80.3971 53.9427L75.0394 50.8408L69.8226 53.8722L83.4989 61.8383L97.1752 53.9427L91.9585 50.9113L86.6008 54.0132C86.3893 54.1542 86.1778 54.0132 86.1778 53.7312V46.3996C86.1778 46.1881 86.3188 45.9766 86.4598 45.9061L92.8045 42.2403C93.016 42.0993 93.2274 42.2403 93.2274 42.5223V48.7259L98.5147 51.6868Z" fill="#4C4C4C"/>
<path d="M83.5 61.8382L97.1763 53.9426L91.9596 50.9112L86.6018 54.0131C86.3904 54.1541 86.1789 54.0131 86.1789 53.7311V46.3995C86.1789 46.188 86.3199 45.9765 86.4608 45.906L92.8055 42.2402C93.017 42.0992 93.2285 42.2402 93.2285 42.5222V48.7258L98.4452 51.7572V35.8955L83.5 44.5666V61.8382Z" fill="black"/>
<path d="M84.8384 28V34.0627L90.1961 37.1645C90.4076 37.3055 90.4076 37.5875 90.1961 37.658L83.8514 41.3238C83.6399 41.4648 83.4284 41.3943 83.2875 41.3238L76.9428 37.658C76.7313 37.5875 76.7313 37.235 76.9428 37.1645L82.3005 34.0627V28L68.5537 35.8956L83.4989 44.5666L98.4442 35.8956L84.8384 28Z" fill="#808080"/>
<path d="M80.4676 54.0131L75.1099 50.9112L69.8931 53.9426L83.5694 61.8382V44.5666L68.5537 35.8955V51.6867L73.7704 48.6554V42.4517C73.7704 42.2402 74.0524 42.0992 74.1934 42.1697L80.5381 45.8355C80.7496 45.9765 80.8201 46.1175 80.8201 46.329V53.6606C80.8906 53.9426 80.6791 54.1541 80.4676 54.0131Z" fill="#4C4C4C"/>
<defs>
<filter id="filter0_d_202_6297" x="0.553711" y="0" width="228.277" height="103.322" filterUnits="userSpaceOnUse" color-interpolation-filters="sRGB">
<feFlood flood-opacity="0" result="BackgroundImageFix"/>
<feColorMatrix in="SourceAlpha" type="matrix" values="0 0 0 0 0 0 0 0 0 0 0 0 0 0 0 0 0 0 127 0" result="hardAlpha"/>
<feOffset dy="7"/>
<feGaussianBlur stdDeviation="10"/>
<feComposite in2="hardAlpha" operator="out"/>
<feColorMatrix type="matrix" values="0 0 0 0 0.419608 0 0 0 0 0.145098 0 0 0 0 0.423529 0 0 0 0.08 0"/>
<feBlend mode="normal" in2="BackgroundImageFix" result="effect1_dropShadow_202_6297"/>
<feBlend mode="normal" in="SourceGraphic" in2="effect1_dropShadow_202_6297" result="shape"/>
</filter>
</defs>
</svg>
