<svg width="229" height="104" viewBox="0 0 229 104" fill="none" xmlns="http://www.w3.org/2000/svg">
<g filter="url(#filter0_d_202_6313)">
<rect x="20.1074" y="13" width="188.277" height="63.3218" rx="10" fill="white"/>
</g>
<path d="M110.969 39L105.447 53.966H108.208L113.729 39H110.969ZM140.418 52.0612C137.672 52.0612 137.074 51.8798 137.074 51.517C137.074 51.2298 137.32 51.1542 138.378 51.1542C138.378 51.1542 139.314 51.1542 139.989 51.1542C142.627 51.1542 144.191 49.325 144.191 46.8458V46.8307C144.207 46.1202 144.023 45.4248 143.67 44.805H145.219V42.8398H139.666C137.212 42.8549 135.203 44.2457 135.203 46.8156V46.8307C135.203 47.9342 135.571 50.232 137.504 50.232C136.553 50.232 135.172 50.3681 134.988 51.517C134.774 52.8171 135.725 53.4974 137.611 53.9358H135.832C135.832 53.9358 134.789 54.3137 134.789 55.7347C134.789 58.2593 137.136 59 140.004 59C142.458 59 145.311 58.229 145.311 55.3719C145.326 53.0136 143.516 52.0612 140.418 52.0612ZM137.688 46.3772C137.688 45.4399 138.455 44.6689 139.406 44.6689H140.019C141.17 44.6689 141.752 45.4248 141.752 46.3772V47.1935C141.752 48.6296 140.986 49.1587 140.019 49.1587H139.406C138.455 49.1587 137.672 48.4785 137.672 47.1935L137.688 46.3772ZM139.912 56.9592C138.869 56.9592 137.136 56.7324 137.136 55.4626C137.12 54.8428 137.534 54.2986 138.133 54.1323H140.219C141.323 54.1323 142.841 54.1323 142.841 55.4626C142.826 56.9592 140.97 56.9592 139.912 56.9592ZM149.253 39H146.615V50.7611C146.615 53.1043 147.658 53.9509 149.744 53.9509H151.185V51.6228H149.253V39ZM154.284 49.1134H161.447V47.9645C161.447 47.2691 161.355 46.5737 161.155 45.9085C160.971 45.2887 160.665 44.7143 160.266 44.2154C159.852 43.7166 159.33 43.3235 158.747 43.0665C158.072 42.7793 157.351 42.6281 156.615 42.6432C155.204 42.613 153.87 43.2177 152.98 44.291C152.535 44.8352 152.213 45.4701 152.029 46.1353C151.814 46.8912 151.707 47.6621 151.707 48.4331C151.707 49.2041 151.799 49.9902 151.998 50.7309C152.182 51.3961 152.489 52.0159 152.919 52.5601C153.333 53.0741 153.87 53.4974 154.468 53.7846C155.143 54.0869 155.879 54.2381 156.615 54.223C157.198 54.223 157.781 54.1323 158.333 53.966C158.87 53.7997 159.361 53.5427 159.821 53.2101C160.25 52.8776 160.619 52.4694 160.895 52.0008C161.186 51.5019 161.339 50.9426 161.37 50.3681H158.916C158.855 50.9879 158.625 51.4263 158.21 51.6984C157.842 51.9403 157.413 52.0915 156.968 52.1368C156.569 52.1519 156.155 52.1217 155.772 52.0159C155.496 51.9252 155.235 51.7891 155.02 51.6077C154.805 51.4263 154.621 51.2147 154.499 50.9577C154.36 50.6856 154.299 50.3681 154.314 50.0658L154.284 49.1134ZM154.299 46.5586C154.299 45.4853 155.173 44.6236 156.262 44.6236H156.953C158.256 44.6236 158.916 45.4853 158.916 46.5586V47.1784H154.314L154.299 46.5586ZM116.95 54.223C118.791 54.223 120.187 52.938 120.187 51.003V53.9509H122.595V43.1119H119.957V50.353C119.957 51.2902 119.19 52.0461 118.239 52.0461H117.595C116.644 52.0461 115.877 51.2902 115.877 50.353V43.1119H113.223V50.3379C113.223 52.6054 114.604 54.223 116.95 54.223ZM129.942 42.8549C128.101 42.8549 126.706 44.1398 126.706 46.0748V43.127H124.298V53.966H126.936V46.7249C126.936 45.7876 127.703 45.0317 128.654 45.0317H129.298C130.249 45.0317 131.016 45.7876 131.016 46.7249V53.966H133.654V46.74C133.669 44.4724 132.289 42.8549 129.942 42.8549Z" fill="#14CDC8"/>
<path opacity="0.45" d="M102.447 39L108.447 54H105.447L99.4468 39H102.447Z" fill="#14CDC8"/>
<path d="M70.7749 28.0082C71.0381 27.9957 71.3012 27.9957 71.5644 28.0208C71.577 28.0458 71.6146 28.096 71.6396 28.121C71.6522 29.2364 71.6396 30.3518 71.6396 31.4547C71.6396 31.5424 71.7524 31.5926 71.8276 31.58C72.9179 31.58 74.0208 31.58 75.1112 31.58L75.2114 31.6803C75.1989 31.9435 75.249 32.2192 75.1863 32.4824L75.0986 32.5325C74.0083 32.5325 72.9305 32.5325 71.8401 32.5325C71.7399 32.5074 71.6146 32.5826 71.6396 32.6954V35.9038C71.6647 36.004 71.602 36.1294 71.4892 36.1043C71.2636 36.1043 71.0381 36.1043 70.825 36.1043C70.7122 36.1168 70.6621 35.9915 70.6871 35.9038C70.6871 34.8134 70.6871 33.7106 70.6871 32.6202C70.637 32.5074 70.5117 32.5325 70.4114 32.5325C69.3462 32.5325 68.2934 32.5325 67.2282 32.5325C67.0402 32.4573 67.153 32.2067 67.1154 32.0437C67.1404 31.8933 67.0402 31.6678 67.2031 31.58C68.306 31.5675 69.4214 31.58 70.5242 31.58C70.612 31.58 70.6746 31.5174 70.6871 31.4422C70.6871 31.4296 70.6871 31.4171 70.6871 31.4046C70.6871 30.3644 70.6871 29.3116 70.6871 28.2714C70.6746 28.1837 70.6621 28.0458 70.7749 28.0082ZM82.2297 62.0342C85.814 52.2087 89.3983 42.3957 92.9826 32.5701H98.9356C95.3388 42.3831 91.7419 52.2087 88.1576 62.0342C86.1774 62.0342 84.1973 62.0342 82.2297 62.0342ZM76.778 35.9163C79.0088 35.5529 81.1017 37.0693 81.4526 39.3001C81.8036 41.5309 80.2996 43.6238 78.0688 43.9748C75.838 44.3382 73.7451 42.8218 73.3942 40.591C73.2313 39.6134 73.4443 38.5983 73.9707 37.7586C74.6098 36.781 75.625 36.1043 76.778 35.9163ZM80.5503 45.1403C80.6882 44.9774 80.8385 44.827 81.0015 44.7016L81.1268 44.7142C81.6156 45.1779 82.0667 45.6667 82.5555 46.1429C82.6432 46.2181 82.7435 46.1429 82.7936 46.0802C83.2448 45.6291 83.696 45.1779 84.1472 44.7267C84.2975 44.639 84.3978 44.827 84.4981 44.9147C84.5858 45.015 84.7863 45.1152 84.6986 45.2781C84.2349 45.7795 83.7085 46.2432 83.2448 46.757C83.2573 46.7821 83.2699 46.8447 83.2699 46.8698C83.7336 47.346 84.2223 47.8223 84.6861 48.2985C84.7863 48.4489 84.5858 48.5617 84.4981 48.6619C84.3978 48.7497 84.2975 48.9502 84.1346 48.8499C83.6584 48.3737 83.1821 47.8975 82.7059 47.4212L82.5931 47.3962C82.1419 47.7972 81.7409 48.2484 81.3148 48.6619C81.2145 48.7371 81.1393 48.9001 80.9889 48.8625C80.8385 48.7371 80.7007 48.6118 80.5754 48.4614C80.5002 48.3737 80.5754 48.2734 80.638 48.2108C81.0892 47.7596 81.5404 47.3084 81.9915 46.8573C82.0667 46.7695 81.979 46.6693 81.9164 46.6066C81.4652 46.1554 81.014 45.7168 80.5628 45.2531C80.5628 45.228 80.5503 45.1654 80.5378 45.1278M76.8782 50.028C77.8683 50.0155 78.8459 50.028 79.8359 50.028C79.9362 50.0155 79.9863 50.1283 79.9738 50.216C79.9738 51.1434 79.9738 52.0708 79.9738 52.9857C79.9863 53.0734 79.9487 53.1987 79.8359 53.2113C78.8835 53.2113 77.9435 53.2113 76.991 53.2113C76.8908 53.2363 76.7655 53.1737 76.778 53.0484C76.778 52.1084 76.778 51.1559 76.778 50.216C76.7655 50.1283 76.8031 50.0531 76.8782 50.028ZM81.2271 54.9533C81.9164 54.8656 82.543 55.3544 82.6307 56.0311C82.6432 56.0938 82.6432 56.169 82.6432 56.2316C82.6307 56.9711 81.8537 57.5726 81.1393 57.3972C80.4626 57.2468 80.0365 56.5951 80.1869 55.9183C80.2996 55.4045 80.7132 55.0285 81.2271 54.9533Z" fill="#14CDC8"/>
<defs>
<filter id="filter0_d_202_6313" x="0.107422" y="0" width="228.277" height="103.322" filterUnits="userSpaceOnUse" color-interpolation-filters="sRGB">
<feFlood flood-opacity="0" result="BackgroundImageFix"/>
<feColorMatrix in="SourceAlpha" type="matrix" values="0 0 0 0 0 0 0 0 0 0 0 0 0 0 0 0 0 0 127 0" result="hardAlpha"/>
<feOffset dy="7"/>
<feGaussianBlur stdDeviation="10"/>
<feComposite in2="hardAlpha" operator="out"/>
<feColorMatrix type="matrix" values="0 0 0 0 0.419608 0 0 0 0 0.145098 0 0 0 0 0.423529 0 0 0 0.08 0"/>
<feBlend mode="normal" in2="BackgroundImageFix" result="effect1_dropShadow_202_6313"/>
<feBlend mode="normal" in="SourceGraphic" in2="effect1_dropShadow_202_6313" result="shape"/>
</filter>
</defs>
</svg>
