<svg width="48" height="49" viewBox="0 0 48 49" fill="none" xmlns="http://www.w3.org/2000/svg">
<rect y="0.90918" width="48" height="48" rx="10" fill="white" fill-opacity="0.2"/>
<path fill-rule="evenodd" clip-rule="evenodd" d="M27.4891 34.9784C28.8878 32.981 30.3424 30.0437 30.6331 26.2424H34.5731C34.0624 30.3117 31.2544 33.669 27.4891 34.9784ZM13.4253 26.2424H17.4146C17.6893 30.0583 19.1253 32.9837 20.5426 34.9904C16.76 33.6877 13.9386 30.3237 13.4253 26.2424ZM20.584 14.8143C19.1813 16.8116 17.7133 19.7583 17.42 23.5756H13.4253C13.94 19.4796 16.7813 16.105 20.584 14.8143ZM20.1053 23.5756C20.5133 19.213 22.7453 16.1756 24.0346 14.7716C25.368 16.1996 27.5653 19.209 27.9453 23.5756H20.1053ZM20.1066 26.2424H27.9493C27.5413 30.6117 25.3039 33.649 24.0159 35.053C22.6199 33.573 20.4786 30.605 20.1066 26.2424ZM34.573 23.5758H30.637C30.3637 19.7771 28.9437 16.8611 27.533 14.8571C31.277 16.1771 34.065 19.5224 34.573 23.5758ZM37.3332 24.909C37.3332 17.5704 31.3718 11.5997 24.0372 11.5784C24.0318 11.5784 24.0265 11.577 24.0198 11.577C24.0145 11.577 24.0065 11.5757 23.9998 11.5757C16.6478 11.5757 10.6665 17.5584 10.6665 24.909C10.6665 32.261 16.6478 38.2424 23.9998 38.2424C24.0078 38.2424 24.0145 38.241 24.0198 38.241C24.0225 38.241 24.0238 38.2424 24.0265 38.2424C24.0305 38.2424 24.0345 38.2397 24.0372 38.2397C31.3718 38.2197 37.3332 32.2477 37.3332 24.909Z" fill="#03133D"/>
<mask id="mask0_202_2509" style="mask-type:luminance" maskUnits="userSpaceOnUse" x="10" y="11" width="28" height="28">
<path fill-rule="evenodd" clip-rule="evenodd" d="M27.4891 34.9784C28.8878 32.981 30.3424 30.0437 30.6331 26.2424H34.5731C34.0624 30.3117 31.2544 33.669 27.4891 34.9784ZM13.4253 26.2424H17.4146C17.6893 30.0583 19.1253 32.9837 20.5426 34.9904C16.76 33.6877 13.9386 30.3237 13.4253 26.2424ZM20.584 14.8143C19.1813 16.8116 17.7133 19.7583 17.42 23.5756H13.4253C13.94 19.4796 16.7813 16.105 20.584 14.8143ZM20.1053 23.5756C20.5133 19.213 22.7453 16.1756 24.0346 14.7716C25.368 16.1996 27.5653 19.209 27.9453 23.5756H20.1053ZM20.1066 26.2424H27.9493C27.5413 30.6117 25.3039 33.649 24.0159 35.053C22.6199 33.573 20.4786 30.605 20.1066 26.2424ZM34.573 23.5758H30.637C30.3637 19.7771 28.9437 16.8611 27.533 14.8571C31.277 16.1771 34.065 19.5224 34.573 23.5758ZM37.3332 24.909C37.3332 17.5704 31.3718 11.5997 24.0372 11.5784C24.0318 11.5784 24.0265 11.577 24.0198 11.577C24.0145 11.577 24.0065 11.5757 23.9998 11.5757C16.6478 11.5757 10.6665 17.5584 10.6665 24.909C10.6665 32.261 16.6478 38.2424 23.9998 38.2424C24.0078 38.2424 24.0145 38.241 24.0198 38.241C24.0225 38.241 24.0238 38.2424 24.0265 38.2424C24.0305 38.2424 24.0345 38.2397 24.0372 38.2397C31.3718 38.2197 37.3332 32.2477 37.3332 24.909Z" fill="white"/>
</mask>
<g mask="url(#mask0_202_2509)">
<rect x="8" y="8.90918" width="32" height="32" fill="white"/>
</g>
</svg>
