<svg width="229" height="104" viewBox="0 0 229 104" fill="none" xmlns="http://www.w3.org/2000/svg">
<g filter="url(#filter0_d_202_6353)">
<rect x="20.6924" y="13.3218" width="188.277" height="63.3218" rx="10" fill="white"/>
</g>
<path d="M85.492 60.0692L80.1043 53.28L74.7417 60.1443C74.1879 60.8708 73.3067 61.3218 72.4003 61.3218H67.6924L77.1083 49.3218L68.1204 37.3218H72.9039C73.8354 37.3218 74.6914 37.7477 75.2453 38.4992L80.2805 45.4637L85.3157 38.4992C85.8696 37.7727 86.7508 37.3218 87.6571 37.3218H92.2896L83.2513 49.3218L92.6924 61.3218H87.783C86.9018 61.2967 86.0207 60.8458 85.492 60.0692Z" fill="black"/>
<path d="M108.236 54.5939C110.86 51.5364 110.86 47.0357 108.236 43.9782C106.911 42.6329 105.096 41.9236 103.208 41.9725C101.368 41.9236 99.5776 42.6574 98.3021 43.9782C95.6777 47.0357 95.6777 51.5364 98.3021 54.5939C99.5776 55.9392 101.368 56.673 103.208 56.6241C105.096 56.673 106.911 55.9392 108.236 54.5939ZM115.692 37.5697V61.0024H113.24C111.67 61.0024 110.37 59.7305 110.37 58.1406V57.9694C109.511 59.0456 108.383 59.9261 107.108 60.4643C105.71 61.0513 104.189 61.3448 102.668 61.3204C100.485 61.3448 98.3512 60.8312 96.438 59.7794C94.6475 58.801 93.2004 57.3334 92.2192 55.5723C90.1834 51.6098 90.1834 46.9134 92.2192 42.9509C93.2004 41.1898 94.672 39.7222 96.438 38.7683C98.3267 37.7654 100.461 37.2762 102.595 37.3251C104.042 37.3007 105.464 37.5697 106.789 38.1078C108.04 38.6215 109.168 39.4287 110.051 40.4315C110.051 38.8661 111.326 37.5697 112.921 37.5697H115.692Z" fill="black"/>
<path d="M140.89 39.9185C142.873 42.0241 143.889 44.8482 143.661 47.697V61.297H141.017C139.391 61.3465 138.018 60.0832 137.967 58.4977C137.967 58.4729 137.967 58.4482 137.967 58.4234V48.5145C138.094 46.8299 137.561 45.1454 136.468 43.8077C135.349 42.693 133.773 42.0736 132.172 42.148C130.317 42.0489 128.512 42.7177 127.19 43.9811C125.894 45.4675 125.233 47.3749 125.386 49.3072V58.4234C125.386 60.0088 124.064 61.3218 122.412 61.3218C122.387 61.3218 122.387 61.3218 122.361 61.3218H119.692V37.5898H122.158C123.785 37.5898 125.132 38.878 125.132 40.4882V40.6616C126.072 39.5716 127.292 38.7046 128.665 38.1844C130.215 37.6146 131.842 37.3174 133.494 37.3421C136.213 37.1687 138.882 38.1101 140.89 39.9185Z" fill="black"/>
<path d="M161.843 55.6306C162.9 55.0094 163.785 54.1148 164.35 53.0215C165.604 50.5614 165.604 47.6293 164.35 45.1693C163.76 44.0759 162.9 43.1813 161.843 42.5601C159.606 41.3425 156.926 41.3425 154.689 42.5601C153.632 43.1813 152.772 44.0759 152.182 45.1693C150.928 47.6293 150.928 50.5614 152.182 53.0215C152.772 54.1148 153.632 55.0342 154.689 55.6306C156.926 56.8482 159.606 56.8482 161.843 55.6306ZM170.692 28.3466V60.9979H168.259C166.686 60.9979 165.407 59.7058 165.407 58.1155C165.407 58.1155 165.407 58.1155 165.407 58.0906V57.9167C164.498 59.0349 163.342 59.9046 162.039 60.4761C160.638 61.0476 159.139 61.321 157.615 61.321C155.476 61.3458 153.362 60.7991 151.494 59.7555C149.699 58.7615 148.224 57.2706 147.241 55.4566C145.176 51.456 145.176 46.685 147.241 42.6844C148.224 40.8704 149.699 39.4043 151.494 38.4104C153.362 37.3916 155.476 36.8698 157.615 36.8946C159.065 36.8698 160.515 37.1431 161.867 37.6898C163.146 38.2116 164.252 39.0316 165.137 40.1001V28.3218L170.692 28.3466Z" fill="black"/>
<path d="M188.692 37.3218V42.6166C188.263 42.5177 187.808 42.4929 187.378 42.4929C185.458 42.3939 183.588 43.062 182.198 44.3733C180.884 45.8826 180.201 47.8372 180.353 49.8166V58.4269C180.353 60.0104 179.039 61.3218 177.396 61.3218H174.692V37.6187H180.1V41.0826C181.718 38.5589 184.573 37.3218 188.692 37.3218Z" fill="black"/>
<path d="M45.7668 38.3218C45.5684 38.4909 45.3949 38.7082 45.2461 38.9498L39.6924 48.3218H51.6924L45.7668 38.3218Z" fill="#FC5047"/>
<path d="M58.6924 37.4411C58.4162 37.3695 58.1401 37.3218 57.8639 37.3218H47.5208C47.2447 37.3218 46.9434 37.3456 46.6924 37.4411L52.7175 47.3218L58.6924 37.4411Z" fill="#FC5047"/>
<path d="M39.6924 50.3218L45.2461 58.7566C45.3949 58.974 45.5684 59.1479 45.7668 59.3218L51.6924 50.3218H39.6924Z" fill="#FC5047"/>
<path d="M60.1387 58.7593L65.6924 50.3218H53.6924L59.7172 59.3218C59.9155 59.1487 60.0643 58.954 60.213 58.7593" fill="#FC5047"/>
<path d="M46.6924 61.2024C46.9685 61.274 47.2447 61.2979 47.5208 61.3218H57.8639C58.1401 61.3218 58.4162 61.274 58.6924 61.2024L52.6673 51.3218L46.6924 61.2024Z" fill="#FC8D7E"/>
<path d="M65.6924 48.3218L60.1387 38.9498C60.0147 38.7083 59.8411 38.515 59.6428 38.3218L53.6924 48.3218H65.6924Z" fill="#FC5047"/>
<defs>
<filter id="filter0_d_202_6353" x="0.692383" y="0.321777" width="228.277" height="103.322" filterUnits="userSpaceOnUse" color-interpolation-filters="sRGB">
<feFlood flood-opacity="0" result="BackgroundImageFix"/>
<feColorMatrix in="SourceAlpha" type="matrix" values="0 0 0 0 0 0 0 0 0 0 0 0 0 0 0 0 0 0 127 0" result="hardAlpha"/>
<feOffset dy="7"/>
<feGaussianBlur stdDeviation="10"/>
<feComposite in2="hardAlpha" operator="out"/>
<feColorMatrix type="matrix" values="0 0 0 0 0.419608 0 0 0 0 0.145098 0 0 0 0 0.423529 0 0 0 0.08 0"/>
<feBlend mode="normal" in2="BackgroundImageFix" result="effect1_dropShadow_202_6353"/>
<feBlend mode="normal" in="SourceGraphic" in2="effect1_dropShadow_202_6353" result="shape"/>
</filter>
</defs>
</svg>
