<svg width="20" height="14" viewBox="0 0 20 14" fill="none" xmlns="http://www.w3.org/2000/svg">
<g clip-path="url(#clip0_1896_12369)">
<g clip-path="url(#clip1_1896_12369)">
<g clip-path="url(#clip2_1896_12369)">
<path d="M5.06065 13.8024C4.23534 13.8601 3.4063 13.7727 2.61113 13.5443C2.06604 13.4215 1.57873 13.1173 1.22883 12.6817C0.878928 12.246 0.687112 11.7046 0.684724 11.1458C0.357317 8.35463 0.360338 5.53455 0.693725 2.74405C0.70065 2.22829 0.866903 1.72729 1.1697 1.30972C1.4725 0.892143 1.89702 0.578423 2.38508 0.411555C3.12326 0.143436 3.91138 0.0409939 4.69358 0.111491C8.54339 -0.0575444 12.3952 -0.0305387 16.245 0.166503C17.9124 0.251521 18.7846 1.0857 19.0286 2.88008C19.2752 4.81857 19.3375 6.77607 19.2147 8.72632C19.226 9.67127 19.1303 10.6145 18.9296 11.5379C18.8392 12.177 18.5125 12.7589 18.014 13.1689C17.5156 13.5788 16.8815 13.787 16.237 13.7524C14.2266 13.8624 12.2158 13.9174 10.2047 13.9174C8.49038 13.9174 6.77568 13.8791 5.06065 13.8024ZM7.52718 4.50042V9.90157C7.52718 10.0246 7.55618 10.1516 7.54518 10.2757C7.6104 10.1677 7.70669 10.082 7.82145 10.0297C7.9362 9.97741 8.06407 9.96099 8.18832 9.98259V9.95858C8.28834 9.63251 8.59641 9.5585 8.84546 9.43347C10.2278 8.72432 11.617 8.02617 13.0003 7.31802C13.1784 7.227 13.3914 7.17799 13.5074 6.98795C13.5074 6.81892 13.3634 6.78791 13.2594 6.7389C11.555 5.90072 9.88168 4.98253 8.18832 4.10934C8.04101 4.0155 7.87698 3.95097 7.70522 3.9193C7.54918 3.9193 7.52818 4.09234 7.52718 4.50042Z" fill="white"/>
</g>
</g>
</g>
<defs>
<clipPath id="clip0_1896_12369">
<rect width="18.83" height="13.92" fill="white" transform="translate(0.441406 0.0498047)"/>
</clipPath>
<clipPath id="clip1_1896_12369">
<rect width="18.83" height="13.92" fill="white" transform="translate(0.441406 0.0498047)"/>
</clipPath>
<clipPath id="clip2_1896_12369">
<rect width="18.83" height="13.918" fill="white" transform="translate(0.441406 0.0507812)"/>
</clipPath>
</defs>
</svg>
